<?xml version="1.0" encoding="UTF-8" standalone="no"?>
<!-- Created with Inkscape (http://www.inkscape.org/) -->

<svg
   xmlns:dc="http://purl.org/dc/elements/1.1/"
   xmlns:cc="http://creativecommons.org/ns#"
   xmlns:rdf="http://www.w3.org/1999/02/22-rdf-syntax-ns#"
   xmlns:svg="http://www.w3.org/2000/svg"
   xmlns="http://www.w3.org/2000/svg"
   xmlns:sodipodi="http://sodipodi.sourceforge.net/DTD/sodipodi-0.dtd"
   xmlns:inkscape="http://www.inkscape.org/namespaces/inkscape"
   width="600mm"
   height="300mm"
   viewBox="0 0 2125.9843 1062.9921"
   id="svg4358"
   version="1.1"
   inkscape:version="0.91 r13725"
   sodipodi:docname="ECGmdf.svg">
  <defs
     id="defs4360" />
  <sodipodi:namedview
     id="base"
     pagecolor="#ffffff"
     bordercolor="#666666"
     borderopacity="1.0"
     inkscape:pageopacity="0.0"
     inkscape:pageshadow="2"
     inkscape:zoom="0.35"
     inkscape:cx="1126.5999"
     inkscape:cy="583.26922"
     inkscape:document-units="mm"
     inkscape:current-layer="layer1"
     showgrid="false"
     inkscape:window-width="1366"
     inkscape:window-height="714"
     inkscape:window-x="0"
     inkscape:window-y="0"
     inkscape:window-maximized="1" />
  <metadata
     id="metadata4363">
    <rdf:RDF>
      <cc:Work
         rdf:about="">
        <dc:format>image/svg+xml</dc:format>
        <dc:type
           rdf:resource="http://purl.org/dc/dcmitype/StillImage" />
        <dc:title></dc:title>
      </cc:Work>
    </rdf:RDF>
  </metadata>
  <g
     inkscape:label="Layer 1"
     inkscape:groupmode="layer"
     id="layer1"
     transform="translate(0,10.629923)">
    <path
       style="fill:#000000"
       d="m 490.21149,1041.8383 c -14.45662,-11.3847 -14.53563,-12.6237 -0.8322,-13.0497 l 10.26368,-0.319 0,-18.8214 0,-18.82132 -7.21231,0 -7.21232,0 0,-39.39034 0,-39.39033 7.21232,0 7.21231,0 0,-36.61638 0,-36.61637 -20.52736,0 -20.52735,0 0,11.68549 c 0,9.20739 -0.34267,11.81697 -1.61582,12.30554 -0.89007,0.34154 -7.24417,-2.74169 -14.14724,-6.86477 -6.89227,-4.11663 -12.9059,-7.68633 -13.36361,-7.93267 -0.4577,-0.24632 -0.83219,11.04775 -0.83219,25.09794 l 0,25.54581 10.80563,0.31757 c 14.62784,0.42992 14.61003,1.41936 -0.23221,12.89748 -6.44137,4.98138 -12.19804,9.05705 -12.7926,9.05705 -0.59456,0 -6.35123,-4.07567 -12.79259,-9.05705 -14.72622,-11.3884 -14.79179,-12.46308 -0.78716,-12.89894 l 10.25099,-0.31903 -0.009,-27.42065 -0.009,-27.42063 -16.15784,-9.77277 -16.15785,-9.77278 -28.49463,0.20548 -28.49366,0.20548 -0.28452,-82.25103 -0.2845,-82.25104 -151.45956,0 -151.459549,0 0.28543,-72.40055 0.28543,-72.40056 31.900631,-0.29442 31.900622,-0.29439 0,-11.07887 0,-11.07886 -8.321893,0 -8.32191,0 0,-39.39033 0,-39.39034 8.30285,0 8.302853,0 0.29645,-28.01708 0.29645,-28.01707 136.756596,-0.28176 136.7566,-0.28176 0,-26.05086 0,-26.05083 -26.35268,-0.29748 -26.3527,-0.29749 -0.28748,-56.86633 -0.28747,-56.86634 72.13324,0 72.13324,0 0,-8.3219 0,-8.32191 39.39033,0 39.39034,0 0,8.31338 0,8.31337 67.96221,0.28593 67.9622,0.28592 0.29045,55.47936 c 0.26791,51.17152 0.14375,55.58705 -1.59905,56.86634 -1.39404,1.02328 -9.25346,1.38698 -29.97192,1.38698 l -28.08239,0 0,26.06714 0,26.06714 71.29097,0.28555 71.29097,0.28555 0.29919,23.48549 0.2992,23.48548 -3.74219,1.23503 c -4.32398,1.42704 -7.86302,4.85452 -9.51508,9.21513 l -1.15604,3.05136 15.50675,0 15.50677,0 0,-8.3219 0,-8.3219 39.39034,0 39.39031,0 0,8.3219 0,8.3219 58.80818,0 58.80813,0 0,-8.3219 0,-8.3219 39.39032,0 39.3903,0 0,8.3219 0,8.3219 65.4657,0 65.4656,0 0,-10.54108 c 0,-10.50408 0.012,-10.54106 2.7739,-10.54106 l 2.774,0 0,23.85612 0,23.85611 -2.774,0 c -2.7641,0 -2.7739,-0.0369 -2.7739,-10.54106 l 0,-10.54109 -36.0616,0 -36.0615,0 0,28.29447 0,28.29447 10.541,0 c 10.5042,0 10.5411,0.0101 10.5411,2.77397 l 0,2.77396 -23.8562,0 -23.856,0 0,-2.77396 c 0,-2.76424 0.037,-2.77397 10.541,-2.77397 l 10.5411,0 0,-28.29447 0,-28.29447 -26.6301,0 -26.6301,0 0,7.21233 0,7.2123 -39.3903,0 -39.39032,0 0,-7.2123 0,-7.21233 -30.51366,0 -30.51366,0 0,28.29447 0,28.29447 10.54112,0 c 10.50409,0 10.54102,0.0101 10.54102,2.77397 l 0,2.77396 -23.85608,0 -23.85621,0 0,-2.77396 c 0,-2.76424 0.0368,-2.77397 10.54115,-2.77397 l 10.54111,0 0,-28.29447 0,-28.29447 -25.52058,0 -25.52052,0 0,7.21233 0,7.2123 -39.39031,0 -39.39034,0 0,-7.2123 0,-7.21233 -15.50677,0 -15.50675,0 1.15604,3.05136 c 1.64959,4.3541 5.18945,7.78755 9.49329,9.20795 l 3.72039,1.22783 0,197.97524 0,197.97524 31.62322,0 31.62323,0 0,-33.84241 0,-33.8424 179.19843,0 179.1982,0 0,-28.09184 0,-28.09182 -5.8914,-1.85712 c -7.0834,-2.23281 -14.383,-8.2066 -17.6926,-14.479 -3.3723,-6.39106 -3.3926,-18.29876 -0.042,-24.64477 3.4631,-6.55942 10.2707,-12.20864 17.432,-14.46604 l 6.1942,-1.95255 0,-11.40785 0,-11.40786 -10.8057,-0.31757 c -14.6278,-0.42991 -14.61,-1.41935 0.2323,-12.89747 6.4414,-4.98138 12.1981,-9.05706 12.7926,-9.05706 0.5945,0 6.3513,4.07568 12.7925,9.05706 14.7263,11.3884 14.792,12.46308 0.7873,12.89893 l -10.2511,0.31903 0,11.40638 0,11.40641 6.1943,1.95255 c 7.1614,2.2574 13.9688,7.90662 17.4319,14.46604 3.3295,6.30612 3.3295,18.25617 0,24.56229 -3.4631,6.55941 -10.2705,12.20863 -17.4319,14.46604 l -6.1943,1.95256 0,28.09182 0,28.09184 26.6302,0 26.6301,0 0,-8.3219 0,-8.3219 39.3903,0 39.3903,0 0,8.3219 0,8.3219 31.6232,0 31.6233,0 0,-71.01357 0,-71.01356 -8.322,0 -8.3218,0 0,-39.39035 0,-39.39034 8.3218,0 8.322,0 0,-60.47249 0,-60.4725 -13.8699,0 -13.8698,0 0,10.54109 c 0,10.50408 -0.012,10.54106 -2.774,10.54106 l -2.7739,0 0,-23.85611 0,-23.85612 2.7739,0 c 2.7642,0 2.774,0.0369 2.774,10.54106 l 0,10.54108 231.349,0 231.3489,0 0,-11.68547 c 0,-9.2074 0.3425,-11.81699 1.6157,-12.30555 0.8901,-0.34155 7.2442,2.74167 14.1472,6.86477 6.8923,4.11663 12.906,7.68632 13.3637,7.93266 0.4576,0.24633 0.8322,-10.54843 0.8322,-23.98835 l 0,-24.43623 -10.8056,-0.31757 c -14.6279,-0.4299 -14.6101,-1.41935 0.2322,-12.89747 6.4413,-4.98138 12.198,-9.05705 12.7926,-9.05705 0.5945,0 6.3513,4.07567 12.7926,9.05705 14.7261,11.3884 14.7918,12.46308 0.7871,12.89893 l -10.2509,0.31904 0.012,26.31105 0.012,26.31105 15.1494,9.1541 15.1493,9.15409 72.5009,0 72.501,0 0,2.77398 0,2.77396 -31.0685,0 -31.0684,0 0,77.11629 0,77.1163 -47.9962,0 -47.9961,0 -2.587,5.63912 c -1.7517,3.81827 -4.168,6.7535 -7.4831,9.09029 l -4.9044,3.45118 0,130.71767 0,130.71768 -336.7595,0 -336.7598,0 0,-49.93141 0,-49.93143 -176.4242,0 -176.42447,0 0,33.84241 0,33.84241 -99.86283,0 -99.86284,0 0,7.21231 0,7.21232 -39.39033,0 -39.39034,0 0,-7.21232 0,-7.21231 -21.63695,0 -21.63695,0 0,36.61637 0,36.61638 8.3219,0 8.3219,0 0,39.39033 0,39.39034 -8.3219,0 -8.3219,0 0,18.82282 0,18.8228 10.80563,0.3176 c 8.82362,0.2593 10.86739,0.6407 11.14248,2.0791 0.35999,1.8821 -21.96178,19.9442 -24.45897,19.7914 -0.75497,-0.046 -6.36583,-4.0163 -12.46857,-8.8223 z m 19.88852,-2.774 6.57347,-4.9635 -13.70175,0 -13.70176,0 6.57349,4.9635 c 3.61541,2.7301 6.82313,4.9636 7.12827,4.9636 0.30513,0 3.51286,-2.2335 7.12828,-4.9636 z m 6.18677,-87.62776 0,-33.8424 -12.76025,0 -12.76026,0 0,33.8424 0,33.8424 12.76026,0 12.76025,0 0,-33.8424 z m -82.74828,-42.19388 6.57349,-4.96356 -13.70177,0 -13.70175,0 6.57349,4.96356 c 3.6154,2.72998 6.82313,4.96358 7.12826,4.96358 0.30514,0 3.51287,-2.2336 7.12828,-4.96358 z m 1414.2527,-174.08954 0,-130.29043 3.7203,-1.22784 c 4.304,-1.42039 7.8439,-4.85385 9.4933,-9.20794 l 1.1561,-3.05137 -51.5684,0 -51.5682,0 0,7.21232 0,7.21231 -39.3904,0 -39.3903,0 0,-7.21231 0,-7.21232 -19.4178,0 -19.4178,0 0,42.16432 0,42.16431 8.3219,0 8.322,0 0,39.39034 0,39.39033 -8.322,0 -8.3219,0 0,22.70636 0,22.70635 10.8057,0.31758 c 14.6279,0.4299 14.61,1.41934 -0.2324,12.89748 -6.4411,4.98137 -12.198,9.05704 -12.7924,9.05704 -0.5946,0 -6.3512,-4.07567 -12.7926,-9.05704 -14.7263,-11.38841 -14.7919,-12.46309 -0.7873,-12.89895 l 10.2511,-0.31903 0,-22.7049 0,-22.70489 -7.2123,0 -7.2123,0 0,-39.39033 0,-39.39034 7.2123,0 7.2123,0 0,-114.84227 0,-114.84226 89.8766,0 89.8765,0 0,-11.09587 0,-11.09587 -214.705,0 -214.7052,0 0,60.4725 0,60.47249 7.2123,0 7.2123,0 0,39.39034 0,39.39035 -7.2123,0 -7.2123,0 0,71.01356 0,71.01357 13.315,0 13.3151,0 0,-8.3219 0,-8.3219 39.3904,0 39.3904,0 0,8.3219 0,8.3219 23.3013,0 23.3013,0 0,16.60363 0,16.60363 10.8056,0.31757 c 14.6279,0.42991 14.61,1.41935 -0.2323,12.89748 -6.4412,4.98138 -12.198,9.05705 -12.7925,9.05705 -0.5946,0 -6.3512,-4.07567 -12.7926,-9.05705 -14.7262,-11.3884 -14.7919,-12.46308 -0.7873,-12.89895 l 10.2511,-0.31902 0,-13.82821 0,-13.8282 -20.5274,0 -20.5272,0 0,7.21232 0,7.21232 -39.3904,0 -39.3904,0 0,-7.21232 0,-7.21232 -47.7123,0 -47.7122,0 0,7.21232 0,7.21232 -39.3904,0 -39.3903,0 0,-7.21232 0,-7.21232 -26.6301,0 -26.63,0 0,47.15747 0,47.15744 331.2117,0 331.2117,0 0,-130.29043 z m -583.6428,69.81793 0,-9.43149 4.3592,0 c 6.6636,0 10.3965,5.37887 6.1683,8.88805 -0.9733,0.80778 -1.2975,1.91336 -0.7717,2.63245 0.4985,0.68186 1.4926,2.61286 2.209,4.29112 1.9394,4.54266 -0.9611,3.99903 -3.0881,-0.5788 -1.0256,-2.20738 -2.6224,-3.71823 -4.161,-3.93671 -2.1889,-0.3109 -2.4965,0.1334 -2.4965,3.60615 0,2.17839 -0.4993,3.96073 -1.1096,3.96073 -0.6526,0 -1.1096,-3.88356 -1.1096,-9.4315 z m 8.8767,-2.21918 c 1.8506,-2.22962 -0.3742,-4.99313 -4.0193,-4.99313 -2.1915,0 -2.6382,0.56352 -2.6382,3.32876 0,2.76523 0.4467,3.32877 2.6382,3.32877 1.4509,0 3.2596,-0.74898 4.0193,-1.6644 z m 7.7671,10.54109 c 0,-0.61027 1.398,-1.10959 3.1069,-1.10959 3.5541,0 5.7699,-1.77633 5.7699,-4.62544 0,-1.28981 -0.5714,-1.74321 -1.6668,-1.32281 -3.1036,1.19093 -7.1474,-0.62835 -7.8793,-3.54485 -1.3897,-5.53693 5.9381,-9.49058 10.0216,-5.40707 2.639,2.63891 2.3374,12.08725 -0.4755,14.90017 -2.2801,2.28001 -8.8768,3.1046 -8.8768,1.10959 z m 8.3219,-12.20546 c 0,-3.23012 -3.8133,-4.42296 -5.9416,-1.85858 -2.0723,2.49697 -0.3259,5.35938 3.0321,4.96997 2.2738,-0.26369 2.9095,-0.94351 2.9095,-3.11139 z m 141.4724,-0.5548 0,-9.43148 4.3591,0 c 6.6637,0 10.3967,5.37887 6.1684,8.88804 -0.9734,0.80778 -1.2975,1.91336 -0.7718,2.63244 0.4985,0.68188 1.4926,2.61288 2.209,4.29113 1.9395,4.54266 -0.961,3.99903 -3.088,-0.5788 -1.0255,-2.20738 -2.6225,-3.71823 -4.161,-3.93672 -2.1889,-0.31089 -2.4965,0.1334 -2.4965,3.60616 0,2.1784 -0.4993,3.96073 -1.1096,3.96073 -0.6527,0 -1.1096,-3.88356 -1.1096,-9.4315 z m 8.8767,-2.21918 c 1.8505,-2.22962 -0.3742,-4.99313 -4.0193,-4.99313 -2.1916,0 -2.6382,0.56352 -2.6382,3.32876 0,2.76524 0.4466,3.32876 2.6382,3.32876 1.4509,0 3.2595,-0.74898 4.0193,-1.66439 z m 8.8767,10.54109 c 0,-0.61027 0.9987,-1.10958 2.2192,-1.10958 1.974,0 2.2192,-0.73973 2.2192,-6.69657 0,-6.35273 -0.114,-6.63558 -2.2192,-5.5089 -2.7773,1.48628 -2.8968,-0.15239 -0.1901,-2.60199 3.8063,-3.44464 4.6285,-2.29268 4.6285,6.48554 0,6.65753 0.3328,8.32192 1.6643,8.32192 0.9154,0 1.6645,0.49931 1.6645,1.10958 0,0.61028 -2.2471,1.10959 -4.9932,1.10959 -2.7463,0 -4.9932,-0.49931 -4.9932,-1.10959 z m 15.0423,-1.35648 c -2.5155,-3.59137 -2.2431,-11.44276 0.4919,-14.17774 3.0978,-3.09789 7.3067,-2.84375 9.5478,0.57653 2.364,3.60785 1.557,12.50521 -1.3253,14.61281 -2.9963,2.19092 -6.7788,1.75184 -8.7144,-1.0116 z m 8.22,-1.89933 c 2.5776,-4.81645 0.5785,-12.27841 -3.2897,-12.27841 -2.5219,0 -4.4384,3.11427 -4.4384,7.21231 0,4.09805 1.9165,7.21233 4.4384,7.21233 1.1776,0 2.6579,-0.96582 3.2897,-2.14623 z m 196.4359,-87.17553 0,-9.4315 4.3591,0 c 6.6637,0 10.3967,5.37889 6.1684,8.88805 -0.9734,0.80778 -1.2975,1.91335 -0.7718,2.63244 0.4985,0.68188 1.4926,2.61288 2.2091,4.29114 1.9394,4.54265 -0.9611,3.99901 -3.0881,-0.57881 -1.0255,-2.20739 -2.6225,-3.71823 -4.161,-3.93672 -2.1889,-0.31088 -2.4965,0.13341 -2.4965,3.60615 0,2.1784 -0.4993,3.96073 -1.1096,3.96073 -0.6527,0 -1.1096,-3.88355 -1.1096,-9.43148 z m 8.8767,-2.21917 c 1.8505,-2.22964 -0.3742,-4.99315 -4.0193,-4.99315 -2.1916,0 -2.6382,0.56352 -2.6382,3.32876 0,2.76524 0.4466,3.32876 2.6382,3.32876 1.4509,0 3.2595,-0.74896 4.0193,-1.66437 z m 8.8768,10.54107 c 0,-0.61028 0.9986,-1.10959 2.2191,-1.10959 1.9741,0 2.2192,-0.73973 2.2192,-6.69656 0,-6.35273 -0.114,-6.63559 -2.2192,-5.5089 -2.7772,1.48628 -2.8968,-0.15238 -0.19,-2.602 3.8063,-3.44464 4.6284,-2.29267 4.6284,6.48556 0,6.65752 0.3328,8.3219 1.6643,8.3219 0.9154,0 1.6645,0.49931 1.6645,1.10959 0,0.61027 -2.2471,1.10958 -4.9932,1.10958 -2.7463,0 -4.9931,-0.49931 -4.9931,-1.10958 z m 14.4245,-0.14291 c 0,-0.68888 1.7778,-3.22029 3.9507,-5.62534 5.0757,-5.61835 4.9362,-9.28714 -0.3444,-9.04757 -4.3408,0.19693 -4.7823,-1.49055 -0.6605,-2.52502 7.0583,-1.7715 9.2194,5.10549 3.7452,11.91733 l -3.4668,4.31392 3.9359,0 c 2.1646,0 3.9358,0.49931 3.9358,1.10959 0,0.61027 -2.4965,1.10958 -5.5479,1.10958 -3.3809,0 -5.548,-0.48922 -5.548,-1.25249 z m -291.8214,-139.11027 0,-9.43149 4.3592,0 c 6.6636,0 10.3966,5.37888 6.1684,8.88805 -0.9735,0.80778 -1.2976,1.91335 -0.7718,2.63244 0.4985,0.68187 1.4925,2.61288 2.209,4.29112 1.9394,4.54267 -0.961,3.99904 -3.0881,-0.5788 -1.0255,-2.20737 -2.6225,-3.71823 -4.161,-3.93671 -2.1889,-0.31089 -2.4965,0.13341 -2.4965,3.60616 0,2.17839 -0.4993,3.96072 -1.1096,3.96072 -0.6527,0 -1.1096,-3.88355 -1.1096,-9.43149 z m 8.8767,-2.21918 c 1.8505,-2.22961 -0.3742,-4.99313 -4.0194,-4.99313 -2.1914,0 -2.6381,0.56352 -2.6381,3.32876 0,2.76522 0.4467,3.32876 2.6381,3.32876 1.4509,0 3.2597,-0.74898 4.0194,-1.66439 z m 8.8767,10.54108 c 0,-0.61027 0.9988,-1.10959 2.2192,-1.10959 1.9741,0 2.2192,-0.73971 2.2192,-6.69655 0,-6.35272 -0.114,-6.63559 -2.2192,-5.5089 -2.7772,1.48628 -2.8967,-0.15239 -0.19,-2.60199 3.8062,-3.44465 4.6284,-2.29267 4.6284,6.48554 0,6.65753 0.3329,8.3219 1.6644,8.3219 0.9153,0 1.6644,0.49932 1.6644,1.10959 0,0.61027 -2.247,1.10959 -4.9931,1.10959 -2.7463,0 -4.9933,-0.49932 -4.9933,-1.10959 z m 15.5343,0 c 0,-0.61027 0.9986,-1.10959 2.2192,-1.10959 1.9739,0 2.2192,-0.73971 2.2192,-6.69655 0,-6.35272 -0.114,-6.63559 -2.2192,-5.5089 -2.7772,1.48628 -2.8969,-0.15239 -0.1902,-2.60199 3.8064,-3.44465 4.6285,-2.29267 4.6285,6.48554 0,6.65753 0.333,8.3219 1.6644,8.3219 0.9154,0 1.6644,0.49932 1.6644,1.10959 0,0.61027 -2.2469,1.10959 -4.9932,1.10959 -2.7462,0 -4.9931,-0.49932 -4.9931,-1.10959 z m -988.89022,210.34121 -0.30665,-15.87739 -26.72613,16.22336 -26.72611,16.22338 10.61522,6.53111 c 5.83836,3.59211 12.37266,7.49693 14.52065,8.67737 2.14799,1.18044 9.39791,5.58515 16.11091,9.78826 l 12.20546,7.64199 0.30665,-16.66534 c 0.16868,-9.16594 0.16868,-23.81017 0,-32.54274 z m -9.73815,33.21315 c 0,-2.21917 -0.55478,-2.77397 -2.77396,-2.77397 -1.52568,0 -2.77397,-0.49931 -2.77397,-1.10958 0,-0.61028 1.24829,-1.10959 2.77397,-1.10959 2.21918,0 2.77396,-0.55479 2.77396,-2.77396 0,-1.52569 0.49932,-2.77398 1.10959,-2.77398 0.61027,0 1.10959,1.24829 1.10959,2.77398 0,2.03423 0.59178,2.77396 2.21917,2.77396 1.22055,0 2.21917,0.49931 2.21917,1.10959 0,0.61027 -0.99862,1.10958 -2.21917,1.10958 -1.62739,0 -2.21917,0.73974 -2.21917,2.77397 0,1.52569 -0.49932,2.77397 -1.10959,2.77397 -0.61027,0 -1.10959,-1.24828 -1.10959,-2.77397 z m -7.7671,-30.51364 c 0,-0.61027 2.49656,-1.10958 5.54793,-1.10958 3.05137,0 5.54793,0.49931 5.54793,1.10958 0,0.61028 -2.49656,1.10959 -5.54793,1.10959 -3.05137,0 -5.54793,-0.49931 -5.54793,-1.10959 z m 186.41062,26.0753 0,-12.76026 -33.84241,0 -33.8424,0 0,12.76026 0,12.76025 33.8424,0 33.84241,0 0,-12.76025 z m -73.23275,-9.98628 0,-8.32191 39.39034,0 39.39034,0 0,8.32191 0,8.32189 62.69167,0 62.69167,0 0,-41.60952 0,-41.6095 -122.52332,0 -122.52332,0 -1.22785,-3.72039 c -1.41883,-4.29913 -4.85315,-7.84345 -9.19321,-9.48769 l -3.03665,-1.15043 -0.29211,37.41549 -0.29211,37.41551 -17.476,0.30556 -17.47599,0.30558 0,11.06769 0,11.0677 44.93827,0 44.93827,0 0,-8.32189 z m -140.90091,-13.87885 12.7436,-7.77611 0.5548,-29.11766 0.55479,-29.11766 24.67078,-0.29857 24.67076,-0.29859 1.64207,-3.1754 c 2.16424,-4.18518 7.38002,-8.4858 12.23467,-10.08798 l 3.91174,-1.29098 0,-13.78379 0,-13.78379 -74.89713,0 -74.89712,0 0,58.25333 0,58.25331 28.03372,0 28.03371,0 12.74361,-7.77611 z m 1238.75321,-0.57537 6.5735,-4.96356 -13.7017,0 -13.7018,0 6.5734,4.96356 c 3.6156,2.72998 6.8232,4.96358 7.1284,4.96358 0.3051,0 3.5128,-2.2336 7.1282,-4.96358 z m -103.1916,-1.10958 6.5736,-4.96356 -13.7018,0 -13.7018,0 6.5734,4.96356 c 3.6156,2.72997 6.8232,4.96358 7.1284,4.96358 0.3051,0 3.5128,-2.23361 7.1282,-4.96358 z m -1054.5784,-38.77851 0,-34.92454 -3.05137,1.15604 c -4.35408,1.64959 -7.78755,5.18945 -9.20793,9.49329 l -1.22785,3.72039 -24.32486,0 -24.32487,0 0,24.4109 c 0,13.42601 0.31035,24.41092 0.68966,24.41092 0.3793,0 6.87676,-3.79582 14.43881,-8.43517 7.90308,-4.84856 14.45084,-8.16591 15.39936,-7.80193 1.30879,0.50223 1.65021,2.93611 1.65021,11.76394 l 0,11.13069 14.97941,0 14.97943,0 0,-34.92453 z m 823.3136,-3.35622 0,-12.76026 -33.8425,0 -33.8423,0 0,12.76026 0,12.76024 33.8423,0 33.8425,0 0,-12.76024 z m 174.2052,0 0,-12.76026 -33.8424,0 -33.8425,0 0,12.76026 0,12.76024 33.8425,0 33.8424,0 0,-12.76024 z m 166.438,-52.15059 0,-33.84241 -12.7602,0 -12.7602,0 0,33.84241 0,33.8424 12.7602,0 12.7602,0 0,-33.8424 z m -899.87508,-122.02609 0,-151.43014 -3.19659,-1.65301 c -4.20461,-2.1743 -8.5042,-7.38255 -10.10916,-12.24563 l -1.29098,-3.91174 -61.49603,0 -61.49604,0 0,21.61757 0,21.61756 27.46229,0.29678 27.46228,0.29678 0.28352,96.25668 0.28353,96.25667 -165.8894,0 -165.88939,0 0,18.30065 0,18.30063 77.3937,0.28495 77.3937,0.28493 0.30558,16.10845 0.30557,16.10843 5.61094,2.57406 c 3.78984,1.73864 6.73104,4.16318 9.0621,7.47028 l 3.45118,4.89624 120.1766,0 120.1766,0 0,-151.43014 z m 439.95128,107.73747 c 8.9632,-4.22688 13.897,-11.47855 13.8454,-20.35034 -0.111,-19.09444 -24.8983,-29.51072 -39.5704,-16.62845 -10.5978,9.30494 -10.5625,25.15302 0.075,33.64071 8.0401,6.41539 16.7272,7.54591 25.6502,3.33808 z m -11.6507,-7.34834 0,-4.43834 -4.9932,0 c -3.6986,0 -4.9931,-0.43151 -4.9931,-1.66439 0,-1.23287 1.2945,-1.66437 4.9931,-1.66437 l 4.9932,0 0,-4.99315 c 0,-3.69862 0.4316,-4.99313 1.6644,-4.99313 1.2328,0 1.6644,1.29451 1.6644,4.99313 l 0,4.99315 4.9931,0 c 3.6987,0 4.9931,0.4315 4.9931,1.66437 0,1.23288 -1.2944,1.66439 -4.9931,1.66439 l -4.9931,0 0,4.43834 c 0,3.20548 -0.4623,4.43835 -1.6644,4.43835 -1.2021,0 -1.6644,-1.23287 -1.6644,-4.43835 z m -9.9863,-22.74653 c 0,-1.37378 2.0342,-1.66438 11.6507,-1.66438 9.6165,0 11.6506,0.2906 11.6506,1.66438 0,1.37378 -2.0341,1.66438 -11.6506,1.66438 -9.6165,0 -11.6507,-0.2906 -11.6507,-1.66438 z m -505.97166,-107.07514 0,-90.98615 -24.96572,0 -24.9657,0 0,14.42463 0,14.42463 -123.16416,0 -123.16416,0 0,-14.97942 0,-14.97942 -14.42462,0 -14.42464,0 0,38.79536 0,38.79537 10.80562,0.31758 c 14.62785,0.42991 14.61004,1.41935 -0.23221,12.89746 -6.44136,4.98138 -12.19803,9.05706 -12.79259,9.05706 -0.59456,0 -6.35123,-4.07568 -12.79259,-9.05706 -14.72621,-11.3884 -14.7918,-12.46307 -0.78716,-12.89892 l 10.25099,-0.31903 0,-40.23639 c 0,-29.81549 0.34484,-40.58122 1.33151,-41.56786 0.91147,-0.91148 6.33697,-1.33151 17.1986,-1.33151 l 15.86709,0 0,-23.30133 0,-23.30133 -39.39033,0 -39.39035,0 0,112.0683 0,112.06829 -97.64366,0 -97.643656,0 0,-13.86984 0,-13.86984 -8.321893,0 -8.32191,0 0,-39.39034 0,-39.39034 8.32191,0 8.321893,0 0,-8.3219 0,-8.32191 -29.404055,0 -29.404053,0 0,67.13002 0,67.13002 314.567924,0 314.56792,0 0,-90.98613 z m -619.149563,17.19858 0,-9.43148 4.359094,0 c 6.663656,0 10.396599,5.37887 6.168297,8.88805 -0.973308,0.80778 -1.297395,1.91335 -0.771677,2.63244 0.498519,0.68186 1.4926,2.61287 2.209073,4.29112 1.939337,4.54267 -0.961085,3.99904 -3.088094,-0.5788 -1.025613,-2.20737 -2.622523,-3.71823 -4.160952,-3.93671 -2.188979,-0.31089 -2.496568,0.1334 -2.496568,3.60615 0,2.1784 -0.499313,3.96073 -1.109586,3.96073 -0.652701,0 -1.109587,-3.88356 -1.109587,-9.4315 z m 8.876693,-2.21917 c 1.850429,-2.22962 -0.374172,-4.99313 -4.01942,-4.99313 -2.191499,0 -2.6381,0.56352 -2.6381,3.32876 0,2.76522 0.446601,3.32876 2.6381,3.32876 1.450967,0 3.259705,-0.74898 4.01942,-1.66439 z m 7.767107,10.39816 c 0,-0.68887 1.777768,-3.22027 3.950588,-5.62532 5.075849,-5.61835 4.936178,-9.28714 -0.344423,-9.04758 -4.340764,0.19693 -4.782141,-1.49055 -0.660456,-2.52503 7.058166,-1.77149 9.219385,5.1055 3.745244,11.91735 l -3.466764,4.31391 3.935844,0 c 2.164717,0 3.935845,0.49932 3.935845,1.10959 0,0.61027 -2.496578,1.10959 -5.547934,1.10959 -3.38093,0 -5.547944,-0.48924 -5.547944,-1.25251 z M 427.51981,523.13594 c 0,-5.54794 0.45689,-9.43149 1.10959,-9.43149 0.6527,0 1.10958,3.88355 1.10958,9.43149 0,5.54794 -0.45688,9.4315 -1.10958,9.4315 -0.6527,0 -1.10959,-3.88356 -1.10959,-9.4315 z m 7.76712,-0.0813 c 0,-8.45843 0.21523,-9.47262 1.94178,-9.14986 1.06797,0.19965 3.68937,3.60663 5.82532,7.57107 l 3.88356,7.20808 0.32809,-7.48972 c 0.47393,-10.8189 2.44587,-9.25336 2.44587,1.94176 0,12.04143 -1.5441,12.32117 -7.65576,1.38699 l -4.49646,-8.04452 -0.0267,8.04452 c -0.0152,4.60554 -0.50095,8.04451 -1.1362,8.04451 -0.65344,0 -1.10959,-3.91068 -1.10959,-9.51285 z m 17.74253,8.68065 c -0.005,-0.4577 1.3633,-4.71519 3.04283,-9.46106 2.0135,-5.68961 3.57602,-8.52432 4.58705,-8.32192 1.51212,0.30273 8.44875,17.3419 7.4617,18.32894 -1.01125,1.01124 -2.87526,-1.00366 -2.87526,-3.10804 0,-1.77119 -0.78449,-2.15368 -4.41722,-2.15368 -3.7863,0 -4.51665,0.39619 -5.11343,2.77396 -0.62902,2.50622 -2.65916,3.97403 -2.68567,1.94178 z m 10.65073,-7.88464 c -0.32283,-0.52234 -1.13637,-2.39476 -1.80788,-4.16095 -1.29053,-3.39428 -2.11589,-2.8234 -3.7794,2.6141 -0.67904,2.21954 -0.37886,2.49657 2.70524,2.49657 1.90795,0 3.20487,-0.42737 2.88204,-0.94972 z m 9.3327,7.60723 c 0,-0.61027 0.99862,-1.10959 2.21917,-1.10959 1.97404,0 2.21917,-0.73973 2.21917,-6.69656 0,-6.35274 -0.11394,-6.63559 -2.21917,-5.50891 -2.77715,1.48629 -2.89682,-0.15238 -0.19004,-2.60198 3.80628,-3.44465 4.62839,-2.29268 4.62839,6.48555 0,6.65752 0.33288,8.3219 1.66438,8.3219 0.9154,0 1.66438,0.49932 1.66438,1.10959 0,0.61027 -2.24692,1.10959 -4.99315,1.10959 -2.74622,0 -4.99313,-0.49932 -4.99313,-1.10959 z m 14.42462,-0.14292 c 0,-0.68888 1.77777,-3.22028 3.95059,-5.62532 5.07584,-5.61836 4.93618,-9.28715 -0.34443,-9.04758 -4.34076,0.19693 -4.78214,-1.49056 -0.66044,-2.52504 7.05815,-1.77149 9.21937,5.1055 3.74523,11.91735 l -3.46676,4.31392 3.93585,0 c 2.1647,0 3.93583,0.49932 3.93583,1.10959 0,0.61027 -2.49657,1.10959 -5.54793,1.10959 -3.38092,0 -5.54794,-0.48924 -5.54794,-1.25251 z m 16.16828,-0.49114 c -2.35879,-2.35879 -2.1926,-4.47358 0.49976,-6.35938 1.98141,-1.38784 2.04619,-1.73499 0.55479,-2.97274 -3.82608,-3.17536 -0.82408,-8.22469 4.51251,-7.59 4.07212,0.4843 5.89597,3.49271 3.9787,6.56276 -1.22681,1.96441 -1.18209,2.63051 0.28547,4.25215 0.95711,1.05757 1.74017,2.47203 1.74017,3.14321 0,2.25905 -3.46278,4.70765 -6.65752,4.70765 -1.74365,0 -3.95489,-0.78464 -4.91388,-1.74365 z m 8.00558,-1.79189 c 1.0154,-1.01541 0.9,-1.77641 -0.50486,-3.32876 -1.00165,-1.10683 -2.20746,-2.0124 -2.67957,-2.0124 -1.74556,0 -4.23111,3.44566 -3.62496,5.02524 0.75205,1.95983 4.96979,2.15552 6.80939,0.31592 z m -0.31774,-10.34951 c 0,-1.44214 -0.86469,-2.32676 -2.50153,-2.5592 -2.95974,-0.42027 -4.73594,2.83123 -2.3759,4.34937 2.40749,1.54867 4.87743,0.64213 4.87743,-1.79017 z m -313.45833,92.11093 0,-27.18488 -10.54108,0 c -10.50409,0 -10.54107,-0.01 -10.54107,-2.77398 l 0,-2.77396 23.85611,0 23.85612,0 0,2.77396 c 0,2.76424 -0.0369,2.77398 -10.54107,2.77398 l -10.54108,0 0,27.18488 0,27.18489 40.49993,0 40.49992,0 0,-112.06829 0,-112.0683 42.16431,0 42.16431,0 0,-25.52051 0,-25.52049 -82.66423,0 -82.66424,0 0,31.06843 0,31.06843 10.54108,0 c 10.50409,0 10.54107,0.01 10.54107,2.77398 l 0,2.77397 -23.85612,0 -23.85611,0 0,-2.77397 c 0,-2.76424 0.0369,-2.77398 10.54107,-2.77398 l 10.54108,0 0,-31.06843 0,-31.06843 -48.82183,0 -48.82183,0 0,25.52049 0,25.52051 7.21231,0 7.21232,0 0,39.39034 0,39.39033 -7.21232,0 -7.21231,0 0,22.19174 0,22.19175 7.21231,0 7.21232,0 0,39.39034 0,39.39034 -7.21232,0 -7.21231,0 0,11.09587 0,11.09588 48.82183,0 48.82183,0 0,-27.18489 z m -21.08215,-41.05472 c 0,-2.76424 0.0369,-2.77397 10.54107,-2.77397 l 10.54108,0 0,-17.55076 0,-17.55076 -5.89143,-1.85711 c -7.08333,-2.23282 -14.38301,-8.20661 -17.69261,-14.479 -3.37224,-6.39106 -3.39258,-18.29877 -0.0421,-24.64477 3.46317,-6.55942 10.2706,-12.20864 17.43191,-14.46603 l 6.19418,-1.95256 0,-16.44117 0,-16.44118 -10.54108,0 c -10.50409,0 -10.54107,-0.0101 -10.54107,-2.77396 l 0,-2.77397 23.85612,0 23.85612,0 0,2.77397 c 0,2.76422 -0.0369,2.77396 -10.54108,2.77396 l -10.54108,0 0,16.44118 0,16.44117 6.19423,1.95256 c 7.16131,2.25739 13.96874,7.90661 17.43191,14.46603 3.32943,6.30611 3.32943,18.25617 0,24.56229 -3.46317,6.55943 -10.2706,12.20865 -17.43191,14.46604 l -6.19423,1.95255 0,17.55076 0,17.55076 10.54108,0 c 10.5041,0 10.54108,0.0101 10.54108,2.77397 l 0,2.77396 -23.85612,0 -23.85612,0 0,-2.77396 z m 33.8424,-46.46665 c 8.96326,-4.22687 13.89699,-11.47854 13.84547,-20.35034 -0.11084,-19.09443 -24.89836,-29.51072 -39.57049,-16.62844 -10.59772,9.30494 -10.56247,25.15302 0.0747,33.64071 8.04015,6.4154 16.72727,7.54592 25.65019,3.33807 z m -11.65067,-7.34833 0,-4.43835 -4.99314,0 c -3.69861,0 -4.99314,-0.4315 -4.99314,-1.66438 0,-1.23286 1.29453,-1.66438 4.99314,-1.66438 l 4.99314,0 0,-4.99314 c 0,-3.69862 0.43152,-4.99314 1.66438,-4.99314 1.23287,0 1.66438,1.29452 1.66438,4.99314 l 0,4.99314 4.99315,0 c 3.69862,0 4.99313,0.43152 4.99313,1.66438 0,1.23288 -1.29451,1.66438 -4.99313,1.66438 l -4.99315,0 0,4.43835 c 0,3.20549 -0.46232,4.43835 -1.66438,4.43835 -1.20204,0 -1.66438,-1.23286 -1.66438,-4.43835 z m -9.98628,-22.74653 c 0,-1.37378 2.03424,-1.66438 11.65066,-1.66438 9.61643,0 11.65066,0.2906 11.65066,1.66438 0,1.37378 -2.03423,1.66438 -11.65066,1.66438 -9.61642,0 -11.65066,-0.2906 -11.65066,-1.66438 z m -38.50079,64.35468 c -5.31442,-3.72236 -3.57213,-15.23284 2.53784,-16.76634 3.24917,-0.81549 6.13339,0.42736 6.90894,2.97715 0.38827,1.27647 0.19588,1.31504 -0.98806,0.19812 -1.9927,-1.87991 -6.00094,-1.75044 -7.65898,0.24739 -0.74603,0.8989 -1.35641,3.40897 -1.35641,5.57795 0,2.16896 0.61038,4.67903 1.35641,5.57793 1.63785,1.97351 5.68659,2.13657 7.52028,0.30287 0.73974,-0.73973 1.33151,-0.83836 1.33151,-0.22191 0,3.63906 -5.6905,4.88124 -9.65153,2.10684 z m 12.98029,0.41325 c 0,-0.68887 1.77776,-3.22028 3.95059,-5.62533 5.07583,-5.61835 4.93617,-9.28715 -0.34443,-9.04757 -4.34076,0.19693 -4.78215,-1.49056 -0.66045,-2.52504 7.05816,-1.77149 9.21939,5.1055 3.74523,11.91734 l -3.46675,4.31392 3.93584,0 c 2.16471,0 3.93583,0.49932 3.93583,1.10959 0,0.61027 -2.49656,1.10959 -5.54793,1.10959 -3.38092,0 -5.54793,-0.48923 -5.54793,-1.2525 z m -8.8767,-74.67851 c 0,-0.26351 -1.48537,-4.50768 -3.30085,-9.4315 -2.31714,-6.28444 -2.87824,-8.95239 -1.88279,-8.95239 0.77995,0 2.54378,3.4952 3.91964,7.76711 1.37586,4.27191 2.69363,7.76711 2.92839,7.76711 0.23475,0 1.55252,-3.4952 2.92838,-7.76711 1.37586,-4.27191 3.13969,-7.76711 3.91963,-7.76711 0.99545,0 0.43435,2.66795 -1.88278,8.95239 -1.81547,4.92382 -3.30086,9.16799 -3.30086,9.4315 0,0.2635 -0.74896,0.47909 -1.66437,0.47909 -0.91541,0 -1.66439,-0.21559 -1.66439,-0.47909 z m 13.31504,-0.6305 c 0,-0.61027 0.99863,-1.10958 2.21918,-1.10958 1.97404,0 2.21917,-0.73973 2.21917,-6.69656 0,-6.35273 -0.11393,-6.63558 -2.21917,-5.5089 -2.77714,1.48627 -2.89681,-0.1524 -0.19003,-2.60199 3.80629,-3.44464 4.62837,-2.29268 4.62837,6.48554 0,6.65752 0.33288,8.32191 1.66439,8.32191 0.91541,0 1.66438,0.49931 1.66438,1.10958 0,0.61028 -2.24691,1.10959 -4.99314,1.10959 -2.74623,0 -4.99315,-0.49931 -4.99315,-1.10959 z m -15.19946,-64.91222 c -5.3144,-3.72235 -3.57212,-15.23283 2.53784,-16.76632 3.24917,-0.8155 6.13339,0.42735 6.90895,2.97713 0.38826,1.27648 0.19587,1.31505 -0.98806,0.19813 -1.99269,-1.87991 -6.00095,-1.75044 -7.65899,0.24739 -0.74603,0.8989 -1.35641,3.40898 -1.35641,5.57794 0,2.16897 0.61038,4.67904 1.35641,5.57793 1.63785,1.97352 5.6866,2.13657 7.52028,0.30288 0.73974,-0.73973 1.33151,-0.83836 1.33151,-0.22192 0,3.63907 -5.69049,4.88126 -9.65153,2.10684 z m 14.08988,0.55617 c 0,-0.61027 0.99862,-1.10958 2.21917,-1.10958 1.97404,0 2.21917,-0.73973 2.21917,-6.69656 0,-6.35273 -0.11393,-6.63558 -2.21917,-5.50891 -2.77714,1.48629 -2.8968,-0.15238 -0.19003,-2.60198 3.8063,-3.44465 4.62838,-2.29268 4.62838,6.48554 0,6.65752 0.33288,8.32191 1.66438,8.32191 0.91541,0 1.66439,0.49931 1.66439,1.10958 0,0.61028 -2.24692,1.10959 -4.99315,1.10959 -2.74623,0 -4.99314,-0.49931 -4.99314,-1.10959 z m 1022.13804,200.17153 -6.8659,-5.1021 -6.8658,5.1021 -6.8658,5.10208 13.7316,0 13.7316,0 -6.8657,-5.10208 z m 206.1747,-34.28827 0,-33.8424 -12.7602,0 -12.7602,0 0,33.8424 0,33.84242 12.7602,0 12.7602,0 0,-33.84242 z m -1286.01126,-7.7671 0,-33.8424 -12.760246,0 -12.760263,0 0,33.8424 0,33.8424 12.760263,0 12.760246,0 0,-33.8424 z m 1644.40806,11.09587 0,-12.76026 -33.8425,0 -33.8423,0 0,12.76026 0,12.76025 33.8423,0 33.8425,0 0,-12.76025 z m -73.2328,-9.98629 0,-8.3219 39.3903,0 39.3904,0 0,8.3219 0,8.32191 51.5682,0 51.5684,0 -1.1561,-3.05137 c -1.6494,-4.35408 -5.1893,-7.78754 -9.4933,-9.20794 l -3.7203,-1.22783 0,-57.05768 c 0,-31.38174 -0.3103,-57.05769 -0.6896,-57.05769 -0.3794,0 -6.8768,3.79583 -14.4388,8.43517 -7.9032,4.84856 -14.4508,8.16592 -15.3994,7.80194 -1.3088,-0.50224 -1.6502,-2.93612 -1.6502,-11.76395 l 0,-11.13068 -87.1026,0 -87.1026,0 0,67.13001 0,67.13002 19.4178,0 19.4178,0 0,-8.32191 z m 14.4247,-23.30132 0,-9.43149 4.3591,0 c 6.6635,0 10.3965,5.37888 6.1682,8.88805 -0.9733,0.80778 -1.2973,1.91334 -0.7717,2.63243 0.4986,0.68188 1.4926,2.61288 2.2091,4.29113 1.9394,4.54267 -0.9612,3.99903 -3.0881,-0.5788 -1.0256,-2.20738 -2.6225,-3.71823 -4.1609,-3.93672 -2.189,-0.31088 -2.4965,0.13341 -2.4965,3.60616 0,2.17839 -0.4995,3.96073 -1.1096,3.96073 -0.6528,0 -1.1096,-3.88355 -1.1096,-9.43149 z m 8.8766,-2.21917 c 1.8505,-2.22963 -0.3741,-4.99315 -4.0193,-4.99315 -2.1916,0 -2.6381,0.56354 -2.6381,3.32876 0,2.76523 0.4465,3.32876 2.6381,3.32876 1.4509,0 3.2596,-0.74897 4.0193,-1.66437 z m 8.8767,10.54107 c 0,-0.61027 0.9986,-1.10959 2.2192,-1.10959 1.974,0 2.2192,-0.73973 2.2192,-6.69655 0,-6.35273 -0.114,-6.63559 -2.2192,-5.5089 -2.7771,1.48628 -2.8969,-0.1524 -0.1901,-2.60199 3.8064,-3.44466 4.6285,-2.29268 4.6285,6.48555 0,6.65752 0.3329,8.32189 1.6643,8.32189 0.9154,0 1.6644,0.49932 1.6644,1.10959 0,0.61027 -2.2469,1.10959 -4.9932,1.10959 -2.7462,0 -4.9931,-0.49932 -4.9931,-1.10959 z m 14.5764,-0.37198 c -0.9941,-1.19768 -0.3356,-1.46346 3.436,-1.38699 3.7213,0.0754 4.7508,-0.32764 5.0864,-1.99162 0.4866,-2.41199 -1.4942,-3.97521 -5.068,-3.99953 -3.5541,-0.0242 -3.1004,-2.01928 0.5548,-2.43987 2.1947,-0.25251 3.0514,-0.97419 3.0514,-2.57025 0,-1.79753 -0.6852,-2.1881 -3.6062,-2.05557 -4.0367,0.18314 -4.8353,-1.28832 -1.3069,-2.40821 3.8988,-1.23742 7.687,0.31663 7.687,3.1534 0,1.392 -0.5205,3.0514 -1.1566,3.68752 -0.8025,0.80244 -0.6325,1.59157 0.5548,2.57697 2.386,1.98013 2.139,6.38959 -0.4349,7.76709 -2.9866,1.59838 -7.3314,1.43394 -8.7978,-0.33294 z m 36.4647,-73.97035 c -1.7639,-1.76396 -2.2192,-3.69862 -2.2192,-9.43149 0,-4.06849 0.4837,-7.21231 1.1096,-7.21231 0.6103,0 1.1096,2.77905 1.1096,6.17567 0,7.51514 1.4084,10.46813 4.9931,10.46813 3.5846,0 4.9931,-2.95299 4.9931,-10.46813 0,-3.39662 0.4993,-6.17567 1.1096,-6.17567 0.6259,0 1.1096,3.14382 1.1096,7.21231 0,8.09755 -2.1996,11.65066 -7.2123,11.65066 -1.5257,0 -3.7727,-0.99863 -4.9931,-2.21917 z m 17.7533,1.10958 c 0,-0.61027 0.9986,-1.10958 2.2192,-1.10958 1.974,0 2.2192,-0.73973 2.2192,-6.69656 0,-6.35273 -0.114,-6.63558 -2.2192,-5.5089 -2.7771,1.48628 -2.8969,-0.15239 -0.1901,-2.60199 3.8064,-3.44464 4.6285,-2.29268 4.6285,6.48554 0,6.65752 0.3329,8.32191 1.6643,8.32191 0.9154,0 1.6644,0.49931 1.6644,1.10958 0,0.61028 -2.2469,1.10959 -4.9932,1.10959 -2.7462,0 -4.9931,-0.49931 -4.9931,-1.10959 z m 14.4247,-8.3219 0,-9.43148 4.3591,0 c 2.4834,0 5.1092,0.75029 6.1027,1.74363 1.9989,1.99902 2.0941,2.64202 0.7136,4.82301 -0.6451,1.01933 -0.3988,2.48477 0.6995,4.16095 1.5293,2.33405 1.5173,2.85911 -0.1223,5.36141 -1.4908,2.27517 -2.7108,2.77397 -6.7852,2.77397 l -4.9674,0 0,-9.43149 z m 9.7124,5.93274 c 2.1234,-2.12353 -0.4202,-5.37794 -4.2036,-5.37794 -2.9155,0 -3.2896,0.37863 -3.2896,3.32876 0,2.90606 0.3945,3.32876 3.1068,3.32876 1.7087,0 3.6826,-0.57581 4.3864,-1.27958 z m -1.3905,-10.37109 c 0,-1.59607 -0.8567,-2.31774 -3.0514,-2.57027 -2.6451,-0.30435 -3.0513,0.038 -3.0513,2.57027 0,2.53235 0.4062,2.87462 3.0513,2.57028 2.1947,-0.25252 3.0514,-0.9742 3.0514,-2.57028 z m 154.7873,34.91153 0,-74.3828 -39.1869,0.31786 -39.1869,0.31787 -13.5185,8.19717 -13.5184,8.19717 0,56.96257 0,56.96258 3.1966,1.65302 c 4.2044,2.17429 8.5042,7.38253 10.109,12.24562 l 1.2911,3.91174 45.4071,0 45.4069,0 0,-74.3828 z m -1613.97836,48.27793 6.57348,-4.96357 -13.70176,0 -13.70176,0 6.57349,4.96357 c 3.61542,2.72997 6.82314,4.96358 7.12827,4.96358 0.30514,0 3.51287,-2.23361 7.12828,-4.96358 z m 264.72054,-179.16874 0,-115.39705 -117.61622,0 -117.61622,0 0,115.39705 0,115.39705 117.61622,0 117.61622,0 0,-115.39705 z m -218.58864,93.83578 c 0,-0.2635 -1.48538,-4.50768 -3.30086,-9.4315 -2.31713,-6.28443 -2.87823,-8.95238 -1.88277,-8.95238 0.77993,0 2.54377,3.4952 3.91963,7.76711 1.37586,4.2719 2.69363,7.76711 2.92838,7.76711 0.23476,0 1.55253,-3.49521 2.92839,-7.76711 1.37586,-4.27191 3.13968,-7.76711 3.91963,-7.76711 0.99545,0 0.43436,2.66795 -1.88279,8.95238 -1.81546,4.92382 -3.30085,9.168 -3.30085,9.4315 0,0.26351 -0.74897,0.4791 -1.66438,0.4791 -0.91541,0 -1.66438,-0.21559 -1.66438,-0.4791 z m 168.65723,-8.95239 0,-9.43149 4.3591,0 c 6.66365,0 10.3966,5.37887 6.1683,8.88805 -0.97331,0.80777 -1.2974,1.91335 -0.77167,2.63244 0.4985,0.68187 1.4926,2.61287 2.20906,4.29112 1.93934,4.54266 -0.96109,3.99904 -3.08809,-0.5788 -1.02561,-2.20738 -2.62253,-3.71823 -4.16095,-3.93672 -2.18899,-0.31088 -2.49658,0.13341 -2.49658,3.60616 0,2.17839 -0.49931,3.96073 -1.10958,3.96073 -0.6527,0 -1.10959,-3.88356 -1.10959,-9.43149 z m 8.8767,-2.21918 c 1.85042,-2.22963 -0.37418,-4.99313 -4.01942,-4.99313 -2.1915,0 -2.63811,0.56352 -2.63811,3.32876 0,2.76522 0.44661,3.32876 2.63811,3.32876 1.45096,0 3.2597,-0.74898 4.01942,-1.66439 z m 8.42849,9.24695 c -0.97403,-1.39062 -1.77096,-3.5545 -1.77096,-4.8086 0,-3.49863 3.14234,-7.21231 6.10272,-7.21231 1.47866,0 3.41095,1.08907 4.37543,2.46606 2.90407,4.14614 2.19256,5.30105 -3.26585,5.30105 -2.74623,0 -4.99313,0.43816 -4.99313,0.97372 0,1.9544 3.38766,3.71207 6.14032,3.18586 1.78315,-0.34086 2.67435,-0.0822 2.41749,0.70163 -0.22374,0.68282 -1.94316,1.3944 -3.82094,1.58126 -2.53541,0.25231 -3.8699,-0.31099 -5.18508,-2.18867 z m 7.50699,-8.13736 c -0.35128,-0.91541 -1.52275,-1.66438 -2.60329,-1.66438 -1.08053,0 -2.58619,0.74897 -3.3459,1.66438 -1.18423,1.4269 -0.81278,1.66438 2.60327,1.66438 3.08599,0 3.84056,-0.37535 3.34592,-1.66438 z m 7.36585,4.43835 c 0,-4.68493 -0.38667,-6.10273 -1.66439,-6.10273 -0.9154,0 -1.66437,-0.49931 -1.66437,-1.10958 0,-0.61028 0.71423,-1.10959 1.5872,-1.10959 0.87298,0 1.74677,-1.12347 1.94178,-2.49658 0.35989,-2.53397 5.34771,-4.41707 5.34771,-2.01895 0,0.65272 -0.74897,1.18677 -1.66438,1.18677 -0.91541,0 -1.66438,0.74896 -1.66438,1.66437 0,0.91541 0.74897,1.66439 1.66438,1.66439 0.91541,0 1.66438,0.49931 1.66438,1.10959 0,0.61027 -0.74897,1.10958 -1.66438,1.10958 -1.27771,0 -1.66438,1.4178 -1.66438,6.10273 0,3.3565 -0.49931,6.10273 -1.10959,6.10273 -0.61027,0 -1.10958,-2.74623 -1.10958,-6.10273 z m -189.73939,-1.6644 c 0,-0.61027 1.49795,-1.10959 3.32877,-1.10959 1.83081,0 3.32876,0.49932 3.32876,1.10959 0,0.61027 -1.49795,1.10959 -3.32876,1.10959 -1.83082,0 -3.32877,-0.49932 -3.32877,-1.10959 z M 385.3555,416.61556 c 0,-5.54793 0.45689,-9.43148 1.10959,-9.43148 0.65271,0 1.10959,3.88355 1.10959,9.43148 0,5.54794 -0.45688,9.43149 -1.10959,9.43149 -0.6527,0 -1.10959,-3.88355 -1.10959,-9.43149 z m 7.76711,2.43909 0,-6.9924 4.16095,-0.12078 c 2.28853,-0.0665 4.7851,0.39506 5.54794,1.02554 1.65243,1.36571 1.90086,13.08004 0.2774,13.08004 -0.61027,0 -1.10959,-2.51223 -1.10959,-5.58275 0,-3.95976 -0.48797,-5.77002 -1.6785,-6.22687 -2.90543,-1.1149 -4.97903,1.78051 -4.97903,6.95234 0,2.67151 -0.49931,4.85728 -1.10958,4.85728 -0.62234,0 -1.10959,-3.07052 -1.10959,-6.9924 z m 167.9412,5.36784 c -4.47168,-3.13209 -3.97849,-13.61639 0.7598,-16.15225 7.77236,-4.15964 15.10987,3.29479 12.00631,12.19766 -1.90087,5.45283 -7.95121,7.32707 -12.76611,3.95459 z m 9.37082,-1.92612 c 1.72465,-1.72465 1.72465,-10.03697 0,-11.76161 -0.73233,-0.73234 -2.62973,-1.33151 -4.21643,-1.33151 -4.05056,0 -5.54794,1.94659 -5.54794,7.21231 0,5.26574 1.49738,7.21232 5.54794,7.21232 1.5867,0 3.4841,-0.59918 4.21643,-1.33151 z m 9.25548,2.15414 c -1.55717,-1.55717 -1.69529,-13.02809 -0.15687,-13.02809 0.61028,0 1.10959,2.51224 1.10959,5.58276 0,3.95976 0.48797,5.77002 1.6785,6.22687 2.90542,1.11491 4.97902,-1.78051 4.97902,-6.95234 0,-2.67151 0.49931,-4.85729 1.10959,-4.85729 0.62208,0 1.10958,3.06524 1.10958,6.97654 l 0,6.97654 -4.28148,0.17074 c -2.35481,0.0938 -4.85138,-0.39917 -5.54793,-1.09573 z m 16.11707,0.65682 c -0.40684,-0.40685 -0.73972,-3.11146 -0.73972,-6.01025 0,-3.13152 -0.56291,-5.53324 -1.38698,-5.91781 -1.10959,-0.51781 -1.10959,-0.77671 0,-1.29451 0.76284,-0.356 1.38698,-1.35463 1.38698,-2.21918 0,-0.86455 0.49931,-1.57192 1.10958,-1.57192 0.61028,0 1.10959,0.74897 1.10959,1.66438 0,0.91541 0.74898,1.66438 1.66438,1.66438 0.91541,0 1.66438,0.49932 1.66438,1.10959 0,0.61027 -0.74897,1.10959 -1.66438,1.10959 -1.23287,0 -1.66438,1.29452 -1.66438,4.99313 0,3.69863 0.43151,4.99315 1.66438,4.99315 0.91541,0 1.66438,0.49931 1.66438,1.10958 0,1.23961 -3.65715,1.52092 -4.80821,0.36987 z m -182.712,-4.25341 c 0,-2.21919 -0.5548,-2.77398 -2.77397,-2.77398 -1.52568,0 -2.77396,-0.49931 -2.77396,-1.10958 0,-0.61028 1.24828,-1.10959 2.77396,-1.10959 2.21917,0 2.77397,-0.5548 2.77397,-2.77397 0,-1.52568 0.49932,-2.77396 1.10959,-2.77396 0.61027,0 1.10959,1.24828 1.10959,2.77396 0,2.03425 0.59177,2.77397 2.21917,2.77397 1.22055,0 2.21917,0.49931 2.21917,1.10959 0,0.61027 -0.99862,1.10958 -2.21917,1.10958 -1.6274,0 -2.21917,0.73973 -2.21917,2.77398 0,1.52567 -0.49932,2.77396 -1.10959,2.77396 -0.61027,0 -1.10959,-1.24829 -1.10959,-2.77396 z M 565.1086,371.19819 c 0,-0.26351 -1.48537,-4.50768 -3.30085,-9.43148 -2.31714,-6.28445 -2.87823,-8.95239 -1.88277,-8.95239 0.77993,0 2.54376,3.49519 3.91962,7.7671 1.37587,4.27192 2.69364,7.76711 2.92839,7.76711 0.23475,0 1.55252,-3.49519 2.92839,-7.76711 1.37585,-4.27191 3.13969,-7.7671 3.91962,-7.7671 0.99545,0 0.43436,2.66794 -1.88278,8.95239 -1.81547,4.9238 -3.30085,9.16797 -3.30085,9.43148 0,0.2635 -0.74897,0.4791 -1.66438,0.4791 -0.91541,0 -1.66439,-0.2156 -1.66439,-0.4791 z M 385.3555,360.02664 c 0,-5.54793 0.45689,-9.43148 1.10959,-9.43148 0.65271,0 1.10959,3.88355 1.10959,9.43148 0,5.54794 -0.45688,9.4315 -1.10959,9.4315 -0.6527,0 -1.10959,-3.88356 -1.10959,-9.4315 z m 7.76711,2.43909 0,-6.9924 4.16095,-0.12078 c 2.28853,-0.0665 4.7851,0.39506 5.54794,1.02553 1.65243,1.36572 1.90086,13.08006 0.2774,13.08006 -0.61027,0 -1.10959,-2.51224 -1.10959,-5.58276 0,-3.95976 -0.48797,-5.77001 -1.6785,-6.22687 -2.90543,-1.11491 -4.97903,1.78051 -4.97903,6.95234 0,2.67151 -0.49931,4.85729 -1.10958,4.85729 -0.62234,0 -1.10959,-3.07053 -1.10959,-6.99241 z m 188.62981,4.21844 c 0,-2.21918 -0.5548,-2.77397 -2.77398,-2.77397 -1.52568,0 -2.77396,-0.49931 -2.77396,-1.10958 0,-0.61028 1.24828,-1.10959 2.77396,-1.10959 2.21918,0 2.77398,-0.5548 2.77398,-2.77397 0,-1.52568 0.49931,-2.77396 1.10958,-2.77396 0.61028,0 1.10959,1.24828 1.10959,2.77396 0,2.03424 0.59177,2.77397 2.21917,2.77397 1.22055,0 2.21918,0.49931 2.21918,1.10959 0,0.61027 -0.99863,1.10958 -2.21918,1.10958 -1.6274,0 -2.21917,0.73973 -2.21917,2.77397 0,1.52568 -0.49931,2.77397 -1.10959,2.77397 -0.61027,0 -1.10958,-1.24829 -1.10958,-2.77397 z m -174.20517,-4.99314 c 0,-0.61027 1.49794,-1.10959 3.32876,-1.10959 1.83082,0 3.32876,0.49932 3.32876,1.10959 0,0.61027 -1.49794,1.10959 -3.32876,1.10959 -1.83082,0 -3.32876,-0.49932 -3.32876,-1.10959 z M 579.8288,317.5137 c -1.75916,-1.1174 -0.7479,-16.98374 1.15979,-18.19673 1.95034,-1.24009 9.64052,-1.05089 9.64052,0.23718 0,0.61028 -0.48365,1.10959 -1.07477,1.10959 -0.59111,0 -0.81205,0.68459 -0.49098,1.52131 0.82156,2.14094 -2.51756,5.13621 -5.72582,5.13621 -1.48209,0 -2.69471,0.49931 -2.69471,1.10959 0,0.61027 1.64773,1.10958 3.66164,1.10958 5.80202,0 8.11404,3.60003 4.581,7.13307 -1.84368,1.84367 -6.75896,2.29967 -9.05667,0.8402 z m 8.02634,-3.53492 c 0,-2.55944 -6.51825,-2.22974 -7.016,0.35488 -0.32336,1.67908 0.23487,1.95948 3.31357,1.66438 2.39359,-0.22942 3.70243,-0.94324 3.70243,-2.01926 z m -1.10959,-11.08066 c 0,-1.97533 -3.65994,-2.90182 -5.23623,-1.32553 -0.61433,0.61432 -0.76384,1.68833 -0.33224,2.38667 1.10298,1.78466 5.56847,0.9337 5.56847,-1.06114 z m -186.66986,13.50599 c -1.75916,-1.1174 -0.74788,-16.98373 1.15981,-18.19673 1.95033,-1.2401 9.64051,-1.05088 9.64051,0.23719 0,0.61027 -0.48365,1.10958 -1.07477,1.10958 -0.59111,0 -0.81205,0.68459 -0.49097,1.52131 0.82155,2.14094 -2.51756,5.13621 -5.72584,5.13621 -1.48208,0 -2.6947,0.49932 -2.6947,1.10959 0,0.61027 1.64773,1.10959 3.66163,1.10959 5.80203,0 8.11405,3.60003 4.58101,7.13306 -1.84367,1.84368 -6.75896,2.29967 -9.05668,0.8402 z m 8.02635,-3.53492 c 0,-2.55943 -6.51826,-2.22974 -7.01601,0.35489 -0.32335,1.67908 0.23487,1.95948 3.31358,1.66437 2.39359,-0.22942 3.70243,-0.94324 3.70243,-2.01926 z m -1.10959,-11.08065 c 0,-1.97533 -3.65995,-2.90183 -5.23623,-1.32554 -0.61433,0.61433 -0.76384,1.68834 -0.33224,2.38667 1.10299,1.78466 5.56847,0.93371 5.56847,-1.06113 z m 155.89698,1.64916 0,-9.43148 4.3591,0 c 6.66365,0 10.3966,5.37887 6.1683,8.88804 -0.97331,0.80779 -1.2974,1.91335 -0.77167,2.63244 0.49851,0.68187 1.4926,2.61288 2.20906,4.29113 1.93934,4.54266 -0.96109,3.99903 -3.08809,-0.5788 -1.02561,-2.20738 -2.62253,-3.71823 -4.16095,-3.93672 -2.18899,-0.31088 -2.49658,0.1334 -2.49658,3.60616 0,2.1784 -0.49931,3.96072 -1.10958,3.96072 -0.6527,0 -1.10959,-3.88355 -1.10959,-9.43149 z m 8.8767,-2.21917 c 1.85042,-2.22962 -0.37418,-4.99314 -4.01942,-4.99314 -2.1915,0 -2.63811,0.56352 -2.63811,3.32876 0,2.76523 0.44661,3.32876 2.63811,3.32876 1.45096,0 3.2597,-0.74897 4.01942,-1.66438 z m -188.6298,1.10958 0,-9.43148 4.35909,0 c 6.66366,0 10.39659,5.37887 6.16831,8.88805 -0.97332,0.80778 -1.2974,1.91335 -0.77167,2.63244 0.4985,0.68186 1.49259,2.61287 2.20907,4.29112 1.93933,4.54267 -0.96109,3.99904 -3.08811,-0.5788 -1.02561,-2.20737 -2.62252,-3.71823 -4.16094,-3.93671 -2.18899,-0.31089 -2.49658,0.1334 -2.49658,3.60615 0,2.1784 -0.49931,3.96073 -1.10958,3.96073 -0.6527,0 -1.10959,-3.88356 -1.10959,-9.4315 z m 8.87669,-2.21917 c 1.85043,-2.22962 -0.37416,-4.99313 -4.01941,-4.99313 -2.1915,0 -2.63811,0.56352 -2.63811,3.32876 0,2.76522 0.44661,3.32876 2.63811,3.32876 1.45095,0 3.2597,-0.74898 4.01941,-1.66439 z m -282.94468,153.12302 0,-33.84241 -12.760246,0 -12.760263,0 0,33.84241 0,33.8424 12.760263,0 12.760246,0 0,-33.8424 z m 1742.72146,-4.68453 23.4163,-14.17115 -10.1012,-6.20206 c -5.5559,-3.41115 -12.1959,-7.4073 -14.7558,-8.88036 -4.161,-2.39429 -20.1502,-12.17548 -26.6914,-16.32801 l -2.4965,-1.58491 0,32.96939 0,32.9694 3.6061,-2.30056 c 1.9835,-1.2653 14.1435,-8.6776 27.0225,-16.47174 z m -26.1903,0.80097 c 0,-0.61027 2.2469,-1.10958 4.9931,-1.10958 2.7462,0 4.9931,0.49931 4.9931,1.10958 0,0.61028 -2.2469,1.10959 -4.9931,1.10959 -2.7462,0 -4.9931,-0.49931 -4.9931,-1.10959 z m 5.548,-22.74653 c 0,-2.21917 -0.5549,-2.77397 -2.7741,-2.77397 -1.5256,0 -2.7739,-0.49932 -2.7739,-1.10959 0,-0.61027 1.2483,-1.10959 2.7739,-1.10959 2.2192,0 2.7741,-0.55478 2.7741,-2.77397 0,-1.52567 0.4993,-2.77396 1.1096,-2.77396 0.6101,0 1.1095,1.24829 1.1095,2.77396 0,2.03426 0.5917,2.77397 2.2191,2.77397 1.2206,0 2.2192,0.49932 2.2192,1.10959 0,0.61027 -0.9986,1.10959 -2.2192,1.10959 -1.6274,0 -2.2191,0.73972 -2.2191,2.77397 0,1.52568 -0.4994,2.77397 -1.1095,2.77397 -0.6103,0 -1.1096,-1.24829 -1.1096,-2.77397 z m -983.09425,-6.65753 0,-12.76024 -33.84235,0 -33.84241,0 0,12.76024 0,12.76026 33.84241,0 33.84235,0 0,-12.76026 z m 196.39695,0 0,-12.76024 -33.8424,0 -33.84239,0 0,12.76024 0,12.76026 33.84239,0 33.8424,0 0,-12.76026 z m -304.20083,-7.30349 c 1.75167,-3.81826 4.16798,-6.75349 7.48322,-9.09028 l 4.89623,-3.45119 0,-18.64938 0,-18.64938 -68.79439,0 -68.79441,0 0,27.73967 0,27.73967 61.31118,0 61.31118,0 2.58699,-5.63911 z m 1114.40763,-62.70943 -6.8658,-5.10209 -6.8658,5.10209 -6.8659,5.10209 13.7317,0 13.7318,0 -6.866,-5.10209 z m -1485.9453,-70.34984 0,-19.97256 123.16416,0 123.16416,0 0,19.97256 0,19.97257 27.18489,0 27.18488,0 0,-51.5958 0,-51.59579 -65.46564,0 -65.46563,0 0,7.21232 0,7.21231 -39.39034,0 -39.39034,0 0,-7.21231 0,-7.21232 -69.34919,0 -69.3492,0 0,51.59579 0,51.5958 23.85613,0 23.85612,0 0,-19.97257 z m 164.21888,-87.10258 0,-12.76024 -33.8424,0 -33.8424,0 0,12.76024 0,12.76025 33.8424,0 33.8424,0 0,-12.76025 z m -6.65752,762.2863 0,-9.43149 4.35909,0 c 6.66366,0 10.3966,5.37888 6.1683,8.88806 -0.9733,0.80777 -1.29738,1.91334 -0.77167,2.63244 0.49852,0.68186 1.49259,2.61287 2.20907,4.29112 1.93933,4.54266 -0.96108,3.99903 -3.0881,-0.57881 -1.02561,-2.20738 -2.62253,-3.71822 -4.16095,-3.93672 -2.18897,-0.31087 -2.49657,0.13341 -2.49657,3.60617 0,2.1784 -0.49931,3.96073 -1.10958,3.96073 -0.65271,0 -1.10959,-3.88356 -1.10959,-9.4315 z m 8.87669,-2.21917 c 1.85043,-2.22962 -0.37417,-4.99314 -4.01941,-4.99314 -2.19151,0 -2.63811,0.56353 -2.63811,3.32876 0,2.76523 0.4466,3.32877 2.63811,3.32877 1.45096,0 3.25969,-0.74898 4.01941,-1.66439 z m 9.98629,10.64071 c 0,-0.55549 1.50008,-4.17551 3.33349,-8.0445 l 3.33351,-7.03456 -4.99788,-0.33819 c -7.09941,-0.48039 -6.21247,-2.43578 1.10486,-2.43578 7.31277,0 7.35957,0.19651 2.60874,10.95252 -3.08126,6.9761 -5.38272,9.9265 -5.38272,6.90051 z m 23.30133,-86.09263 0,-9.43149 4.35909,0 c 6.66366,0 10.3966,5.37888 6.16831,8.88805 -0.97331,0.80778 -1.2974,1.91335 -0.77168,2.63243 0.49852,0.68189 1.4926,2.61289 2.20906,4.29114 1.93934,4.54267 -0.96107,3.99902 -3.08808,-0.57881 -1.02561,-2.20738 -2.62253,-3.71823 -4.16095,-3.93671 -2.18899,-0.31089 -2.49657,0.1334 -2.49657,3.60616 0,2.17839 -0.49932,3.96072 -1.10959,3.96072 -0.65271,0 -1.10959,-3.88355 -1.10959,-9.43149 z m 8.8767,-2.21917 c 1.85043,-2.22962 -0.37418,-4.99315 -4.01941,-4.99315 -2.19152,0 -2.63811,0.56354 -2.63811,3.32876 0,2.76524 0.44659,3.32876 2.63811,3.32876 1.45095,0 3.25968,-0.74896 4.01941,-1.66437 z m 8.40116,9.90703 c -2.35879,-2.35879 -2.19259,-4.47359 0.49976,-6.3594 1.98142,-1.38783 2.04619,-1.73498 0.55478,-2.97274 -3.82607,-3.17536 -0.82407,-8.22467 4.51253,-7.58999 4.07211,0.4843 5.89596,3.4927 3.97867,6.56277 -1.22679,1.96441 -1.18207,2.63051 0.2855,4.25215 0.95709,1.05757 1.74016,2.47202 1.74016,3.14321 0,2.25904 -3.46279,4.70763 -6.65752,4.70763 -1.74364,0 -3.95489,-0.78463 -4.91388,-1.74363 z m 8.00558,-1.79189 c 1.01541,-1.01541 0.9,-1.77643 -0.50486,-3.32876 -1.00165,-1.10684 -2.20746,-2.01242 -2.67956,-2.01242 -1.74558,0 -4.23112,3.44567 -3.62498,5.02526 0.75206,1.95982 4.9698,2.1555 6.8094,0.31592 z m -0.31773,-10.34951 c 0,-1.44214 -0.8647,-2.32676 -2.50154,-2.5592 -2.95974,-0.42028 -4.73593,2.83123 -2.37589,4.34936 2.40748,1.54867 4.87743,0.64213 4.87743,-1.79016 z M 364.27336,859.89561 c -1.76397,-1.76395 -2.21918,-3.69862 -2.21918,-9.43149 0,-4.06849 0.48366,-7.21231 1.10959,-7.21231 0.61027,0 1.10959,2.77904 1.10959,6.17567 0,7.51514 1.40853,10.46813 4.99313,10.46813 3.58461,0 4.99315,-2.95299 4.99315,-10.46813 0,-3.39663 0.49931,-6.17567 1.10958,-6.17567 0.62592,0 1.10959,3.14382 1.10959,7.21231 0,8.09755 -2.19954,11.65067 -7.21232,11.65067 -1.52567,0 -3.77259,-0.99863 -4.99313,-2.21918 z m 17.75338,1.10959 c 0,-0.61027 0.99863,-1.10959 2.21918,-1.10959 1.97404,0 2.21917,-0.73972 2.21917,-6.69655 0,-6.35274 -0.11393,-6.63559 -2.21917,-5.5089 -2.77713,1.48627 -2.89681,-0.1524 -0.19002,-2.60199 3.80628,-3.44465 4.62836,-2.29268 4.62836,6.48554 0,6.65752 0.33288,8.3219 1.66439,8.3219 0.91541,0 1.66437,0.49932 1.66437,1.10959 0,0.61027 -2.2469,1.10959 -4.99313,1.10959 -2.74623,0 -4.99315,-0.49932 -4.99315,-1.10959 z m 13.30419,0.27739 c -0.005,-0.4577 1.36331,-4.71518 3.04283,-9.46106 2.0135,-5.68959 3.57602,-8.52431 4.58706,-8.32191 1.51211,0.30273 8.44875,17.34189 7.4617,18.32893 -1.01126,1.01127 -2.87527,-1.00364 -2.87527,-3.10801 0,-1.77119 -0.78449,-2.15369 -4.41722,-2.15369 -3.78629,0 -4.51665,0.3962 -5.11343,2.77396 -0.62901,2.50622 -2.65915,3.97404 -2.68567,1.94178 z m 10.65073,-7.88463 c -0.32282,-0.52235 -1.13636,-2.39477 -1.80788,-4.16095 -1.29053,-3.39428 -2.11589,-2.82341 -3.77939,2.61409 -0.67905,2.21954 -0.37887,2.49658 2.70523,2.49658 1.90795,0 3.20487,-0.42738 2.88204,-0.94972 z M 1124.3404,669.67713 c 0,-0.2635 -1.4853,-4.50767 -3.3007,-9.43149 -2.3172,-6.28444 -2.8783,-8.95239 -1.8829,-8.95239 0.7801,0 2.5439,3.49519 3.9197,7.7671 1.3758,4.27192 2.6935,7.76711 2.9284,7.76711 0.2348,0 1.5525,-3.49519 2.9283,-7.76711 1.3758,-4.27191 3.1397,-7.7671 3.9196,-7.7671 0.9954,0 0.4344,2.66795 -1.8828,8.95239 -1.8154,4.92382 -3.3008,9.16799 -3.3008,9.43149 0,0.26351 -0.7489,0.47909 -1.6643,0.47909 -0.9155,0 -1.6645,-0.21558 -1.6645,-0.47909 z m 13.3151,-0.63049 c 0,-0.61028 0.9986,-1.10959 2.2192,-1.10959 1.974,0 2.2192,-0.73973 2.2192,-6.69656 0,-6.35272 -0.114,-6.63558 -2.2192,-5.5089 -2.7771,1.48628 -2.8969,-0.15238 -0.1901,-2.60199 3.8064,-3.44464 4.6284,-2.29267 4.6284,6.48555 0,6.65752 0.3329,8.3219 1.6644,8.3219 0.9155,0 1.6644,0.49931 1.6644,1.10959 0,0.61027 -2.2468,1.10958 -4.9932,1.10958 -2.7462,0 -4.9931,-0.49931 -4.9931,-1.10958 z M 895.21081,568.04465 c -14.4567,-11.38478 -14.5357,-12.62376 -0.83217,-13.04972 l 10.26369,-0.31902 0,-28.80765 0,-28.80762 -10.54112,0 c -10.50411,0 -10.54114,-0.01 -10.54114,-2.77396 l 0,-2.77397 23.8562,0 23.85609,0 0,2.77397 c 0,2.76424 -0.0368,2.77396 -10.54102,2.77396 l -10.54112,0 0,28.80909 0,28.80908 10.80565,0.31759 c 8.82365,0.25931 10.86739,0.64065 11.14249,2.07899 0.36001,1.88228 -21.96181,19.94439 -24.45901,19.79147 -0.75492,-0.0462 -6.36581,-4.01623 -12.46854,-8.82221 z m 19.8885,-2.77396 6.57354,-4.96358 -13.70183,0 -13.70172,0 6.57344,4.96358 c 3.61542,2.72996 6.82314,4.96358 7.12828,4.96358 0.30515,0 3.51287,-2.23362 7.12829,-4.96358 z m 178.72749,2.77396 c -14.4566,-11.38478 -14.5356,-12.62376 -0.8322,-13.04972 l 10.2637,-0.31902 0,-28.80765 0,-28.80762 -10.5411,0 c -10.504,0 -10.541,-0.01 -10.541,-2.77396 l 0,-2.77397 23.856,0 23.8562,0 0,2.77397 c 0,2.76424 -0.037,2.77396 -10.5411,2.77396 l -10.541,0 0,28.80909 0,28.80908 10.8055,0.31759 c 8.8238,0.25931 10.8674,0.64065 11.1425,2.07899 0.36,1.88228 -21.9617,19.94439 -24.4589,19.79147 -0.755,-0.0462 -6.3659,-4.01623 -12.4686,-8.82221 z m 19.8885,-2.77396 6.5735,-4.96358 -13.7017,0 -13.7017,0 6.5734,4.96358 c 3.6154,2.72996 6.8231,4.96358 7.1283,4.96358 0.3051,0 3.5129,-2.23362 7.1282,-4.96358 z m 128.7961,2.77396 c -14.4565,-11.38478 -14.5355,-12.62376 -0.8321,-13.04972 l 10.2637,-0.31902 0,-11.60905 0,-11.60901 -8.322,0 -8.3219,0 0,-39.39034 0,-39.39034 8.3219,0 8.322,0 0,-14.42464 0,-14.42463 -27.1849,0 -27.1849,0 0,10.54109 c 0,10.50408 -0.012,10.54106 -2.774,10.54106 l -2.774,0 0,-23.85611 0,-23.85612 2.774,0 c 2.7642,0 2.774,0.0369 2.774,10.54106 l 0,10.54108 69.3492,0 69.3491,0 0,-10.54108 c 0,-10.50408 0.012,-10.54106 2.7741,-10.54106 l 2.7739,0 0,23.85612 0,23.85611 -2.7739,0 c -2.7643,0 -2.7741,-0.0369 -2.7741,-10.54106 l 0,-10.54109 -39.3903,0 -39.3904,0 0,14.37169 0,14.37169 6.9351,0.33033 6.9349,0.33035 0.2915,39.11294 0.2916,39.11295 -7.2265,0 -7.2266,0 0,11.61048 0,11.61048 10.8057,0.31759 c 8.8236,0.25931 10.8675,0.64065 11.1425,2.07899 0.3601,1.88228 -21.9617,19.94439 -24.459,19.79147 -0.7549,-0.0462 -6.3658,-4.01623 -12.4686,-8.82221 z m 19.8886,-2.77396 6.5735,-4.96358 -13.7017,0 -13.7018,0 6.5735,4.96358 c 3.6155,2.72996 6.8231,4.96358 7.1283,4.96358 0.3051,0 3.5128,-2.23362 7.1282,-4.96358 z m 3.9676,-73.20318 0,-33.8424 -12.7603,0 -12.7602,0 0,33.8424 0,33.84241 12.7602,0 12.7603,0 0,-33.84241 z m 13.315,0 0,-9.4315 4.3592,0 c 6.6637,0 10.3966,5.37889 6.1683,8.88805 -0.9733,0.80778 -1.2975,1.91335 -0.7718,2.63244 0.4986,0.68188 1.4927,2.61289 2.2092,4.29113 1.9393,4.54267 -0.9611,3.99903 -3.0881,-0.57881 -1.0256,-2.20737 -2.6225,-3.71823 -4.161,-3.93671 -2.1891,-0.31088 -2.4966,0.13341 -2.4966,3.60615 0,2.1784 -0.4993,3.96073 -1.1096,3.96073 -0.6526,0 -1.1096,-3.88355 -1.1096,-9.43148 z m 8.8768,-2.21918 c 1.8504,-2.22962 -0.3742,-4.99314 -4.0195,-4.99314 -2.1915,0 -2.6381,0.56353 -2.6381,3.32876 0,2.76524 0.4466,3.32876 2.6381,3.32876 1.4509,0 3.2598,-0.74897 4.0195,-1.66438 z m 9.5107,9.90703 c -2.6389,-2.63892 -2.3374,-12.08725 0.4755,-14.90017 2.3413,-2.34122 7.1634,-2.98416 8.322,-1.10959 0.3961,0.6409 -0.6543,1.10959 -2.4866,1.10959 -3.5329,0 -5.8354,1.75085 -5.8354,4.43746 0,1.37195 0.8742,1.6724 3.8536,1.32456 3.276,-0.38244 4.0481,-0.0232 5.1507,2.39653 2.6929,5.91041 -4.9065,11.31485 -9.4798,6.74162 z m 7.0163,-1.99928 c 1.8619,-2.24336 0.2794,-5.13379 -2.8108,-5.13379 -2.8689,0 -4.3768,2.2618 -3.3288,4.99315 0.7993,2.08302 4.4581,2.16683 6.1396,0.14064 z M 862.81271,475.42233 c -5.31447,-3.72236 -3.57219,-15.23284 2.53781,-16.76634 3.24911,-0.81548 6.13336,0.42736 6.90893,2.97714 0.38831,1.27648 0.1959,1.31505 -0.98804,0.19813 -1.99266,-1.87991 -6.00096,-1.75044 -7.659,0.24739 -0.746,0.89891 -1.35639,3.40898 -1.35639,5.57794 0,2.16897 0.61039,4.67904 1.35639,5.57794 1.63788,1.97351 5.6866,2.13657 7.52028,0.30287 0.7397,-0.73973 1.33148,-0.83836 1.33148,-0.22192 0,3.63907 -5.69047,4.88126 -9.65146,2.10685 z m 13.13195,0.18417 c -0.99395,-1.19768 -0.33558,-1.46345 3.4361,-1.38698 3.7213,0.0754 4.75083,-0.32763 5.08641,-1.99162 0.48661,-2.41199 -1.49423,-3.9752 -5.068,-3.99952 -3.55416,-0.0241 -3.10051,-2.0193 0.55475,-2.43987 2.1946,-0.25251 3.0514,-0.97419 3.0514,-2.57027 0,-1.79752 -0.68522,-2.18809 -3.60615,-2.05557 -4.03688,0.18316 -4.83542,-1.2883 -1.30695,-2.4082 3.89879,-1.23741 7.68704,0.31662 7.68704,3.15341 0,1.39199 -0.52043,3.05138 -1.15661,3.68752 -0.80241,0.80243 -0.63249,1.59157 0.55485,2.57696 2.38592,1.98014 2.13903,6.38959 -0.43484,7.7671 -2.98662,1.59836 -7.33159,1.43394 -8.798,-0.33296 z m 182.15524,-0.18417 c -5.3143,-3.72236 -3.5719,-15.23284 2.538,-16.76634 3.2492,-0.81548 6.1334,0.42736 6.9089,2.97714 0.3883,1.27648 0.1959,1.31505 -0.9881,0.19813 -1.9927,-1.87991 -6.0009,-1.75044 -7.659,0.24739 -0.7461,0.89891 -1.3563,3.40898 -1.3563,5.57794 0,2.16897 0.6102,4.67904 1.3563,5.57794 1.6379,1.97351 5.6866,2.13657 7.5203,0.30287 0.7398,-0.73973 1.3315,-0.83836 1.3315,-0.22192 0,3.63907 -5.6905,4.88126 -9.6516,2.10685 z m 20.7475,-0.55342 c 0,-1.84932 -0.7397,-2.21918 -4.4383,-2.21918 -2.4875,0 -4.4384,-0.53636 -4.4384,-1.22022 0,-2.65089 7.2909,-13.14275 9.1541,-13.17294 1.6142,-0.0262 1.9418,0.98247 1.9418,5.9788 0,3.72327 0.5278,6.25655 1.387,6.65752 1.1096,0.5178 1.1096,0.77671 0,1.29451 -0.7629,0.356 -1.387,1.60429 -1.387,2.77396 0,1.16971 -0.4993,2.12672 -1.1096,2.12672 -0.6103,0 -1.1096,-0.99863 -1.1096,-2.21917 z m 0,-8.8767 c 0,-2.44109 -0.3745,-4.4345 -0.8322,-4.4298 -0.4577,0.005 -1.9706,2.00195 -3.3618,4.43834 l -2.5297,4.42981 3.3618,0 c 3.1824,0 3.3619,-0.23686 3.3619,-4.43835 z m -1037.46387,-9.43149 0,-9.43149 4.359094,0 c 6.663656,0 10.39659,5.37888 6.168297,8.88805 -0.973308,0.80778 -1.297395,1.91334 -0.771677,2.63244 0.498519,0.68187 1.4926,2.61287 2.209073,4.29113 1.939337,4.54265 -0.961084,3.99903 -3.088094,-0.57881 -1.025613,-2.20738 -2.622522,-3.71822 -4.160952,-3.93672 -2.188979,-0.31087 -2.496568,0.13341 -2.496568,3.60617 0,2.17839 -0.499313,3.96072 -1.109586,3.96072 -0.652701,0 -1.109587,-3.88356 -1.109587,-9.43149 z m 8.876693,-2.21917 c 1.850429,-2.22964 -0.374172,-4.99315 -4.01942,-4.99315 -2.191499,0 -2.6381,0.56352 -2.6381,3.32877 0,2.76523 0.446601,3.32876 2.6381,3.32876 1.450958,0 3.259695,-0.74897 4.01942,-1.66438 z m 8.876694,10.54108 c 0,-0.61028 0.998627,-1.10959 2.219174,-1.10959 1.974038,0 2.219173,-0.73974 2.219173,-6.69657 0,-6.35272 -0.113935,-6.63558 -2.219173,-5.50889 -2.777132,1.48628 -2.896806,-0.15239 -0.190019,-2.602 3.806274,-3.44464 4.628375,-2.29268 4.628375,6.48555 0,6.65752 0.33287,8.32191 1.664376,8.32191 0.915409,0 1.664385,0.49931 1.664385,1.10959 0,0.61027 -2.246916,1.10958 -4.993146,1.10958 -2.746229,0 -4.993145,-0.49931 -4.993145,-1.10958 z M 2038.6401,449.9789 c 0,-0.26352 -1.4854,-4.50769 -3.3007,-9.4315 -2.3172,-6.28443 -2.8783,-8.95239 -1.8829,-8.95239 0.78,0 2.5439,3.49521 3.9196,7.76711 1.3759,4.27191 2.6937,7.76711 2.9285,7.76711 0.2348,0 1.5525,-3.4952 2.9283,-7.76711 1.3759,-4.2719 3.1398,-7.76711 3.9196,-7.76711 0.9956,0 0.4344,2.66796 -1.8828,8.95239 -1.8154,4.92381 -3.3008,9.16798 -3.3008,9.4315 0,0.2635 -0.7489,0.47909 -1.6643,0.47909 -0.9154,0 -1.6645,-0.21559 -1.6645,-0.47909 z m 12.8233,-1.98697 c -2.356,-3.36368 -2.1684,-7.07917 0.4918,-9.7394 4.4309,-4.43086 11.0959,-1.2833 11.0959,5.24004 0,6.006 -8.2804,9.22118 -11.5877,4.49936 z m 8.334,-2.11264 c 1.6882,-3.1543 -0.3079,-7.62676 -3.4038,-7.62676 -3.0959,0 -5.092,4.47246 -3.4039,7.62676 0.6945,1.29775 2.2263,2.35953 3.4039,2.35953 1.1775,0 2.7094,-1.06178 3.4038,-2.35953 z m 7.849,3.18215 c -1.5572,-1.55717 -1.6954,-13.02808 -0.1569,-13.02808 0.6103,0 1.1096,2.51224 1.1096,5.58275 0,3.95976 0.488,5.77002 1.6785,6.22687 2.9053,1.11492 4.9789,-1.7805 4.9789,-6.95234 0,-2.67151 0.4993,-4.85728 1.1096,-4.85728 0.6222,0 1.1096,3.06523 1.1096,6.97654 l 0,6.97653 -4.2814,0.17075 c -2.3549,0.0938 -4.8514,-0.39919 -5.5479,-1.09574 z m 16.117,0.65682 c -0.4068,-0.40684 -0.7398,-3.11145 -0.7398,-6.01026 0,-3.1315 -0.5628,-5.53323 -1.3869,-5.9178 -1.1096,-0.5178 -1.1096,-0.77671 0,-1.29452 0.7629,-0.35599 1.3869,-1.35462 1.3869,-2.21917 0,-0.86455 0.4994,-1.57191 1.1096,-1.57191 0.6103,0 1.1096,0.74898 1.1096,1.66439 0,0.91541 0.749,1.66437 1.6645,1.66437 0.9154,0 1.6643,0.49931 1.6643,1.10959 0,0.61027 -0.7489,1.10958 -1.6643,1.10958 -1.2329,0 -1.6645,1.29452 -1.6645,4.99315 0,3.69862 0.4316,4.99314 1.6645,4.99314 0.9154,0 1.6643,0.49931 1.6643,1.10958 0,1.23961 -3.6572,1.52092 -4.8082,0.36986 z m -785.9926,-51.96703 c -5.3143,-3.72235 -3.5722,-15.23283 2.5379,-16.76632 3.2491,-0.8155 6.1333,0.42735 6.9089,2.97713 0.3883,1.27647 0.1958,1.31504 -0.9881,0.19813 -1.9927,-1.87991 -6.0009,-1.75044 -7.6591,0.24739 -0.7459,0.89889 -1.3563,3.40896 -1.3563,5.57794 0,2.16896 0.6104,4.67904 1.3563,5.57793 1.638,1.97352 5.6867,2.13657 7.5204,0.30288 0.7398,-0.73974 1.3315,-0.83836 1.3315,-0.22192 0,3.63907 -5.6905,4.88125 -9.6515,2.10684 z m 14.7239,-0.0779 c -2.639,-2.63891 -2.3373,-12.08723 0.4756,-14.90015 2.3411,-2.34122 7.1634,-2.98417 8.3218,-1.10959 0.3962,0.6409 -0.6542,1.10959 -2.4865,1.10959 -3.533,0 -5.8353,1.75085 -5.8353,4.43745 0,1.37195 0.8741,1.67242 3.8536,1.32457 3.2759,-0.38244 4.0481,-0.0232 5.1506,2.39653 2.6929,5.9104 -4.9066,11.31484 -9.4798,6.74161 z m 7.0164,-1.99927 c 1.8619,-2.24337 0.2793,-5.13378 -2.8109,-5.13378 -2.869,0 -4.3769,2.26179 -3.3287,4.99314 0.7993,2.08301 4.4581,2.16681 6.1396,0.14064 z m -321.66349,-10.12692 0,-9.43148 4.35899,0 c 6.6637,0 10.3967,5.37887 6.1684,8.88804 -0.9733,0.80778 -1.2975,1.91335 -0.7717,2.63244 0.4985,0.68187 1.4926,2.61288 2.2091,4.29113 1.9392,4.54265 -0.9611,3.99903 -3.0881,-0.5788 -1.0256,-2.20738 -2.6225,-3.71823 -4.1609,-3.93673 -2.1891,-0.31087 -2.4967,0.13341 -2.4967,3.60617 0,2.1784 -0.49929,3.96072 -1.10959,3.96072 -0.6526,0 -1.1095,-3.88356 -1.1095,-9.43149 z m 8.87669,-2.21917 c 1.8503,-2.22963 -0.3741,-4.99314 -4.0194,-4.99314 -2.1916,0 -2.6382,0.56352 -2.6382,3.32876 0,2.76523 0.4466,3.32876 2.6382,3.32876 1.4509,0 3.2597,-0.74897 4.0194,-1.66438 z m 8.5068,10.91094 c -1.3487,-1.34863 -0.7662,-2.52954 0.9271,-1.87976 0.9168,0.3518 2.9455,0.31872 4.5083,-0.0736 2.3044,-0.57834 2.7759,-1.28265 2.4941,-3.72583 -0.3004,-2.60512 -0.9102,-3.05923 -4.5083,-3.35704 -4.0458,-0.33484 -4.1609,-0.46532 -4.1609,-4.71574 l 0,-4.37132 4.9931,0 c 2.7462,0 4.9931,0.49931 4.9931,1.10959 0,0.61027 -1.7475,1.10958 -3.8835,1.10958 -3.1438,0 -3.8835,0.4227 -3.8835,2.21918 0,1.50299 0.7397,2.21917 2.292,2.21917 6.1732,0 8.9726,6.3717 4.5555,10.3691 -2.0329,1.83965 -6.938,2.48564 -8.327,1.09663 z m 136.0742,-0.92604 c -5.3143,-3.72235 -3.5721,-15.23283 2.5378,-16.76632 3.2492,-0.81548 6.1333,0.42736 6.909,2.97713 0.3883,1.27648 0.1958,1.31505 -0.988,0.19813 -1.9928,-1.8799 -6.0011,-1.75044 -7.6591,0.2474 -0.746,0.8989 -1.3564,3.40897 -1.3564,5.57793 0,2.16897 0.6104,4.67904 1.3564,5.57795 1.6379,1.9735 5.6867,2.13656 7.5204,0.30286 0.7397,-0.73972 1.3314,-0.83835 1.3314,-0.22192 0,3.63908 -5.6904,4.88126 -9.6515,2.10684 z m 13.7201,0.92604 c -1.3487,-1.34863 -0.7661,-2.52954 0.9271,-1.87976 0.9168,0.3518 2.9454,0.31872 4.5084,-0.0736 2.3042,-0.57834 2.7756,-1.28265 2.4941,-3.72583 -0.3005,-2.60512 -0.9103,-3.05923 -4.5084,-3.35704 -4.0458,-0.33484 -4.161,-0.46532 -4.161,-4.71574 l 0,-4.37137 4.9932,0 c 2.7462,0 4.9931,0.49931 4.9931,1.10959 0,0.61027 -1.7476,1.10958 -3.8835,1.10958 -3.1439,0 -3.8837,0.4227 -3.8837,2.21918 0,1.50299 0.7398,2.21917 2.2922,2.21917 6.1733,0 8.9725,6.3717 4.5555,10.3691 -2.0329,1.83965 -6.938,2.48564 -8.327,1.09663 z m -364.68434,-10.91094 0,-9.43148 4.35909,0 c 6.66366,0 10.3966,5.37887 6.1683,8.88804 -0.9733,0.80778 -1.29739,1.91335 -0.77167,2.63244 0.49852,0.68187 1.4926,2.61288 2.20907,4.29112 1.93934,4.54266 -0.96107,3.99904 -3.08809,-0.5788 -1.02562,-2.20738 -2.62254,-3.71822 -4.16096,-3.93672 -2.18898,-0.31088 -2.49656,0.13341 -2.49656,3.60616 0,2.17841 -0.49932,3.96073 -1.10959,3.96073 -0.6527,0 -1.10959,-3.88356 -1.10959,-9.43149 z m 8.8767,-2.21918 c 1.85043,-2.22963 -0.37418,-4.99313 -4.01941,-4.99313 -2.19152,0 -2.63811,0.56352 -2.63811,3.32876 0,2.76523 0.44659,3.32876 2.63811,3.32876 1.45094,0 3.25968,-0.74898 4.01941,-1.66439 z m 15.53421,9.4315 c 0,-1.84932 -0.73973,-2.21918 -4.43835,-2.21918 -2.48744,0 -4.43834,-0.53635 -4.43834,-1.22022 0,-2.65088 7.29097,-13.14275 9.15408,-13.17294 1.61421,-0.0262 1.94178,0.98247 1.94178,5.9788 0,3.72327 0.52777,6.25655 1.38699,6.65752 1.1096,0.51779 1.1096,0.77671 0,1.29451 -0.76283,0.356 -1.38699,1.60429 -1.38699,2.77396 0,1.16971 -0.49931,2.12672 -1.10958,2.12672 -0.61028,0 -1.10959,-0.99863 -1.10959,-2.21917 z m 0,-8.8767 c 0,-2.44109 -0.37448,-4.4345 -0.83219,-4.4298 -0.4577,0.005 -1.97055,2.00195 -3.36188,4.43835 l -2.52971,4.4298 3.3619,0 c 3.18248,0 3.36188,-0.23685 3.36188,-4.43835 z m -341.7528,-224.69133 0,-9.43148 4.35908,0 c 6.66367,0 10.3966,5.37886 6.16832,8.88804 -0.97332,0.80777 -1.29741,1.91335 -0.77169,2.63244 0.49852,0.68187 1.4926,2.61287 2.20907,4.29112 1.93934,4.54267 -0.96107,3.99904 -3.08809,-0.57881 -1.02561,-2.20736 -2.62253,-3.71822 -4.16095,-3.9367 -2.18898,-0.31089 -2.49657,0.1334 -2.49657,3.60615 0,2.1784 -0.49931,3.96073 -1.10959,3.96073 -0.6527,0 -1.10958,-3.88355 -1.10958,-9.43149 z m 8.87669,-2.21918 c 1.85043,-2.22962 -0.37417,-4.99313 -4.01941,-4.99313 -2.19152,0 -2.63811,0.56352 -2.63811,3.32876 0,2.76523 0.44659,3.32876 2.63811,3.32876 1.45095,0 3.25969,-0.74898 4.01941,-1.66439 z m 7.91882,10.16909 c -0.99399,-1.19768 -0.33556,-1.46345 3.43603,-1.38698 3.72135,0.0754 4.75082,-0.32765 5.08648,-1.99162 0.48654,-2.41199 -1.49431,-3.9752 -5.06806,-3.99952 -3.55409,-0.0242 -3.10042,-2.01929 0.55479,-2.43987 2.19461,-0.25252 3.05137,-0.9742 3.05137,-2.57027 0,-1.79752 -0.6852,-2.18809 -3.60616,-2.05557 -4.03683,0.18314 -4.83536,-1.2883 -1.30691,-2.40819 3.89877,-1.23742 7.68704,0.31661 7.68704,3.15339 0,1.39201 -0.52049,3.05139 -1.15661,3.68753 -0.80244,0.80243 -0.63254,1.59156 0.55479,2.57696 2.38593,1.98013 2.13907,6.38958 -0.43483,7.76709 -2.98658,1.59838 -7.33154,1.43394 -8.79793,-0.33295 z"
       id="path5068"
       inkscape:connector-curvature="0" />
    <text
       xml:space="preserve"
       style="font-style:normal;font-variant:normal;font-weight:normal;font-stretch:normal;font-size:174.2610321px;line-height:125%;font-family:'Courier 10 Pitch';-inkscape-font-specification:'Courier 10 Pitch';letter-spacing:0px;word-spacing:0px;fill:#000000;fill-opacity:1;stroke:none;stroke-width:1px;stroke-linecap:butt;stroke-linejoin:miter;stroke-opacity:1"
       x="905.37549"
       y="136.94881"
       id="text5070"
       sodipodi:linespacing="125%"><tspan
         sodipodi:role="line"
         id="tspan5072"
         x="905.37549"
         y="136.94881">ECG</tspan></text>
  </g>
</svg>
