<?xml version="1.0" encoding="UTF-8" standalone="no"?>
<!-- Created with Inkscape (http://www.inkscape.org/) -->

<svg
   xmlns:dc="http://purl.org/dc/elements/1.1/"
   xmlns:cc="http://creativecommons.org/ns#"
   xmlns:rdf="http://www.w3.org/1999/02/22-rdf-syntax-ns#"
   xmlns:svg="http://www.w3.org/2000/svg"
   xmlns="http://www.w3.org/2000/svg"
   xmlns:sodipodi="http://sodipodi.sourceforge.net/DTD/sodipodi-0.dtd"
   xmlns:inkscape="http://www.inkscape.org/namespaces/inkscape"
   width="600mm"
   height="300mm"
   viewBox="0 0 2125.9843 1062.9921"
   id="svg2"
   version="1.1"
   inkscape:version="0.92pre3 r"
   sodipodi:docname="mdfbehuizing.svg">
  <sodipodi:namedview
     id="base"
     pagecolor="#ffffff"
     bordercolor="#666666"
     borderopacity="1.0"
     inkscape:pageopacity="0.0"
     inkscape:pageshadow="2"
     inkscape:zoom="0.7"
     inkscape:cx="591.39897"
     inkscape:cy="894.09351"
     inkscape:document-units="mm"
     inkscape:current-layer="layer1"
     showgrid="false"
     inkscape:window-width="1366"
     inkscape:window-height="699"
     inkscape:window-x="0"
     inkscape:window-y="27"
     inkscape:window-maximized="1"
     inkscape:measure-start="34.2857,467.143"
     inkscape:measure-end="34.2857,204.286"
     showguides="true"
     inkscape:guide-bbox="true" />
  <defs
     id="defs4" />
  <metadata
     id="metadata7">
    <rdf:RDF>
      <cc:Work
         rdf:about="">
        <dc:format>image/svg+xml</dc:format>
        <dc:type
           rdf:resource="http://purl.org/dc/dcmitype/StillImage" />
        <dc:title />
      </cc:Work>
    </rdf:RDF>
  </metadata>
  <g
     inkscape:label="Layer 1"
     inkscape:groupmode="layer"
     id="layer1"
     transform="translate(0,10.629923)"
     style="display:inline">
    <path
       style="fill:none;fill-rule:evenodd;stroke:#ff0000;stroke-width:0.4910118;stroke-linecap:butt;stroke-linejoin:miter;stroke-miterlimit:4;stroke-dasharray:none;stroke-opacity:1"
       d="M 17.716535,7.0866123 H 513.77952 V 219.68504 H 17.716535 Z"
       id="rect3336"
       inkscape:connector-curvature="0"
       sodipodi:nodetypes="ccccc" />
    <path
       style="fill:none;stroke:#ff0000;stroke-width:0.16421765;stroke-miterlimit:4;stroke-dasharray:none;stroke-opacity:1"
       id="path4152"
       sodipodi:type="arc"
       sodipodi:cx="436.90552"
       sodipodi:cy="5.812078"
       sodipodi:rx="5.2429633"
       sodipodi:ry="9.7881441"
       sodipodi:start="0.043990135"
       sodipodi:end="3.080903"
       d="m 442.14341,6.2425209 a 5.2429633,9.7881441 0 0 1 -5.19412,9.3573601 5.2429633,9.7881441 0 0 1 -5.27708,-9.1941285"
       sodipodi:open="true" />
    <path
       style="fill:none;stroke:#ff0000;stroke-width:0.14075857;stroke-miterlimit:4;stroke-dasharray:none;stroke-opacity:1"
       id="path4152-3"
       sodipodi:type="arc"
       sodipodi:cx="500.06693"
       sodipodi:cy="5.9358068"
       sodipodi:rx="4.5390387"
       sodipodi:ry="8.3066025"
       sodipodi:start="0.043990135"
       sodipodi:end="3.080903"
       d="M 504.60157,6.3010975 A 4.5390387,8.3066025 0 0 1 500.10482,14.24212 4.5390387,8.3066025 0 0 1 495.53624,6.4396222"
       sodipodi:open="true" />
    <path
       style="fill:none;stroke:#ff0000;stroke-width:0.12940644;stroke-miterlimit:4;stroke-dasharray:none;stroke-opacity:1"
       id="path4152-3-6"
       sodipodi:type="arc"
       sodipodi:cx="-499.6088"
       sodipodi:cy="-220.37607"
       sodipodi:rx="3.8319266"
       sodipodi:ry="8.3163395"
       sodipodi:start="0.043990135"
       sodipodi:end="3.080903"
       d="m -495.78058,-220.01035 a 3.8319266,8.3163395 0 0 1 -3.79622,7.95033 3.8319266,8.3163395 0 0 1 -3.85687,-7.81164"
       sodipodi:open="true"
       transform="scale(-1,-1)" />
    <path
       style="fill:none;stroke:#ff0000;stroke-width:0.14691077;stroke-miterlimit:4;stroke-dasharray:none;stroke-opacity:1"
       id="path4152-3-7"
       sodipodi:type="arc"
       sodipodi:cx="-433.22745"
       sodipodi:cy="-220.40399"
       sodipodi:rx="4.5375462"
       sodipodi:ry="9.051569"
       sodipodi:start="0.043990135"
       sodipodi:end="3.080903"
       d="m -428.69429,-220.00594 a 4.5375462,9.051569 0 0 1 -4.49527,8.6532 4.5375462,9.051569 0 0 1 -4.56708,-8.50225"
       sodipodi:open="true"
       transform="scale(-1,-1)" />
    <path
       style="fill:none;stroke:#ff0000;stroke-width:0.15280327;stroke-miterlimit:4;stroke-dasharray:none;stroke-opacity:1"
       id="path4152-3-3"
       sodipodi:type="arc"
       sodipodi:cx="38.001289"
       sodipodi:cy="6.434845"
       sodipodi:rx="4.5354495"
       sodipodi:ry="9.7967644"
       sodipodi:start="0.043990135"
       sodipodi:end="3.080903"
       d="M 42.532351,6.865667 A 4.5354495,9.7967644 0 0 1 38.039159,16.231268 4.5354495,9.7967644 0 0 1 33.47419,7.0290423"
       sodipodi:open="true" />
    <path
       style="fill:none;stroke:#ff0000;stroke-width:0.17018947;stroke-miterlimit:4;stroke-dasharray:none;stroke-opacity:1"
       id="path4152-3-5"
       sodipodi:type="arc"
       sodipodi:cx="160.58675"
       sodipodi:cy="6.3677535"
       sodipodi:rx="4.8851752"
       sodipodi:ry="11.282957"
       sodipodi:start="0.043990135"
       sodipodi:end="3.080903"
       d="M 165.4672,6.8639322 A 4.8851752,11.282957 0 0 1 160.62754,17.650317 4.8851752,11.282957 0 0 1 155.71056,7.052092"
       sodipodi:open="true" />
    <path
       style="fill:none;stroke:#ff0000;stroke-width:0.12939712;stroke-miterlimit:4;stroke-dasharray:none;stroke-opacity:1"
       id="path4152-3-62"
       sodipodi:type="arc"
       sodipodi:cx="301.25284"
       sodipodi:cy="6.5626988"
       sodipodi:rx="3.8319542"
       sodipodi:ry="8.3150826"
       sodipodi:start="0.043990135"
       sodipodi:end="3.080903"
       d="m 305.08109,6.9283625 a 3.8319542,8.3150826 0 0 1 -3.79626,7.9491295 3.8319542,8.3150826 0 0 1 -3.85689,-7.8104634"
       sodipodi:open="true" />
    <path
       style="fill:none;stroke:#ff0000;stroke-width:0.14691077;stroke-miterlimit:4;stroke-dasharray:none;stroke-opacity:1"
       id="path4152-3-9"
       sodipodi:type="arc"
       sodipodi:cx="-37.325298"
       sodipodi:cy="-220.17384"
       sodipodi:rx="4.5375462"
       sodipodi:ry="9.051569"
       sodipodi:start="0.043990135"
       sodipodi:end="3.080903"
       d="m -32.792142,-219.77579 a 4.5375462,9.051569 0 0 1 -4.495269,8.6532 4.5375462,9.051569 0 0 1 -4.56708,-8.50225"
       sodipodi:open="true"
       transform="scale(-1,-1)" />
    <path
       style="fill:none;stroke:#ff0000;stroke-width:0.17620885;stroke-miterlimit:4;stroke-dasharray:none;stroke-opacity:1"
       id="path4152-3-9-1"
       sodipodi:type="arc"
       sodipodi:cx="-164.10506"
       sodipodi:cy="-220.2282"
       sodipodi:rx="5.238945"
       sodipodi:ry="11.278446"
       sodipodi:start="0.043990135"
       sodipodi:end="3.080903"
       d="m -158.87118,-219.73221 a 5.238945,11.278446 0 0 1 -5.19013,10.78207 5.238945,11.278446 0 0 1 -5.27305,-10.59399"
       sodipodi:open="true"
       transform="scale(-1,-1)" />
    <path
       style="fill:none;stroke:#ff0000;stroke-width:0.16389106;stroke-miterlimit:4;stroke-dasharray:none;stroke-opacity:1"
       id="path4152-3-9-2"
       sodipodi:type="arc"
       sodipodi:cx="-297.30624"
       sodipodi:cy="-220.23315"
       sodipodi:rx="4.5283318"
       sodipodi:ry="11.287816"
       sodipodi:start="0.043990135"
       sodipodi:end="3.080903"
       d="m -292.78229,-219.73676 a 4.5283318,11.287816 0 0 1 -4.48614,10.79103 4.5283318,11.287816 0 0 1 -4.55781,-10.60279"
       sodipodi:open="true"
       transform="scale(-1,-1)" />
    <path
       style="fill:none;fill-rule:evenodd;stroke:#ff0000;stroke-width:0.44820026;stroke-linecap:butt;stroke-linejoin:miter;stroke-miterlimit:4;stroke-dasharray:none;stroke-opacity:1"
       d="M 17.716535,237.40157 H 513.77952 V 414.56692 H 17.716535 Z"
       id="rect3336-7"
       inkscape:connector-curvature="0"
       sodipodi:nodetypes="ccccc" />
    <path
       style="fill:none;fill-rule:evenodd;stroke:#ff0000;stroke-width:0.44820026;stroke-linecap:butt;stroke-linejoin:miter;stroke-miterlimit:4;stroke-dasharray:none;stroke-opacity:1"
       d="M 17.716535,432.28346 H 513.77952 V 609.44881 H 17.716535 Z"
       id="rect3336-7-9"
       inkscape:connector-curvature="0"
       sodipodi:nodetypes="ccccc" />
    <path
       style="fill:none;fill-rule:evenodd;stroke:#ff0000;stroke-width:0.30779579;stroke-linecap:butt;stroke-linejoin:miter;stroke-miterlimit:4;stroke-dasharray:none;stroke-opacity:1"
       d="M 17.716535,620.07721 H 251.5748 v 198.42672 l -233.858265,-6e-5 z"
       id="rect3336-7-9-3"
       inkscape:connector-curvature="0"
       sodipodi:nodetypes="ccccc" />
    <path
       style="fill:none;stroke:#ff0000;stroke-width:0.44383371;stroke-miterlimit:4;stroke-dasharray:none;stroke-opacity:1"
       id="path4152-3-9-1-0"
       sodipodi:type="arc"
       sodipodi:cx="-127.80147"
       sodipodi:cy="-415.7066"
       sodipodi:rx="20.497641"
       sodipodi:ry="18.288345"
       sodipodi:start="0.043990135"
       sodipodi:end="3.080903"
       d="m -107.32366,-414.90236 a 20.497641,18.288345 0 0 1 -20.30666,17.48346 20.497641,18.288345 0 0 1 -20.63105,-17.17847"
       sodipodi:open="true"
       transform="scale(-1,-1)" />
    <path
       style="fill:none;stroke:#ff0000;stroke-width:0.44383371;stroke-miterlimit:4;stroke-dasharray:none;stroke-opacity:1"
       id="path4152-3-9-1-0-2"
       sodipodi:type="arc"
       sodipodi:cx="-390.93817"
       sodipodi:cy="-415.51633"
       sodipodi:rx="20.497641"
       sodipodi:ry="18.288345"
       sodipodi:start="0.043990135"
       sodipodi:end="3.080903"
       d="m -370.46036,-414.71208 a 20.497641,18.288345 0 0 1 -20.30666,17.48346 20.497641,18.288345 0 0 1 -20.63105,-17.17847"
       sodipodi:open="true"
       transform="scale(-1,-1)" />
    <path
       style="fill:#000000;stroke-width:0.73878509"
       d="m 471.69365,478.4231 c -0.17509,-0.0231 -0.61421,-0.14793 -0.92592,-0.26317 -0.17974,-0.0664 -0.58415,-0.2247 -0.8987,-0.35168 -0.55756,-0.22509 -1.12585,-0.42345 -1.53866,-0.53709 -0.26382,-0.0726 -0.79061,-0.19057 -1.40443,-0.31444 -0.26855,-0.0542 -0.78239,-0.17125 -1.14186,-0.26012 l -0.6536,-0.16159 -0.19063,-0.0919 c -0.21162,-0.10207 -0.339,-0.20868 -0.40744,-0.34101 l -0.0454,-0.0879 0.0106,-0.26347 0.0107,-0.26347 0.12761,-0.33775 c 0.0702,-0.18576 0.14822,-0.41247 0.17339,-0.50381 l 0.0457,-0.16606 0.001,-0.35403 10e-4,-0.35403 -0.10116,-0.35403 c -0.12061,-0.42207 -0.15756,-0.62003 -0.15756,-0.84422 0,-0.20649 0.0457,-0.46228 0.10198,-0.57116 0.0753,-0.14561 0.18137,-0.26198 0.2929,-0.32136 l 0.10894,-0.058 0.63998,-0.0193 c 0.35198,-0.0106 0.68286,-0.031 0.73529,-0.0454 0.17009,-0.0466 0.39236,-0.16059 0.5038,-0.25836 0.14807,-0.12991 0.26387,-0.33158 0.3948,-0.68757 0.12447,-0.33839 0.1258,-0.3414 0.35122,-0.79398 l 0.16504,-0.33134 -0.0334,-0.0908 -0.0334,-0.0908 v -0.58552 -0.58551 l 0.0901,-0.25871 c 0.0496,-0.1423 0.19008,-0.44867 0.31225,-0.68083 0.51498,-0.97857 0.77519,-1.56663 1.21714,-2.75054 0.15376,-0.4119 0.34071,-0.87518 0.41546,-1.0295 0.17707,-0.36563 0.34777,-0.62238 0.91254,-1.37263 0.25602,-0.3401 0.65197,-0.89769 0.87988,-1.2391 0.2279,-0.34141 0.51556,-0.76177 0.63924,-0.93414 0.12367,-0.17236 0.27222,-0.39908 0.33009,-0.50381 l 0.10524,-0.19042 -0.003,-0.36765 c -10e-4,-0.2022 -0.0285,-0.90685 -0.0604,-1.5659 -0.0318,-0.65904 -0.0722,-1.57202 -0.0896,-2.02886 l -0.0316,-0.83062 0.0154,-0.65358 0.0154,-0.6536 0.041,-0.27356 c 0.12713,-0.84732 0.33068,-1.41713 0.68685,-1.92277 0.16314,-0.23159 0.48353,-0.54425 0.72743,-0.70989 0.20359,-0.13825 0.52678,-0.29698 0.75385,-0.37022 0.24798,-0.08 0.62159,-0.16017 0.92592,-0.1987 l 0.25872,-0.0327 0.53104,0.002 c 0.29207,0.001 0.64747,0.0158 0.78976,0.0324 0.35625,0.0416 0.74756,0.12402 1.05881,0.22305 0.32193,0.10242 0.80697,0.32938 1.04063,0.48691 0.43079,0.29044 0.79731,0.64418 1.05849,1.02157 0.16131,0.2331 0.3551,0.61713 0.43229,0.85667 0.15526,0.48181 0.25002,1.17883 0.34433,2.53267 0.13175,1.89117 0.24212,2.59385 0.50682,3.22656 0.0625,0.14948 0.26056,0.54776 0.44006,0.88508 0.77843,1.46283 1.06095,1.90776 1.95435,3.07789 0.77512,1.01521 1.14566,1.61817 1.53024,2.49007 0.21944,0.49749 0.44689,1.19877 0.57911,1.78553 0.0924,0.41009 0.24419,1.23631 0.30268,1.6476 l 0.0465,0.3268 10e-4,0.4085 10e-4,0.40849 -0.0609,0.22703 c -0.0335,0.12487 -0.0971,0.29882 -0.14141,0.38655 -0.0881,0.17449 -0.25857,0.39835 -0.46871,0.61541 l -0.13521,0.13967 0.2409,0.0428 c 0.1325,0.0236 0.29998,0.0511 0.37219,0.0612 l 0.13128,0.0183 0.0762,0.0641 c 0.0419,0.0352 0.10406,0.12869 0.13818,0.20767 l 0.0621,0.1436 0.0223,0.31318 c 0.0123,0.17225 0.0335,0.35607 0.0471,0.4085 0.0868,0.33413 0.30342,0.67762 0.63501,1.00699 l 0.22428,0.22277 0.47801,0.31637 c 0.26291,0.17401 0.5398,0.37832 0.6153,0.45402 0.0755,0.0757 0.17047,0.1974 0.21106,0.27043 l 0.0738,0.13279 v 0.16266 0.16266 l -0.0465,0.0994 c -0.0719,0.15349 -0.29145,0.34738 -0.73722,0.65095 -0.54186,0.36899 -0.80517,0.51846 -1.32956,0.75474 -0.49797,0.22437 -0.86189,0.42272 -1.26854,0.69138 -0.42163,0.27856 -0.66825,0.48479 -1.19446,0.99886 l -0.47774,0.46673 -0.18947,0.10973 c -0.22172,0.12841 -0.44037,0.20661 -0.71005,0.25393 l -0.1938,0.034 -0.50065,-0.0143 -0.50064,-0.0143 -0.19064,-0.0448 c -0.4168,-0.098 -0.68335,-0.24338 -0.9079,-0.49506 -0.0788,-0.0883 -0.18701,-0.24028 -0.24044,-0.33764 -0.0534,-0.0973 -0.12867,-0.22389 -0.16717,-0.28121 l -0.07,-0.10418 -0.10893,-0.0556 -0.10894,-0.0555 -0.72334,-0.0227 c -1.02035,-0.032 -3.49695,-0.0305 -4.03217,0.002 -0.24714,0.0152 -0.57491,0.0522 -0.72838,0.0821 -0.2852,0.0557 -0.58873,0.15315 -0.78306,0.25132 -0.18766,0.0948 -0.49475,0.31326 -0.7976,0.56742 -0.39125,0.32834 -0.57613,0.44912 -0.78751,0.5144 l -0.17716,0.0547 -0.18095,-0.004 c -0.0995,-0.002 -0.21772,-0.009 -0.26265,-0.0149 z m 0.59284,-0.87091 0.18432,-0.0422 0.15631,-0.10102 c 0.20425,-0.13202 0.36688,-0.31988 0.48317,-0.55816 0.11564,-0.23693 0.16886,-0.43926 0.20708,-0.78731 l 0.0295,-0.26797 -0.0319,-0.22223 c -0.0439,-0.30535 -0.12127,-0.55388 -0.27486,-0.8823 -0.16558,-0.35402 -0.3662,-0.67673 -1.20648,-1.94068 -0.80293,-1.20779 -1.08586,-1.61156 -1.52652,-2.17865 -0.53729,-0.69142 -0.90233,-1.03921 -1.27085,-1.21075 l -0.14753,-0.0686 -0.1828,-2.9e-4 -0.1828,-2.9e-4 -0.15761,0.0588 -0.15762,0.0588 -0.0817,0.0899 c -0.0449,0.0495 -0.13904,0.21602 -0.20913,0.37012 l -0.12742,0.28018 -0.0301,0.17702 c -0.0574,0.33699 -0.18886,0.84697 -0.25636,0.99442 -0.0893,0.19501 -0.22289,0.35806 -0.35734,0.43612 -0.1436,0.0834 -0.38227,0.14189 -0.66722,0.1636 l -0.23147,0.0177 -0.26523,-0.0434 c -0.14588,-0.0239 -0.37075,-0.0434 -0.4997,-0.0434 h -0.23447 l -0.095,0.0451 c -0.0522,0.0248 -0.12625,0.0922 -0.16436,0.14983 l -0.0693,0.10474 0.0131,0.18377 0.0132,0.18376 0.19432,0.45606 c 0.10687,0.25083 0.22514,0.56574 0.26283,0.69978 l 0.0686,0.24372 -3.7e-4,0.21252 c -5.6e-4,0.25338 -0.057,0.54013 -0.14053,0.7132 -0.0333,0.0692 -0.15179,0.25958 -0.26325,0.42322 l -0.20264,0.29752 -0.0128,0.11399 -0.0129,0.11398 0.0466,0.0712 c 0.0257,0.0392 0.10977,0.10153 0.18693,0.13861 l 0.1403,0.0675 1.2391,0.31357 c 0.68151,0.17247 1.55774,0.38804 1.94717,0.47905 0.38943,0.091 1.10022,0.26442 1.57952,0.38537 1.13615,0.28669 1.27774,0.31833 1.54546,0.34537 0.27462,0.0278 0.51939,0.0145 0.76305,-0.0412 z m 10.76057,-0.01 c 0.24482,-0.0354 0.52613,-0.13447 0.7044,-0.24809 0.0784,-0.05 0.32644,-0.23896 0.5511,-0.41993 0.76,-0.61217 1.13788,-0.87002 1.57574,-1.07521 0.13272,-0.0622 0.56777,-0.22069 0.96677,-0.35223 0.39901,-0.13152 0.81737,-0.28148 0.92971,-0.33324 0.43959,-0.20254 0.77049,-0.46658 0.92725,-0.73988 l 0.0799,-0.13925 2.9e-4,-0.11842 c 2.9e-4,-0.15431 -0.0632,-0.28383 -0.19425,-0.39601 -0.16819,-0.14396 -0.4176,-0.25358 -0.81312,-0.35736 -0.2022,-0.053 -0.43125,-0.12732 -0.50899,-0.16502 l -0.14134,-0.0686 -0.13099,-0.14355 c -0.072,-0.079 -0.16376,-0.20403 -0.20382,-0.27794 -0.0957,-0.17655 -0.20352,-0.50157 -0.25413,-0.76605 -0.0474,-0.24776 -0.052,-0.62291 -0.01,-0.79806 0.0372,-0.1541 0.0336,-0.31146 -0.008,-0.37879 -0.047,-0.0752 -0.26735,-0.13737 -0.59435,-0.16764 -0.15727,-0.0146 -0.30164,-0.0321 -0.32081,-0.039 -0.0192,-0.007 -0.10505,0.0515 -0.19083,0.12985 -0.41448,0.37855 -0.68347,0.57003 -1.02673,0.73088 -0.12321,0.0578 -0.30849,0.12487 -0.41173,0.14916 l -0.1877,0.0442 -0.20425,-0.0138 -0.20425,-0.0138 -0.1564,-0.059 c -0.21065,-0.0794 -0.45641,-0.2693 -0.65054,-0.50256 l -0.16033,-0.19263 -0.14939,-0.29956 c -0.0822,-0.16477 -0.1573,-0.34246 -0.16698,-0.39488 -0.01,-0.0525 -0.0296,-0.11063 -0.0443,-0.12936 -0.0326,-0.0417 -0.18958,-0.0438 -0.36973,-0.005 l -0.13448,0.0289 -0.10602,0.0907 c -0.13156,0.11261 -0.23727,0.30493 -0.28515,0.51879 l -0.0366,0.16339 -6e-5,0.66722 -5e-5,0.6672 0.0867,0.42211 c 0.18994,0.92424 0.22683,1.24912 0.19654,1.73115 -0.0114,0.18074 -0.0548,0.55452 -0.0964,0.8306 l -0.0757,0.50198 -2.9e-4,0.39488 -1.4e-4,0.39487 0.0555,0.13762 c 0.0703,0.17417 0.24645,0.43228 0.38223,0.56028 0.23544,0.22193 0.46509,0.34997 0.7224,0.40277 0.28563,0.0586 0.41309,0.0641 0.65955,0.0285 z m -5.89318,-2.29977 c 0.43278,-0.055 0.76177,-0.13013 1.09129,-0.24917 0.48954,-0.17684 0.96357,-0.49009 1.20673,-0.79743 0.0662,-0.0836 0.22624,-0.25625 0.35569,-0.38356 0.12944,-0.12732 0.2869,-0.28602 0.34991,-0.35267 0.063,-0.0666 0.2145,-0.2218 0.33663,-0.34477 0.12213,-0.12297 0.23018,-0.2492 0.24012,-0.28051 0.01,-0.0313 0.0289,-0.0569 0.0423,-0.0569 0.0133,0 0.0324,-0.0442 0.0426,-0.0982 0.0101,-0.054 0.0199,-0.60855 0.0217,-1.23229 l 0.004,-1.13408 0.063,-0.1558 0.0629,-0.1558 0.11625,-0.11961 0.11625,-0.11961 0.14273,-0.0474 c 0.0785,-0.0261 0.25522,-0.0553 0.39271,-0.065 l 0.24998,-0.0177 0.0194,-0.21786 c 0.0106,-0.11983 0.0325,-0.27095 0.0486,-0.33584 l 0.0293,-0.11798 -10e-4,-1.23792 c -10e-4,-1.42068 -0.0318,-1.85536 -0.16811,-2.42045 -0.13112,-0.54333 -0.40476,-1.14643 -1.03637,-2.28413 -0.2045,-0.36837 -0.26166,-0.513 -0.37803,-0.9566 -0.26975,-1.0282 -0.54274,-1.67409 -0.91824,-2.17252 -0.24123,-0.3202 -0.32976,-0.45251 -0.41278,-0.61697 -0.094,-0.18618 -0.16336,-0.44933 -0.16396,-0.62191 l -3.6e-4,-0.1162 -0.14298,0.0715 c -0.0786,0.0394 -0.16749,0.0931 -0.19744,0.11951 -0.17534,0.15438 -0.4821,0.3333 -0.74891,0.4368 -0.21619,0.0839 -0.38701,0.18441 -0.95316,0.561 l -0.50381,0.33513 -0.29956,0.25976 c -0.16476,0.14286 -0.35341,0.2862 -0.41923,0.3185 l -0.11967,0.0587 -0.33149,0.0128 -0.33149,0.0128 -0.12757,-0.0564 c -0.0702,-0.031 -0.19687,-0.12146 -0.28159,-0.20094 -0.20543,-0.19273 -0.54684,-0.62243 -0.67117,-0.84476 -0.11238,-0.20095 -0.36538,-0.48437 -0.43238,-0.48437 -0.054,0 -0.0701,0.0383 -0.13185,0.31425 -0.0711,0.31787 -0.223,0.68047 -0.5793,1.38318 l -0.31522,0.62172 -0.0293,0.14081 c -0.0161,0.0774 -0.0525,0.2082 -0.0809,0.29059 -0.0284,0.0824 -0.0728,0.24781 -0.0985,0.36764 -0.0258,0.11983 -0.0876,0.34654 -0.13738,0.50381 -0.0498,0.15727 -0.15052,0.50048 -0.22385,0.76267 l -0.13334,0.47673 -0.17874,0.39474 c -0.36173,0.79881 -0.63397,1.55157 -0.72747,2.0115 -0.0293,0.14427 -0.0747,0.42162 -0.10079,0.61634 l -0.0475,0.35403 -10e-4,1.0757 -0.001,1.0757 0.0754,0.20426 c 0.0414,0.11234 0.0966,0.24559 0.12255,0.29612 0.0508,0.0989 0.48161,0.49277 1.13651,1.03908 0.39415,0.32879 0.565,0.46513 1.18863,0.94845 0.42749,0.33131 0.65452,0.60927 0.74122,0.90754 l 0.0449,0.15445 -0.0248,0.17553 -0.0248,0.17554 -0.0674,0.1067 c -0.0898,0.14224 -0.33822,0.36632 -0.52392,0.47256 l -0.15042,0.0861 0.0619,0.0483 c 0.0341,0.0265 0.14159,0.089 0.23895,0.13877 0.0974,0.0497 0.24214,0.13149 0.32173,0.18159 0.25251,0.15897 0.53162,0.32533 0.67228,0.40069 0.0749,0.0401 0.21582,0.12158 0.31317,0.18104 0.19699,0.12028 0.35091,0.17465 0.6536,0.23085 l 0.20424,0.0379 0.58551,-0.0114 0.58552,-0.0114 0.34041,-0.0432 z m -1.22032,-15.63162 c 0.40329,-0.11765 1.43938,-0.57259 1.95437,-0.85814 0.15795,-0.0876 0.34043,-0.17329 0.40549,-0.19044 0.13027,-0.0344 0.70746,-0.31084 0.75721,-0.36274 0.0172,-0.0179 0.0657,-0.14291 0.10769,-0.27773 l 0.0764,-0.24508 0.001,-0.23149 10e-4,-0.23148 -0.0649,-0.0909 c -0.0357,-0.05 -0.11312,-0.12588 -0.1721,-0.16862 l -0.10724,-0.0777 -0.50874,-0.1638 c -0.52359,-0.16858 -0.93426,-0.34853 -1.08455,-0.47524 -0.0471,-0.0397 -0.0973,-0.0722 -0.11152,-0.0722 -0.0143,0 -0.0476,-0.0239 -0.074,-0.0532 l -0.0482,-0.0532 -0.1399,-0.0282 c -0.18994,-0.0383 -0.68823,-0.12494 -0.9705,-0.16872 -0.12732,-0.0197 -0.4153,-0.0361 -0.63998,-0.0365 l -0.40849,-5.6e-4 -0.1561,0.0885 c -0.17333,0.0982 -0.54329,0.37732 -0.76298,0.57559 -0.0786,0.071 -0.23258,0.19987 -0.34204,0.2864 -0.10946,0.0865 -0.23539,0.20755 -0.27985,0.26891 -0.0445,0.0614 -0.10015,0.17805 -0.12377,0.25929 l -0.0429,0.14771 0.0162,0.081 c 0.026,0.12993 0.11132,0.22462 0.28666,0.31807 l 0.16381,0.0873 0.0955,0.11465 c 0.0525,0.0631 0.14856,0.18206 0.2134,0.26443 l 0.11786,0.14979 0.17563,0.089 0.17562,0.089 0.22778,0.0279 0.22779,0.0279 0.31688,-0.0293 c 0.3592,-0.0333 0.85515,-0.12802 1.21276,-0.23175 0.13327,-0.0386 0.409,-0.13199 0.61275,-0.2074 0.20374,-0.0754 0.52918,-0.19443 0.72318,-0.26448 l 0.35274,-0.12737 0.083,-0.0901 c 0.0457,-0.0496 0.11576,-0.12618 0.15579,-0.17021 l 0.0728,-0.0801 h 0.066 c 0.0363,0 0.0872,0.0234 0.11307,0.0521 l 0.0471,0.052 -0.009,0.0771 -0.009,0.0771 -0.13616,0.0889 c -0.15217,0.0994 -0.3687,0.18682 -1.00762,0.40698 -0.23966,0.0826 -0.62569,0.23998 -0.85785,0.34978 -0.23216,0.1098 -0.53241,0.23414 -0.6672,0.2763 l -0.24511,0.0767 h -0.76252 c -0.4194,0 -0.77732,0.01 -0.79538,0.0213 -0.0181,0.0117 -0.0255,0.0403 -0.0165,0.0637 0.0212,0.0553 0.47212,0.42813 0.62863,0.51985 0.0668,0.0392 0.19055,0.0872 0.27496,0.1067 l 0.15349,0.0355 0.2451,-0.0119 0.24509,-0.0119 0.23665,-0.0691 z m -2.12756,-3.0925 c 0.0603,-0.0322 0.21544,-0.28947 0.21582,-0.35777 l 2.9e-4,-0.0455 -0.0935,-0.0309 c -0.0514,-0.017 -0.13654,-0.0785 -0.1891,-0.13666 l -0.0956,-0.10578 -0.046,-0.14461 -0.046,-0.14458 -0.0129,-0.27316 -0.0129,-0.27315 0.0408,-0.0977 c 0.0481,-0.11501 0.18102,-0.22363 0.34422,-0.28121 l 0.11685,-0.0412 0.11276,0.0157 c 0.062,0.009 0.14653,0.0285 0.1878,0.0441 0.0902,0.0341 0.23933,0.23051 0.33699,0.44385 l 0.0713,0.15573 0.0133,0.18081 0.0133,0.18081 0.043,0.034 c 0.0236,0.0188 0.0841,0.034 0.13437,0.034 h 0.0913 l 0.0706,-0.0706 0.0706,-0.0706 -0.0152,-0.3583 -0.0151,-0.35831 -0.0548,-0.20816 c -0.0737,-0.27982 -0.19985,-0.52132 -0.34705,-0.66438 l -0.12157,-0.11814 -0.1558,-0.0588 -0.15579,-0.0588 -0.15131,0.0132 -0.1513,0.0132 -0.16188,0.0823 c -0.25451,0.12939 -0.42656,0.34467 -0.53324,0.66722 l -0.0559,0.16891 -0.0144,0.31876 -0.0144,0.31877 0.0324,0.2259 c 0.0493,0.34287 0.10929,0.5613 0.20907,0.76174 0.0874,0.17558 0.17316,0.26753 0.24948,0.26753 0.0201,0 0.0603,-0.0127 0.0892,-0.0282 z m 5.22141,-0.12348 c 0.0896,-0.0628 0.18874,-0.27772 0.22554,-0.48899 l 0.0322,-0.18524 -0.0177,-0.23428 c -0.0219,-0.29045 -0.0897,-0.57843 -0.22963,-0.9753 -0.11593,-0.32889 -0.23334,-0.53711 -0.36563,-0.64842 -0.1843,-0.15508 -0.48227,-0.25849 -0.89368,-0.31015 l -0.20067,-0.0252 -0.13616,0.0258 c -0.17762,0.0337 -0.35516,0.12109 -0.48587,0.23917 -0.14754,0.1333 -0.36027,0.50679 -0.45685,0.80212 l -0.0818,0.25007 -0.0167,0.27382 c -0.0168,0.27504 10e-4,0.54054 0.0421,0.60603 l 0.0217,0.0352 0.23959,0.0388 c 0.13177,0.0213 0.24837,0.0333 0.25911,0.0267 0.0107,-0.007 0.0265,-0.13807 0.0349,-0.29206 l 0.0154,-0.27997 0.0539,-0.15949 0.0539,-0.15948 0.10482,-0.10928 c 0.0576,-0.0601 0.15385,-0.13206 0.21377,-0.15991 l 0.10893,-0.0507 0.16886,-5.6e-4 c 0.2414,-5.5e-4 0.42563,0.0457 0.57282,0.14473 0.0704,0.0473 0.1652,0.1393 0.21061,0.20424 l 0.0826,0.11809 -8e-5,0.30403 -8e-5,0.30403 -0.0787,0.2507 -0.0787,0.25069 0.0469,0.0716 c 0.0597,0.0911 0.24233,0.17457 0.38381,0.17535 l 0.10969,5.5e-4 0.061,-0.0428 z"
       id="path4731"
       inkscape:connector-curvature="0" />
    <path
       style="fill:#000000;stroke-width:0.72587252"
       d="m 45.024507,561.55233 c -0.172036,0.0227 -0.603473,0.14535 -0.909737,0.25857 -0.176603,0.0653 -0.573945,0.22077 -0.88299,0.34553 -0.54782,0.22116 -1.106171,0.41606 -1.511773,0.52771 -0.259203,0.0714 -0.776787,0.18724 -1.379882,0.30895 -0.263852,0.0533 -0.768714,0.16825 -1.121907,0.25557 l -0.642171,0.15876 -0.187297,0.0903 c -0.207922,0.10028 -0.333078,0.20503 -0.400314,0.33504 l -0.04463,0.0863 0.01043,0.25886 0.01049,0.25886 0.125385,0.33185 c 0.06896,0.18252 0.145627,0.40527 0.170359,0.49501 l 0.04495,0.16315 0.0017,0.34785 0.0017,0.34784 -0.0994,0.34784 c -0.118497,0.4147 -0.154798,0.6092 -0.154798,0.82947 0,0.20288 0.0449,0.45419 0.1002,0.56117 0.07398,0.14307 0.178192,0.2574 0.287776,0.31575 l 0.107033,0.057 0.628794,0.019 c 0.345831,0.0104 0.670928,0.0305 0.72244,0.0446 0.16712,0.0458 0.385501,0.15778 0.495003,0.25384 0.14548,0.12764 0.259247,0.32578 0.387899,0.67556 0.122288,0.33247 0.123594,0.33543 0.345078,0.7801 l 0.162154,0.32555 -0.03282,0.0892 -0.03282,0.0892 v 0.57528 0.57528 l 0.08853,0.25418 c 0.04872,0.13982 0.186756,0.44083 0.306794,0.66894 0.505976,0.96147 0.761647,1.53925 1.195869,2.70247 0.151072,0.40469 0.334759,0.85987 0.408195,1.0115 0.173975,0.35924 0.341685,0.6115 0.896595,1.34864 0.251546,0.33415 0.64057,0.882 0.864496,1.21744 0.223925,0.33544 0.506555,0.74846 0.628067,0.91781 0.121514,0.16935 0.267463,0.39211 0.324327,0.49501 l 0.103396,0.18709 -0.0028,0.36122 c -0.0017,0.19867 -0.02802,0.89101 -0.0593,1.53854 -0.0313,0.64752 -0.07092,1.54454 -0.08801,1.9934 l -0.03108,0.81609 0.01519,0.64217 0.01519,0.64217 0.04031,0.26878 c 0.124905,0.83251 0.324896,1.39236 0.674845,1.88916 0.160293,0.22755 0.475077,0.53474 0.714716,0.69748 0.200029,0.13584 0.517573,0.29179 0.740668,0.36375 0.243647,0.0786 0.610731,0.15737 0.909741,0.19523 l 0.254196,0.0322 0.521761,-0.002 c 0.286967,-10e-4 0.636152,-0.0155 0.775957,-0.0319 0.350031,-0.0409 0.734494,-0.12186 1.040305,-0.21916 0.316303,-0.10063 0.792867,-0.32361 1.022439,-0.4784 0.42326,-0.28536 0.78338,-0.63292 1.039989,-1.00371 0.158496,-0.22902 0.348901,-0.60634 0.42474,-0.8417 0.152543,-0.47339 0.245648,-1.15823 0.33831,-2.4884 0.129444,-1.85812 0.237891,-2.54851 0.497964,-3.17017 0.06144,-0.14686 0.256002,-0.53818 0.432365,-0.86961 0.764825,-1.43726 1.042403,-1.87441 1.920193,-3.0241 0.761569,-0.99746 1.125632,-1.58988 1.503497,-2.44654 0.215601,-0.4888 0.439072,-1.17782 0.568986,-1.75433 0.09079,-0.40292 0.239923,-1.21469 0.297389,-1.6188 l 0.04566,-0.32108 0.0017,-0.40136 0.0017,-0.40135 -0.0598,-0.22307 c -0.03288,-0.12268 -0.0954,-0.29359 -0.138925,-0.37979 -0.08653,-0.17144 -0.254054,-0.39138 -0.460522,-0.60466 l -0.132847,-0.13722 0.23669,-0.0421 c 0.130181,-0.0231 0.294734,-0.0502 0.365685,-0.0601 l 0.128985,-0.018 0.07482,-0.0629 c 0.04113,-0.0346 0.102243,-0.12644 0.135763,-0.20405 l 0.06094,-0.14108 0.02196,-0.30771 c 0.01213,-0.16924 0.03293,-0.34985 0.04632,-0.40135 0.08529,-0.3283 0.298115,-0.66578 0.623911,-0.9894 l 0.220354,-0.21887 0.469659,-0.31085 c 0.258319,-0.17096 0.530358,-0.3717 0.604543,-0.44608 0.07418,-0.0744 0.167497,-0.19395 0.20737,-0.2657 l 0.07249,-0.13048 v -0.15981 -0.15982 l -0.04572,-0.0977 c -0.07061,-0.15081 -0.286355,-0.34131 -0.724335,-0.63957 -0.532385,-0.36254 -0.791086,-0.5094 -1.306315,-0.74155 -0.489263,-0.22045 -0.846831,-0.41533 -1.246376,-0.67929 -0.414258,-0.27369 -0.656562,-0.47632 -1.173571,-0.98141 l -0.469398,-0.45857 -0.186155,-0.10781 c -0.217851,-0.12617 -0.432677,-0.203 -0.697643,-0.2495 l -0.19041,-0.0335 -0.491901,0.014 -0.491889,0.014 -0.187303,0.0441 c -0.409523,0.0963 -0.671414,0.23912 -0.892034,0.48641 -0.07743,0.0868 -0.183747,0.23607 -0.236242,0.33173 -0.05249,0.0957 -0.126417,0.21998 -0.164253,0.27629 l -0.06879,0.10237 -0.107032,0.0546 -0.107028,0.0546 -0.710702,0.0223 c -1.002514,0.0314 -3.435822,0.03 -3.961696,-0.002 -0.242818,-0.0149 -0.564862,-0.0512 -0.715646,-0.0807 -0.280216,-0.0547 -0.57844,-0.15047 -0.769375,-0.24692 -0.184379,-0.0931 -0.4861,-0.30779 -0.783657,-0.55751 -0.38441,-0.3226 -0.566069,-0.44126 -0.773745,-0.50541 l -0.174062,-0.0537 -0.177793,0.004 c -0.09779,0.002 -0.213913,0.009 -0.258062,0.0147 z m 0.582471,0.85569 0.181108,0.0414 0.153575,0.0993 c 0.200679,0.12971 0.360469,0.31429 0.474722,0.5484 0.113621,0.23278 0.165908,0.43158 0.203465,0.77354 l 0.02895,0.26329 -0.03135,0.21835 c -0.04309,0.30001 -0.119153,0.5442 -0.270056,0.86688 -0.162686,0.34783 -0.359803,0.6649 -1.185392,1.90676 -0.788908,1.18668 -1.066884,1.5834 -1.499845,2.14058 -0.5279,0.67934 -0.886562,1.02105 -1.248641,1.18959 l -0.144945,0.0674 -0.179607,2.8e-4 -0.179606,2.9e-4 -0.154853,-0.0578 -0.154863,-0.0578 -0.08027,-0.0884 c -0.04413,-0.0486 -0.13661,-0.21224 -0.205469,-0.36364 l -0.125194,-0.27529 -0.0296,-0.17392 c -0.05638,-0.33111 -0.185549,-0.83218 -0.251875,-0.97705 -0.08772,-0.19161 -0.218987,-0.35181 -0.351095,-0.4285 -0.141089,-0.0819 -0.375588,-0.1394 -0.655553,-0.16074 l -0.227431,-0.0173 -0.260597,0.0426 c -0.143328,0.0235 -0.36426,0.0426 -0.490962,0.0426 h -0.230369 l -0.09339,-0.0443 c -0.05134,-0.0244 -0.124041,-0.0906 -0.161489,-0.14721 l -0.06809,-0.10291 0.01289,-0.18055 0.01294,-0.18056 0.190918,-0.44808 c 0.105001,-0.24645 0.22121,-0.55586 0.258237,-0.68755 l 0.06732,-0.23946 -3.6e-4,-0.20881 c -5.46e-4,-0.24895 -0.05606,-0.53069 -0.138068,-0.70074 -0.03277,-0.0679 -0.149151,-0.25504 -0.258652,-0.41582 l -0.199101,-0.29232 -0.01261,-0.112 -0.01262,-0.11199 0.04582,-0.07 c 0.02523,-0.0385 0.107859,-0.0997 0.183671,-0.13618 l 0.137844,-0.0663 1.217448,-0.3081 c 0.669595,-0.16945 1.530508,-0.38126 1.91313,-0.47068 0.382629,-0.0894 1.080992,-0.25979 1.551914,-0.37863 1.116292,-0.28167 1.255414,-0.31277 1.518447,-0.33933 0.269822,-0.0273 0.510319,-0.0142 0.749717,0.0405 z m 10.572502,0.01 c 0.240541,0.0348 0.516933,0.13212 0.692093,0.24375 0.07706,0.0491 0.320723,0.23478 0.541464,0.41259 0.746718,0.60148 1.117991,0.85481 1.548198,1.05642 0.130405,0.0611 0.557849,0.21684 0.949877,0.34607 0.392028,0.12923 0.803081,0.27656 0.913457,0.32742 0.431906,0.199 0.757025,0.45842 0.911042,0.72695 l 0.07847,0.13681 2.84e-4,0.11636 c 2.89e-4,0.15161 -0.0621,0.27886 -0.190858,0.38908 -0.165252,0.14145 -0.410299,0.24915 -0.798903,0.35112 -0.198674,0.0521 -0.423713,0.12509 -0.500093,0.16213 l -0.138871,0.0674 -0.128701,0.14104 c -0.07078,0.0776 -0.160899,0.20047 -0.200258,0.27308 -0.09403,0.17347 -0.199963,0.49281 -0.249689,0.75267 -0.04659,0.24343 -0.05112,0.61202 -0.0097,0.78411 0.03648,0.15141 0.03304,0.30602 -0.0082,0.37217 -0.04615,0.0739 -0.262678,0.13497 -0.583968,0.16471 -0.154526,0.0143 -0.296362,0.0316 -0.3152,0.0383 -0.01884,0.007 -0.103216,-0.0506 -0.187494,-0.12758 -0.40724,-0.37194 -0.671529,-0.56007 -1.008779,-0.71811 -0.121065,-0.0568 -0.303107,-0.12268 -0.404536,-0.14655 l -0.184424,-0.0434 -0.200673,0.0136 -0.200684,0.0136 -0.153668,0.0579 c -0.206971,0.0781 -0.448439,0.2646 -0.639178,0.49378 l -0.157518,0.18926 -0.146779,0.29434 c -0.08072,0.16187 -0.154553,0.33647 -0.164062,0.38798 -0.0095,0.0515 -0.02911,0.1087 -0.04353,0.12709 -0.03212,0.0409 -0.186271,0.043 -0.363271,0.005 l -0.132131,-0.0283 -0.104165,-0.0892 c -0.129259,-0.11065 -0.233124,-0.2996 -0.280168,-0.50972 l -0.03594,-0.16055 -5.4e-5,-0.65555 -5.4e-5,-0.65554 0.08523,-0.41474 c 0.186624,-0.90809 0.222865,-1.22728 0.193103,-1.70088 -0.01114,-0.17759 -0.0538,-0.54484 -0.09472,-0.8161 l -0.07442,-0.49319 -2.84e-4,-0.38799 -1.42e-4,-0.38797 0.05462,-0.13521 c 0.06913,-0.17113 0.242141,-0.42473 0.375549,-0.55049 0.231327,-0.21805 0.456955,-0.34385 0.709775,-0.39573 0.280631,-0.0576 0.405868,-0.063 0.648025,-0.0279 z m -5.790176,2.25957 c 0.425221,0.0541 0.748456,0.12786 1.072214,0.24482 0.480977,0.17375 0.946725,0.48152 1.185633,0.78349 0.06502,0.0822 0.222286,0.25177 0.349474,0.37686 0.127182,0.12509 0.281892,0.28102 0.343804,0.3465 0.06191,0.0655 0.210746,0.21792 0.33074,0.33875 0.119994,0.12082 0.226164,0.24484 0.235924,0.2756 0.0098,0.0308 0.0284,0.0559 0.04151,0.0559 0.01305,0 0.0319,0.0434 0.04184,0.0965 0.0099,0.0531 0.0195,0.59791 0.0213,1.21075 l 0.0033,1.11427 0.06184,0.15308 0.06184,0.15308 0.114216,0.11751 0.114216,0.11752 0.140236,0.0466 c 0.07712,0.0256 0.250759,0.0544 0.385846,0.0639 l 0.245614,0.0173 0.01901,0.21406 c 0.01043,0.11772 0.03195,0.26621 0.04774,0.32997 l 0.02878,0.11591 -0.0017,1.21629 c -0.0017,1.39585 -0.03119,1.82292 -0.165181,2.37815 -0.128827,0.53383 -0.397681,1.12639 -1.018245,2.2442 -0.200929,0.36193 -0.25709,0.50404 -0.371431,0.93989 -0.265026,1.01022 -0.533253,1.64483 -0.902194,2.13454 -0.237012,0.31461 -0.323994,0.44461 -0.405558,0.60619 -0.09233,0.18292 -0.160505,0.44148 -0.16109,0.61104 l -3.6e-4,0.11417 -0.140477,-0.0703 c -0.07726,-0.0387 -0.164558,-0.0915 -0.193987,-0.11741 -0.172283,-0.15168 -0.473675,-0.32747 -0.735822,-0.42917 -0.212417,-0.0824 -0.380247,-0.18118 -0.936501,-0.5512 l -0.495004,-0.32927 -0.294329,-0.25521 c -0.161877,-0.14037 -0.347234,-0.2812 -0.411899,-0.31295 l -0.11758,-0.0577 -0.325698,-0.0126 -0.325698,-0.0126 -0.125337,0.0555 c -0.06893,0.0305 -0.19343,0.11933 -0.276665,0.19742 -0.201848,0.18936 -0.537284,0.61155 -0.659442,0.82999 -0.110413,0.19744 -0.358994,0.4759 -0.424827,0.4759 -0.05309,0 -0.06885,-0.0376 -0.129542,-0.30875 -0.0699,-0.31232 -0.219107,-0.66858 -0.569172,-1.359 l -0.309716,-0.61085 -0.02873,-0.13836 c -0.01584,-0.0761 -0.05162,-0.20456 -0.0795,-0.2855 -0.02791,-0.081 -0.07147,-0.24349 -0.0968,-0.36123 -0.02534,-0.11773 -0.08606,-0.34047 -0.134976,-0.495 -0.04894,-0.15452 -0.147888,-0.49173 -0.219938,-0.74934 l -0.131005,-0.4684 -0.175619,-0.38783 c -0.355406,-0.78486 -0.622885,-1.52446 -0.71475,-1.97635 -0.02884,-0.14175 -0.07338,-0.41425 -0.09903,-0.60556 l -0.04664,-0.34785 -0.0011,-1.0569 -0.0011,-1.05691 0.07405,-0.20067 c 0.04074,-0.11038 0.09491,-0.24131 0.120404,-0.29096 0.04987,-0.0971 0.473188,-0.48414 1.116648,-1.02092 0.387254,-0.32304 0.555128,-0.457 1.167853,-0.93187 0.420016,-0.32552 0.643073,-0.59862 0.728262,-0.89167 l 0.04413,-0.15175 -0.02441,-0.17247 -0.02442,-0.17247 -0.06618,-0.10483 c -0.08823,-0.13976 -0.332313,-0.35992 -0.51477,-0.46431 l -0.147785,-0.0846 0.06085,-0.0475 c 0.03348,-0.0261 0.139111,-0.0875 0.234773,-0.13635 0.09565,-0.0489 0.237902,-0.12918 0.316101,-0.17841 0.248094,-0.15619 0.522335,-0.31964 0.660528,-0.39367 0.07358,-0.0394 0.212051,-0.11947 0.307707,-0.17788 0.193539,-0.11819 0.344776,-0.17161 0.642171,-0.22682 l 0.200678,-0.0372 0.575278,0.0112 0.575278,0.0112 0.334459,0.0425 z m -1.198993,15.35842 c 0.396234,0.11559 1.414222,0.56258 1.920204,0.84314 0.155196,0.0861 0.334486,0.17026 0.398413,0.18711 0.127991,0.0337 0.695098,0.30541 0.743977,0.3564 0.01688,0.0176 0.06452,0.14042 0.105804,0.27287 l 0.07505,0.2408 0.0017,0.22744 0.0017,0.22744 -0.06372,0.0893 c -0.03507,0.0491 -0.11114,0.12368 -0.169092,0.16567 l -0.105367,0.0763 -0.499842,0.16093 c -0.514443,0.16564 -0.917936,0.34244 -1.0656,0.46694 -0.04627,0.039 -0.09558,0.0709 -0.109567,0.0709 -0.01398,0 -0.04675,0.0235 -0.07274,0.0523 l -0.0473,0.0523 -0.137451,0.0277 c -0.186625,0.0377 -0.676204,0.12276 -0.953542,0.16577 -0.12509,0.0194 -0.408048,0.0355 -0.628794,0.0359 l -0.401352,5.5e-4 -0.153372,-0.0869 c -0.170305,-0.0965 -0.533789,-0.37073 -0.749641,-0.56553 -0.07728,-0.0698 -0.228513,-0.19637 -0.336065,-0.28139 -0.107547,-0.085 -0.231282,-0.20393 -0.274962,-0.26421 -0.0437,-0.0603 -0.0984,-0.17494 -0.1216,-0.25476 l -0.04217,-0.14513 0.01595,-0.0796 c 0.02556,-0.12766 0.109377,-0.22069 0.281647,-0.31251 l 0.160949,-0.0858 0.09386,-0.11265 c 0.05162,-0.062 0.145971,-0.17887 0.209669,-0.2598 l 0.115805,-0.14717 0.172555,-0.0875 0.17256,-0.0875 0.223794,-0.0274 0.223804,-0.0275 0.311339,0.0288 c 0.352931,0.0327 0.840217,0.12578 1.191575,0.2277 0.130935,0.038 0.401849,0.12968 0.602036,0.20378 0.200182,0.0741 0.519926,0.19102 0.710544,0.25985 l 0.346573,0.12513 0.08154,0.0886 c 0.04484,0.0487 0.113724,0.12398 0.153061,0.16723 l 0.07153,0.0787 h 0.0648 c 0.03561,0 0.08563,-0.023 0.111097,-0.0512 l 0.04626,-0.0511 -0.0087,-0.0758 -0.0087,-0.0758 -0.133786,-0.0874 c -0.149505,-0.0976 -0.36225,-0.18356 -0.990012,-0.39987 -0.23546,-0.0811 -0.614746,-0.23579 -0.842849,-0.34367 -0.228103,-0.10788 -0.5231,-0.23005 -0.655547,-0.27147 l -0.240819,-0.0753 H 48.23631 c -0.412063,0 -0.763727,-0.009 -0.781479,-0.0209 -0.01775,-0.0115 -0.02507,-0.0396 -0.01627,-0.0626 0.02081,-0.0543 0.463864,-0.42065 0.617641,-0.51077 0.06565,-0.0385 0.18722,-0.0856 0.270155,-0.10484 l 0.1508,-0.0349 0.240813,0.0117 0.240814,0.0117 0.23251,0.0679 z m -2.090377,3.03845 c 0.05922,0.0317 0.21168,0.28441 0.212051,0.35151 l 2.89e-4,0.0447 -0.09188,0.0303 c -0.05052,0.0167 -0.134147,0.0771 -0.185795,0.13427 l -0.0939,0.10394 -0.04517,0.14207 -0.04517,0.14206 -0.01267,0.26838 -0.01267,0.26838 0.04009,0.096 c 0.04725,0.113 0.177853,0.21972 0.338201,0.2763 l 0.114816,0.0405 0.11078,-0.0154 c 0.06094,-0.008 0.143967,-0.0279 0.184522,-0.0433 0.08864,-0.0335 0.235144,-0.22649 0.3311,-0.43609 l 0.07005,-0.15301 0.01305,-0.17765 0.01305,-0.17765 0.04227,-0.0335 c 0.02326,-0.0184 0.08266,-0.0335 0.132022,-0.0335 h 0.08975 l 0.06938,0.0694 0.06937,0.0694 -0.01491,0.35205 -0.01491,0.35205 -0.05385,0.20452 c -0.07241,0.27493 -0.196358,0.51221 -0.340986,0.65277 l -0.119437,0.11608 -0.153078,0.0578 -0.153077,0.0578 -0.148653,-0.013 -0.148659,-0.013 -0.159047,-0.0809 c -0.250066,-0.12712 -0.41911,-0.33864 -0.523925,-0.65555 l -0.05489,-0.16597 -0.01415,-0.31318 -0.01415,-0.31319 0.0319,-0.22195 c 0.04845,-0.33689 0.107377,-0.5515 0.205414,-0.74843 0.08588,-0.17251 0.170136,-0.26286 0.245123,-0.26286 0.01977,0 0.05923,0.0124 0.08769,0.0277 z m 5.130151,0.12132 c 0.08804,0.0617 0.185445,0.27286 0.221598,0.48044 l 0.03168,0.182 -0.01737,0.23019 c -0.02152,0.28536 -0.08817,0.56832 -0.225618,0.95825 -0.113916,0.32315 -0.229267,0.52773 -0.35924,0.63709 -0.181082,0.15236 -0.473844,0.25397 -0.878063,0.30472 l -0.197162,0.0248 -0.133785,-0.0253 c -0.174511,-0.0331 -0.348955,-0.11897 -0.477377,-0.23498 -0.144962,-0.13097 -0.35397,-0.49793 -0.448866,-0.7881 l -0.08035,-0.2457 -0.01644,-0.26904 c -0.01655,-0.27024 0.0017,-0.53109 0.04134,-0.59544 l 0.02136,-0.0345 0.235394,-0.0381 c 0.129471,-0.021 0.244036,-0.0328 0.254589,-0.0263 0.01054,0.007 0.026,0.13566 0.03436,0.28695 l 0.01519,0.27508 0.05292,0.1567 0.05292,0.15669 0.102991,0.10737 c 0.05665,0.0591 0.15116,0.12976 0.21003,0.15712 l 0.107027,0.0497 0.165913,5.5e-4 c 0.23717,5.5e-4 0.418191,-0.0449 0.562808,-0.1422 0.0692,-0.0465 0.162314,-0.13686 0.206927,-0.20067 l 0.08112,-0.11602 -8.2e-5,-0.29872 -8.2e-5,-0.29871 -0.07734,-0.24632 -0.07735,-0.24632 0.0461,-0.0703 c 0.05867,-0.0896 0.238094,-0.17151 0.377101,-0.17227 l 0.107765,-5.5e-4 0.05996,0.042 z"
       id="path4731-7"
       inkscape:connector-curvature="0" />
    <path
       style="fill:none;fill-rule:evenodd;stroke:#ff0000;stroke-width:1.00000012;stroke-linecap:butt;stroke-linejoin:miter;stroke-miterlimit:4;stroke-dasharray:none;stroke-opacity:1"
       d="m 531.99613,-17.716599 0,1077.165499"
       id="path4226"
       inkscape:connector-curvature="0"
       sodipodi:nodetypes="cc" />
    <path
       style="fill:#000000"
       d="m 1590.4019,1009.1714 c -23.9934,-18.91861 -24.107,-20.79002 -1.3042,-21.45859 l 16.9553,-0.49714 0,-31.99136 0,-31.99137 -11.7384,-0.5136 -11.7383,-0.5136 -0.4607,-52.768 c -0.3271,-37.48732 0.112,-53.45724 1.5172,-55.14823 1.2263,-1.47572 5.5316,-2.38026 11.3295,-2.38026 l 9.3517,0 0,-67.74114 0,-67.74115 -10.0863,0 c -5.5475,0 -11.0255,-0.93797 -12.1732,-2.08434 -1.529,-1.52727 -2.0867,-15.82558 -2.0867,-53.49815 0,-37.67258 0.5577,-51.97087 2.0867,-53.49814 1.1477,-1.14639 6.2343,-2.08434 11.3036,-2.08434 l 9.2169,0 0,-32.13364 0,-32.13361 -118.2534,0 -118.2531,0 0,73.53571 0,73.53571 9.9994,2.78035 c 11.8912,3.30641 22.3898,11.68063 29.3325,23.39736 4.1978,7.08466 4.8958,10.11938 4.8958,21.28957 0,11.12375 -0.7046,14.21616 -4.8227,21.16501 -7.219,12.18107 -16.6344,19.80894 -28.5845,23.15804 l -10.3223,2.89281 -1.1186,15.74035 c -0.6153,8.65716 -1.1185,26.14491 -1.1185,38.86158 l 0,23.12125 17.8044,0.49501 c 14.4604,0.40201 17.9017,1.00214 18.3217,3.19501 0.5041,2.63148 -35.9333,32.90752 -39.6041,32.90752 -3.6709,0 -40.1084,-30.27604 -39.6046,-32.90752 0.4172,-2.17985 3.7794,-2.79579 17.4522,-3.19714 l 16.9352,-0.49714 0,-23.11912 c 0,-12.71553 0.499,-30.14067 1.1089,-38.72257 l 1.1089,-15.60344 -10.8697,-3.04626 c -13.5277,-3.79113 -23.9192,-12.84719 -28.4262,-24.77258 -1.7421,-4.60936 -3.894,-9.73788 -4.7823,-11.39672 -2.076,-3.87673 -2.076,-12.67145 0,-16.54821 0.8883,-1.65884 3.0402,-6.78736 4.7823,-11.3967 4.4733,-11.83627 14.9111,-20.98494 28.1869,-24.70551 l 10.6302,-2.97917 0,-73.56073 0,-73.5607 -42.0942,-0.46513 -42.0942,-0.46513 -1.4162,-6.81178 c -0.7787,-3.74648 -2.3785,-7.97134 -3.5549,-9.38858 -1.7061,-2.05535 -2.3148,7.93437 -3.0084,49.36713 l -0.8694,51.94391 -48.5202,0.46218 -48.52,0.46218 -25.8067,16.03888 -25.8065,16.03886 -0.016,45.59502 -0.016,45.59501 17.4447,0 c 14.649,0 17.6224,0.46204 18.5525,2.88316 1.1975,3.11695 0.5924,3.69568 -23.4171,22.39651 -7.906,6.15798 -15.1526,11.19633 -16.1037,11.19633 -2.0216,0 -16.0975,-9.60232 -29.0007,-19.78376 -6.8878,-5.43477 -9.0672,-8.27931 -9.1299,-11.91562 l -0.082,-4.77662 16.5208,0 16.5207,0 0,-42.51235 0,-42.51235 -4.2246,1.60425 c -2.3234,0.88232 -12.484,6.81369 -22.5789,13.18082 -10.8,6.81185 -19.4398,11.16063 -20.9913,10.56596 -2.1359,-0.81867 -2.6367,-4.65061 -2.6367,-20.17165 l 0,-19.16098 -45.2145,0 -45.21451,0 0,43.32394 0,43.32393 7.39074,0.53411 7.39098,0.53411 0,40.8184 0,40.81838 -6.52142,0.53909 -6.52129,0.53909 0.016,26.38369 c 0,14.51099 0.50884,31.63354 1.11555,38.05004 l 1.10324,11.66638 17.55846,0.49229 c 14.23915,0.39923 17.65625,1.0027 18.07575,3.19228 0.5042,2.63147 -35.93326,32.90753 -39.60419,32.90753 -3.67081,0 -40.10839,-30.27606 -39.60448,-32.90753 0.41724,-2.17983 3.77939,-2.79577 17.45221,-3.19713 l 16.93526,-0.49713 0,-38.05489 0,-38.05491 -8.2603,-0.5294 -8.26043,-0.5294 0,-40.81838 0,-40.8184 7.39086,-0.53411 7.39074,-0.53411 0,-27.42452 c 0,-15.08351 0.50847,-34.57926 1.13007,-43.32395 l 1.12983,-15.8994 -49.82243,0 -49.82244,0 0,50.37162 0,50.37163 18.25973,0 18.2596,0 0,4.34237 0,4.34239 -39.99734,0 -39.99746,0 0,-4.34239 c 0,-4.34237 0,-4.34237 17.39028,-4.34237 l 17.39017,0 0,-50.37163 0,-50.37162 -26.95487,0 -26.95488,0 0,11.29018 0,11.29019 -54.77906,0 -54.77894,0 0,-10.42171 0,-10.42171 -31.30235,0 -31.3023,0 0,32.04284 0,32.04286 9.12983,0.52502 9.12982,0.525 0.45956,54.27976 0.45955,54.27978 -8.71984,0 -8.71983,0 0,27.79125 0,27.79122 16.1728,0 c 15.11358,0 20.34645,1.41633 20.34645,5.50697 0,1.0657 -28.71349,24.33359 -39.2288,31.78877 -1.70642,1.20993 -3.75378,0.43497 -7.22661,-2.73538 -2.66503,-2.43297 -11.69296,-9.68353 -20.06195,-16.11235 -8.369,-6.4288 -15.21649,-12.27161 -15.21649,-12.98404 0,-3.98653 5.26652,-5.46397 19.47712,-5.46397 l 15.30326,0 0,-27.79122 0,-27.79125 -11.32831,0 -11.32847,0 0.45955,-54.27978 0.45955,-54.27976 9.99937,-0.52092 9.99938,-0.52092 0,-66.78598 0,-66.78601 -11.30361,0 -11.30361,0 0,-54.714 0,-54.71402 10.43407,0 10.43406,0 0,-46.8999 0,-46.89991 683.86877,0.43643 683.8691,0.43643 0,191.76024 0,191.76025 -47.4119,-0.379 -47.4117,-0.37901 -11.8869,7.89294 c -6.5376,4.3411 -13.4138,8.49764 -15.2805,9.23676 -1.8665,0.73913 -8.6364,4.43739 -15.0444,8.21834 l -11.6508,6.87446 0,46.53682 0,46.53682 17.4448,0 c 21.1599,0 23.6246,2.19857 12.8203,11.43558 -3.7337,3.19193 -7.4223,5.83286 -8.1969,5.86873 -2.249,0.10415 -17.2053,11.95577 -19.8533,15.73213 -3.4662,4.94264 -6.6218,4.30217 -15.8151,-3.20976 -10.9375,-8.93725 -25.3089,-19.85229 -29.1261,-22.12127 -1.9671,-1.16935 -2.6955,-2.92324 -1.9834,-4.77662 0.9464,-2.46361 3.7576,-2.92879 17.7004,-2.92879 l 16.5752,0 0,-42.65785 c 0,-23.46182 -0.5869,-42.34376 -1.3042,-41.95988 -0.7175,0.38386 -8.0647,4.72896 -16.3276,9.65574 -8.2627,4.92679 -15.5339,8.95781 -16.1585,8.95781 -0.6247,0 -2.8414,1.58722 -4.9261,3.52716 -7.6057,7.07742 -9.0621,4.36144 -9.5966,-17.89532 l -0.4901,-20.40553 -80.3742,0.45154 -80.3743,0.45157 -0.4737,31.61153 -0.4736,31.61155 10.0382,0.52208 10.0383,0.52208 0,54.714 0,54.71401 -9.1299,0.525 -9.13,0.52503 0,32.04284 0,32.04285 17.0425,0 c 15.9304,0 21.216,1.36334 21.216,5.47237 0,2.42667 -38.2129,31.00447 -41.2904,30.87957 -1.6801,-0.068 -11.2715,-6.6032 -21.3141,-14.522 z m 28.8313,-0.3234 c 11.606,-7.8667 14.5332,-10.17786 14.5895,-11.51907 0.03,-0.71648 -9.7274,-1.3027 -21.6831,-1.3027 -11.9557,0 -21.7124,0.58622 -21.6812,1.3027 0.059,1.35994 19.1507,15.91337 21.0037,16.01097 0.5838,0.031 4.0809,-1.9906 7.7711,-4.4919 z m 5.949,-140.48779 0,-46.02925 -16.5206,0 -16.5207,0 0,46.02925 0,46.02924 16.5207,0 16.5206,0 0,-46.02924 z m -647.44798,6.07933 11.48616,-8.68474 -23.11896,0 -23.11897,0 11.12125,8.58373 c 6.11662,4.72105 11.35148,8.62919 11.63293,8.68477 0.28144,0.0555 5.68041,-3.80715 11.99759,-8.58376 z m 863.82398,-9.59951 10.3023,-7.77001 -22.3438,0 -22.3437,0 10.3024,7.77001 c 5.6663,4.2735 11.0851,7.77 12.0413,7.77 0.9565,0 6.3752,-3.4965 12.0415,-7.77 z m -1205.13949,-5.21086 10.30244,-7.77 -22.3438,0 -22.34381,0 10.30228,7.77 c 5.66644,4.27349 11.08505,7.77 12.04153,7.77 0.95649,0 6.3751,-3.49651 12.04136,-7.77 z m 736.07269,-21.66562 11.486,-8.68477 -23.1189,0 -23.1189,0 11.1213,8.58374 c 6.1165,4.72106 11.3513,8.6292 11.6328,8.68477 0.2814,0.0555 5.6804,-3.80712 11.9977,-8.58374 z m -735.07152,-106.8226 0,-46.02924 -16.52055,0 -16.52072,0 0,46.02924 0,46.02926 16.52072,0 16.52055,0 0,-46.02926 z m 1180.44182,24.09166 c 6.0237,-4.17483 11.2785,-7.59059 11.6773,-7.59059 0.9682,0 29.6295,-17.43525 37.5604,-22.84874 l 6.2803,-4.28684 -5.4108,-3.14555 c -2.976,-1.73003 -8.541,-4.76178 -12.3668,-6.73718 -3.8259,-1.97541 -12.0427,-6.87146 -18.2598,-10.88015 -16.953,-10.93117 -51.7983,-32.00137 -52.9231,-32.00137 -0.5425,0 -0.9864,24.21992 -0.9864,53.82202 l 0,53.82198 11.7384,-6.28148 c 6.4561,-3.45481 16.6669,-9.69726 22.6905,-13.8721 z m -18.7778,-5.85364 c 0,-4.40029 -0.6761,-5.21086 -4.3475,-5.21086 -2.705,0 -4.3475,-0.9843 -4.3475,-2.60544 0,-1.62115 1.6425,-2.60542 4.3475,-2.60542 3.6714,0 4.3475,-0.81059 4.3475,-5.21085 0,-3.47391 0.8696,-5.21086 2.6086,-5.21086 1.739,0 2.6086,1.73695 2.6086,5.21086 0,4.92135 0.3863,5.21085 6.956,5.21085 5.0238,0 6.956,0.72374 6.956,2.60542 0,1.88171 -1.9322,2.60544 -6.956,2.60544 -6.5697,0 -6.956,0.28949 -6.956,5.21086 0,3.4739 -0.8696,5.21085 -2.6086,5.21085 -1.739,0 -2.6086,-1.73695 -2.6086,-5.21085 z m -9.5645,-50.37164 c -2.3199,-3.74901 1.6119,-5.21085 14.0148,-5.21085 11.7805,0 12.94,0.31125 12.94,3.47391 0,3.16264 -1.1595,3.47391 -12.94,3.47391 -7.1171,0 -13.4236,-0.78164 -14.0148,-1.73697 z m -814.72998,39.94992 0,-34.73906 -12.17303,0 -12.17315,0 0,34.73906 0,34.73905 12.17315,0 12.17303,0 0,-34.73905 z m 799.94838,-18.23801 0,-18.238 -47.8231,0 -47.8229,0 0,-110.29649 c 0,-90.43766 -0.4151,-110.29648 -2.3055,-110.29648 -3.8027,0 -10.6152,8.51673 -10.8336,13.5441 l -0.2039,4.69388 -27.2393,0.47834 -27.2395,0.47837 0,32.00283 0,32.00284 9.9993,0.52092 9.9995,0.5209 0,54.71402 0,54.714 -9.1299,0.52501 -9.1299,0.52503 0,31.17436 0,31.17438 80.8644,0 80.8644,0 0,-18.23801 z m -653.8994,8.70572 c 15.4109,-11.29929 15.4008,-11.31115 -9.6368,-11.31115 l -22.2643,0 11.1826,8.66924 c 6.1503,4.76808 11.4689,8.67622 11.8191,8.68476 0.35,0.009 4.3548,-2.71074 8.8994,-6.04285 z m 252.7439,2.45922 c 8.4887,-2.35435 19.9483,-12.65212 24.0222,-21.58665 11.0541,-24.24307 -9.0403,-53.04058 -36.9548,-52.96008 -7.5743,0.0219 -21.9553,6.82261 -27.9651,13.22471 -26.2805,27.99675 2.9624,71.84356 40.8977,61.32202 z m -31.86,-19.8497 c 0,-2.1649 3.3814,-2.60542 19.9986,-2.60542 16.6174,0 19.9987,0.44052 19.9987,2.60542 0,2.16491 -3.3813,2.60544 -19.9987,2.60544 -16.6172,0 -19.9986,-0.44053 -19.9986,-2.60544 z m 17.3902,-16.50104 0,-8.68477 -8.6952,0 c -6.5697,0 -8.695,-0.6369 -8.695,-2.60544 0,-1.96854 2.1253,-2.60541 8.695,-2.60541 l 8.6952,0 0,-6.94782 c 0,-5.01787 0.7245,-6.94781 2.6084,-6.94781 1.884,0 2.6087,1.92994 2.6087,6.94781 l 0,6.94782 8.6949,0 c 6.5698,0 8.6951,0.63687 8.6951,2.60541 0,1.96854 -2.1253,2.60544 -8.6951,2.60544 l -8.6949,0 0,8.68477 c 0,6.56181 -0.6377,8.68475 -2.6087,8.68475 -1.9708,0 -2.6084,-2.12294 -2.6084,-8.68475 z m 613.8733,-136.94733 0,-156.05379 -27.3894,-1.13463 c -44.9858,-1.86355 -231.7243,-1.38749 -231.7243,0.59075 0,1.00357 -5.5069,1.73695 -13.0426,1.73695 l -13.0427,0 0,34.44554 0,34.44556 4.1832,2.23614 c 2.3009,1.22986 6.2625,6.05174 8.8038,10.71522 l 4.6204,8.47908 65.9739,0 65.9742,0 0,96.97683 0,96.9768 8.2604,5.34157 c 4.5433,2.93789 14.0935,8.93176 21.2231,13.31969 l 12.9626,7.9781 46.5988,0 46.5986,0 0,-156.05381 z m -198.248,115.18091 c 0,-14.27844 0.5468,-18.50213 2.4923,-19.24776 2.555,-0.97932 6.6315,1.24583 32.288,17.624 8.1298,5.18984 15.7597,9.44924 16.9554,9.46532 1.7112,0.0229 2.1739,-18.99963 2.1739,-89.40318 l 0,-89.43241 -66.4628,-0.45489 -66.4629,-0.45487 -1.4309,-7.2291 c -0.787,-3.97601 -2.5724,-8.17526 -3.9676,-9.3317 -2.2178,-1.83844 -2.5364,11.01619 -2.5364,102.32726 l 0,104.42984 43.4755,0 43.4755,0 0,-18.29251 z m -152.1642,-52.92255 0,-46.02925 -16.0859,-0.49942 -16.0858,-0.4994 0,47.02807 0,47.02808 16.0858,-0.49942 16.0859,-0.49942 0,-46.02924 z m -545.3583,9.98748 c 4.9061,-3.10481 14.0686,-8.96702 20.3609,-13.02716 6.2926,-4.06011 12.3464,-7.38389 13.4531,-7.38613 1.1066,-0.001 4.751,-2.34527 8.0987,-5.20676 3.3475,-2.86149 6.8691,-5.22174 7.8256,-5.24499 0.9564,-0.0233 7.723,-3.76984 15.0367,-8.32578 l 13.2981,-8.28346 -4.6029,-2.7845 c -14.2153,-8.59969 -49.3033,-30.36806 -56.7733,-35.2218 -4.7823,-3.10736 -13.1948,-8.12928 -18.6944,-11.15979 l -9.9994,-5.51008 0,53.89779 c 0,30.08858 0.6796,53.89775 1.5385,53.89775 0.8461,0 5.5525,-2.54029 10.4584,-5.64509 z m 3.3296,-19.10648 c -0.4221,-4.37349 -1.4488,-5.77308 -4.5578,-6.21325 -4.9031,-0.69418 -4.1079,-4.43148 1.1058,-5.19776 2.8906,-0.42481 3.7767,-1.74928 3.7767,-5.64508 0,-3.36654 0.8832,-5.09006 2.6085,-5.09006 1.739,0 2.6085,1.73696 2.6085,5.21086 0,4.92135 0.3864,5.21085 6.956,5.21085 5.024,0 6.9563,0.72375 6.9563,2.60543 0,1.8817 -1.9323,2.60544 -6.9563,2.60544 -6.7903,0 -6.956,0.14463 -6.956,6.07933 0,8.06084 -4.7693,8.43457 -5.5417,0.43424 z m -10.1095,-52.54282 c 0,-2.09882 2.7051,-2.60543 13.9123,-2.60543 11.2068,0 13.912,0.50661 13.912,2.60543 0,2.09881 -2.7052,2.60543 -13.912,2.60543 -11.2072,0 -13.9123,-0.50662 -13.9123,-2.60543 z m -279.98202,48.63467 0,-16.50104 -46.08392,0 -46.08401,0 0,16.50104 0,16.50106 46.08401,0 46.08392,0 0,-16.50106 z m -100.51906,-15.19833 0.52553,-9.11901 53.90961,0 53.9095,0 0.53014,8.25054 0.53001,8.25051 80.76908,0 80.76907,0 0,-104.21715 0,-104.21715 55.55764,0 55.5578,0 0.5256,-9.11899 0.5257,-9.119 54.7789,0 54.7792,0 0.53,8.25051 0.5302,8.25052 38.6848,0 c 27.7694,0 39.2735,0.58812 40.7716,2.08434 1.4973,1.49558 2.0868,12.94264 2.0868,40.52488 l 0,38.44052 4.1832,2.23616 c 2.3008,1.22987 6.2624,6.05174 8.8036,10.71525 l 4.6204,8.47906 186.9247,0 186.9246,0 2.368,-5.6451 c 2.9517,-7.0368 9.0288,-12.65863 15.2794,-14.13499 l 4.7824,-1.12952 -10e-5,-38.61411 0,-38.6141 128.6874,0.62251 c 93.3969,0.45179 128.6874,0.0945 128.6874,-1.30271 0,-1.28678 6.0553,-1.92523 18.2596,-1.92523 l 18.2597,0 0,-21.7119 0,-21.71192 -674.7699,0 -674.77001,0 0.46573,42.1211 0.46573,42.12111 9.56451,0.86846 9.56469,0.86847 0,53.84555 0,53.84552 -8.26044,0.52942 -8.26029,0.52939 0,29.43303 0,29.43303 31.21146,0 31.21135,0 0.52569,-9.119 z m 32.69743,-31.69939 0,-14.76409 7.47784,0 c 4.11276,0 8.41677,0.93795 9.5645,2.08434 2.85308,2.84966 2.62642,9.2018 -0.41859,11.72585 -2.16079,1.79123 -2.04215,2.8359 0.86304,7.59474 3.71956,6.0929 4.17299,8.12326 1.81422,8.12326 -0.86193,0 -3.18329,-2.7357 -5.15849,-6.07934 -2.23229,-3.77915 -4.92917,-6.07932 -7.12781,-6.07932 -2.88261,0 -3.53669,1.12436 -3.53669,6.07932 0,3.34364 -0.78261,6.07934 -1.73893,6.07934 -1.02294,0 -1.73909,-6.07934 -1.73909,-14.7641 z m 13.89373,-3.45179 c 3.31876,-3.994 0.79577,-7.83839 -5.144,-7.83839 -4.69808,0 -5.27171,0.56698 -5.27171,5.21085 0,4.32871 0.6999,5.21086 4.1347,5.21086 2.27405,0 5.10043,-1.16249 6.28101,-2.58332 z m 13.93056,16.25523 c 0,-1.07838 2.78635,-5.04105 6.19172,-8.80594 7.85623,-8.68574 7.6462,-14.17546 -0.57286,-14.96595 -7.3394,-0.70589 -5.50916,-3.79564 2.24821,-3.79564 10.87108,0 11.60374,8.76775 1.71401,20.50711 l -4.67321,5.54718 6.24121,0 c 3.43258,0 6.24108,0.78162 6.24108,1.73695 0,0.95533 -3.91272,1.73695 -8.69502,1.73695 -5.29876,0 -8.69514,-0.76584 -8.69514,-1.96066 z m -38.05669,-67.95168 c 0.15114,-2.94097 0.39863,-3.15589 0.99711,-0.86848 0.8819,3.37079 5.75727,4.22204 5.75727,1.00525 0,-1.11892 -1.25044,-3.41457 -2.77893,-5.10142 -2.87954,-3.17818 -2.03599,-6.77958 1.57724,-6.73318 1.27482,0.0163 1.06812,0.73511 -0.5374,1.86918 -1.69505,1.1974 -1.9336,2.12233 -0.68137,2.64147 1.06,0.43939 3.40766,1.94315 5.21711,3.34167 3.2229,2.491 3.22112,2.59588 -0.0862,5.14823 -5.13977,3.96691 -9.70492,3.33861 -9.46539,-1.30272 z m -29.36857,-13.46138 c 0.97111,-3.8213 2.25747,-6.94792 2.85839,-6.94805 0.60094,-1.1e-4 1.09266,-3.94223 1.09266,-8.76025 l 0,-8.76 8.6789,0.50971 c 6.78914,0.39875 8.8105,1.20148 9.28387,3.68676 0.97695,5.13 -1.29871,11.58706 -4.08367,11.58706 -1.41652,0 -2.57548,1.17246 -2.57548,2.60542 0,1.43299 0.7826,2.60544 1.73909,2.60544 0.95648,0 1.73909,1.88894 1.73909,4.19764 0,2.3087 0.9781,4.63307 2.17362,5.16528 1.19569,0.53221 0.21743,0.79274 -2.17362,0.57898 -3.54075,-0.31652 -4.50893,-1.51691 -5.21711,-6.46799 -0.65277,-4.56426 -1.80474,-6.21244 -4.6222,-6.61342 -2.94664,-0.41938 -4.00143,0.59746 -4.91112,4.73424 -0.63717,2.89757 -0.66301,6.06903 -0.0569,7.04766 0.60792,0.98244 -0.41989,1.77932 -2.29484,1.77932 -3.09663,0 -3.24029,-0.61199 -1.63006,-6.9478 z m 17.04592,-12.21882 c 4.10804,-4.73099 2.52836,-10.36157 -2.90699,-10.36157 -3.26238,0 -4.4189,1.15193 -5.23157,5.21086 -0.57395,2.86598 -1.72821,5.21086 -2.56509,5.21086 -0.83688,0 -1.52166,0.78163 -1.52166,1.73696 0,3.14617 9.09375,1.80941 12.22531,-1.79711 z m 316.4491,-107.63092 0,-15.63257 6.6866,0 c 10.4634,0 15.4359,7.40614 9.9779,14.86144 -1.3555,1.85171 -1.8998,4.15056 -1.2095,5.10859 0.6906,0.95804 2.1741,3.89136 3.2971,6.51851 3.0394,7.1111 -1.5062,6.26009 -4.8398,-0.90608 -1.6075,-3.45542 -4.1102,-5.82052 -6.5213,-6.16254 -3.4307,-0.48666 -3.9127,0.20883 -3.9127,5.64508 0,3.41009 -0.7827,6.20015 -1.7392,6.20015 -1.0306,0 -1.7391,-6.36882 -1.7391,-15.63258 z m 14.0332,-2.75102 c 3.0949,-3.72458 -0.021,-8.53916 -5.5275,-8.53916 -3.42,0 -4.2548,1.002 -4.7029,5.64509 -0.4804,4.97569 -0.042,5.64509 3.6997,5.64509 2.3348,0 5.2736,-1.23794 6.5307,-2.75102 z m 13.2115,17.22564 c -2.4211,-2.41826 -0.9314,-3.18441 6.1912,-3.18441 5.8112,0 7.4901,-0.68554 7.9989,-3.26579 0.745,-3.77809 -2.3628,-6.22282 -7.9586,-6.26085 -2.1521,-0.0147 -3.9128,-0.80824 -3.9128,-1.76357 0,-0.95531 1.4692,-1.73694 3.2652,-1.73694 4.2672,0 7.8472,-4.4139 6.4755,-7.98403 -0.8452,-2.20016 -2.507,-2.57695 -7.5853,-1.71984 -6.0609,1.02298 -6.2734,0.91783 -3.1272,-1.54708 4.0486,-3.17196 9.9249,-3.42927 12.7971,-0.56033 2.5682,2.56507 2.7196,8.74757 0.2742,11.19012 -1.2577,1.25612 -0.9914,2.49144 0.8695,4.03396 3.7393,3.09972 3.3524,10.00229 -0.6816,12.15866 -3.7725,2.01657 -12.8305,2.41353 -14.6061,0.6401 z m 12.7528,194.82819 0,-18.23801 -45.2144,0 -45.2145,0 0,18.23801 0,18.23798 45.2145,0 45.2144,0 0,-18.23798 z m 199.5799,-53.41131 c 0.3776,-39.38531 0.036,-48.20043 -1.8707,-48.20043 -3.8253,0 -10.6418,8.4994 -10.8625,13.54411 l -0.2052,4.6939 -62.0636,0.45621 -62.0635,0.45624 0.4799,26.22066 0.4798,26.22065 11.1086,6.00108 c 6.1098,3.30057 15.8917,9.06886 21.7378,12.8184 l 10.6291,6.81735 46.084,-0.41387 46.084,-0.41385 0.4623,-48.20045 z m -199.2041,7.81629 0.4937,-18.67225 4.5538,0.29576 c 2.5046,0.16275 13.5495,5.82946 24.5443,12.59292 10.9947,6.76342 20.8796,12.29714 21.9662,12.29714 1.3872,0 1.9758,-7.76151 1.9758,-26.05429 l 0,-26.05429 61.7782,0 61.778,0 1.8067,-4.77662 c 2.5885,-6.84367 9.957,-13.98287 15.7419,-15.25194 l 4.9728,-1.09089 0,-34.60105 0,-34.60104 -36.4365,0 -36.4365,0 -0.5177,10.85597 -0.5177,10.85595 -54.7792,0 -54.7789,0 -0.5216,-9.98748 -0.5214,-9.98748 -51.2144,0 -51.21419,0 0,76.42592 0,76.42591 43.41649,0 43.4168,0 0.4934,-18.67224 z m -421.21815,-48.20043 0,-46.02925 -16.52071,0 -16.52072,0 0,46.02925 0,46.02925 16.52072,0 16.52071,0 0,-46.02925 z m 539.09555,-90.32153 0,-16.50107 -46.084,0 -46.0839,0 0,16.50107 0,16.50104 46.0839,0 46.084,0 0,-16.50104 z M 837.40698,871.72211 C 813.7521,852.794 813.65127,851.15182 836.1027,850.49355 l 16.95545,-0.49713 0,-55.51959 0,-55.51958 -17.39005,0 c -17.39028,0 -17.39028,0 -17.39028,-4.34239 l 0,-4.34237 40.11836,0 40.11836,0 -0.55574,3.90813 c -0.52964,3.72497 -1.39231,3.93136 -18.40488,4.40343 l -17.84938,0.49527 0.45909,55.0872 0.45922,55.08721 18.12036,0.86847 c 11.21643,0.53757 18.36807,1.61678 18.77029,2.83244 0.74485,2.25193 -38.37837,33.71204 -41.67368,33.51103 -1.1952,-0.073 -10.38995,-6.70751 -20.43284,-14.74356 z m 43.33057,-12.35337 c 0.3984,-0.30897 -9.30124,-0.56177 -21.55516,-0.56177 l -22.27993,0 11.12113,8.43829 11.12113,8.43831 10.43415,-7.87655 c 5.73877,-4.3321 10.76028,-8.12933 11.15868,-8.43828 z m 645.32065,-37.03778 0,-15.63257 6.6865,0 c 10.4635,0 15.4359,7.40612 9.9779,14.86144 -1.3556,1.8517 -1.8998,4.15056 -1.2094,5.1086 0.6903,0.95801 2.174,3.89135 3.2969,6.51849 3.0396,7.11111 -1.5063,6.2601 -4.8397,-0.90606 -1.6076,-3.45544 -4.1102,-5.82054 -6.5215,-6.16255 -3.4307,-0.48667 -3.9127,0.20882 -3.9127,5.64509 0,3.41008 -0.7825,6.20015 -1.739,6.20015 -1.0306,0 -1.739,-6.36884 -1.739,-15.63259 z m 13.9716,-3.58492 c 2.4505,-4.57337 -0.5164,-8.57373 -6.359,-8.57373 -3.5659,0 -4.1346,0.83616 -4.1346,6.07932 0,5.30352 0.547,6.07933 4.2864,6.07933 2.5507,0 5.0642,-1.45154 6.2072,-3.58492 z m 14.7659,15.79177 c -4.5239,-4.99275 -2.8924,-20.30103 2.6403,-24.77582 4.1713,-3.37372 12.249,-3.56659 13.3145,-0.31788 0.3808,1.16054 -1.3119,1.59465 -4.4333,1.13705 -3.8209,-0.56013 -5.7359,0.23913 -7.8724,3.28587 -4.118,5.87219 -3.5881,6.72698 4.1699,6.72698 5.741,0 7.3424,0.76492 8.9419,4.27124 4.4822,9.82589 -9.3759,17.82329 -16.7609,9.67256 z m 12.816,-2.43345 c 3.1714,-3.81674 0.4016,-8.03643 -5.2749,-8.03643 -5.7578,0 -8.2273,3.90393 -4.9578,7.83839 2.6883,3.23556 7.6292,3.33118 10.2327,0.19804 z m 126.2017,-33.05122 c -2.654,-1.93836 -3.4692,-5.12383 -4.0003,-15.63259 -0.4505,-8.90829 -0.041,-13.19817 1.2618,-13.19817 1.2007,0 1.9289,3.97788 1.9289,10.5359 0,12.39979 2.1216,17.25534 7.539,17.25534 6.4201,0 8.1123,-3.33328 8.1123,-15.97996 0,-6.71621 0.75,-11.81128 1.7389,-11.81128 1.0017,0 1.7391,5.41062 1.7391,12.75794 0,10.15377 -0.6492,13.34473 -3.1802,15.63258 -3.8879,3.51444 -10.6605,3.71137 -15.1395,0.44024 z m 28.7537,0.69746 c 0,-0.95534 1.5652,-1.73698 3.4781,-1.73698 3.099,0 3.478,-1.15796 3.478,-10.62428 0,-9.76916 -0.2799,-10.5512 -3.478,-9.71585 -1.9129,0.49964 -3.4781,0.24432 -3.4781,-0.56741 0,-1.62697 6.9356,-6.8837 9.0821,-6.8837 0.7437,0 1.3522,6.25303 1.3522,13.89562 0,12.73766 0.2897,13.89562 3.478,13.89562 1.9127,0 3.478,0.78164 3.478,1.73698 0,0.95531 -3.9128,1.73693 -8.6951,1.73693 -4.7823,0 -8.6952,-0.78162 -8.6952,-1.73693 z m 24.3464,-13.89563 0,-15.63259 6.2009,0 c 10.7286,0 16.5829,6.07657 11.1156,11.53752 -1.2576,1.25612 -0.9915,2.49142 0.8694,4.03397 1.4753,1.22287 2.6823,4.02595 2.6823,6.22905 0,6.21267 -4.5239,9.46461 -13.1668,9.46461 l -7.7014,0 0,-15.63256 z m 14.6394,11.10434 c 4.1898,-1.60585 3.2866,-7.46105 -1.4859,-9.63297 -6.0994,-2.77575 -9.6755,-0.77179 -9.6755,5.42192 0,4.41096 0.6823,5.26536 4.2053,5.26536 2.3129,0 5.4432,-0.47441 6.9561,-1.05431 z m 0.045,-16.15847 c 2.0522,-3.3167 -1.2403,-7.10454 -6.1756,-7.10454 -4.2071,0 -5.031,0.71115 -5.031,4.34238 0,3.64752 0.8184,4.34239 5.1144,4.34239 2.8129,0 5.5544,-0.71111 6.0922,-1.58023 z m -707.6832,-8.84149 c 0.94,-2.95852 0.3125,-3.47391 -4.2305,-3.47391 -5.6067,0 -7.6499,-4.43235 -2.8848,-6.25865 1.3471,-0.51633 3.3983,-3.22751 4.5584,-6.02485 3.0975,-7.46906 5.1618,-6.21093 5.1921,3.1645 0.02,5.96725 0.493,7.52949 1.7124,5.64508 1.4405,-2.22659 1.6895,-2.16345 1.7123,0.43424 0.016,1.67182 -0.8087,3.03968 -1.8297,3.03968 -1.0647,0 -1.3855,1.48108 -0.7522,3.47391 0.7966,2.50686 0.3125,3.47389 -1.7391,3.47389 -2.0514,0 -2.5355,-0.96703 -1.7389,-3.47389 z m 0.8693,-9.55324 c 0,-5.24905 -0.7123,-5.36766 -5.2169,-0.86847 -4.5045,4.49916 -4.3857,5.21086 0.8696,5.21086 3.478,0 4.3473,-0.8685 4.3473,-4.34239 z m -38.491,-2.1712 c 0.8957,-1.67181 2.1859,-6.7524 2.8671,-11.29018 0.6812,-4.5378 1.9323,-8.25053 2.7801,-8.25053 2.371,0 1.8267,-6.53613 -0.6321,-7.59 -1.1957,-0.51242 2.1303,-0.77295 7.3907,-0.57897 9.4826,0.34967 9.5694,0.40226 10.1195,6.12905 0.4521,4.70848 -0.1413,5.95821 -3.2113,6.76005 -3.1311,0.81781 -3.5912,1.85733 -2.7287,6.16517 0.5708,2.84983 1.0377,6.19892 1.0377,7.44246 0,1.24352 1.3694,2.658 3.0433,3.14326 1.7575,0.5096 1.2067,0.74684 -1.3045,0.5616 -3.5552,-0.26226 -4.5057,-1.4249 -5.2168,-6.38033 -0.891,-6.20908 -6.9562,-10.12352 -6.9562,-4.48946 0,1.50302 -0.7825,2.73279 -1.739,2.73279 -2.5161,0 -2.1413,6.49621 0.4346,7.53441 1.1957,0.48185 0,0.9378 -2.6695,1.01322 -4.0904,0.11585 -4.5904,-0.33556 -3.2149,-2.90254 z m 18.089,-17.80375 c 1.6379,-1.91066 2.203,-3.47391 1.256,-3.47391 -0.9471,0 -1.722,-1.22681 -1.722,-2.72624 0,-1.82293 -1.2753,-2.54232 -3.8484,-2.17119 -2.7634,0.39853 -4.1725,2.14685 -4.9975,6.20014 -1.0126,4.97523 -0.7051,5.6451 2.5925,5.6451 2.0577,0 5.0814,-1.56326 6.7194,-3.4739 z m -384.78913,-12.15867 0,-15.63257 6.68661,0 c 10.51185,0 15.60855,7.52243 9.59405,14.16049 -1.90404,2.10148 -2.30509,3.87456 -1.20951,5.34764 0.90156,1.21207 2.55794,4.35326 3.68083,6.98038 3.03943,7.1111 -1.50623,6.26009 -4.83979,-0.90606 -1.60747,-3.45545 -4.11031,-5.82053 -6.52129,-6.16255 -3.43074,-0.48666 -3.91288,0.20883 -3.91288,5.6451 0,3.41006 -0.78245,6.20014 -1.73893,6.20014 -1.03059,0 -1.73909,-6.36883 -1.73909,-15.63257 z m 13.70355,-3.08453 c 2.33286,-4.35395 -0.76962,-9.07415 -5.96441,-9.07415 -3.7104,0 -4.26112,0.78557 -4.26112,6.07934 0,5.3035 0.54698,6.07934 4.28647,6.07934 2.35735,0 5.03002,-1.38804 5.93906,-3.08453 z m 14.12072,16.98015 c 0,-0.95534 1.56506,-1.73695 3.47802,-1.73695 3.09583,0 3.47803,-1.15799 3.47803,-10.53878 0,-9.74832 -0.26081,-10.45607 -3.47803,-9.43619 -1.91296,0.60643 -3.47802,0.35819 -3.47802,-0.55164 0,-1.55297 7.47182,-7.26463 9.50342,-7.26463 0.51188,0 0.93065,6.25302 0.93065,13.89562 0,12.73763 0.28991,13.89562 3.47802,13.89562 1.91297,0 3.47802,0.78161 3.47802,1.73695 0,0.95531 -3.91271,1.73695 -8.69497,1.73695 -4.78242,0 -8.69514,-0.78164 -8.69514,-1.73695 z m 1359.62236,-4.99523 c 1.4182,-0.8979 2.4313,-5.26733 2.6085,-11.24951 0.1813,-6.12123 1.0493,-9.78663 2.3192,-9.79546 2.0456,-0.0147 1.875,6.34815 -0.4306,16.05271 -1.498,6.30558 3.1075,6.57855 5.9477,0.35252 2.4918,-5.46239 2.5723,-8.90746 0.2356,-10.06499 -0.9803,-0.48561 -0.7847,-0.66502 0.4347,-0.39868 2.9956,0.65423 2.4941,13.09584 -0.607,15.05776 -1.316,0.83257 -4.7405,1.51376 -7.6097,1.51376 -3.5109,0 -4.4587,-0.48016 -2.8984,-1.46811 z m 21.7225,-6.71675 c 0.1678,-5.00859 0.8919,-9.11214 1.6093,-9.119 0.7173,-0.006 1.328,1.35539 1.3571,3.02721 0.05,2.89493 0.1381,2.89493 1.8255,0 2.2499,-3.85862 7.1177,-4.10723 5.6506,-0.2886 -0.7357,1.91501 -1.434,2.14172 -2.2975,0.74598 -1.113,-1.79867 -4.2882,3.33964 -7.499,12.13553 -0.5231,1.43299 -0.8138,-1.49251 -0.646,-6.50112 z m 16.2522,4.49802 c -1.5088,-5.76199 3.4598,-13.95746 8.0647,-13.3029 3.2181,0.45742 3.7786,1.58794 3.5966,7.25204 -0.1182,3.69059 -1.2926,7.39136 -2.6085,8.22394 -4.1581,2.63064 -8.0392,1.69905 -9.0528,-2.17308 z m 8.8324,-2.77353 c 1.9171,-5.57278 1.0881,-9.11899 -2.1312,-9.11899 -2.6705,0 -4.3887,3.79556 -4.3887,9.6953 0,5.76012 4.4763,5.36443 6.5199,-0.57631 z m 11.4347,-1.72449 c 0.168,-5.00859 0.892,-9.11214 1.6093,-9.119 0.7175,-0.006 1.3282,1.35539 1.3572,3.02721 0.051,2.89493 0.1365,2.89493 1.8254,0 0.9749,-1.67182 3.2988,-3.03968 5.1641,-3.03968 2.6092,0 3.3917,1.20222 3.3917,5.21088 0,2.86595 -0.7825,5.21086 -1.739,5.21086 -0.9565,0 -1.739,1.17242 -1.739,2.60541 0,2.93345 4.4506,3.5653 5.8113,0.82506 0.4862,-0.97921 0.6858,-0.7838 0.4432,0.43423 -0.2423,1.21805 -2.2388,2.47735 -4.4368,2.79845 -3.814,0.55715 -3.942,0.22 -2.8006,-7.38205 0.7054,-4.69802 0.5201,-7.96587 -0.4515,-7.96587 -1.4597,0 -5.0636,6.42924 -7.7891,13.89562 -0.5232,1.43299 -0.8138,-1.49251 -0.6462,-6.50112 z m -77.0812,-15.73187 c 0,-8.22157 -0.8205,-14.36771 -2.0868,-15.63258 -1.6232,-1.62116 -0.847,-2.08435 3.4927,-2.08435 4.8713,0 5.3408,0.38592 3.6984,3.03967 -1.255,2.02775 -1.3702,5.93089 -0.3463,11.72442 l 1.535,8.68477 4.7951,-9.96582 c 2.6374,-5.48119 4.3055,-10.75719 3.707,-11.72442 -0.6382,-1.03135 0.9319,-1.73578 3.7966,-1.70339 4.2751,0.0483 4.5285,0.32621 2.0292,2.22576 -1.5706,1.19376 -4.9916,6.44489 -7.6021,11.66919 -2.6107,5.22428 -5.6296,11.25126 -6.7089,13.39327 -4.0312,8.00057 -6.3099,4.5242 -6.3099,-9.62652 z m -546.4271,5.64633 c -0.5256,-0.52477 -0.2204,-4.2215 0.6779,-8.21498 0.8985,-3.99347 1.2711,-8.64472 0.8282,-10.3361 -0.5623,-2.14814 0.1944,-3.07521 2.5102,-3.07521 1.8233,0 3.3153,0.78161 3.3153,1.73694 0,0.95533 -0.7827,1.73695 -1.7391,1.73695 -0.9565,0 -1.739,1.17244 -1.739,2.60543 0,1.43299 0.8384,2.60544 1.8633,2.60544 1.0247,0 0.6334,1.22826 -0.8696,2.72949 -4.2027,4.19785 -3.5622,9.79268 1.0438,9.11573 4.8237,-0.70891 8.2798,-9.67218 4.6958,-12.17837 -1.9496,-1.36324 -1.9088,-1.53085 0.2228,-0.91673 3.2709,0.94241 3.0519,11.50865 -0.2823,13.61956 -2.6296,1.66482 -9.0822,2.01531 -10.5273,0.57185 z m 19.9771,-2.05858 c -1.8756,-4.88167 3.4361,-11.69821 9.5811,-12.29572 4.1495,-0.40348 5.5977,0.15827 5.5977,2.17117 0,1.49353 -0.8288,2.7155 -1.8418,2.7155 -1.0129,0 -1.3208,-0.84157 -0.6845,-1.87016 0.7491,-1.21062 -0.5945,-1.67004 -3.8099,-1.30272 -4.1899,0.47861 -5.0529,1.45122 -5.5124,6.21254 -0.628,6.50386 1.5684,7.19916 6.395,2.0246 3.0873,-3.31001 3.3542,-3.34722 3.111,-0.43424 -0.1677,2.00816 0.6985,2.97219 2.3426,2.60729 1.4345,-0.31845 2.0614,-0.0326 1.3928,0.63515 -0.6685,0.66779 -4.4335,1.45387 -8.3668,1.74686 -5.2591,0.39179 -7.4299,-0.19296 -8.2048,-2.21027 z m 24.5132,-6.89153 c 0.4017,-2.10368 -0.1648,-4.19146 -1.2588,-4.63951 -1.37,-0.5611 -1.3126,-0.85728 0.1847,-0.95174 1.1955,-0.0753 2.1737,-1.30957 2.1737,-2.74256 0,-1.43299 1.3694,-2.54371 3.0433,-2.4683 1.8179,0.0819 2.1682,0.48985 0.8695,1.01321 -3.4367,1.38504 -2.5373,3.74896 1.7391,4.57165 3.6665,0.70537 3.6832,0.76762 0.2657,0.98928 -2.0059,0.13015 -4.5696,1.9952 -5.6972,4.14467 l -2.0504,3.90815 0.7304,-3.82485 z m -64.9831,-12.79037 c 0,-6.75007 -0.81,-13.78474 -1.8002,-15.63257 -1.617,-3.01802 -1.2191,-3.33924 3.9129,-3.15825 3.1421,0.11081 4.3884,0.55031 2.7695,0.97663 -2.4449,0.64388 -2.8867,2.77897 -2.6084,12.61021 l 0.3347,11.83509 4.1079,-4.42667 c 2.2594,-2.43466 4.8792,-6.63668 5.8219,-9.3378 0.9428,-2.70111 2.4202,-4.91113 3.2831,-4.91113 2.3773,0 1.8769,-4.7972 -0.6049,-5.79746 -1.1957,-0.48185 0.1739,-0.8761 3.0432,-0.8761 2.8694,0 4.2388,0.39425 3.0433,0.8761 -1.1955,0.48186 -2.1738,2.33537 -2.1738,4.11894 0,1.78358 -1.034,3.86792 -2.2979,4.63189 -1.264,0.76395 -4.0728,5.10175 -6.2417,9.63953 -2.169,4.5378 -5.0939,8.25054 -6.4998,8.25054 -1.4058,0 -2.0724,0.78161 -1.4813,1.73695 0.5912,0.95532 0.246,1.73695 -0.7669,1.73695 -1.1224,0 -1.8416,-4.79298 -1.8416,-12.27285 z m -567.22421,1.78491 c -1.6021,-0.93363 -3.81472,-4.4272 -4.9171,-7.76347 -2.41171,-7.29884 0.21053,-17.283 5.24631,-19.9749 4.76223,-2.54563 11.4139,-2.09484 13.93949,0.9447 1.95089,2.34781 1.39194,2.53651 -4.65339,1.57099 -5.12172,-0.81804 -7.44638,-0.40391 -9.13405,1.62711 -3.25652,3.91917 -2.80309,14.59282 0.78819,18.55648 3.27942,3.61941 8.58988,4.45742 10.33848,1.6314 0.5912,-0.95531 1.93255,-1.73694 2.98063,-1.73694 1.04832,0 0.48963,1.56325 -1.2415,3.47391 -3.38604,3.73699 -8.6672,4.39804 -13.34706,1.67072 z m 22.91152,0.2688 c 0,-0.8439 1.56504,-1.94317 3.47801,-2.44281 3.00081,-0.78377 3.47813,-2.36923 3.47813,-11.55388 0,-10.1072 -0.17593,-10.55145 -3.47813,-8.78627 -4.35237,2.32662 -4.54012,-0.23856 -0.29782,-4.07318 6.03894,-5.45863 7.25396,-3.61267 7.25396,11.02099 0,12.87042 0.26421,13.89563 3.58069,13.89563 1.96935,0 3.09696,0.78161 2.50589,1.73694 -1.32534,2.14188 -16.52073,2.32821 -16.52073,0.20258 z m 290.98439,-29.02017 c -0.584,-1.51982 0.2348,-5.47877 1.8193,-8.79768 2.3944,-5.01542 3.6841,-5.94194 7.6375,-5.4872 4.312,0.49601 4.7363,1.17413 4.5407,7.25727 -0.1182,3.69059 -1.2925,7.39138 -2.6085,8.22393 -3.8786,2.45383 -10.2436,1.78521 -11.389,-1.19632 z m 11.1686,-3.75028 c 2.0669,-6.00836 1.0433,-9.11899 -3.0007,-9.11899 -3.4743,0 -5.2582,3.28909 -5.2582,9.69531 0,6.06701 6.1205,5.63991 8.2589,-0.57632 z m 11.3201,-2.15873 c 0.2309,-4.76976 1.1131,-8.67789 1.9604,-8.68476 0.8473,-0.006 1.0658,3.44735 0.4856,7.67602 -0.7242,5.27719 -0.3892,7.95789 1.0679,8.54762 1.2136,0.4912 0.8258,0.91791 -0.9053,0.9963 -2.545,0.11524 -2.9613,-1.24663 -2.6086,-8.53518 z m 9.239,7.13596 c -0.5229,-0.84497 0.2106,-4.55771 1.6299,-8.25052 l 2.5807,-6.71418 -1.016,7.38205 c -0.6138,4.45919 -0.3243,7.38205 0.7309,7.38205 0.9609,0 2.0965,-0.97703 2.5234,-2.17119 0.4271,-1.19416 1.4477,-1.54246 2.2684,-0.77404 0.8205,0.76845 0.3408,2.12433 -1.0662,3.01307 -3.2482,2.05175 -6.4296,2.10694 -7.6511,0.13276 z m 13.331,-6.12727 c 0.5076,-4.49802 0.1806,-7.96895 -0.7505,-7.96895 -0.9072,0 -0.4756,-1.17244 0.959,-2.60543 1.4347,-1.43299 3.6426,-2.59346 4.9066,-2.57884 1.7903,0.0207 1.7556,0.36951 -0.1577,1.57927 -1.9001,1.20142 -1.5067,1.73126 1.7391,2.34228 3.7202,0.70029 3.775,0.8164 0.4847,1.02618 -3.6172,0.23064 -5.7782,4.34134 -5.8309,11.0925 -0.026,3.26141 4.3236,4.2077 5.7876,1.25929 0.4862,-0.97922 0.6857,-0.78382 0.4434,0.43424 -0.2423,1.21803 -2.2495,2.47872 -4.4604,2.8015 -3.807,0.5558 -3.9725,0.16467 -3.1208,-7.38204 z m -64.7562,-16.30632 c 0,-8.22158 -0.8205,-14.36771 -2.0869,-15.63257 -1.623,-1.62115 -0.7763,-2.08435 3.8105,-2.08435 5.2244,0 5.5491,0.2542 2.8463,2.22821 -2.5359,1.85217 -2.8477,3.75766 -1.8474,11.2902 0.6621,4.98411 1.8154,9.06198 2.5635,9.06198 0.7478,0 3.1365,-3.71274 5.3077,-8.25052 2.1715,-4.5378 4.7847,-8.83677 5.807,-9.55325 1.2462,-0.87319 0.999,-1.86662 -0.7495,-3.01307 -2.0425,-1.3392 -1.562,-1.71613 2.2138,-1.73697 l 4.8225,-0.0265 -3.0609,4.77661 c -1.6834,2.62715 -4.0493,5.80948 -5.2571,7.07187 -1.2081,1.26239 -2.1963,3.29772 -2.1963,4.52297 0,1.22527 -1.9565,4.33621 -4.3476,6.91324 -2.3912,2.57704 -4.3476,5.42687 -4.3476,6.33296 0,0.9061 -0.7825,1.64746 -1.739,1.64746 -1.0108,0 -1.739,-5.67405 -1.739,-13.54823 z M 570.01067,627.07647 c 0.57054,-5.05482 0.22003,-7.96896 -0.95843,-7.96896 -1.02182,0 -0.33866,-1.14759 1.51792,-2.55018 1.85658,-1.4026 4.15825,-2.56308 5.11457,-2.57883 0.95649,-0.0162 0.83754,0.5456 -0.26423,1.24747 -1.10176,0.70187 -2.56005,4.98885 -3.24076,9.52665 -1.01791,6.7867 -0.76523,8.25051 1.42368,8.25051 1.46364,0 3.05892,-0.80117 3.54513,-1.78037 0.48621,-0.97919 0.68575,-0.78381 0.4433,0.43424 -0.24229,1.21803 -2.2495,2.47872 -4.46051,2.8015 -3.80692,0.55581 -3.97218,0.16467 -3.12067,-7.38203 z m -20.93442,-16.22145 c -0.38822,-9.98693 -1.25923,-14.01959 -3.37566,-15.63062 -2.49407,-1.89841 -2.24105,-2.17117 2.01357,-2.17117 3.78027,0 4.62366,0.63073 3.77995,2.82686 -1.85073,4.81722 0.82566,19.60166 3.3719,18.62578 1.23485,-0.47332 2.72206,-2.75809 3.30479,-5.07728 0.58273,-2.31917 1.75405,-4.21669 2.60263,-4.21669 2.65446,0 -0.0959,6.80199 -4.39502,10.87288 -2.26071,2.14017 -4.12379,4.86824 -4.14038,6.0624 -0.0163,1.19416 -0.61686,2.1703 -1.3343,2.16922 -0.71728,-0.001 -1.5397,-6.05873 -1.82748,-13.46138 z m 14.05476,-12.38393 c 0.27071,-3.84888 1.25922,-5.41196 3.42389,-5.4144 3.95969,-0.005 3.84805,2.01211 -0.38073,6.88215 l -3.42391,3.94323 0.38075,-5.41098 z m 966.40519,-27.99825 0,-15.63257 6.8318,0 c 10.3826,0 16.2997,8.4156 9.7403,13.85295 -2.2321,1.85028 -2.1215,2.9721 0.8695,8.82822 3.9107,7.65645 4.0946,8.58398 1.7012,8.58398 -0.9489,0 -3.1071,-2.93111 -4.7959,-6.51357 -2.0368,-4.32066 -4.237,-6.51358 -6.5351,-6.51358 -2.7478,0 -3.5758,1.34697 -4.004,6.51358 -1.0608,12.80247 -3.8078,6.22398 -3.8078,-9.11901 z m 14.7767,-5.19531 c 1.5558,-4.89566 -0.2807,-6.96335 -6.1842,-6.96335 -4.5234,0 -5.1144,0.60222 -5.1144,5.21086 0,4.60526 0.5926,5.21085 5.0997,5.21085 3.5651,0 5.4308,-1.04089 6.1989,-3.45836 z m 13.0485,18.22351 c -1.8682,-2.24823 -1.4222,-2.45616 3.2608,-1.52068 6.4457,1.28762 10.6505,-1.5517 10.6505,-7.19198 0,-4.21734 -2.9432,-6.05249 -9.7069,-6.05249 -3.7468,0 -4.2054,-0.75745 -4.2054,-6.94781 l 0,-6.94781 7.8256,0 c 4.3042,0 7.8256,0.78164 7.8256,1.73695 0,0.95533 -2.739,1.73696 -6.0865,1.73696 -4.9272,0 -6.0867,0.6617 -6.0867,3.4739 0,2.35279 1.1595,3.47391 3.5925,3.47391 6.8096,0 10.3198,3.23667 10.3198,9.51586 0,9.32278 -11.9218,15.30328 -17.3893,8.72319 z"
       id="path4304"
       inkscape:connector-curvature="0" />
    <text
       xml:space="preserve"
       style="font-style:normal;font-variant:normal;font-weight:normal;font-stretch:normal;font-size:163.28605652px;line-height:125%;font-family:'Courier 10 Pitch';-inkscape-font-specification:'Courier 10 Pitch';letter-spacing:0px;word-spacing:0px;fill:#000000;fill-opacity:1;stroke:none;stroke-width:1px;stroke-linecap:butt;stroke-linejoin:miter;stroke-opacity:1"
       x="857.01837"
       y="178.75153"
       id="text5124"><tspan
         sodipodi:role="line"
         id="tspan5126"
         x="857.01837"
         y="178.75153">Druksensor</tspan></text>
    <path
       style="display:inline;fill:none;stroke:#ff0000;stroke-width:0.17018947;stroke-miterlimit:4;stroke-dasharray:none;stroke-opacity:1"
       id="path4152-3-5-3"
       sodipodi:type="arc"
       sodipodi:cx="35.246834"
       sodipodi:cy="16.169807"
       sodipodi:rx="4.8851757"
       sodipodi:ry="11.282958"
       sodipodi:start="0.043990135"
       sodipodi:end="3.080903"
       d="M 40.127284,16.665986 A 4.8851757,11.282958 0 0 1 35.287623,27.452372 4.8851757,11.282958 0 0 1 30.370652,16.854146"
       sodipodi:open="true"
       transform="matrix(0,1,1,0,0,0)" />
    <path
       style="display:inline;fill:none;stroke:#ff0000;stroke-width:0.17018947;stroke-miterlimit:4;stroke-dasharray:none;stroke-opacity:1"
       id="path4152-3-5-3-6"
       sodipodi:type="arc"
       sodipodi:cx="108.43143"
       sodipodi:cy="16.497276"
       sodipodi:rx="4.8851757"
       sodipodi:ry="11.282958"
       sodipodi:start="0.043990135"
       sodipodi:end="3.080903"
       d="m 113.31188,16.993455 a 4.8851757,11.282958 0 0 1 -4.83966,10.786386 4.8851757,11.282958 0 0 1 -4.91697,-10.598226"
       sodipodi:open="true"
       transform="matrix(0,1,1,0,0,0)" />
    <path
       style="display:inline;fill:none;stroke:#ff0000;stroke-width:0.17018947;stroke-miterlimit:4;stroke-dasharray:none;stroke-opacity:1"
       id="path4152-3-5-3-7"
       sodipodi:type="arc"
       sodipodi:cx="192.7202"
       sodipodi:cy="16.797127"
       sodipodi:rx="4.8851757"
       sodipodi:ry="11.282958"
       sodipodi:start="0.043990135"
       sodipodi:end="3.080903"
       d="m 197.60065,17.293306 a 4.8851757,11.282958 0 0 1 -4.83966,10.786385 4.8851757,11.282958 0 0 1 -4.91697,-10.598226"
       sodipodi:open="true"
       transform="matrix(0,1,1,0,0,0)" />
    <path
       style="display:inline;fill:none;stroke:#ff0000;stroke-width:0.17018947;stroke-miterlimit:4;stroke-dasharray:none;stroke-opacity:1"
       id="path4152-3-5-3-5"
       sodipodi:type="arc"
       sodipodi:cx="31.879421"
       sodipodi:cy="-515.20447"
       sodipodi:rx="4.8851757"
       sodipodi:ry="11.282958"
       sodipodi:start="0.043990135"
       sodipodi:end="3.080903"
       d="m 36.759871,-514.70829 a 4.8851757,11.282958 0 0 1 -4.83966,10.78639 4.8851757,11.282958 0 0 1 -4.916972,-10.59823"
       sodipodi:open="true"
       transform="matrix(0,1,-1,0,0,0)" />
    <path
       style="display:inline;fill:none;stroke:#ff0000;stroke-width:0.17018947;stroke-miterlimit:4;stroke-dasharray:none;stroke-opacity:1"
       id="path4152-3-5-3-6-3"
       sodipodi:type="arc"
       sodipodi:cx="105.06401"
       sodipodi:cy="-514.87695"
       sodipodi:rx="4.8851757"
       sodipodi:ry="11.282958"
       sodipodi:start="0.043990135"
       sodipodi:end="3.080903"
       d="m 109.94446,-514.38077 a 4.8851757,11.282958 0 0 1 -4.83966,10.78638 4.8851757,11.282958 0 0 1 -4.91697,-10.59822"
       sodipodi:open="true"
       transform="matrix(0,1,-1,0,0,0)" />
    <path
       style="display:inline;fill:none;stroke:#ff0000;stroke-width:0.17018947;stroke-miterlimit:4;stroke-dasharray:none;stroke-opacity:1"
       id="path4152-3-5-3-7-5"
       sodipodi:type="arc"
       sodipodi:cx="189.3528"
       sodipodi:cy="-514.57715"
       sodipodi:rx="4.8851757"
       sodipodi:ry="11.282958"
       sodipodi:start="0.043990135"
       sodipodi:end="3.080903"
       d="m 194.23325,-514.08097 a 4.8851757,11.282958 0 0 1 -4.83966,10.78639 4.8851757,11.282958 0 0 1 -4.91697,-10.59823"
       sodipodi:open="true"
       transform="matrix(0,1,-1,0,0,0)" />
    <path
       style="display:inline;fill:#000000"
       d="m 365.54441,777.67647 c 0.1194,-16.39688 0.30037,-107.52751 0.21332,-107.43568 -0.0365,0.0388 -2.50825,11.44593 -5.49212,25.34902 -2.9838,13.90307 -5.4996,25.35537 -5.59058,25.44955 -0.091,0.0942 -3.59658,0.25171 -7.79015,0.3501 l -7.62468,0.17887 v -1.06312 -1.06312 l 6.79128,-0.19378 c 3.7353,-0.10657 6.82691,-0.22931 6.87031,-0.27275 0.0437,-0.0434 3.41702,-15.58546 7.49681,-34.53782 4.0798,-18.95236 7.46162,-34.5825 7.51517,-34.73361 0.0535,-0.15112 0.0374,26.92692 -0.0356,60.17342 -0.0731,33.2465 -0.0713,60.38637 0,60.31081 0.0749,-0.0756 2.77598,-11.54355 6.00188,-25.48442 l 5.86528,-25.34702 h 5.16109 5.16108 v 1.09906 1.09906 h -4.3962 c -3.95183,0 -4.39629,0.0471 -4.39629,0.46637 0,0.2565 -1.92834,8.75703 -4.28527,18.89006 -2.35693,10.13303 -4.44931,19.16555 -4.6498,20.07227 -1.03567,4.68464 -6.74305,29.09584 -6.82084,29.17355 -0.0499,0.0497 -0.049,-5.56665 0,-12.48082 z M 465.97719,721.5441 c -2.11091,-0.42962 -4.18217,-2.06849 -5.02644,-3.97724 -1.08023,-2.44195 -1.1434,-6.64015 -0.13509,-8.98421 0.60557,-1.40794 1.95899,-2.88225 3.29896,-3.5936 1.59187,-0.84509 5.04962,-0.84977 6.62037,-0.009 2.29037,1.22599 3.67614,3.55829 3.92011,6.59793 l 0.13918,1.7341 h -6.53188 -6.53198 l 0.16957,1.23731 c 0.34582,2.52269 2.22292,4.87363 4.18538,5.24179 0.54711,0.10264 1.72874,0.12007 2.62586,0.0388 1.80215,-0.16342 3.36961,-1.10142 3.81995,-2.28598 0.1889,-0.49685 0.4572,-0.65991 1.08575,-0.65991 h 0.83474 l -0.43038,1.03037 c -1.17343,2.80894 -4.56265,4.33824 -8.0441,3.62969 z m 6.94418,-10.77356 c -1.00609,-4.6614 -5.95759,-6.41888 -9.25139,-3.28369 -0.90879,0.86509 -1.86489,2.82011 -1.86489,3.81347 0,0.28933 1.15018,0.3632 5.65456,0.3632 h 5.65446 z m -181.53896,10.58253 c -1.28455,-0.10128 -1.30513,-0.11785 -1.30513,-1.04953 v -0.94662 h 2.14236 2.14228 l 6.8262,-29.05633 c 3.75438,-15.98099 7.39613,-31.51256 8.09267,-34.51461 l 1.26645,-5.45826 0.0695,34.5146 0.0695,34.5146 h 10.02785 10.02778 v 1.09906 1.09906 h -11.12796 -11.12795 l -0.0232,-26.17131 -0.0232,-26.17131 -0.93783,3.8467 c -0.51584,2.11568 -3.22501,13.61458 -6.02034,25.55309 -2.79542,11.93851 -5.2043,21.98459 -5.35301,22.32461 -0.28479,0.65073 -0.98971,0.71254 -4.7472,0.41625 z m 42.38246,-9.68955 V 701.772 h 0.96164 0.96172 v 9.89152 9.89152 h -0.96172 -0.96164 z m 64.40081,9.17241 c -1.74076,-0.61737 -3.27044,-2.10391 -4.28446,-4.16371 -0.87083,-1.76884 -0.9046,-1.96052 -0.9046,-5.1403 0,-3.06445 0.0579,-3.4275 0.79652,-5.02763 1.31234,-2.84185 3.64254,-4.44432 6.79144,-4.67037 4.06554,-0.29185 7.30541,2.05284 8.37182,6.05853 0.2102,0.78956 0.38369,2.02288 0.38547,2.7407 v 1.30513 h -7.31859 -7.31859 l 0.17286,1.26134 c 0.3149,2.29721 1.5458,4.37476 3.22027,5.43517 2.83828,1.79738 8.22383,0.4674 8.89229,-2.19597 0.12421,-0.49484 0.35215,-0.65383 0.93739,-0.65383 1.01527,0 1.15971,0.18385 0.83189,1.05861 -0.60057,1.60268 -1.69639,2.78553 -3.34252,3.60814 -1.45251,0.72581 -1.93368,0.82584 -3.881,0.80684 -1.22261,-0.0119 -2.73162,-0.20212 -3.35348,-0.42265 z m 9.10641,-11.83859 c -0.59781,-3.18653 -3.06754,-5.30199 -6.18989,-5.30199 -2.69304,0 -4.81206,1.48678 -5.77075,4.04894 -0.91475,2.445 -1.36019,2.27064 5.80131,2.27064 h 6.35019 z m 9.92965,12.09976 c -0.10078,-0.10075 -0.1832,-5.35562 -0.1832,-11.67749 V 697.9253 h 0.96172 0.96162 v 10.85319 10.8532 h 6.04483 6.04483 v 0.82429 0.82429 h -6.82335 c -3.75286,0 -6.90576,-0.0824 -7.00645,-0.18317 z m 18.22599,-8.04235 v -8.26034 h 0.82432 0.82432 v 7.96817 c 0,4.38249 0.0312,8.0609 0.0686,8.17424 0.0374,0.11334 -0.33317,0.24482 -0.82432,0.29217 l -0.89301,0.0861 v -8.26034 z m 7.41866,-0.10721 v -8.33272 l 0.82431,0.12098 c 0.7615,0.11177 0.82423,0.2064 0.82423,1.24275 v 1.12177 l 0.89301,-0.86264 c 1.85901,-1.79582 5.0276,-2.51131 7.16551,-1.61802 1.14367,0.47784 2.28146,1.8272 2.64528,3.137 0.15665,0.56426 0.28442,3.82094 0.28531,7.27272 v 6.25089 h -0.82422 -0.82432 l -0.0152,-6.11351 c -0.0169,-6.61449 -0.18186,-7.62254 -1.39557,-8.52218 -1.74798,-1.29558 -4.4992,-0.76506 -6.79679,1.31063 l -1.13413,1.02461 v 6.15022 6.15023 h -0.82423 -0.82431 v -8.33273 z m -7.41866,-13.78581 c 0,-1.22989 0.009,-1.23643 0.96172,-1.23643 0.95655,0 0.96163,0.006 0.96163,1.23643 0,1.2299 -0.009,1.23645 -0.96163,1.23645 -0.95664,0 -0.96172,-0.006 -0.96172,-1.23645 z m -101.66286,-3.98407 v -1.64859 h 0.96164 0.96172 v 1.64859 1.64858 h -0.96172 -0.96164 z"
       id="path4601-1-1"
       inkscape:connector-curvature="0" />
    <path
       style="display:inline;fill:#000000"
       d="m 118.58853,774.9157 c 0.11339,-15.57139 0.28525,-102.11412 0.20258,-102.02692 -0.0347,0.0369 -2.38198,10.8697 -5.21562,24.07285 -2.83359,13.20313 -5.22273,24.07887 -5.30913,24.16831 -0.0864,0.0895 -3.41551,0.23904 -7.39796,0.33248 l -7.240827,0.16986 v -1.0096 -1.00959 l 6.449387,-0.18403 c 3.54725,-0.1012 6.48321,-0.21776 6.52442,-0.25902 0.0415,-0.0412 3.245,-14.80082 7.11939,-32.79903 3.87441,-17.99823 7.08597,-32.84148 7.13683,-32.98498 0.0508,-0.14351 0.0355,25.5713 -0.0338,57.14404 -0.0694,31.57272 -0.0677,57.34626 0,57.27451 0.0711,-0.0718 2.63622,-10.9624 5.69972,-24.20143 l 5.57,-24.07095 h 4.90125 4.90125 v 1.04373 1.04373 h -4.17487 c -3.75288,0 -4.17497,0.0447 -4.17497,0.44289 0,0.24359 -1.83125,8.31617 -4.06953,17.93905 -2.23827,9.62289 -4.22531,18.20069 -4.41571,19.06176 -0.98353,4.44879 -6.40357,27.63103 -6.47745,27.70483 -0.0474,0.0472 -0.0465,-5.2864 0,-11.85249 z m 95.37657,-53.30643 c -2.00464,-0.40799 -3.97162,-1.96435 -4.77339,-3.77701 -1.02585,-2.31901 -1.08584,-6.30585 -0.12829,-8.5319 0.57508,-1.33706 1.86037,-2.73715 3.13288,-3.41269 1.51172,-0.80254 4.7954,-0.80698 6.28707,-0.009 2.17506,1.16427 3.49107,3.37915 3.72275,6.26576 l 0.13218,1.6468 h -6.20304 -6.20313 l 0.16103,1.17502 c 0.32841,2.39568 2.11101,4.62827 3.97467,4.97789 0.51957,0.0975 1.64171,0.11403 2.49366,0.0368 1.71143,-0.15519 3.19997,-1.04597 3.62764,-2.1709 0.17939,-0.47183 0.43418,-0.62668 1.03109,-0.62668 h 0.79271 l -0.40871,0.97849 c -1.11435,2.66753 -4.33294,4.11984 -7.63912,3.44696 z m 6.59458,-10.23117 c -0.95544,-4.42673 -5.65766,-6.09573 -8.78564,-3.11838 -0.86304,0.82154 -1.771,2.67814 -1.771,3.62149 0,0.27476 1.09227,0.34491 5.36988,0.34491 h 5.36979 z M 48.160152,721.42786 c -1.21988,-0.0962 -1.239424,-0.11192 -1.239424,-0.99669 v -0.89897 h 2.034504 2.034429 l 6.48254,-27.5935 c 3.565369,-15.17645 7.023778,-29.9261 7.685251,-32.77701 l 1.202692,-5.18347 0.066,32.777 0.066,32.77698 h 9.523006 9.522939 v 1.04373 1.04373 H 74.970358 64.402635 l -0.02203,-24.85373 -0.02203,-24.85374 -0.890615,3.65304 c -0.489871,2.00916 -3.062649,12.92917 -5.717251,24.26664 -2.654687,11.33748 -4.942294,20.87779 -5.083518,21.20069 -0.270452,0.61797 -0.939883,0.67667 -4.508205,0.3953 z m 40.248749,-9.20174 v -9.39354 h 0.913226 0.913303 v 9.39354 9.39354 h -0.913303 -0.913226 z m 61.158599,8.71063 c -1.65312,-0.58628 -3.10579,-1.99799 -4.06876,-3.95409 -0.82699,-1.67979 -0.85906,-1.86182 -0.85906,-4.88151 0,-2.91017 0.055,-3.25495 0.75642,-4.77452 1.24627,-2.69878 3.45916,-4.22057 6.44953,-4.43524 3.86086,-0.27716 6.93762,1.94949 7.95035,5.75351 0.19961,0.74981 0.36437,1.92104 0.36606,2.60273 v 1.23942 h -6.95014 -6.95014 l 0.16416,1.19784 c 0.29904,2.18156 1.46798,4.15451 3.05815,5.16154 2.69538,1.70689 7.8098,0.44387 8.44461,-2.08542 0.11796,-0.46992 0.33442,-0.62091 0.8902,-0.62091 0.96415,0 1.10132,0.17459 0.79001,1.00532 -0.57034,1.52199 -1.61099,2.64529 -3.17425,3.42649 -1.37938,0.68927 -1.83633,0.78426 -3.68561,0.76622 -1.16106,-0.0113 -2.5941,-0.19195 -3.18465,-0.40138 z m 8.64796,-11.24258 c -0.56772,-3.02611 -2.91311,-5.03506 -5.87827,-5.03506 -2.55746,0 -4.5698,1.41192 -5.48022,3.84509 -0.8687,2.32191 -1.29172,2.15633 5.50924,2.15633 h 6.0305 z m 9.42975,11.49061 c -0.0957,-0.0957 -0.17397,-5.086 -0.17397,-11.0896 v -10.91564 h 0.9133 0.91321 v 10.3068 10.3068 h 5.7405 5.74051 v 0.78279 0.78279 h -6.47983 c -3.56393,0 -6.5581,-0.0783 -6.65372,-0.17394 z m 17.30842,-7.63747 v -7.84448 h 0.78282 0.78282 v 7.56702 c 0,4.16186 0.0296,7.65508 0.0651,7.76271 0.0355,0.10764 -0.3164,0.2325 -0.78282,0.27747 l -0.84806,0.0818 v -7.84448 z m 7.04517,-0.10181 v -7.91322 l 0.78281,0.11489 c 0.72316,0.10615 0.78274,0.19601 0.78274,1.18019 v 1.06529 l 0.84805,-0.81921 c 1.76542,-1.70541 4.77449,-2.38488 6.80477,-1.53656 1.08609,0.45378 2.1666,1.73521 2.5121,2.97907 0.14876,0.53585 0.2701,3.62858 0.27095,6.90658 v 5.93619 h -0.78273 -0.78282 l -0.0144,-5.80573 c -0.0161,-6.28148 -0.17271,-7.23878 -1.32531,-8.09313 -1.65998,-1.23036 -4.27269,-0.72655 -6.45461,1.24465 l -1.07704,0.97302 v 5.84059 5.8406 h -0.78273 -0.78281 v -7.91322 z m -7.04517,-13.09177 c 0,-1.16797 0.009,-1.17419 0.9133,-1.17419 0.90839,0 0.91322,0.006 0.91322,1.17419 0,1.16798 -0.009,1.1742 -0.91322,1.1742 -0.90848,0 -0.9133,-0.006 -0.9133,-1.1742 z m -96.544729,-3.7835 v -1.56559 h 0.913226 0.913303 v 1.56559 1.56559 h -0.913303 -0.913226 z"
       id="path4601-1-1-2"
       inkscape:connector-curvature="0" />
    <path
       style="fill:none;fill-opacity:1;stroke:#ff0000;stroke-width:0.88516539;stroke-miterlimit:4;stroke-dasharray:none;stroke-opacity:1"
       d="M 28.346456,630.70712 H 240.94488 v 7.08661 H 28.346456 Z"
       id="rect3604"
       inkscape:connector-curvature="0"
       sodipodi:nodetypes="ccccc" />
    <path
       style="display:inline;fill:none;fill-opacity:1;stroke:#ff0000;stroke-width:0.86695856;stroke-miterlimit:4;stroke-dasharray:none;stroke-opacity:1"
       d="m 276.37795,630.70712 h 70.86614 v 7.08661 h -70.86614 z"
       id="rect4408-7"
       inkscape:connector-curvature="0"
       sodipodi:nodetypes="ccccc" />
    <path
       style="display:inline;fill:none;fill-rule:evenodd;stroke:#ff0000;stroke-width:0.30779579;stroke-linecap:butt;stroke-linejoin:miter;stroke-miterlimit:4;stroke-dasharray:none;stroke-opacity:1"
       d="m 265.74803,620.07873 233.85826,0 v 198.42514 l -233.85826,6e-5 z"
       id="rect3336-7-9-3-3"
       inkscape:connector-curvature="0"
       sodipodi:nodetypes="ccccc" />
    <path
       style="display:inline;fill:none;fill-opacity:1;stroke:#ff0000;stroke-width:0.88516539;stroke-miterlimit:4;stroke-dasharray:none;stroke-opacity:1"
       d="M 28.346126,800.78739 H 240.94455 v 7.08662 H 28.346126 Z"
       id="rect3604-6"
       inkscape:connector-curvature="0"
       sodipodi:nodetypes="ccccc" />
    <path
       style="display:inline;fill:none;fill-opacity:1;stroke:#ff0000;stroke-width:0.86695856;stroke-miterlimit:4;stroke-dasharray:none;stroke-opacity:1"
       d="m 418.11023,630.70712 h 70.86614 v 7.08661 l -70.86614,10e-6 z"
       id="rect4408-7-7"
       inkscape:connector-curvature="0"
       sodipodi:nodetypes="ccccc" />
    <path
       style="display:inline;fill:none;fill-opacity:1;stroke:#ff0000;stroke-width:0.86695856;stroke-miterlimit:4;stroke-dasharray:none;stroke-opacity:1"
       d="m 418.11024,800.78739 h 70.86614 v 7.08661 h -70.86614 z"
       id="rect4408-7-5"
       inkscape:connector-curvature="0"
       sodipodi:nodetypes="ccccc" />
    <path
       style="display:inline;fill:none;fill-opacity:1;stroke:#ff0000;stroke-width:0.86695856;stroke-miterlimit:4;stroke-dasharray:none;stroke-opacity:1"
       d="m 276.37797,800.78739 h 70.86614 v 7.08661 h -70.86614 z"
       id="rect4408-7-3"
       inkscape:connector-curvature="0"
       sodipodi:nodetypes="ccccc" />
  </g>
</svg>
