<?xml version="1.0" encoding="UTF-8" standalone="no"?>
<!-- Created with Inkscape (http://www.inkscape.org/) -->

<svg
   xmlns:dc="http://purl.org/dc/elements/1.1/"
   xmlns:cc="http://creativecommons.org/ns#"
   xmlns:rdf="http://www.w3.org/1999/02/22-rdf-syntax-ns#"
   xmlns:svg="http://www.w3.org/2000/svg"
   xmlns="http://www.w3.org/2000/svg"
   xmlns:sodipodi="http://sodipodi.sourceforge.net/DTD/sodipodi-0.dtd"
   xmlns:inkscape="http://www.inkscape.org/namespaces/inkscape"
   width="600mm"
   height="300mm"
   viewBox="0 0 2125.9842 1062.9921"
   id="svg2"
   version="1.1"
   inkscape:version="0.91 r13725"
   sodipodi:docname="Pulseoxymdf2.svg">
  <defs
     id="defs4" />
  <sodipodi:namedview
     id="base"
     pagecolor="#ffffff"
     bordercolor="#666666"
     borderopacity="1.0"
     inkscape:pageopacity="0.0"
     inkscape:pageshadow="2"
     inkscape:zoom="0.35"
     inkscape:cx="930.44407"
     inkscape:cy="562.11039"
     inkscape:document-units="mm"
     inkscape:current-layer="layer1"
     showgrid="false"
     inkscape:window-width="1366"
     inkscape:window-height="714"
     inkscape:window-x="0"
     inkscape:window-y="0"
     inkscape:window-maximized="1" />
  <metadata
     id="metadata7">
    <rdf:RDF>
      <cc:Work
         rdf:about="">
        <dc:format>image/svg+xml</dc:format>
        <dc:type
           rdf:resource="http://purl.org/dc/dcmitype/StillImage" />
        <dc:title />
      </cc:Work>
    </rdf:RDF>
  </metadata>
  <g
     inkscape:label="Layer 1"
     inkscape:groupmode="layer"
     id="layer1"
     transform="translate(0,10.629921)">
    <path
       style="fill:#000000"
       d="M 171.44672,834.50943 C 156.1002,822.4239 156.01632,821.10862 170.5633,820.6564 l 10.89549,-0.33867 0,-5.82528 0,-5.82537 -30.33068,-0.31436 -30.33069,-0.31435 -0.32724,-15.40248 -0.32723,-15.40248 -10.56825,-9.20705 -10.56825,-9.20715 0,-14.97589 0,-14.97598 10.60101,-9.2356 10.60102,-9.2357 0,-15.04317 0,-15.04318 -14.42916,-0.33075 c -13.533659,-0.31021 -14.429157,-0.4769 -14.429157,-2.68648 0,-2.18896 0.896704,-2.37946 12.662317,-2.69011 6.96428,-0.18388 12.66233,-0.53005 12.66233,-0.76926 0,-0.23923 -5.34707,-9.52363 -11.88238,-20.63199 -6.62433,-11.2597 -11.592338,-20.95289 -11.226928,-21.90513 0.517791,-1.34935 3.384443,-1.70808 13.649218,-1.70808 l 12.99376,0 0,-14.07848 0,-14.07849 -7.36182,-0.35067 -7.36181,-0.35069 0,-34.74777 0,-34.74777 6.77287,-0.35325 6.77287,-0.35326 0,-13.48695 0,-13.48697 33.56988,0 33.56989,0 0,-7.44119 0,-7.44118 -6.25409,-1.97142 c -7.51937,-2.37028 -15.26839,-8.7118 -18.78173,-15.3703 -3.57982,-6.78449 -3.60142,-19.42519 -0.0447,-26.16184 3.67635,-6.96321 10.90282,-12.96018 18.50498,-15.35654 l 6.57548,-2.07275 0,-12.11009 0,-12.1101 -11.4708,-0.33712 c -15.52829,-0.45637 -15.50939,-1.50672 0.2465,-13.69141 6.83788,-5.28802 12.94892,-9.61458 13.58008,-9.61458 0.63116,0 6.7422,4.32656 13.58008,9.61458 15.63273,12.08945 15.70234,13.23028 0.83561,13.69296 l -10.88202,0.33867 0,12.10855 0,12.10854 6.57551,2.07275 c 7.60216,2.39636 14.82864,8.39333 18.50499,15.35654 3.53438,6.6943 3.53438,19.37997 0,26.07427 -3.67635,6.96321 -10.90283,12.96018 -18.50499,15.35654 l -6.57551,2.07275 0,7.44118 0,7.44119 31.80305,0 31.80305,0 0,13.48418 0,13.48419 6.18392,0.35602 6.18393,0.35604 0,34.74777 0,34.74777 -5.59498,0.35902 -5.59498,0.35901 0,14.07015 0,14.07015 12.99375,0 c 10.25375,0 13.13175,0.35953 13.64802,1.70492 0.36471,0.95041 -4.60384,10.57068 -11.22693,21.73798 -6.53464,11.01818 -11.88117,20.30339 -11.88117,20.63379 0,0.3304 5.43301,0.7518 12.07338,0.93642 11.17623,0.31073 12.07338,0.51074 12.07338,2.69146 0,2.20326 -0.89588,2.37731 -13.84022,2.68761 l -13.84021,0.33189 -0.063,16.74753 -0.0631,16.74762 -10.49778,9.42313 -10.49779,9.42312 0,12.36786 0,12.36785 10.51928,9.42312 10.51928,9.42313 -0.25299,15.90152 -0.253,15.90153 -34.4533,0.31218 -34.4533,0.31229 0,5.82905 0,5.82895 11.4708,0.33716 c 9.36678,0.27525 11.53637,0.68007 11.82839,2.20699 0.38215,1.99808 -23.3137,21.17207 -25.96461,21.0098 -0.80136,-0.049 -6.75761,-4.26349 -13.23601,-9.36536 z m 21.11282,-2.94473 6.97813,-5.26903 -14.5452,0 -14.54521,0 6.97812,5.26903 c 3.83798,2.89809 7.24317,5.26913 7.56709,5.26913 0.32392,0 3.7291,-2.37104 7.56707,-5.26913 z m 58.3948,-40.96157 0,-12.13472 -10.60101,-9.23561 -10.60102,-9.23569 0,-14.97589 0,-14.97599 10.60102,-9.2356 10.60101,-9.2357 0,-15.63212 0,-15.63212 -14.42916,-0.33075 c -13.53366,-0.31021 -14.42916,-0.4769 -14.42916,-2.68648 0,-2.18896 0.8967,-2.37946 12.66232,-2.69011 6.96428,-0.18388 12.66233,-0.53005 12.66233,-0.76926 0,-0.23923 -5.34707,-9.52363 -11.88238,-20.63199 -6.62433,-11.2597 -11.59234,-20.95289 -11.22693,-21.90513 0.51779,-1.34935 3.38445,-1.70808 13.64922,-1.70808 l 12.99376,0 0,-14.07848 0,-14.07849 -7.36182,-0.35067 -7.36181,-0.35069 0,-34.74777 0,-34.74777 6.77287,-0.35325 6.77287,-0.35326 0,-10.54223 0,-10.54224 -62.4282,0 -62.42821,0 0,10.53945 0,10.53947 6.18393,0.35602 6.18392,0.35604 0,34.74777 0,34.74777 -5.59498,0.35902 -5.59498,0.35901 0,14.07015 0,14.07015 12.99376,0 c 10.25374,0 13.13174,0.35953 13.64802,1.70492 0.3647,0.95041 -4.60384,10.57068 -11.22693,21.73798 -6.53464,11.01818 -11.88118,20.30339 -11.88118,20.63379 0,0.3304 5.43302,0.7518 12.07338,0.93642 11.17624,0.31073 12.07338,0.51074 12.07338,2.69146 0,2.20326 -0.89587,2.37731 -13.84021,2.68761 l -13.84022,0.33189 -0.063,16.15858 -0.063,16.15868 -10.49778,9.42313 -10.49779,9.42312 0,12.36785 0,12.36786 10.49779,9.42312 10.49778,9.42313 0.063,13.84021 0.063,13.84022 62.42821,0 62.4282,0 0,-12.13473 z m -31.22008,4.75783 c -1.28816,-0.72087 -4.1279,-1.19051 -6.31052,-1.04342 -7.86699,0.52977 -12.1658,-5.55088 -9.5429,-13.49834 2.17402,-6.58733 9.5098,-8.57778 14.22726,-3.86028 2.11129,2.11125 2.40668,3.50069 1.94023,9.12554 -0.42928,5.1765 -0.13563,6.93834 1.33582,8.01428 2.57331,1.8817 1.25677,2.88884 -1.64989,1.26222 z m -3.61183,-5.0751 c 1.01803,-1.01808 1.85097,-3.63045 1.85097,-5.80531 0,-4.56465 -2.55485,-7.65629 -6.32696,-7.65629 -3.86416,0 -5.45194,2.2297 -5.45194,7.65629 0,2.6561 0.63606,5.46541 1.41347,6.24282 1.98209,1.98206 6.31764,1.7593 8.51446,-0.43751 z m 8.91832,2.87716 c 0,-0.73133 1.88719,-3.41852 4.19377,-5.97162 5.3883,-5.96428 5.24004,-9.85885 -0.36563,-9.60452 -4.60796,0.209 -5.07652,-1.58233 -0.70111,-2.68051 7.49265,-1.88057 9.78692,5.41981 3.97579,12.65093 l -3.68016,4.57954 4.17812,0 c 2.29797,0 4.17812,0.53005 4.17812,1.17789 0,0.64784 -2.65025,1.17789 -5.88945,1.17789 -3.58904,0 -5.88945,-0.5194 -5.88945,-1.3296 z m -14.97129,-42.25235 c -0.57245,-2.18909 -1.60667,-2.35578 -14.61336,-2.35578 l -13.99731,0 0,-2.94473 0,-2.94473 14.13469,0 c 11.90766,0 14.13469,-0.2842 14.13469,-1.80386 0,-3.03595 2.7645,-3.11124 10.67749,-0.2908 10.15393,3.61914 10.28411,6.12578 0.51247,9.86771 -8.78626,3.36462 -10.07757,3.42078 -10.84867,0.47219 z m -75.72629,-47.70457 0,-10.01207 4.62742,0 c 7.07386,0 11.03659,5.70994 6.54802,9.43509 -1.03323,0.8575 -1.37727,2.03115 -0.81918,2.79452 0.5292,0.72389 1.58448,2.7737 2.34505,4.55533 2.05871,4.82228 -1.02024,4.24512 -3.27819,-0.61448 -1.08875,-2.34325 -2.78397,-3.94707 -4.41709,-4.17906 -2.32373,-0.33 -2.65025,0.14162 -2.65025,3.82814 0,2.31253 -0.53005,4.2046 -1.17789,4.2046 -0.69288,0 -1.17789,-4.12262 -1.17789,-10.01207 z m 9.42312,-2.35578 c 1.96434,-2.3669 -0.39721,-5.30051 -4.26684,-5.30051 -2.32641,0 -2.8005,0.59818 -2.8005,3.53367 0,2.9354 0.47409,3.53367 2.8005,3.53367 1.54027,0 3.46035,-0.79512 4.26684,-1.76683 z m 8.24524,2.35578 c 0,-5.88946 0.48501,-10.01207 1.17789,-10.01207 0.68055,0 1.17789,3.72995 1.17789,8.83418 l 0,8.83418 4.12262,0 c 2.26744,0 4.12261,0.53005 4.12261,1.17789 0,0.64784 -2.38523,1.17789 -5.30051,1.17789 l -5.3005,0 0,-10.01207 z m 12.95679,0 0,-10.01207 5.88946,0 c 3.2392,0 5.88945,0.53005 5.88945,1.17789 0,0.64784 -2.1202,1.17789 -4.71156,1.17789 -4.24041,0 -4.71156,0.29447 -4.71156,2.94472 0,2.58015 0.51041,2.94473 4.12261,2.94473 2.26744,0 4.12262,0.53005 4.12262,1.17789 0,0.64784 -1.85518,1.17789 -4.12262,1.17789 -3.79542,0 -4.12261,0.28044 -4.12261,3.53367 0,3.3373 0.26174,3.53368 4.71156,3.53368 2.59136,0 4.71156,0.53005 4.71156,1.17789 0,0.64784 -2.65025,1.17789 -5.88945,1.17789 l -5.88946,0 0,-10.01207 z m 15.31258,0 0,-10.01207 4.78899,0 c 6.27677,0 8.81033,1.48103 10.41683,6.08941 0.96997,2.78246 0.97219,4.83397 0.008,7.75419 -1.44321,4.37356 -4.70837,6.18054 -11.16813,6.18054 l -4.04593,0 0,-10.01207 z m 10.67845,6.43693 c 1.72613,-0.92384 2.27835,-2.48403 2.27835,-6.43693 0,-5.70156 -1.93505,-7.65629 -7.57886,-7.65629 -2.93432,0 -3.02216,0.22248 -3.02216,7.65629 0,7.43371 0.0878,7.65629 3.02216,7.65629 1.66219,0 4.04742,-0.54871 5.30051,-1.21936 z m -20.10157,-93.60089 c 0,-5.88945 0.48501,-10.01207 1.17789,-10.01207 0.69288,0 1.17789,4.12262 1.17789,10.01207 0,5.88946 -0.48501,10.01207 -1.17789,10.01207 -0.69288,0 -1.17789,-4.12261 -1.17789,-10.01207 z m 8.24523,0 0,-10.01207 4.62743,0 c 7.07385,0 11.03659,5.70999 6.54801,9.43518 -1.03322,0.8575 -1.37726,2.03113 -0.81918,2.79448 0.5292,0.72385 1.58448,2.77373 2.34505,4.55528 2.05873,4.8223 -1.02023,4.24521 -3.27818,-0.61443 -1.08875,-2.34326 -2.78397,-3.94711 -4.41709,-4.17905 -2.32374,-0.33002 -2.65026,0.14162 -2.65026,3.82814 0,2.3125 -0.53005,4.20454 -1.17789,4.20454 -0.69288,0 -1.17789,-4.12261 -1.17789,-10.01207 z m 9.42313,-2.35578 c 1.96433,-2.36687 -0.39722,-5.30051 -4.26684,-5.30051 -2.32642,0 -2.80051,0.59822 -2.80051,3.53368 0,2.93545 0.47409,3.53367 2.80051,3.53367 1.54027,0 3.46035,-0.79508 4.26684,-1.76684 z m 8.24523,2.35578 c 0,-5.88945 0.48501,-10.01207 1.17789,-10.01207 0.68056,0 1.17789,3.73 1.17789,8.83418 l 0,8.83418 4.12262,0 c 2.26744,0 4.12262,0.53005 4.12262,1.17789 0,0.64784 -2.38523,1.17789 -5.30051,1.17789 l -5.30051,0 0,-10.01207 z m 12.9568,0 0,-10.01207 5.88945,0 c 3.2392,0 5.88946,0.53005 5.88946,1.17789 0,0.64784 -2.12021,1.17789 -4.71157,1.17789 -4.2404,0 -4.71156,0.29448 -4.71156,2.94473 0,2.58015 0.51041,2.94473 4.12262,2.94473 2.26744,0 4.12261,0.53005 4.12261,1.17789 0,0.64784 -1.85517,1.17789 -4.12261,1.17789 -3.79542,0 -4.12262,0.28045 -4.12262,3.53367 0,3.33735 0.26175,3.53367 4.71156,3.53367 2.59136,0 4.71157,0.53005 4.71157,1.17789 0,0.64784 -2.65026,1.17789 -5.88946,1.17789 l -5.88945,0 0,-10.01207 z m 15.31258,0 0,-10.01207 4.78899,0 c 6.27676,0 8.81032,1.48107 10.41682,6.08949 0.96997,2.78246 0.97219,4.83397 0.008,7.7542 -1.44321,4.37354 -4.70837,6.18045 -11.16813,6.18045 l -4.04593,0 0,-10.01207 z m 10.67844,6.43696 c 1.72613,-0.92379 2.27835,-2.48397 2.27835,-6.43696 0,-5.70146 -1.93504,-7.65629 -7.57886,-7.65629 -2.93432,0 -3.02215,0.22253 -3.02215,7.65629 0,7.43376 0.0878,7.65629 3.02215,7.65629 1.6622,0 4.04743,-0.5487 5.30051,-1.21933 z m -95.48657,-58.26415 0,-10.01207 4.62742,0 c 7.07386,0 11.03659,5.70999 6.54802,9.43518 -1.03323,0.85751 -1.37726,2.03113 -0.81918,2.79449 0.5292,0.72384 1.58448,2.77372 2.34505,4.55528 2.05872,4.82229 -1.02023,4.2452 -3.27818,-0.61444 -1.08875,-2.34326 -2.78397,-3.94711 -4.41709,-4.17905 -2.32374,-0.33002 -2.65026,0.14162 -2.65026,3.82814 0,2.3125 -0.53005,4.20454 -1.17789,4.20454 -0.69288,0 -1.17789,-4.12261 -1.17789,-10.01207 z m 9.42313,-2.35578 c 1.96433,-2.36687 -0.39722,-5.3005 -4.26684,-5.3005 -2.32642,0 -2.80051,0.59821 -2.80051,3.53367 0,2.93545 0.47409,3.53367 2.80051,3.53367 1.54026,0 3.46035,-0.79508 4.26684,-1.76684 z m 9.42312,11.18996 c 0,-0.64784 1.0601,-1.17789 2.35578,-1.17789 2.09555,0 2.35578,-0.78526 2.35578,-7.10878 0,-6.74379 -0.12095,-7.04405 -2.35578,-5.84801 -2.9481,1.57777 -3.07513,-0.16178 -0.20172,-2.76217 4.04058,-3.65669 4.91328,-2.4338 4.91328,6.88478 0,7.06735 0.35337,8.83418 1.76684,8.83418 0.97176,0 1.76684,0.53005 1.76684,1.17789 0,0.64784 -2.38523,1.17789 -5.30051,1.17789 -2.91528,0 -5.30051,-0.53005 -5.30051,-1.17789 z m -24.60708,80.34166 10.23827,-17.32451 -10.42277,-0.33786 c -5.73252,-0.18583 -15.44975,-0.18583 -21.59386,0 l -11.17106,0.33786 10.67245,18.00764 c 5.86985,9.90421 10.97987,17.70022 11.35558,17.32451 0.37573,-0.37573 5.29036,-8.47915 10.92139,-18.00764 z m 130.74586,0 10.23827,-17.32451 -10.42277,-0.33786 c -5.73252,-0.18583 -15.44975,-0.18583 -21.59385,0 l -11.17107,0.33786 10.67245,18.00764 c 5.86985,9.90421 10.97987,17.70022 11.35558,17.32451 0.37573,-0.37573 5.29036,-8.47915 10.92139,-18.00764 z m -133.23026,-87.409 0,-29.44727 -10.60102,0 -10.60102,0 0,29.44727 0,29.44727 10.60102,0 10.60102,0 0,-29.44727 z m 130.74586,0 0,-29.44727 -10.60102,0 -10.60101,0 0,29.44727 0,29.44727 10.60101,0 10.60102,0 0,-29.44727 z M 199.7161,479.55122 c 9.51503,-4.48708 14.75246,-12.18514 14.69776,-21.60306 -0.11766,-20.26985 -26.43105,-31.32733 -42.00635,-17.65205 -11.2501,9.87772 -11.21268,26.70137 0.0794,35.71155 8.53508,6.8103 17.75696,8.01042 27.22915,3.54356 z m -12.36785,-7.80068 0,-4.71156 -5.30051,0 c -3.9263,0 -5.30051,-0.45807 -5.30051,-1.76684 0,-1.30877 1.37421,-1.76684 5.30051,-1.76684 l 5.30051,0 0,-5.3005 c 0,-3.9263 0.45806,-5.30051 1.76683,-5.30051 1.30877,0 1.76684,1.37421 1.76684,5.30051 l 0,5.3005 5.30051,0 c 3.92629,0 5.3005,0.45807 5.3005,1.76684 0,1.30877 -1.37421,1.76684 -5.3005,1.76684 l -5.30051,0 0,4.71156 c 0,3.40279 -0.4908,4.71156 -1.76684,4.71156 -1.27604,0 -1.76683,-1.30877 -1.76683,-4.71156 z m -10.60102,-24.14676 c 0,-1.45835 2.15946,-1.76684 12.36785,-1.76684 10.20839,0 12.36785,0.30849 12.36785,1.76684 0,1.45835 -2.15946,1.76684 -12.36785,1.76684 -10.20839,0 -12.36785,-0.30849 -12.36785,-1.76684 z m 19.06738,-55.4765 -7.28847,-5.41617 -7.28848,5.41617 -7.28849,5.41615 14.57697,0 14.57696,0 -7.28848,-5.41615 z M 1883.6037,835.03166 c 0.057,-1.37219 0.3357,-1.65131 0.7117,-0.71163 0.3402,0.85025 0.2985,1.86625 -0.093,2.25759 -0.3915,0.39144 -0.6699,-0.30427 -0.6188,-1.54596 z M 369.33235,818.01896 c -15.34652,-12.08553 -15.4304,-13.40081 -0.88342,-13.85303 l 10.89549,-0.33867 0,-36.47041 0,-36.47032 -12.99376,0 c -10.25374,0 -13.13174,-0.35959 -13.64801,-1.70493 -0.36471,-0.95041 4.60383,-10.57077 11.22692,-21.73802 6.53465,-11.01817 11.88118,-20.30335 11.88118,-20.63381 0,-0.33038 -5.43303,-0.75178 -12.07338,-0.93638 -11.17622,-0.31078 -12.07338,-0.51073 -12.07338,-2.69143 0,-2.20332 0.89589,-2.37736 13.84022,-2.68767 l 13.84021,-0.33188 0,-58.2682 0,-58.2682 52.99141,0 52.99141,0 0.30814,-46.23221 0.30814,-46.23221 29.68088,-0.31456 29.68091,-0.31457 0.35535,-6.16383 0.35525,-6.16383 34.74777,0 34.74778,0 0.35827,5.57586 0.35826,5.57587 31.44478,0.31358 31.44478,0.31359 0.30644,53.8885 0.30635,53.8885 23.54594,0 23.54584,0 0,-53.59403 0,-53.59402 35.27519,0 35.27519,0 0.356,-6.18393 0.35601,-6.18392 34.74777,0 34.74778,0 0.35902,5.59498 0.35902,5.59498 38.74431,0 38.7443,0 0.356,-6.18393 0.35601,-6.18392 34.74777,0 34.74781,0 0.359,5.59498 0.359,5.59498 67.7428,0 67.7427,0 3.8545,-2.9399 c 2.1199,-1.61695 5.5298,-3.52398 7.5777,-4.23785 l 3.7232,-1.29794 0,-21.04415 0,-21.04416 -11.4708,-0.33712 c -15.5282,-0.45638 -15.5093,-1.50672 0.2466,-13.69141 6.8378,-5.28802 12.9488,-9.61458 13.58,-9.61458 0.6312,0 6.7422,4.32656 13.58,9.61458 15.6328,12.08945 15.7025,13.23028 0.8358,13.69296 l -10.8821,0.33867 0,23.26931 0,23.26932 -5.595,1.71666 c -5.143,1.57799 -1.7888,1.74082 41.5206,2.01576 53.285,0.33828 50.0604,-0.30188 50.0604,9.9381 l 0,5.66433 24.1467,0 24.1468,0 0,-11.77891 0,-11.77891 -24.1468,0 -24.1467,0 0,-35.33672 0,-35.33672 97.176,0 97.1759,0 0,39.44599 0,39.44596 47.4101,0.30785 47.4101,0.30782 0.3023,84.51366 0.3022,84.51365 65.9542,0 65.954,0 0,-11.18996 c 0,-11.15071 0.012,-11.18996 2.9448,-11.18996 l 2.9447,0 0,25.32465 0,25.32465 -2.9447,0 c -2.9342,0 -2.9448,-0.04 -2.9448,-11.18047 l 0,-11.18047 -68.6121,-0.30396 -68.6121,-0.30397 -0.3022,-84.51366 -0.3023,-84.51365 -26.4947,0 -26.4948,0 0,8.77541 0,8.77539 6.7728,0.35326 6.7729,0.35324 0,34.74778 0,34.74777 -5.595,0.35901 -5.595,0.35902 0,22.84554 0,22.84555 6.7729,0.35326 6.7729,0.35325 0,34.74777 0,34.74778 -5.8895,0.58899 -5.8894,0.58894 -0.3297,15.01811 -0.3297,15.01811 -74.1718,0 -74.172,0 0,4.07993 0,4.07993 11.4708,0.33716 c 15.5283,0.45636 15.5094,1.50675 -0.2465,13.69142 -6.8378,5.28798 -12.9489,9.6146 -13.5801,9.6146 -0.631,0 -6.7422,-4.32662 -13.5799,-9.6146 -15.6328,-12.08949 -15.7025,-13.23026 -0.8358,-13.69303 l 10.8821,-0.33866 0,-57.92481 c 0,-53.15313 -0.1556,-57.76923 -1.889,-56.03589 -1.0389,1.03892 -2.2526,3.67025 -2.6971,5.84738 l -0.8082,3.95843 -16.738,0.32682 -16.7381,0.32681 0,9.39079 0,9.39078 -65.373,0 -65.3729,0 0,-19.14073 0,-19.14072 -16.6024,-10.01207 -16.6025,-10.01207 -23.6349,-0.58895 -23.6349,-0.58894 -0.1466,-3.37994 c -0.094,-2.16466 -1.401,-4.45898 -3.6352,-6.38093 l -3.4893,-3.00098 -0.304,67.92571 -0.3041,67.92576 -35.916,0 -35.9162,0 0,11.18996 c 0,11.15067 -0.01,11.18996 -2.9447,11.18996 l -2.9447,0 0,-25.32465 0,-25.32469 2.9447,0 c 2.9345,0 2.9447,0.0392 2.9447,11.19 l 0,11.18997 32.981,0 32.9809,0 0,-63.85855 c 0,-58.59798 -0.1556,-63.70289 -1.8889,-61.96954 -1.0389,1.03892 -2.2532,3.67025 -2.6985,5.84738 l -0.8094,3.95843 -77.9871,0.30289 -77.9871,0.30288 0,12.8896 0,12.88961 6.77288,0.35326 6.77287,0.35324 0,34.74778 0,34.74777 -5.59498,0.35901 -5.59498,0.35902 0,9.35854 0,9.35868 37.69249,0 37.6925,0 0,-11.18997 c 0,-11.15075 0.0104,-11.19 2.94472,-11.19 l 2.94473,0 0,25.32469 0,25.32465 -2.94473,0 c -2.93436,0 -2.94472,-0.0396 -2.94472,-11.18996 l 0,-11.18996 -79.50761,0 -79.50762,0 0,11.18996 c 0,11.15067 -0.0104,11.18996 -2.94473,11.18996 l -2.94472,0 0,-25.32465 0,-25.32469 2.94472,0 c 2.93446,0 2.94473,0.0392 2.94473,11.19 l 0,11.18997 38.87039,0 38.87039,0 0,-9.36697 0,-9.36692 -7.36181,-0.35068 -7.36182,-0.35068 0,-34.74777 0,-34.74778 6.18393,-0.35603 6.18392,-0.35602 0,-29.38572 0,-29.3857 -11.18996,0 c -11.15067,0 -11.18996,-0.0107 -11.18996,-2.94473 l 0,-2.94473 25.32465,0 25.32465,0 0,2.94473 c 0,2.9344 -0.0396,2.94473 -11.18996,2.94473 l -11.18997,0 0,13.54574 0,13.54574 75.0926,0 75.0925,0 2.7294,-5.14488 c 1.5011,-2.82968 4.0179,-5.83453 5.5929,-6.67745 l 2.8636,-1.53254 0,-41.02713 0,-41.02714 -29.391,0 -29.3911,0 -0.3506,7.36182 -0.3508,7.36181 -34.74774,0 -34.74777,0 -0.35318,-6.77287 -0.35327,-6.77287 -15.84272,0 -15.84282,0 0,24.7357 0,24.73571 11.18997,0 c 11.15076,0 11.18996,0.0106 11.18996,2.94472 l 0,2.94473 -25.32465,0 -25.32465,0 0,-2.94473 c 0,-2.93439 0.0396,-2.94472 11.18996,-2.94472 l 11.18996,0 0,-24.73571 0,-24.7357 -19.96788,0 -19.96798,0 -0.35064,7.36182 -0.35073,7.36181 -34.74777,0 -34.74777,0 -0.35318,-6.77287 -0.35328,-6.77287 -32.33319,0 -32.33329,0 0,107.18805 0,107.1881 41.22618,0 41.22617,0 0,-11.18997 c 0,-11.15075 0.0104,-11.19 2.94473,-11.19 l 2.94472,0 0,25.32469 0,25.32465 -2.94472,0 c -2.93436,0 -2.94473,-0.0396 -2.94473,-11.18996 l 0,-11.18996 -44.1709,0 -44.1709,0 0,-56.5388 0,-56.53875 -42.20495,0 -42.20505,0 -1.53257,2.8636 c -0.8429,1.57498 -3.84775,4.09183 -6.67742,5.59296 l -5.14493,2.72936 0,20.69447 0,20.69448 6.25413,1.97142 c 7.51937,2.37027 15.26838,8.7118 18.7817,15.37029 3.57984,6.78449 3.60142,19.4252 0.0443,26.16184 -3.66777,6.94692 -10.90435,12.96066 -18.46349,15.34349 l -6.53399,2.05961 -0.33594,10.69346 -0.33602,10.69355 -28.54256,0.31529 -28.54255,0.3154 -0.31577,27.95398 -0.31577,27.95408 -20.31861,0.32227 -20.31861,0.32227 0,14.0642 0,14.0642 11.47086,0.33716 c 15.52828,0.45637 15.50933,1.50676 -0.24651,13.69143 -6.83789,5.28797 -12.94897,9.6146 -13.58013,9.6146 -0.63117,0 -6.74217,-4.32663 -13.58005,-9.6146 -15.63273,-12.0895 -15.70233,-13.23026 -0.83561,-13.69303 l 10.88198,-0.33867 0,-14.06194 0,-14.06203 -19.72963,-0.32293 -19.72967,-0.32293 0,-90.69758 0,-90.69763 24.44124,-0.31837 24.44119,-0.31837 0,-11.75501 0,-11.75501 -74.20707,0 -74.20711,0 0,55.3246 0,55.32461 14.42916,0.33075 c 13.53365,0.31021 14.42916,0.47691 14.42916,2.68654 0,2.18889 -0.89671,2.37943 -12.66233,2.69002 -6.96428,0.18394 -12.66232,0.53005 -12.66232,0.7693 0,0.23925 5.34706,9.52367 11.88238,20.63203 6.62433,11.25969 11.59235,20.95288 11.22693,21.90509 -0.51779,1.34939 -3.38445,1.70813 -13.64923,1.70813 l -12.99375,0 0,36.47192 0,36.47192 11.47078,0.33716 c 9.3668,0.27525 11.53639,0.68007 11.82841,2.20699 0.38215,1.99808 -23.31371,21.17207 -25.96461,21.0098 -0.80146,-0.049 -6.75771,-4.26349 -13.23611,-9.36536 z m 21.11281,-2.94472 6.97814,-5.26904 -14.54521,0 -14.5452,0 6.97812,5.26904 c 3.83798,2.89808 7.24316,5.26912 7.56708,5.26912 0.32392,0 3.72911,-2.37104 7.56707,-5.26912 z m 144.88059,0 6.97811,-5.26904 -14.54525,0 -14.54517,0 6.97812,5.26904 c 3.83794,2.89808 7.24317,5.26912 7.56705,5.26912 0.32396,0 3.7291,-2.37104 7.56714,-5.26912 z m 30.12536,-126.07237 c 0,-44.41529 -0.39747,-80.5411 -0.88342,-80.27961 -0.48586,0.2615 -6.86965,4.05094 -14.18623,8.42098 -7.32799,4.3769 -14.07325,7.64992 -15.01811,7.28735 -1.35146,-0.51864 -1.71529,-3.28886 -1.71529,-13.06304 l 0,-12.40482 -21.79094,0 -21.79098,0 0,85.39712 0,85.39707 37.69247,0 37.6925,0 0,-80.75505 z m -55.36083,-40.56773 c -1.87254,-1.87254 -2.35578,-3.9263 -2.35578,-10.01208 0,-4.31893 0.51344,-7.65628 1.17789,-7.65628 0.64784,0 1.17789,2.95012 1.17789,6.55583 0,7.97776 1.49524,11.11253 5.30051,11.11253 3.80527,0 5.30051,-3.13477 5.30051,-11.11253 0,-3.60571 0.53005,-6.55583 1.17789,-6.55583 0.66444,0 1.17789,3.33735 1.17789,7.65628 0,8.59602 -2.33495,12.36786 -7.65629,12.36786 -1.6196,0 -4.00483,-1.0601 -5.30051,-2.35578 z m 18.84622,1.17789 c 0,-0.64784 1.0601,-1.17789 2.35578,-1.17789 2.09561,0 2.35578,-0.78527 2.35578,-7.10879 0,-6.74378 -0.1209,-7.04405 -2.35578,-5.84801 -2.94803,1.57777 -3.07505,-0.16178 -0.20166,-2.76216 4.04054,-3.6567 4.91322,-2.43381 4.91322,6.88478 0,7.06734 0.35337,8.83418 1.76684,8.83418 0.9718,0 1.76683,0.53005 1.76683,1.17789 0,0.64784 -2.38518,1.17789 -5.30051,1.17789 -2.91523,0 -5.3005,-0.53005 -5.3005,-1.17789 z m 14.12319,0.29447 c -0.009,-0.48588 1.4472,-5.00544 3.23015,-10.04347 2.13745,-6.03984 3.79611,-9.04905 4.8694,-8.83418 1.60523,0.32136 8.96884,18.40941 7.92108,19.45722 -1.07358,1.07351 -3.05234,-1.06543 -3.05234,-3.29934 0,-1.88022 -0.83272,-2.28627 -4.68904,-2.28627 -4.01943,0 -4.79477,0.4206 -5.42829,2.94473 -0.66772,2.66049 -2.82279,4.21867 -2.85096,2.06131 z m 11.30633,-8.37 c -0.34262,-0.5545 -1.20625,-2.5422 -1.91911,-4.41709 -1.37003,-3.60322 -2.24619,-2.9972 -4.01208,2.77502 -0.72078,2.35617 -0.40218,2.65025 2.87179,2.65025 2.0254,0 3.40212,-0.45368 3.0594,-1.00818 z m 796.06008,87.55172 6.9781,-5.26904 -14.5453,0 -14.5451,0 6.9781,5.26904 c 3.838,2.89808 7.2431,5.26913 7.567,5.26913 0.324,0 3.7291,-2.37105 7.5672,-5.26913 z m -948.44652,-7.91929 c -1.26097,-2.1055 -6.14286,-10.32134 -10.84864,-18.25731 -4.70579,-7.93606 -8.70097,-14.42916 -8.87818,-14.42916 -0.17722,0 -4.44216,7.02315 -9.47766,15.60706 -5.03549,8.5838 -9.91874,16.79964 -10.85164,18.2573 l -1.69623,2.65025 22.02252,0 22.02251,0 -2.29268,-3.82814 z m 221.18817,-15.98096 0,-8.03011 -6.57546,-2.07271 c -7.6022,-2.39639 -14.82861,-8.39336 -18.50504,-15.35658 -3.53433,-6.69429 -3.53433,-19.37997 0,-26.07427 3.67144,-6.95389 10.90378,-12.96045 18.48129,-15.34906 l 6.55181,-2.06527 0.31822,-23.59717 0.31812,-23.59718 3.95847,-0.80877 c 2.17712,-0.44483 4.80843,-1.65881 5.84743,-2.69774 1.73328,-1.73335 0.65274,-1.88896 -13.11709,-1.88896 l -15.00595,0 -17.0405,10.30654 -17.04059,10.30655 -0.009,54.47744 -0.009,54.47749 25.91359,0 25.9136,0 0,-8.0302 z m 773.87415,-8.83418 0,-7.44116 -6.5755,-2.07271 c -7.6022,-2.3964 -14.8287,-8.39337 -18.5049,-15.35658 -3.5344,-6.6943 -3.5344,-19.37997 0,-26.07427 3.6762,-6.96321 10.9027,-12.96018 18.5049,-15.35654 l 6.5755,-2.07275 0,-7.4152 0,-7.41519 -22.0855,-0.32045 c -20.6571,-0.29975 -22.0616,-0.45989 -21.7175,-2.47652 0.4513,-2.64511 -2.4901,-7.33295 -5.6684,-9.03391 -2.3391,-1.25191 -2.3558,-0.89577 -2.3558,50.60785 l 0,51.86868 25.9136,0 25.9136,0 0,-7.44125 z m 90.9164,-4.88061 0.3701,-12.32178 -7.0673,-0.34055 -7.0674,-0.3405 0,-34.74778 0,-34.74777 6.184,-0.35604 6.1839,-0.35602 0,-10.52314 0,-10.52314 -37.987,-0.3108 c -36.0698,-0.29509 -37.9683,-0.4196 -37.6191,-2.46683 0.4514,-2.64511 -2.49,-7.33296 -5.6684,-9.03391 -2.3238,-1.24368 -2.3558,-0.89578 -2.3558,25.65704 l 0,26.91782 6.2542,1.97142 c 7.5193,2.37028 15.2685,8.7118 18.7817,15.3703 3.5798,6.78449 3.6014,19.4252 0.045,26.16184 -3.6762,6.96321 -10.9027,12.96018 -18.5049,15.35658 l -6.5755,2.07271 0,7.44116 0,7.44125 42.3283,0 42.3282,0 0.3703,-12.32186 z m -75.6038,-70.63911 c 0,-0.27974 -1.5768,-4.78517 -3.504,-10.01207 -2.4597,-6.6713 -3.0555,-9.50349 -1.9988,-9.50349 0.828,0 2.7005,3.71036 4.1609,8.24523 1.4606,4.53488 2.8595,8.24524 3.1087,8.24524 0.2492,0 1.6481,-3.71036 3.1087,-8.24524 1.4605,-4.53487 3.333,-8.24523 4.161,-8.24523 1.0566,0 0.4609,2.83219 -1.9989,9.50349 -1.9271,5.2269 -3.504,9.73233 -3.504,10.01207 0,0.27971 -0.795,0.50858 -1.7668,0.50858 -0.9717,0 -1.7668,-0.22887 -1.7668,-0.50858 z m 14.1347,-0.66931 c 0,-0.64784 1.0601,-1.17789 2.3557,-1.17789 2.0956,0 2.3558,-0.78527 2.3558,-7.10879 0,-6.74378 -0.1209,-7.04405 -2.3558,-5.84801 -2.9481,1.57777 -3.075,-0.16177 -0.2017,-2.76216 4.0406,-3.65669 4.9133,-2.43381 4.9133,6.88478 0,7.06734 0.3534,8.83418 1.7668,8.83418 0.9718,0 1.7669,0.53005 1.7669,1.17789 0,0.64784 -2.3852,1.17789 -5.3005,1.17789 -2.9153,0 -5.3005,-0.53005 -5.3005,-1.17789 z m -792.39374,69.42473 c 9.31618,-2.58712 17.28993,-13.14729 17.28993,-22.89805 0,-12.98456 -12.05482,-24.1755 -25.9985,-24.13525 -4.88363,0.0141 -14.84528,4.56569 -18.35888,8.38839 -6.21144,6.75786 -7.82864,16.91576 -4.007,25.16999 5.35761,11.57202 18.07252,17.08558 31.07445,13.47492 z m -20.35084,-12.29703 c 0,-1.45835 2.1595,-1.76684 12.36785,-1.76684 10.20845,0 12.36786,0.30849 12.36786,1.76684 0,1.45837 -2.15941,1.76688 -12.36786,1.76688 -10.20835,0 -12.36785,-0.30851 -12.36785,-1.76688 z m 10.60102,-10.60102 0,-5.30051 -5.30051,0 c -3.92624,0 -5.30051,-0.45806 -5.30051,-1.76683 0,-1.30877 1.37427,-1.76684 5.30051,-1.76684 l 5.30051,0 0,-4.71156 c 0,-3.4028 0.49085,-4.71156 1.76683,-4.71156 1.27608,0 1.76684,1.30876 1.76684,4.71156 l 0,4.71156 5.30051,0 c 3.92633,0 5.30051,0.45807 5.30051,1.76684 0,1.30877 -1.37418,1.76683 -5.30051,1.76683 l -5.30051,0 0,5.30051 c 0,3.9263 -0.45806,5.30051 -1.76684,5.30051 -1.30868,0 -1.76683,-1.37421 -1.76683,-5.30051 z m 783.62396,14.65282 c 9.3162,-2.58712 17.29,-13.1473 17.29,-22.89805 0,-12.98456 -12.0549,-24.1755 -25.9986,-24.13526 -4.8836,0.0141 -14.8452,4.5657 -18.3588,8.38839 -6.2116,6.75786 -7.8287,16.91577 -4.007,25.16999 5.3576,11.57202 18.0725,17.08559 31.0744,13.47493 z m -20.3508,-12.29704 c 0,-1.45834 2.1595,-1.76683 12.3678,-1.76683 10.2085,0 12.3679,0.30849 12.3679,1.76683 0,1.45834 -2.1594,1.76684 -12.3679,1.76684 -10.2083,0 -12.3678,-0.3085 -12.3678,-1.76684 z m 10.601,-10.60101 0,-5.30051 -5.3005,0 c -3.9263,0 -5.3005,-0.45807 -5.3005,-1.76684 0,-1.30877 1.3742,-1.76683 5.3005,-1.76683 l 5.3005,0 0,-4.71157 c 0,-3.40279 0.4908,-4.71156 1.7668,-4.71156 1.2761,0 1.7669,1.30877 1.7669,4.71156 l 0,4.71157 5.3005,0 c 3.9263,0 5.3005,0.45806 5.3005,1.76683 0,1.30877 -1.3742,1.76684 -5.3005,1.76684 l -5.3005,0 0,5.30051 c 0,3.92629 -0.4581,5.3005 -1.7669,5.3005 -1.3087,0 -1.7668,-1.37421 -1.7668,-5.3005 z m 102.4765,-14.72364 0,-29.44726 -10.601,0 -10.6011,0 0,29.44726 0,29.44727 10.6011,0 10.601,0 0,-29.44727 z m -578.34433,-7.06734 0,-29.44727 -10.60101,0 -10.60102,0 0,29.44727 0,29.44727 10.60102,0 10.60101,0 0,-29.44727 z m 372.45833,-18.55178 0.3441,-9.12865 16.5087,-0.32514 16.5088,-0.32511 2.7131,-5.11424 c 1.4921,-2.81282 4.0018,-5.80387 5.5768,-6.64678 2.6443,-1.41527 2.8635,-2.21271 2.8635,-10.42011 0,-8.1554 -0.1556,-8.73192 -1.889,-6.99857 -1.0389,1.03892 -2.2532,3.67025 -2.6984,5.84738 l -0.8095,3.95843 -63.2634,0.3047 -63.2635,0.3047 0,12.3946 c 0,9.76523 -0.3638,12.53421 -1.7152,13.0528 -0.945,0.36258 -7.6901,-2.91045 -15.0181,-7.28734 -7.3166,-4.37004 -13.7004,-8.15948 -14.1863,-8.42099 -0.4859,-0.26149 -0.8834,5.91645 -0.8834,13.72876 l 0,14.20421 59.4339,0 59.434,0 0.3439,-9.12865 z M 555.20968,607.13332 c 5.70438,-3.52207 12.59504,-7.68317 15.31257,-9.2469 2.71754,-1.56373 9.76641,-5.80588 15.66407,-9.427 l 10.72314,-6.58384 -24.85783,-15.04351 c -13.67173,-8.27393 -26.58047,-16.1425 -28.68597,-17.4857 l -3.82815,-2.44217 0,34.99891 0,34.99891 2.65026,-1.68247 c 1.45766,-0.92536 7.31752,-4.56417 13.02191,-8.08623 z m -6.24904,-6.9927 c 0,-2.74841 -0.52346,-3.53367 -2.35578,-3.53367 -1.30869,0 -2.35579,-0.78527 -2.35579,-1.76684 0,-0.98157 1.0471,-1.76683 2.35579,-1.76683 1.83232,0 2.35578,-0.78527 2.35578,-3.53368 0,-2.35578 0.58894,-3.53367 1.76683,-3.53367 1.17789,0 1.76684,1.17789 1.76684,3.53367 0,3.33735 0.26177,3.53368 4.71156,3.53368 3.40288,0 4.71156,0.49079 4.71156,1.76683 0,1.27604 -1.30868,1.76684 -4.71156,1.76684 -4.44979,0 -4.71156,0.19632 -4.71156,3.53367 0,2.35578 -0.58895,3.53367 -1.76684,3.53367 -1.17789,0 -1.76683,-1.17789 -1.76683,-3.53367 z m -5.88946,-33.56988 c 0,-1.41347 1.76684,-1.76684 8.83418,-1.76684 7.06735,0 8.83418,0.35337 8.83418,1.76684 0,1.41346 -1.76683,1.76683 -8.83418,1.76683 -7.06734,0 -8.83418,-0.35337 -8.83418,-1.76683 z m 658.17752,-11.69987 -0.3256,-16.85476 -28.3712,17.22204 -28.3714,17.22204 11.2687,6.93316 c 6.1977,3.81323 13.1343,7.95842 15.4145,9.21153 2.2802,1.25309 9.9764,5.92896 17.1026,10.39079 l 12.9568,8.11242 0.3256,-17.69122 c 0.179,-9.73018 0.179,-25.27588 0,-34.546 z m -12.6935,35.84662 c 0,-3.33735 -0.2616,-3.53367 -4.7115,-3.53367 -3.4028,0 -4.7116,-0.49079 -4.7116,-1.76683 0,-1.27605 1.3088,-1.76684 4.7116,-1.76684 4.4499,0 4.7115,-0.19632 4.7115,-3.53367 0,-2.35578 0.589,-3.53367 1.7669,-3.53367 1.1779,0 1.7668,1.17789 1.7668,3.53367 0,2.7484 0.5235,3.53367 2.3558,3.53367 1.3088,0 2.3558,0.78527 2.3558,1.76684 0,0.98157 -1.047,1.76683 -2.3558,1.76683 -1.8323,0 -2.3558,0.78527 -2.3558,3.53367 0,2.35579 -0.5889,3.53368 -1.7668,3.53368 -1.1779,0 -1.7669,-1.17789 -1.7669,-3.53368 z m -8.2452,-33.56988 c 0,-1.41347 1.7668,-1.76684 8.8342,-1.76684 7.0673,0 8.8342,0.35337 8.8342,1.76684 0,1.41347 -1.7669,1.76684 -8.8342,1.76684 -7.0674,0 -8.8342,-0.35337 -8.8342,-1.76684 z m 216.7319,34.49537 c 0,-14.28278 -0.1556,-15.40938 -1.889,-13.67602 -1.0389,1.03892 -2.2531,3.67025 -2.6985,5.84738 l -0.8096,3.95843 -19.3869,0 c -18.1369,0 -19.3632,-0.139 -19.019,-2.15605 0.4513,-2.6451 -2.4901,-7.33296 -5.6684,-9.03391 -2.2647,-1.21204 -2.3558,-0.89578 -2.3558,8.18134 0,9.07834 0.1131,9.47049 2.932,10.17802 3.2993,0.82806 10.0248,7.8992 10.0248,10.53995 0,1.44613 3.15,1.72584 19.4352,1.72584 l 19.4352,0 0,-15.56498 z m -66.1732,-13.13772 c 1.5012,-2.82967 4.0181,-5.83452 5.5931,-6.67743 l 2.8635,-1.53256 0,-35.79614 c 0,-19.68788 -0.3975,-35.58219 -0.8835,-35.3207 -0.4858,0.2615 -6.8696,4.05094 -14.1862,8.42098 -7.328,4.3769 -14.0732,7.64992 -15.0181,7.28735 -1.3516,-0.51864 -1.7153,-3.28886 -1.7153,-13.06304 l 0,-12.40482 -27.0915,0 -27.0915,0 0,-7.65629 0,-7.65629 -49.4474,0 -49.4474,0 -2.2815,4.47188 c -3.0547,5.98797 -4.0878,12.10022 -3.1273,18.50485 l 0.7936,5.29265 47.0436,0 47.0433,0 0,28.85832 0,28.85832 -18.2573,0 -18.2573,0 0,11.7789 0,11.77891 60.369,0 60.3688,0 2.7294,-5.14489 z m -79.8852,-64.35066 c -1.8725,-1.87253 -2.3558,-3.92629 -2.3558,-10.01207 0,-4.31894 0.5134,-7.65629 1.1779,-7.65629 0.6478,0 1.1779,2.95013 1.1779,6.55584 0,7.97776 1.4952,11.11252 5.3005,11.11252 3.8053,0 5.3005,-3.13476 5.3005,-11.11252 0,-3.60571 0.53,-6.55584 1.1779,-6.55584 0.6645,0 1.1778,3.33735 1.1778,7.65629 0,8.59602 -2.3348,12.36785 -7.6562,12.36785 -1.6196,0 -4.0049,-1.0601 -5.3005,-2.35578 z m 18.8462,1.17789 c 0,-0.64784 1.0601,-1.17789 2.3558,-1.17789 2.0956,0 2.3558,-0.78526 2.3558,-7.10878 0,-6.74379 -0.1209,-7.04405 -2.3558,-5.84802 -2.9481,1.57778 -3.0751,-0.16177 -0.2018,-2.76216 4.0407,-3.65669 4.9133,-2.4338 4.9133,6.88478 0,7.06735 0.3534,8.83418 1.7669,8.83418 0.9718,0 1.7668,0.53005 1.7668,1.17789 0,0.64784 -2.3852,1.17789 -5.3005,1.17789 -2.9152,0 -5.3005,-0.53005 -5.3005,-1.17789 z m 15.3126,-8.83418 0,-10.01207 4.6275,0 c 2.6362,0 5.4238,0.79648 6.4784,1.85098 2.1221,2.12208 2.223,2.80465 0.7576,5.11989 -0.685,1.08209 -0.4235,2.63774 0.7425,4.41709 1.6234,2.47774 1.6106,3.03512 -0.1298,5.69146 -1.5826,2.41522 -2.8776,2.94472 -7.2029,2.94472 l -5.2733,0 0,-10.01207 z m 10.3103,6.29795 c 2.2543,-2.25426 -0.446,-5.709 -4.4623,-5.709 -3.0951,0 -3.4922,0.40194 -3.4922,3.53367 0,3.08495 0.4188,3.53367 3.2981,3.53367 1.8139,0 3.9093,-0.61125 4.6564,-1.35834 z m -1.4761,-11.00951 c 0,-1.69432 -0.9095,-2.46042 -3.2392,-2.72848 -2.8078,-0.3231 -3.2392,0.0402 -3.2392,2.72848 0,2.68823 0.4314,3.05158 3.2392,2.72849 2.3297,-0.26806 3.2392,-1.03416 3.2392,-2.72849 z m 94.6089,75.54062 c 1.5011,-2.82968 4.0118,-5.8312 5.579,-6.67003 l 2.8499,-1.52517 0.3083,-44.81464 0.3082,-44.81465 3.9585,-0.80933 c 2.1771,-0.44512 4.8085,-1.65934 5.8474,-2.69827 1.7334,-1.73335 0.6573,-1.88896 -13.0626,-1.88896 l -14.9514,0 -17.1041,10.25796 -17.1039,10.25795 0,37.42418 0,37.42418 2.932,0.73588 c 3.2993,0.82806 10.0248,7.8992 10.0248,10.53994 0,1.41796 2.4695,1.72585 13.8423,1.72585 l 13.8422,0 2.7294,-5.14489 z m 97.9762,-5.39992 0,-9.36692 -7.3618,-0.35068 -7.3619,-0.35068 0,-34.74777 0,-34.74778 6.184,-0.35603 6.1839,-0.35602 0,-8.77263 0,-8.77262 -33.9597,0 -33.9598,0 -1.5325,2.8636 c -0.8429,1.57498 -3.8479,4.09182 -6.6775,5.59296 l -5.145,2.72936 0,41.50022 0,41.50023 2.9321,0.73589 c 3.2993,0.82806 10.0247,7.8992 10.0247,10.53994 0,1.47751 5.0846,1.72585 35.3368,1.72585 l 35.3367,0 0,-9.36692 z m -48.2935,-64.25125 0,-10.01207 4.6275,0 c 7.0738,0 11.0365,5.70999 6.548,9.43518 -1.0332,0.8575 -1.3774,2.03113 -0.8192,2.79448 0.5292,0.72385 1.5845,2.77373 2.345,4.55528 2.0588,4.8223 -1.0202,4.24521 -3.2782,-0.61443 -1.0887,-2.34326 -2.7839,-3.94711 -4.4171,-4.17905 -2.3237,-0.33002 -2.6503,0.14162 -2.6503,3.82814 0,2.3125 -0.53,4.20454 -1.1778,4.20454 -0.6928,0 -1.1779,-4.12261 -1.1779,-10.01207 z m 9.4231,-2.35578 c 1.9644,-2.36687 -0.3972,-5.30051 -4.2668,-5.30051 -2.3264,0 -2.8006,0.59822 -2.8006,3.53368 0,2.93545 0.4742,3.53367 2.8006,3.53367 1.5402,0 3.4604,-0.79508 4.2668,-1.76684 z m 10.601,11.29573 c 0,-0.58968 1.5924,-4.43255 3.5388,-8.53971 l 3.5386,-7.46758 -5.3055,-0.35901 c -7.5365,-0.50997 -6.5948,-2.58572 1.1728,-2.58572 7.763,0 7.8127,0.2086 2.7694,11.62674 -3.2709,7.40552 -5.7141,10.53754 -5.7141,7.32528 z m -822.16766,58.78877 c -1.70087,-3.17827 -6.38878,-6.11968 -9.03385,-5.66838 -1.96764,0.33573 -2.18513,-0.78999 -2.48912,-12.8834 l -0.33301,-13.25127 -25.28611,0 -25.28611,0 0,8.66329 0,8.66329 13.83852,8.41612 13.83852,8.41613 18.00599,0 c 17.64103,0 17.98045,-0.0477 16.74517,-2.35578 z m 37.69251,-48.88247 0,-51.23824 -28.80207,0 -28.80216,0 -0.35063,7.36182 -0.35073,7.36181 -34.74778,0 -34.74777,0 -0.35318,-6.77287 -0.35327,-6.77287 -27.03272,0 -27.03271,0 0,43.58196 0,43.58195 21.20203,0 21.202,0 0,-11.81586 c 0,-9.37127 0.36251,-11.95496 1.75185,-12.48811 1.00686,-0.38638 7.95774,3.13517 16.34724,8.28221 8.02756,4.92493 14.925,8.95442 15.32765,8.95442 0.40265,0 0.73209,-4.24041 0.73209,-9.42313 l 0,-9.42313 30.38958,0 c 22.06585,0 30.77677,0.38715 31.80304,1.41347 0.9164,0.91639 1.41347,5.68006 1.41347,13.54575 0,7.01133 0.47992,12.13227 1.1369,12.13227 2.16515,0 9.21836,7.10551 9.95101,10.02478 l 0.73595,2.93202 15.29015,0 15.29006,0 0,-51.23825 z m 441.70895,8.83418 0,-32.98093 14.1451,0 14.1449,0 -0.7387,-6.28589 c -0.6629,-5.63948 0.734,-13.11755 3.8313,-20.51113 0.4849,-1.15758 -6.4553,-1.47236 -32.4623,-1.47236 l -33.0791,0 0,40.61479 0,40.61479 2.9321,0.73588 c 3.2992,0.82806 10.0247,7.8992 10.0247,10.53995 0,1.38802 2.0751,1.72584 10.601,1.72584 l 10.601,0 0,-32.98094 z m 37.7102,24.73003 13.5281,-8.25091 0.5889,-13.51389 0.589,-13.5139 -3.171,-0.69373 c -4.5012,-0.98472 -12.2418,-6.88287 -15.3694,-11.71101 l -2.6617,-4.10891 -12.6623,-0.0146 -12.6623,-0.0146 0,30.03621 0,30.03621 9.1463,0 9.1463,0 13.5281,-8.2509 z m 345.1043,-32.97526 0,-29.44727 -10.601,0 -10.601,0 0,29.44727 0,29.44727 10.601,0 10.601,0 0,-29.44727 z m -260.3138,4.12262 0,-22.96887 -41.8152,0 c -24.9026,0 -41.8151,0.44172 -41.8151,1.09214 0,2.13161 8.5731,8.1166 13.671,9.54393 l 5.1753,1.44899 0,13.39267 c 0,7.36596 0.3295,13.39266 0.7321,13.39266 0.4027,0 7.3,-4.02949 15.3276,-8.95442 8.3897,-5.14703 15.3404,-8.66859 16.3473,-8.28221 1.3894,0.53315 1.7518,3.11685 1.7518,12.48811 l 0,11.81586 15.3126,0 15.3126,0 0,-22.96886 z m 91.057,-33.64453 c 5.7045,-3.52207 12.5952,-7.68317 15.3126,-9.2469 2.7175,-1.56373 9.7664,-5.80588 15.6643,-9.427 l 10.723,-6.58384 -24.8577,-15.04351 c -13.672,-8.27393 -26.5806,-16.1425 -28.6861,-17.4857 l -3.8281,-2.44217 0,34.99891 0,34.99891 2.6502,-1.68247 c 1.4577,-0.92536 7.3174,-4.56417 13.0218,-8.08623 z m -6.2489,-6.9927 c 0,-2.74841 -0.5235,-3.53367 -2.3558,-3.53367 -1.3087,0 -2.3558,-0.78527 -2.3558,-1.76684 0,-0.98157 1.0471,-1.76683 2.3558,-1.76683 1.8323,0 2.3558,-0.78527 2.3558,-3.53368 0,-2.35578 0.5889,-3.53367 1.7668,-3.53367 1.1779,0 1.7669,1.17789 1.7669,3.53367 0,3.33735 0.2617,3.53368 4.7115,3.53368 3.4029,0 4.7116,0.49079 4.7116,1.76683 0,1.27604 -1.3087,1.76684 -4.7116,1.76684 -4.4498,0 -4.7115,0.19632 -4.7115,3.53367 0,2.35578 -0.589,3.53367 -1.7669,3.53367 -1.1779,0 -1.7668,-1.17789 -1.7668,-3.53367 z m -5.8895,-33.56988 c 0,-1.41347 1.7669,-1.76684 8.8342,-1.76684 7.0674,0 8.8342,0.35337 8.8342,1.76684 0,1.41346 -1.7668,1.76683 -8.8342,1.76683 -7.0673,0 -8.8342,-0.35337 -8.8342,-1.76683 z m -706.73435,17.07941 0,-10.60102 -29.44727,0 -29.44726,0 0,10.60102 0,10.60102 29.44726,0 29.44727,0 0,-10.60102 z m 252.0686,0 0,-10.60102 -29.44727,0 -29.44726,0 0,10.60102 0,10.60102 29.44726,0 29.44727,0 0,-10.60102 z m 148.41425,-1.17789 0,-10.60102 -29.44731,0 -29.44726,0 0,10.60102 0,10.60102 29.44726,0 29.44731,0 0,-10.60102 z m 399.3049,-7.06734 c -1.701,-3.17827 -6.3887,-6.11968 -9.034,-5.66838 -1.9676,0.33573 -2.185,-0.78999 -2.4891,-12.8834 l -0.3329,-13.25127 -25.2862,0 -25.286,0 0,8.66329 0,8.66329 13.8385,8.41612 13.8385,8.41613 18.006,0 c 17.641,0 17.9805,-0.0477 16.7452,-2.35578 z m 37.6925,-34.15883 0,-36.51461 -91.2865,0 -91.2866,0 0,29.44726 0,29.44727 21.2021,0 21.202,0 0,-11.81586 c 0,-9.37127 0.3625,-11.95496 1.7518,-12.48811 1.007,-0.38638 7.9577,3.13517 16.3474,8.28221 8.0275,4.92493 14.9249,8.95442 15.3276,8.95442 0.4026,0 0.732,-4.24041 0.732,-9.42313 l 0,-9.42313 30.3896,0 c 22.0659,0 30.7768,0.38715 31.8031,1.41347 0.9164,0.91639 1.4134,5.68005 1.4134,13.54575 0,7.01133 0.4799,12.13227 1.1369,12.13227 2.1652,0 9.2184,7.10551 9.9511,10.02478 l 0.7359,2.93202 15.2901,0 15.2901,0 0,-36.51461 z m -270.6937,-25.44029 -7.2885,-5.41617 -7.2884,5.41617 -7.2885,5.41615 14.5769,0 14.577,0 -7.2885,-5.41615 z m 667.6428,386.48935 c -14.7649,-11.47868 -14.7957,-12.87029 -0.2944,-13.32109 l 10.8955,-0.33867 0,-16.97896 0,-16.97906 -7.3619,-0.35064 -7.3618,-0.35063 0,-34.74777 0,-34.74783 6.1839,-0.35603 6.184,-0.35602 0,-9.65807 0,-9.65806 -5.1449,-2.72936 c -2.8296,-1.50113 -5.8346,-4.01797 -6.6775,-5.59295 l -1.5326,-2.86361 -70.4743,0 -70.4744,0 0,11.18996 c 0,11.15071 -0.011,11.18997 -2.9447,11.18997 l -2.9448,0 0,-25.32465 0,-25.32465 2.9448,0 c 2.9343,0 2.9447,0.0392 2.9447,11.18996 l 0,11.18996 14.7236,0 14.7237,0 0,-43.55742 0,-43.55742 -10.2579,-17.10394 -10.258,-17.10396 -65.6733,0 -65.6735,0 -0.337,11.4708 c -0.4564,15.52829 -1.5068,15.50939 -13.6914,-0.2465 -5.2881,-6.83788 -9.6146,-12.94892 -9.6146,-13.58008 0,-0.63116 4.3265,-6.7422 9.6146,-13.58008 12.0895,-15.63273 13.2302,-15.70234 13.6929,-0.83561 l 0.3388,10.88202 63.6313,0 c 34.9973,0 63.4174,-0.39753 63.156,-0.88342 -0.2615,-0.48587 -4.0509,-6.86969 -8.421,-14.18624 -4.3769,-7.328 -7.6499,-14.07324 -7.2874,-15.01811 0.5187,-1.35152 3.289,-1.71528 13.0631,-1.71528 l 12.4048,0 0,-16.49047 0,-16.49047 -19.3707,0 -19.3706,0 -0.359,5.59499 -0.3591,5.59498 -34.7477,0 -34.7478,0 -0.356,-6.18393 -0.356,-6.18393 -12.262,0 -12.2622,0 -0.3387,10.88203 c -0.4627,14.86672 -1.6035,14.79711 -13.693,-0.83562 -5.288,-6.83788 -9.6146,-12.94892 -9.6146,-13.58008 0,-0.63116 4.3266,-6.7422 9.6146,-13.58008 12.1847,-15.75589 13.2351,-15.77479 13.6915,-0.2465 l 0.337,11.4708 12.2665,0 12.2664,0 0.3533,-6.77287 0.3532,-6.77287 34.7478,0 34.7477,0 0.3508,7.36181 0.3506,7.36182 19.379,0 19.379,0 0,-21.14047 0,-21.14048 -6.1839,-0.35602 -6.184,-0.35604 0,-34.74777 0,-34.74778 7.3618,-0.35068 7.3619,-0.35067 0,-4.65536 0,-4.65536 -23.3427,0 -23.3428,0 -1.9714,6.2541 c -2.3701,7.51936 -8.7118,15.26839 -15.3702,18.78172 -6.7845,3.57983 -19.4253,3.60141 -26.1619,0.0447 -6.9632,-3.67634 -12.9601,-10.90282 -15.3564,-18.50497 l -2.0728,-6.57553 -15.0533,0 -15.0533,0 -0.3387,10.88204 c -0.4627,14.86672 -1.6035,14.79709 -13.6929,-0.83563 -5.2881,-6.83788 -9.6147,-12.94892 -9.6147,-13.58008 0,-0.63116 4.3266,-6.74219 9.6147,-13.58007 12.1846,-15.75589 13.235,-15.7748 13.6914,-0.2465 l 0.337,11.47079 15.0549,0 15.0549,0 2.0728,-6.57551 c 2.3963,-7.60216 8.3932,-14.82864 15.3564,-18.50498 6.6943,-3.53438 19.38,-3.53438 26.0743,0 6.9632,3.67634 12.9602,10.90282 15.3565,18.50498 l 2.0727,6.57551 86.9489,0 86.9488,0 0,101.86861 0,101.86861 32.0975,0.3134 32.0975,0.31341 0.3237,19.14072 0.3236,19.14072 16.3968,0 16.3967,0 0.359,-5.59498 0.359,-5.59498 34.7478,0 34.7478,0 0.359,5.59498 0.359,5.59498 14.6591,0 14.6591,0 0,22.37993 c 0,17.60564 0.3274,22.37992 1.535,22.37992 0.8622,0 2.6988,3.61341 4.1905,8.24523 1.4606,4.53488 2.8594,8.24524 3.1087,8.24524 0.2492,0 1.6481,-3.71036 3.1087,-8.24524 1.4604,-4.53488 3.3329,-8.24523 4.1609,-8.24523 1.0566,0 0.461,2.83219 -1.9988,9.50348 -1.9271,5.22691 -3.504,9.73234 -3.504,10.01207 0,0.27972 -0.7261,0.50859 -1.6135,0.50859 -0.9437,0 -3.113,-4.03346 -5.2261,-9.7176 l -3.6126,-9.7176 -0.074,12.07338 -0.074,12.07338 24.7357,0 24.7357,0 0,2.94473 0,2.94473 -76.375,0 -76.3749,0 -16.082,9.71759 -16.0819,9.7176 -0.011,30.28805 -0.011,30.28799 11.4708,0.33716 c 15.5284,0.45636 15.5094,1.50676 -0.2465,13.69143 -6.8297,5.28797 -12.9408,9.6146 -13.572,9.6146 -0.631,0 -6.7422,-4.32663 -13.5799,-9.6146 -15.6328,-12.0895 -15.7025,-13.23026 -0.8357,-13.69303 l 10.882,-0.33867 0,-28.33703 0,-28.33713 -5.595,3.27426 c -3.0772,1.80084 -8.5102,5.03015 -12.0734,7.17623 -3.5631,2.1461 -7.0967,3.90336 -7.8526,3.90502 -0.7557,9.4e-4 -1.5826,0.62844 -1.8374,1.39283 -0.2586,0.77595 -1.3426,1.0524 -2.454,0.62591 -1.6945,-0.65027 -1.9907,-2.60887 -1.9907,-13.16871 l 0,-12.40482 -10.2644,0 c -9.4189,0 -10.1089,0.15562 -8.3755,1.88896 1.0389,1.03893 3.6703,2.2523 5.8474,2.69636 l 3.9584,0.80741 0.3343,12.6162 0.3344,12.61623 6.416,0 c 5.6767,0 6.4909,0.30545 7.0636,2.65025 0.3561,1.45765 0.4988,17.22665 0.3169,35.0423 l -0.3306,32.39199 -5.5949,0.35893 -5.595,0.35902 0,17.01486 0,17.01496 11.1899,0 c 10.8853,0 11.19,0.0735 11.19,2.70406 0,2.02975 -2.7721,4.82069 -11.1149,11.18997 -6.6294,5.06134 -12.2147,8.46385 -13.8402,8.43124 -1.5334,-0.0311 -7.6193,-3.85924 -13.9153,-8.75399 z m 21.7019,-2.41279 6.9781,-5.26903 -14.5453,0 -14.5451,0 6.9781,5.26903 c 3.838,2.89808 7.2432,5.26913 7.567,5.26913 0.324,0 3.7291,-2.37105 7.5672,-5.26913 z m 0.6781,-80.65403 0,-29.44727 -10.6011,0 -10.601,0 0,29.44727 0,29.44726 10.601,0 10.6011,0 0,-29.44726 z m 42.9038,11.15848 6.9781,-5.26903 -14.5452,0 -14.5452,0 6.9781,5.26903 c 3.8381,2.89809 7.2432,5.26913 7.5671,5.26913 0.3239,0 3.7291,-2.37104 7.5671,-5.26913 z m -21.3423,-68.94981 c 5.7045,-3.52208 12.5951,-7.68318 15.3126,-9.24691 2.7175,-1.56373 9.7664,-5.80588 15.6642,-9.42699 l 10.7231,-6.58385 -24.8578,-15.04351 c -13.6719,-8.27393 -26.5805,-16.1425 -28.686,-17.48569 l -3.8282,-2.44217 0,34.99891 0,34.99891 2.6503,-1.68247 c 1.4576,-0.92536 7.3174,-4.56417 13.0218,-8.08623 z m -5.0711,-8.75954 c 0,-2.35578 -0.5889,-2.94473 -2.9447,-2.94473 -1.6196,0 -2.9447,-0.53005 -2.9447,-1.17789 0,-0.64784 1.3251,-1.17789 2.9447,-1.17789 2.3558,0 2.9447,-0.58895 2.9447,-2.94473 0,-1.6196 0.5301,-2.94472 1.1779,-2.94472 0.6479,0 1.1779,1.32512 1.1779,2.94472 0,2.15946 0.6282,2.94473 2.3558,2.94473 1.2957,0 2.3558,0.53005 2.3558,1.17789 0,0.64784 -1.0601,1.17789 -2.3558,1.17789 -1.7276,0 -2.3558,0.78527 -2.3558,2.94473 0,1.6196 -0.53,2.94472 -1.1779,2.94472 -0.6478,0 -1.1779,-1.32512 -1.1779,-2.94472 z m -5.8894,-32.392 c 0,-0.64784 2.3853,-1.17789 5.3005,-1.17789 2.9153,0 5.3005,0.53005 5.3005,1.17789 0,0.64784 -2.3852,1.1779 -5.3005,1.1779 -2.9152,0 -5.3005,-0.53006 -5.3005,-1.1779 z m -38.1794,24.15947 c 0.7327,-2.91927 7.7859,-10.02478 9.951,-10.02478 0.7053,0 1.1369,-13.41344 1.1369,-35.33672 l 0,-35.33672 25.3246,0 25.3247,0 0,-16.4754 0,-16.47539 -41.4727,-0.30955 -41.4726,-0.30954 -0.8093,-3.95843 c -0.4451,-2.17714 -1.6593,-4.80846 -2.6982,-5.84738 -1.7333,-1.73335 -1.889,0.21802 -1.889,23.68809 l 0,25.57706 -39.4593,0 -39.4594,0 0,38.87039 0,38.87039 52.3937,0 52.3937,0 0.7359,-2.93202 z m 27.5784,-8.84689 0,-11.7789 -4.6577,0 -4.6578,0 -0.3482,7.95076 c -0.3047,6.95437 -0.6186,7.90466 -2.5044,7.58289 -2.6452,-0.4513 -7.3329,2.49011 -9.034,5.66838 -1.2198,2.27922 -0.8957,2.35578 9.9706,2.35578 l 11.2315,0 0,-11.77891 z m 167.2604,-34.15883 0,-31.80304 -11.7226,0 -11.7228,0 -0.3506,7.36181 -0.3507,7.36182 -34.7478,0 -34.7478,0 -0.3506,-7.36182 -0.3506,-7.36181 -16.4344,0 -16.4343,0 0,22.785 0,22.78499 12.789,7.81604 c 7.034,4.29882 14.0572,8.32334 15.6071,8.94338 1.6218,0.6488 23.1939,1.15906 50.8171,1.20201 l 47.999,0.0746 0,-31.80304 z m -167.2604,4.67461 c 0,-9.37126 0.3625,-11.95496 1.7517,-12.48811 1.0071,-0.38638 7.9578,3.13519 16.3474,8.28221 8.0276,4.92493 14.925,8.95442 15.3277,8.95442 0.4026,0 0.732,-9.27589 0.732,-20.61309 l 0,-20.61308 -22.3799,0 -22.38,0 0,24.14676 0,24.14675 5.3006,0 5.3005,0 0,-11.81586 z m 137.8132,-37.65554 0,-10.60102 -29.4473,0 -29.4473,0 0,10.60102 0,10.60101 29.4473,0 29.4473,0 0,-10.60101 z m -197.8857,-28.31082 c 0,-23.23425 -0.037,-23.57975 -2.3557,-22.33848 -3.2334,1.73045 -6.2938,6.67063 -5.467,8.82509 0.594,1.54761 -2.473,1.77592 -23.8552,1.77592 l -24.5367,0 -8.4073,13.86737 c -5.8226,9.60417 -8.4073,15.03589 -8.4073,17.66836 l 0,3.80099 36.5146,0 36.5146,0 0,-23.59925 z m -45.8609,-40.00684 3.3935,-5.30051 -16.9749,-0.32554 c -9.3362,-0.17906 -24.9359,-0.17906 -34.6661,0 l -17.6913,0.32554 8.1809,12.9568 c 4.4993,7.12624 8.5849,13.80855 9.0787,14.84958 0.4939,1.04104 4.5903,7.99702 9.1033,15.45776 l 8.2056,13.56497 13.9884,-23.11405 c 7.6938,-12.71273 15.5156,-25.49927 17.3819,-28.41455 z m -46.0145,11.77891 c 0,-4.44981 -0.1963,-4.71157 -3.5337,-4.71157 -2.3558,0 -3.5337,-0.58894 -3.5337,-1.76683 0,-1.17789 1.1779,-1.76684 3.5337,-1.76684 2.7484,0 3.5337,-0.5235 3.5337,-2.35578 0,-1.30877 0.7853,-2.35578 1.7668,-2.35578 0.9816,0 1.7668,1.04701 1.7668,2.35578 0,1.83228 0.7854,2.35578 3.5337,2.35578 2.3558,0 3.5337,0.58895 3.5337,1.76684 0,1.17789 -1.1779,1.76683 -3.5337,1.76683 -3.3373,0 -3.5337,0.26176 -3.5337,4.71157 0,3.40279 -0.4907,4.71156 -1.7668,4.71156 -1.276,0 -1.7668,-1.30877 -1.7668,-4.71156 z m 28.2693,-5.30051 c 0,-7.06735 0.3534,-8.83418 1.7669,-8.83418 1.4134,0 1.7668,1.76683 1.7668,8.83418 0,7.06734 -0.3534,8.83418 -1.7668,8.83418 -1.4135,0 -1.7669,-1.76684 -1.7669,-8.83418 z m -173.1499,16.85828 0,-14.35583 -5.408,7.27757 -5.408,7.27758 5.1135,7.04392 c 2.8124,3.87414 5.2462,7.05937 5.408,7.07824 0.162,0.0189 0.2945,-6.42578 0.2945,-14.32148 z m 266.2033,-97.54379 0,-98.94282 -57.7166,0 -57.7167,0 0,4.64703 0,4.64702 5.595,0.35901 5.595,0.35901 0,34.74778 0,34.74777 -6.7729,0.35325 -6.7729,0.35326 0,40.57844 0,40.57845 11.7789,0 11.779,0 0,-24.14676 0,-24.14675 35.3367,0 35.3367,0 0,35.72663 0,35.72662 2.8636,1.53254 c 1.575,0.84292 4.0919,3.84777 5.593,6.67745 2.6923,5.07501 2.8134,5.14488 8.9153,5.14488 l 6.1859,0 0,-98.94281 z m -95.4091,-46.52668 0,-10.01207 4.6275,0 c 7.0738,0 11.0365,5.70999 6.548,9.43517 -1.0332,0.85751 -1.3774,2.03113 -0.8192,2.79449 0.5292,0.72385 1.5845,2.77372 2.345,4.55528 2.0588,4.82229 -1.0202,4.2452 -3.2782,-0.61444 -1.0887,-2.34325 -2.7839,-3.94711 -4.4171,-4.17905 -2.3237,-0.33002 -2.6503,0.14162 -2.6503,3.82815 0,2.3125 -0.53,4.20454 -1.1778,4.20454 -0.6928,0 -1.1779,-4.12262 -1.1779,-10.01207 z m 9.4231,-2.35578 c 1.9644,-2.36688 -0.3972,-5.30051 -4.2668,-5.30051 -2.3264,0 -2.8006,0.59821 -2.8006,3.53367 0,2.93546 0.4742,3.53367 2.8006,3.53367 1.5402,0 3.4604,-0.79507 4.2668,-1.76683 z m 9.4231,11.18996 c 0,-0.64784 1.0601,-1.17789 2.3558,-1.17789 2.0956,0 2.3558,-0.78526 2.3558,-7.10879 0,-6.74378 -0.1209,-7.04405 -2.3558,-5.84801 -2.9481,1.57777 -3.0751,-0.16178 -0.2018,-2.76216 4.0407,-3.65669 4.9134,-2.43382 4.9134,6.88478 0,7.06734 0.3533,8.83418 1.7668,8.83418 0.9718,0 1.7668,0.53005 1.7668,1.17789 0,0.64784 -2.3852,1.17789 -5.3005,1.17789 -2.9152,0 -5.3005,-0.53005 -5.3005,-1.17789 z m 15.9683,-1.43998 c -2.6704,-3.81246 -2.3812,-12.14714 0.5222,-15.05049 3.2886,-3.28858 7.7565,-3.01878 10.1355,0.61202 2.5096,3.82995 1.6528,13.275 -1.4069,15.51235 -3.1808,2.32578 -7.196,1.85966 -9.2508,-1.07388 z m 8.726,-2.01626 c 2.7363,-5.11294 0.6141,-13.03423 -3.4923,-13.03423 -2.6771,0 -4.7115,3.30598 -4.7115,7.65629 0,4.35031 2.0344,7.65629 4.7115,7.65629 1.2502,0 2.8217,-1.02526 3.4923,-2.27835 z m 9.4645,136.59887 c 0,-2.16509 7.1055,-9.21831 10.0248,-9.951 l 2.932,-0.73589 0,-32.36954 0,-32.36956 -29.4472,0 -29.4473,0 0,21.20203 0,21.20203 11.8159,0 c 9.3712,0 11.9549,0.36243 12.4881,1.75177 0.3864,1.00692 -3.1351,7.95775 -8.2821,16.34732 -4.925,8.02756 -8.9546,14.925 -8.9546,15.32765 0,0.40265 8.7459,0.73209 19.4352,0.73209 11.7045,0 19.4352,-0.45222 19.4352,-1.1369 z m -221.4434,-70.93557 0,-14.35582 -5.408,7.27757 -5.4081,7.27758 5.1136,7.04392 c 2.8124,3.87414 5.2461,7.05937 5.408,7.07824 0.162,0.0188 0.2945,-6.42578 0.2945,-14.32148 z m 95.4091,0.22114 0,-10.60101 -29.4472,0 -29.4473,0 0,10.60101 0,10.60102 29.4473,0 29.4472,0 0,-10.60102 z m 58.8946,-78.91867 0,-29.44727 -10.601,0 -10.6011,0 0,29.44727 0,29.44726 10.6011,0 10.601,0 0,-29.44726 z m -79.4243,-24.60945 c 8.535,-3.87646 14.6576,-13.84633 14.6288,-23.82073 -0.014,-4.88361 -4.5656,-14.84528 -8.3884,-18.3589 -12.3591,-11.3599 -32.3794,-6.03917 -38.0811,10.12064 -7.413,21.01093 12.3514,40.91085 31.8407,32.05899 z m -21.8743,-23.09512 c 0,-10.20838 0.3085,-12.36785 1.7668,-12.36785 1.4584,0 1.7668,2.15947 1.7668,12.36785 0,10.20838 -0.3084,12.36785 -1.7668,12.36785 -1.4583,0 -1.7668,-2.15947 -1.7668,-12.36785 z m 17.6683,7.06734 0,-5.30051 -5.3005,0 c -3.9262,0 -5.3005,-0.45806 -5.3005,-1.76683 0,-1.30877 1.3743,-1.76684 5.3005,-1.76684 l 5.3005,0 0,-5.30051 c 0,-3.9263 0.4582,-5.3005 1.7669,-5.3005 1.3088,0 1.7668,1.3742 1.7668,5.3005 l 0,5.30051 4.7116,0 c 3.4029,0 4.7115,0.49079 4.7115,1.76684 0,1.27605 -1.3086,1.76683 -4.7115,1.76683 l -4.7116,0 0,5.30051 c 0,3.92631 -0.458,5.30051 -1.7668,5.30051 -1.3087,0 -1.7669,-1.3742 -1.7669,-5.30051 z m -71.8513,-7.87743 0,-14.35582 -5.408,7.27757 -5.408,7.27758 5.1135,7.04392 c 2.8124,3.87415 5.2461,7.05937 5.408,7.07825 0.162,0.0188 0.2945,-6.42579 0.2945,-14.3215 z M 80.743182,791.82729 c -1.28817,-0.72087 -4.127913,-1.19052 -6.310535,-1.04342 -7.86699,0.52977 -12.165811,-5.55088 -9.542903,-13.49835 2.174019,-6.58732 9.50979,-8.57777 14.227261,-3.86027 2.111279,2.11125 2.406685,3.50069 1.940231,9.12554 -0.42928,5.1765 -0.135618,6.93834 1.335822,8.01427 2.573314,1.88171 1.256772,2.88885 -1.649876,1.26223 z m -3.611846,-5.07511 c 2.385671,-2.38565 2.385671,-9.22495 0,-11.6107 -2.196823,-2.19681 -6.532365,-2.41957 -8.514463,-0.43742 -1.830819,1.83082 -1.830819,10.65482 0,12.48564 1.982098,1.98206 6.31764,1.7593 8.514463,-0.43752 z m 10.096209,3.02888 c 0,-0.64784 1.060102,-1.17789 2.355782,-1.17789 2.095552,0 2.355781,-0.78532 2.355781,-7.10881 0,-6.74384 -0.120955,-7.04407 -2.355781,-5.84799 -2.948091,1.57772 -3.075134,-0.16179 -0.201721,-2.7622 4.040579,-3.65674 4.913283,-2.4338 4.913283,6.88482 0,7.06734 0.353367,8.83418 1.766832,8.83418 0.97176,0 1.766836,0.53005 1.766836,1.17789 0,0.64784 -2.385228,1.17789 -5.300504,1.17789 -2.915279,0 -5.300508,-0.53005 -5.300508,-1.17789 z m 308.607345,-37.10356 0,-10.01207 4.78899,0 c 6.27677,0 8.81032,1.48104 10.41682,6.08942 0.96997,2.78246 0.9722,4.83397 0.008,7.75419 -1.44321,4.37356 -4.70837,6.18054 -11.16813,6.18054 l -4.04593,0 0,-10.01208 z m 10.67845,6.43694 c 1.72612,-0.92384 2.27835,-2.48403 2.27835,-6.43694 0,-5.70146 -1.93505,-7.65628 -7.57886,-7.65628 -2.93433,0 -3.02216,0.22248 -3.02216,7.65628 0,7.43372 0.0878,7.65629 3.02216,7.65629 1.66219,0 4.04742,-0.5487 5.30051,-1.21935 z m 10.52358,2.39724 c 0,-0.64784 1.0601,-1.17789 2.35578,-1.17789 2.09556,0 2.35578,-0.78532 2.35578,-7.1088 0,-6.74385 -0.12095,-7.04407 -2.35578,-5.84799 -2.9481,1.57771 -3.07513,-0.1618 -0.20173,-2.7622 4.04059,-3.65674 4.9133,-2.43381 4.9133,6.88481 0,7.06735 0.35336,8.83418 1.76683,8.83418 0.97176,0 1.76684,0.53005 1.76684,1.17789 0,0.64784 -2.38523,1.1779 -5.30051,1.1779 -2.91528,0 -5.30051,-0.53006 -5.30051,-1.1779 z M 79.323607,749.73278 c -0.575838,-2.202 -1.606662,-2.35578 -15.791254,-2.35578 l -15.175199,0 0,-2.94473 0,-2.94473 15.312578,0 c 12.965401,0 15.312579,-0.27657 15.312579,-1.80387 0,-3.03594 2.7645,-3.11123 10.677494,-0.29079 10.153925,3.61914 10.284105,6.12578 0.512467,9.86771 -8.786263,3.36462 -10.077571,3.42078 -10.848665,0.47219 z M 326.51365,719.33802 c -5.10591,-1.98932 -6.40372,-4.64994 -1.96295,-4.02415 1.81782,0.25612 1.29684,-0.73444 -2.35578,-4.47938 -4.66117,-4.77903 -4.69695,-4.79175 -5.86765,-2.09033 -2.75035,6.34657 -2.80833,6.32744 -13.69205,-4.50585 -9.90603,-9.86008 -12.28582,-13.40006 -9.0084,-13.40006 0.79546,0 5.5098,4.0396 10.4763,8.97703 8.57843,8.52812 9.07289,8.83729 9.88782,6.18393 1.95588,-6.36853 2.98216,-6.20947 10.10555,1.56659 4.35288,4.75161 6.57628,6.51411 6.18392,4.90182 -0.33695,-1.38454 -0.063,-2.857 0.60878,-3.27218 1.53334,-0.94759 3.24137,2.17156 4.31087,7.87255 0.97215,5.18196 -0.33548,5.52364 -8.68641,2.27003 z m 1461.58795,-10.24247 0,-10.01207 4.6275,0 c 7.0738,0 11.0365,5.70994 6.548,9.43509 -1.0332,0.85751 -1.3773,2.03116 -0.8192,2.79452 0.5292,0.72389 1.5845,2.7737 2.345,4.55533 2.0588,4.82229 -1.0202,4.24512 -3.2782,-0.61448 -1.0886,-2.34325 -2.7839,-3.94706 -4.4171,-4.17906 -2.3237,-0.33 -2.6502,0.14163 -2.6502,3.82814 0,2.31253 -0.5301,4.2046 -1.1779,4.2046 -0.6928,0 -1.1779,-4.12262 -1.1779,-10.01207 z m 9.4231,-2.35578 c 1.9645,-2.3669 -0.3972,-5.30051 -4.2668,-5.30051 -2.3264,0 -2.8005,0.59818 -2.8005,3.53367 0,2.9354 0.4741,3.53368 2.8005,3.53368 1.5402,0 3.4604,-0.79513 4.2668,-1.76684 z m 9.4231,11.18996 c 0,-0.64784 1.0601,-1.17789 2.3558,-1.17789 2.0956,0 2.3558,-0.78532 2.3558,-7.10881 0,-6.74384 -0.1209,-7.04406 -2.3558,-5.84799 -2.9481,1.57772 -3.075,-0.16179 -0.2017,-2.7622 4.0406,-3.65674 4.9133,-2.4338 4.9133,6.88482 0,7.06734 0.3533,8.83418 1.7668,8.83418 0.9718,0 1.7669,0.53005 1.7669,1.17789 0,0.64784 -2.3852,1.17789 -5.3006,1.17789 -2.9152,0 -5.3005,-0.53005 -5.3005,-1.17789 z m 16.4905,0 c 0,-0.64784 1.0601,-1.17789 2.3558,-1.17789 2.0956,0 2.3558,-0.78532 2.3558,-7.10881 0,-6.74384 -0.1209,-7.04406 -2.3558,-5.84799 -2.9481,1.57772 -3.0751,-0.16179 -0.2018,-2.7622 4.0407,-3.65674 4.9133,-2.4338 4.9133,6.88482 0,7.06734 0.3534,8.83418 1.7669,8.83418 0.9718,0 1.7668,0.53005 1.7668,1.17789 0,0.64784 -2.3852,1.17789 -5.3005,1.17789 -2.9152,0 -5.3005,-0.53005 -5.3005,-1.17789 z m -326.2757,-21.79098 0,-10.01207 4.6275,0 c 7.0739,0 11.0366,5.70995 6.548,9.4351 -1.0332,0.8575 -1.3773,2.03115 -0.8192,2.79452 0.5292,0.72388 1.5845,2.77369 2.345,4.55532 2.0588,4.82229 -1.0202,4.24512 -3.2782,-0.61448 -1.0886,-2.34325 -2.7839,-3.94706 -4.4171,-4.17906 -2.3237,-0.33 -2.6502,0.14163 -2.6502,3.82815 0,2.31252 -0.5301,4.20459 -1.1779,4.20459 -0.6928,0 -1.1779,-4.12261 -1.1779,-10.01207 z m 9.4231,-2.35578 c 1.9645,-2.3669 -0.3972,-5.30051 -4.2668,-5.30051 -2.3264,0 -2.8005,0.59818 -2.8005,3.53368 0,2.93539 0.4741,3.53367 2.8005,3.53367 1.5402,0 3.4604,-0.79512 4.2668,-1.76684 z m 8.9184,10.51687 c -2.5041,-2.50401 -2.3276,-4.74897 0.5305,-6.75092 2.1034,-1.47321 2.1721,-1.84175 0.5889,-3.15571 -4.0616,-3.37084 -0.8748,-8.73099 4.7904,-8.05724 4.3227,0.51413 6.2588,3.70772 4.2235,6.9668 -1.3023,2.08534 -1.2548,2.79245 0.3031,4.51387 1.016,1.12267 1.8473,2.62424 1.8473,3.33672 0,2.3981 -3.676,4.99746 -7.0674,4.99746 -1.8509,0 -4.1983,-0.833 -5.2163,-1.85098 z m 8.4983,-1.90225 c 1.078,-1.07791 0.9555,-1.88575 -0.5358,-3.53367 -1.0634,-1.17497 -2.3434,-2.13622 -2.8447,-2.13622 -1.8528,0 -4.4915,3.65777 -3.848,5.33452 0.7984,2.08054 5.2756,2.28822 7.2285,0.33537 z m -0.3373,-10.98661 c 0,-1.53088 -0.9179,-2.46999 -2.6555,-2.71668 -3.1419,-0.44619 -5.0274,3.0055 -2.5221,4.61704 2.5557,1.64406 5.1776,0.68167 5.1776,-1.90036 z m -563.2652,-5.87475 c -5.64162,-3.95149 -3.79205,-16.17053 2.69398,-17.79842 3.44924,-0.86569 6.511,0.45366 7.3343,3.1604 0.41217,1.35505 0.20797,1.39599 -1.04889,0.21032 -2.11539,-1.99563 -6.37031,-1.85819 -8.13046,0.26262 -0.79192,0.95424 -1.43995,3.61882 -1.43995,5.92131 0,2.30249 0.64803,4.96707 1.43995,5.92135 1.73866,2.09495 6.03664,2.26805 7.98318,0.32151 0.78532,-0.78532 1.41347,-0.89001 1.41347,-0.23557 0,3.86301 -6.04079,5.18168 -10.24558,2.23648 z m 13.94039,0.19553 c -1.05521,-1.27137 -0.35629,-1.55359 3.6475,-1.47236 3.95046,0.0801 5.04326,-0.34781 5.39954,-2.11427 0.51658,-2.56045 -1.58628,-4.21987 -5.38004,-4.24569 -3.77283,-0.0256 -3.29121,-2.14358 0.58895,-2.59005 2.32977,-0.26807 3.2392,-1.03417 3.2392,-2.7285 0,-1.90817 -0.72737,-2.32277 -3.82815,-2.1821 -4.28526,0.19443 -5.13296,-1.36761 -1.38727,-2.55645 4.13873,-1.31359 8.16015,0.33612 8.16015,3.34752 0,1.47769 -0.55248,3.23923 -1.22774,3.91453 -0.85185,0.85182 -0.67149,1.68953 0.58894,2.73559 2.53275,2.10202 2.27069,6.78287 -0.46164,8.24524 -3.17041,1.69673 -7.78284,1.52221 -9.33944,-0.35346 z m -643.11508,-4.08624 c -5.10591,-1.98932 -6.40372,-4.64995 -1.96295,-4.02416 1.81782,0.25616 1.29684,-0.73447 -2.35578,-4.47941 -4.66116,-4.77899 -4.69694,-4.79173 -5.86765,-2.09028 -2.75034,6.34651 -2.80833,6.32743 -13.69205,-4.50587 -9.90602,-9.86012 -12.28581,-13.4001 -9.0084,-13.4001 0.79547,0 5.5098,4.03967 10.47631,8.97703 8.57842,8.52812 9.07288,8.83737 9.88781,6.18393 1.95589,-6.36848 2.98217,-6.20938 10.10555,1.56659 4.35288,4.75166 6.57629,6.51412 6.18393,4.90189 -0.33696,-1.38453 -0.063,-2.85701 0.60878,-3.2722 1.53333,-0.94764 3.24136,2.17156 4.31086,7.87255 0.97216,5.18196 -0.33548,5.52364 -8.68641,2.27003 z m 452.49111,0.35704 c -5.64163,-3.9515 -3.79206,-16.17054 2.69397,-17.79842 3.44924,-0.86569 6.51101,0.45366 7.3343,3.16039 0.41217,1.35506 0.20797,1.396 -1.04888,0.21033 -2.1154,-1.99563 -6.37032,-1.85819 -8.13047,0.26262 -0.79191,0.95423 -1.43994,3.61882 -1.43994,5.9213 0,2.30249 0.64803,4.96707 1.43994,5.92135 1.73867,2.09495 6.03665,2.26806 7.98318,0.32152 0.78533,-0.78532 1.41347,-0.89001 1.41347,-0.23558 0,3.86301 -6.04079,5.18169 -10.24557,2.23649 z m 13.77924,0.43864 c 0,-0.73123 1.88727,-3.41842 4.19386,-5.97156 5.38824,-5.9642 5.24001,-9.85884 -0.36571,-9.60452 -4.60791,0.20905 -5.07652,-1.5823 -0.70108,-2.68047 7.4927,-1.88053 9.78695,5.41979 3.9758,12.65095 l -3.6802,4.57952 4.17812,0 c 2.29802,0 4.17812,0.53005 4.17812,1.17789 0,0.64784 -2.65025,1.17789 -5.88945,1.17789 -3.58899,0 -5.88946,-0.5194 -5.88946,-1.3297 z m 844.90304,-3.97231 c -5.6415,-3.9515 -3.7921,-16.17054 2.6941,-17.79842 3.449,-0.86569 6.5109,0.45366 7.3342,3.16039 0.4121,1.35506 0.2078,1.396 -1.0489,0.21033 -2.1154,-1.99563 -6.3704,-1.8582 -8.1306,0.26262 -0.7918,0.95423 -1.4398,3.61882 -1.4398,5.9213 0,2.30249 0.648,4.96707 1.4398,5.92131 1.7388,2.09499 6.0368,2.26809 7.9833,0.32151 0.7853,-0.78526 1.4135,-0.88996 1.4135,-0.23558 0,3.86306 -6.0408,5.18173 -10.2456,2.23654 z m 22.0245,-0.58749 c 0,-1.96316 -0.7853,-2.35578 -4.7116,-2.35578 -2.6405,0 -4.7116,-0.56937 -4.7116,-1.29534 0,-2.81407 7.7399,-13.95177 9.7176,-13.98383 1.7136,-0.0278 2.0613,1.04295 2.0613,6.34684 0,3.95246 0.5603,6.64169 1.4724,7.06734 1.1779,0.54967 1.1779,0.82453 0,1.3742 -0.8097,0.37791 -1.4724,1.70304 -1.4724,2.94472 0,1.24168 -0.53,2.25768 -1.1778,2.25768 -0.6479,0 -1.1779,-1.0601 -1.1779,-2.35583 z m 0,-9.42312 c 0,-2.59136 -0.3975,-4.70748 -0.8834,-4.70249 -0.4859,0.005 -2.0918,2.12519 -3.5689,4.71156 l -2.6854,4.70249 3.5688,0 c 3.3784,0 3.5689,-0.25143 3.5689,-4.71156 z m 254.4243,-4.71157 c -1.8724,-1.87253 -2.3557,-3.92629 -2.3557,-10.01207 0,-4.31894 0.5134,-7.65629 1.1779,-7.65629 0.6478,0 1.1778,2.95013 1.1778,6.55584 0,7.97776 1.4953,11.11252 5.3006,11.11252 3.8053,0 5.3005,-3.13476 5.3005,-11.11252 0,-3.60571 0.53,-6.55584 1.1779,-6.55584 0.6645,0 1.1778,3.33735 1.1778,7.65629 0,8.59602 -2.3348,12.36786 -7.6562,12.36786 -1.6196,0 -4.0049,-1.06011 -5.3006,-2.35579 z m 18.8463,1.17789 c 0,-0.64784 1.0601,-1.17789 2.3558,-1.17789 2.0956,0 2.3558,-0.78526 2.3558,-7.10878 0,-6.74378 -0.1209,-7.04405 -2.3558,-5.84801 -2.9481,1.57777 -3.0751,-0.16178 -0.2018,-2.76217 4.0407,-3.65669 4.9133,-2.4338 4.9133,6.88478 0,7.06735 0.3534,8.83418 1.7669,8.83418 0.9718,0 1.7668,0.53005 1.7668,1.17789 0,0.64784 -2.3852,1.1779 -5.3005,1.1779 -2.9152,0 -5.3005,-0.53006 -5.3005,-1.1779 z m 15.3126,-8.83418 0,-10.01207 4.789,0 c 6.2767,0 8.8103,1.48107 10.4169,6.08949 0.9698,2.78246 0.9721,4.83397 0.011,7.75421 -1.4434,4.37353 -4.7086,6.18045 -11.1683,6.18045 l -4.0459,0 0,-10.01208 z m 10.6785,6.43696 c 1.7261,-0.9238 2.2783,-2.48396 2.2783,-6.43696 0,-5.70146 -1.9351,-7.65628 -7.5789,-7.65628 -2.9342,0 -3.0221,0.22252 -3.0221,7.65628 0,7.43377 0.088,7.65629 3.0221,7.65629 1.6623,0 4.0475,-0.5487 5.3006,-1.21933 z M 640.83611,636.14664 c 0,-0.27973 -1.57677,-4.78516 -3.50399,-10.01207 -2.45981,-6.6713 -3.05545,-9.50348 -1.99874,-9.50348 0.82801,0 2.70038,3.71035 4.16097,8.24523 1.46058,4.53488 2.85945,8.24524 3.10859,8.24524 0.24924,0 1.64811,-3.71036 3.10869,-8.24524 1.46059,-4.53488 3.33296,-8.24523 4.16088,-8.24523 1.0568,0 0.46116,2.83218 -1.99865,9.50348 -1.92722,5.22691 -3.50408,9.73234 -3.50408,10.01207 0,0.27972 -0.79503,0.50859 -1.76684,0.50859 -0.97171,0 -1.76683,-0.22887 -1.76683,-0.50859 z m 14.13468,-0.6693 c 0,-0.64784 1.06011,-1.17789 2.35579,-1.17789 2.0956,0 2.35578,-0.78527 2.35578,-7.10879 0,-6.74378 -0.1209,-7.04405 -2.35578,-5.84801 -2.94803,1.57777 -3.07505,-0.16178 -0.20166,-2.76216 4.04054,-3.65669 4.91322,-2.43381 4.91322,6.88478 0,7.06734 0.35337,8.83418 1.76683,8.83418 0.97181,0 1.76684,0.53005 1.76684,1.17789 0,0.64784 -2.38518,1.17789 -5.30051,1.17789 -2.91523,0 -5.30051,-0.53005 -5.30051,-1.17789 z m 280.33798,-19.4352 0,-10.01207 4.62751,0 c 7.07383,0 11.03654,5.70999 6.54793,9.43518 -1.03315,0.8575 -1.37719,2.03113 -0.81915,2.79448 0.5292,0.72385 1.58449,2.77373 2.34504,4.55528 2.05876,4.8223 -1.02025,4.24521 -3.27822,-0.61443 -1.08874,-2.34326 -2.78395,-3.94711 -4.41708,-4.17905 -2.32364,-0.33002 -2.65025,0.14162 -2.65025,3.82814 0,2.3125 -0.53005,4.20454 -1.17789,4.20454 -0.69288,0 -1.17789,-4.12261 -1.17789,-10.01207 z m 9.42311,-2.35578 c 1.96435,-2.36687 -0.39718,-5.30051 -4.26678,-5.30051 -2.32638,0 -2.80055,0.59822 -2.80055,3.53368 0,2.93545 0.47417,3.53367 2.80055,3.53367 1.54031,0 3.46035,-0.79508 4.26678,-1.76684 z m 10.09622,10.51688 c -2.8013,-2.80137 -2.4812,-12.83131 0.5048,-15.81739 2.48535,-2.48534 7.60437,-3.16786 8.83418,-1.17789 0.42055,0.68035 -0.69448,1.17789 -2.63961,1.17789 -3.7504,0 -6.19457,1.85863 -6.19457,4.71062 0,1.4564 0.92799,1.77536 4.09086,1.40609 3.47761,-0.40597 4.29723,-0.0246 5.46758,2.54407 2.85879,6.27423 -5.20844,12.01136 -10.06324,7.15661 z m 7.44832,-2.12234 c 1.97641,-2.38146 0.29646,-5.44981 -2.98383,-5.44981 -3.04565,0 -4.64635,2.40102 -3.53367,5.30051 0.84855,2.21124 4.73239,2.3002 6.5175,0.1493 z m 1097.96488,-4.80428 c -3.129,-3.77023 1.4668,-9.56184 5.548,-6.99166 4.0782,2.56829 2.6253,8.70191 -2.0613,8.70191 -1.137,0 -2.706,-0.76962 -3.4867,-1.71025 z m 6.2684,-1.23448 c 1.009,-2.62914 -0.393,-5.30051 -2.7817,-5.30051 -2.3886,0 -3.7906,2.67137 -2.7817,5.30051 0.373,0.97176 1.6247,1.76684 2.7817,1.76684 1.1571,0 2.4088,-0.79508 2.7817,-1.76684 z m 4.9794,1.02592 c -1.1034,-2.87511 -0.8047,-7.50432 0.4841,-7.50432 0.6479,0 1.1779,1.89936 1.1779,4.22077 0,5.32208 2.7806,4.91652 3.3139,-0.48333 0.5163,-5.22833 2.576,-4.68431 2.5732,0.67965 0,4.03663 -0.2975,4.43767 -3.4289,4.65593 -2.1618,0.15068 -3.6827,-0.42837 -4.1202,-1.5687 z m 11.0851,-2.20381 c 0,-2.26744 -0.5508,-4.12262 -1.2242,-4.12262 -0.7226,0 -0.6199,-0.64723 0.2507,-1.57906 1.0725,-1.14813 1.8572,-1.2285 2.875,-0.29447 0.7702,0.70653 0.9224,1.46127 0.3383,1.67721 -1.6114,0.59587 -1.2692,6.9837 0.4105,7.66147 0.8796,0.35492 0.6425,0.63154 -0.5889,0.68709 -1.5883,0.0716 -2.0614,-0.85316 -2.0614,-4.02962 z m -970.5818,-5.30051 c -1.8725,-1.87253 -2.3558,-3.92629 -2.3558,-10.01207 0,-4.31893 0.5134,-7.65629 1.1779,-7.65629 0.6478,0 1.1779,2.95013 1.1779,6.55584 0,7.97776 1.4952,11.11252 5.3005,11.11252 3.8053,0 5.3005,-3.13476 5.3005,-11.11252 0,-3.60571 0.53,-6.55584 1.1779,-6.55584 0.6645,0 1.1779,3.33736 1.1779,7.65629 0,8.59602 -2.3349,12.36786 -7.6563,12.36786 -1.6196,0 -4.0049,-1.06011 -5.3005,-2.35579 z m 18.8462,1.17789 c 0,-0.64784 1.0601,-1.17789 2.3558,-1.17789 2.0956,0 2.3558,-0.78526 2.3558,-7.10878 0,-6.74378 -0.1209,-7.04405 -2.3558,-5.84801 -2.948,1.57777 -3.0751,-0.16178 -0.2017,-2.76217 4.0406,-3.65669 4.9132,-2.4338 4.9132,6.88478 0,7.06735 0.3534,8.83418 1.7669,8.83418 0.9718,0 1.7668,0.53005 1.7668,1.17789 0,0.64784 -2.3852,1.1779 -5.3005,1.1779 -2.9152,0 -5.3005,-0.53006 -5.3005,-1.1779 z m 18.0238,-0.5904 c -5.6416,-3.95149 -3.792,-16.17054 2.694,-17.79842 3.4492,-0.86569 6.511,0.45366 7.3343,3.16039 0.4122,1.35506 0.208,1.396 -1.0489,0.21033 -2.1154,-1.99563 -6.3703,-1.85819 -8.1305,0.26262 -0.7919,0.95423 -1.4399,3.61882 -1.4399,5.9213 0,2.30249 0.648,4.96708 1.4399,5.92131 1.7387,2.09499 6.0367,2.26809 7.9832,0.32152 0.7853,-0.78527 1.4135,-0.88997 1.4135,-0.23558 0,3.86308 -6.0408,5.18173 -10.2456,2.23653 z m -879.06181,-47.11417 0,-10.01207 4.62743,0 c 7.07385,0 11.03659,5.70999 6.54801,9.43518 -1.03323,0.8575 -1.37726,2.03113 -0.81918,2.79448 0.5292,0.72385 1.58448,2.77373 2.34505,4.55528 2.05873,4.8223 -1.02023,4.24521 -3.27818,-0.61443 -1.08875,-2.34326 -2.78397,-3.94711 -4.41709,-4.17905 -2.32374,-0.33002 -2.65026,0.14162 -2.65026,3.82814 0,2.3125 -0.53005,4.20454 -1.17789,4.20454 -0.69288,0 -1.17789,-4.12261 -1.17789,-10.01207 z m 9.42313,-2.35578 c 1.96433,-2.36687 -0.39722,-5.30051 -4.26684,-5.30051 -2.32642,0 -2.80051,0.59822 -2.80051,3.53368 0,2.93545 0.47409,3.53367 2.80051,3.53367 1.54026,0 3.46035,-0.79508 4.26684,-1.76684 z m 8.24523,11.03825 c 0,-0.73128 1.88719,-3.41851 4.19377,-5.97161 5.38831,-5.9642 5.24004,-9.85884 -0.36562,-9.60452 -4.60797,0.20905 -5.07652,-1.58231 -0.70111,-2.68047 7.49264,-1.88053 9.78691,5.41979 3.97578,12.65095 l -3.68016,4.57947 4.17813,0 c 2.29796,0 4.17812,0.53005 4.17812,1.17789 0,0.64784 -2.65026,1.17789 -5.88946,1.17789 -3.58904,0 -5.88945,-0.51934 -5.88945,-1.3296 z m 1666.71525,-44.01919 0,-10.01207 4.6275,0 c 7.0738,0 11.0365,5.70999 6.548,9.43518 -1.0332,0.85751 -1.3774,2.03113 -0.8192,2.79449 0.5292,0.72384 1.5845,2.77372 2.345,4.55528 2.0588,4.82229 -1.0202,4.2452 -3.2782,-0.61444 -1.0887,-2.34326 -2.7839,-3.94711 -4.4171,-4.17905 -2.3237,-0.33002 -2.6503,0.14162 -2.6503,3.82814 0,2.3125 -0.53,4.20454 -1.1778,4.20454 -0.6928,0 -1.1779,-4.12261 -1.1779,-10.01207 z m 9.4231,-2.35578 c 1.9644,-2.36687 -0.3972,-5.3005 -4.2668,-5.3005 -2.3264,0 -2.8006,0.59821 -2.8006,3.53367 0,2.93545 0.4742,3.53367 2.8006,3.53367 1.5402,0 3.4604,-0.79508 4.2668,-1.76684 z m 9.4231,11.18996 c 0,-0.64784 1.0601,-1.17789 2.3558,-1.17789 2.0956,0 2.3558,-0.78526 2.3558,-7.10878 0,-6.74379 -0.1209,-7.04405 -2.3558,-5.84801 -2.9481,1.57777 -3.075,-0.16178 -0.2018,-2.76217 4.0407,-3.65669 4.9134,-2.4338 4.9134,6.88478 0,7.06735 0.3533,8.83418 1.7668,8.83418 0.9718,0 1.7668,0.53005 1.7668,1.17789 0,0.64784 -2.3851,1.17789 -5.3005,1.17789 -2.9152,0 -5.3005,-0.53005 -5.3005,-1.17789 z m 15.3126,-0.15171 c 0,-0.73128 1.8873,-3.41851 4.1938,-5.97161 5.3883,-5.9642 5.2401,-9.85884 -0.3657,-9.60452 -4.6079,0.20905 -5.0764,-1.5823 -0.701,-2.68047 7.4927,-1.88053 9.7868,5.41979 3.9758,12.65095 l -3.6801,4.57947 4.1781,0 c 2.2979,0 4.178,0.53005 4.178,1.17789 0,0.64784 -2.6503,1.17789 -5.8895,1.17789 -3.5889,0 -5.8894,-0.51934 -5.8894,-1.3296 z M 876.76968,519.45365 c -5.64163,-3.95149 -3.79206,-16.17053 2.69397,-17.79843 3.44924,-0.86568 6.51101,0.45367 7.3343,3.16041 0.41217,1.35505 0.20797,1.39599 -1.04888,0.21032 -2.1154,-1.99563 -6.37032,-1.85819 -8.13046,0.26262 -0.79192,0.95423 -1.43995,3.61882 -1.43995,5.92131 0,2.30248 0.64803,4.96707 1.43995,5.9213 1.73866,2.09499 6.03664,2.26809 7.98317,0.32152 0.78533,-0.78527 1.41347,-0.88997 1.41347,-0.23558 0,3.86307 -6.04079,5.18173 -10.24557,2.23653 z m 14.95713,0.59041 c 0,-0.64784 1.06011,-1.1779 2.35579,-1.1779 2.0956,0 2.35578,-0.78526 2.35578,-7.10878 0,-6.74378 -0.1209,-7.04405 -2.35578,-5.84801 -2.94803,1.57777 -3.07505,-0.16178 -0.20166,-2.76217 4.04054,-3.65669 4.91322,-2.4338 4.91322,6.88478 0,7.06735 0.35337,8.83418 1.76683,8.83418 0.97181,0 1.76684,0.53006 1.76684,1.1779 0,0.64783 -2.38518,1.17789 -5.30051,1.17789 -2.91523,0 -5.30051,-0.53006 -5.30051,-1.17789 z m -661.9745,-51.15789 c 0,-0.27973 -1.57682,-4.78516 -3.50405,-10.01207 -2.45977,-6.67129 -3.05542,-9.50348 -1.99868,-9.50348 0.82795,0 2.70036,3.71035 4.16091,8.24523 1.46056,4.53488 2.85945,8.24524 3.10866,8.24524 0.2492,0 1.64809,-3.71036 3.10865,-8.24524 1.46054,-4.53488 3.33296,-8.24523 4.16091,-8.24523 1.05673,0 0.46109,2.83219 -1.99868,9.50348 -1.92723,5.22691 -3.50405,9.73234 -3.50405,10.01207 0,0.27972 -0.79507,0.50859 -1.76683,0.50859 -0.97176,0 -1.76684,-0.22887 -1.76684,-0.50859 z m 14.13469,-0.6693 c 0,-0.64784 1.0601,-1.17789 2.35578,-1.17789 2.09555,0 2.35578,-0.78527 2.35578,-7.10879 0,-6.74378 -0.12096,-7.04405 -2.35578,-5.84801 -2.9481,1.57777 -3.07513,-0.16178 -0.20172,-2.76216 4.04058,-3.65669 4.91328,-2.43381 4.91328,6.88478 0,7.06734 0.35337,8.83418 1.76684,8.83418 0.97176,0 1.76683,0.53005 1.76683,1.17789 0,0.64784 -2.38523,1.17789 -5.3005,1.17789 -2.91528,0 -5.30051,-0.53005 -5.30051,-1.17789 z m 518.27184,-10.01207 0,-10.01207 4.62751,0 c 7.07385,0 11.03655,5.70999 6.54794,9.43517 -1.03315,0.85751 -1.37719,2.03113 -0.81915,2.79449 0.5292,0.72384 1.5845,2.77372 2.34504,4.55528 2.05876,4.82229 -1.02024,4.2452 -3.27821,-0.61444 -1.08875,-2.34326 -2.78397,-3.94711 -4.41709,-4.17905 -2.32365,-0.33002 -2.65026,0.14162 -2.65026,3.82814 0,2.31251 -0.53005,4.20455 -1.17789,4.20455 -0.69288,0 -1.17789,-4.12262 -1.17789,-10.01207 z m 9.42313,-2.35579 c 1.96434,-2.36687 -0.39719,-5.3005 -4.26679,-5.3005 -2.32638,0 -2.80056,0.59821 -2.80056,3.53367 0,2.93545 0.47418,3.53367 2.80056,3.53367 1.5403,0 3.46036,-0.79508 4.26679,-1.76684 z m 16.49047,10.01208 c 0,-1.96316 -0.78523,-2.35579 -4.71156,-2.35579 -2.64055,0 -4.71157,-0.56937 -4.71157,-1.29534 0,-2.81406 7.73987,-13.95176 9.7176,-13.98383 1.7136,-0.0278 2.06131,1.04295 2.06131,6.34684 0,3.95248 0.5603,6.64169 1.47236,7.06735 1.17789,0.54967 1.17789,0.82452 0,1.37419 -0.80973,0.37791 -1.47236,1.70304 -1.47236,2.94473 0,1.2417 -0.53005,2.25763 -1.17789,2.25763 -0.64784,0 -1.17789,-1.0601 -1.17789,-2.35578 z m 0,-9.42313 c 0,-2.59136 -0.39747,-4.70747 -0.88342,-4.70249 -0.48586,0.005 -2.09184,2.12519 -3.56882,4.71156 l -2.6854,4.70249 3.56882,0 c 3.37838,0 3.56882,-0.25142 3.56882,-4.71156 z m -279.16005,0.58895 0,-10.01207 4.62743,0 c 7.07385,0 11.0366,5.70998 6.54801,9.43517 -1.03322,0.85751 -1.37726,2.03113 -0.81918,2.79449 0.5292,0.72384 1.58448,2.77372 2.34505,4.55528 2.05876,4.82229 -1.02023,4.2452 -3.27818,-0.61444 -1.08875,-2.34326 -2.78397,-3.94711 -4.41709,-4.17905 -2.32374,-0.33002 -2.65026,0.14162 -2.65026,3.82814 0,2.31251 -0.53005,4.20455 -1.17789,4.20455 -0.69288,0 -1.17789,-4.12262 -1.17789,-10.01207 z m 9.42313,-2.35579 c 1.96433,-2.36687 -0.39722,-5.3005 -4.26684,-5.3005 -2.32642,0 -2.80051,0.59821 -2.80051,3.53367 0,2.93545 0.47409,3.53367 2.80051,3.53367 1.54027,0 3.46035,-0.79508 4.26684,-1.76684 z m 8.40633,10.79508 c -1.0552,-1.27141 -0.35629,-1.55354 3.6475,-1.47236 3.95046,0.0801 5.04326,-0.34781 5.39955,-2.11422 0.51657,-2.56046 -1.58629,-4.21991 -5.38004,-4.24573 -3.77283,-0.0256 -3.29122,-2.14359 0.58894,-2.59005 2.32978,-0.26807 3.2392,-1.03417 3.2392,-2.7285 0,-1.90817 -0.72737,-2.32277 -3.82814,-2.1821 -4.28526,0.19443 -5.13297,-1.36761 -1.38727,-2.55645 4.13873,-1.31359 8.16014,0.33612 8.16014,3.34752 0,1.47769 -0.55248,3.23923 -1.22774,3.91453 -0.85185,0.85182 -0.67149,1.68953 0.58895,2.73559 2.53274,2.10202 2.27069,6.78291 -0.46164,8.24521 -3.17041,1.69677 -7.78284,1.52222 -9.33945,-0.35344 z m 496.90875,-9.61719 0,-10.01207 4.6275,0 c 7.0738,0 11.0365,5.70999 6.5479,9.43518 -1.0331,0.85751 -1.3772,2.03113 -0.8191,2.79449 0.5292,0.72384 1.5845,2.77372 2.345,4.55528 2.0588,4.82229 -1.0202,4.2452 -3.2782,-0.61444 -1.0888,-2.34326 -2.784,-3.94711 -4.4171,-4.17905 -2.3237,-0.33002 -2.6503,0.14162 -2.6503,3.82814 0,2.3125 -0.53,4.20455 -1.1779,4.20455 -0.6928,0 -1.1778,-4.12262 -1.1778,-10.01208 z m 9.4231,-2.35578 c 1.9643,-2.36687 -0.3972,-5.3005 -4.2668,-5.3005 -2.3264,0 -2.8006,0.59821 -2.8006,3.53367 0,2.93545 0.4742,3.53367 2.8006,3.53367 1.5403,0 3.4604,-0.79508 4.2668,-1.76684 z m 9.0305,11.58259 c -1.4316,-1.43164 -0.8134,-2.68524 0.9842,-1.99546 0.9732,0.37346 3.1269,0.33834 4.7859,-0.0781 2.4462,-0.61394 2.9466,-1.3616 2.6476,-3.95518 -0.3189,-2.76549 -0.9663,-3.24756 -4.7859,-3.56369 -4.2949,-0.35546 -4.4171,-0.49398 -4.4171,-5.00604 l 0,-4.6404 5.3005,0 c 2.9154,0 5.3005,0.53005 5.3005,1.17789 0,0.64784 -1.8551,1.17789 -4.1226,1.17789 -3.3373,0 -4.1226,0.44872 -4.1226,2.35578 0,1.59551 0.7853,2.35578 2.4332,2.35578 6.5534,0 9.5249,6.76393 4.8359,11.0074 -2.1579,1.95289 -7.365,2.63865 -8.8396,1.16413 z m 576.3811,-52.80876 0,-10.01207 4.6275,0 c 7.0739,0 11.0366,5.70999 6.5481,9.43518 -1.0333,0.8575 -1.3774,2.03112 -0.8193,2.79448 0.5292,0.72385 1.5845,2.77373 2.3451,4.55528 2.0587,4.8223 -1.0203,4.2452 -3.2782,-0.61443 -1.0887,-2.34326 -2.7839,-3.94711 -4.4171,-4.17905 -2.3238,-0.33002 -2.6503,0.14162 -2.6503,3.82814 0,2.3125 -0.53,4.20454 -1.1779,4.20454 -0.6928,0 -1.1779,-4.12262 -1.1779,-10.01207 z m 9.4232,-2.35578 c 1.9644,-2.36687 -0.3972,-5.30051 -4.2668,-5.30051 -2.3264,0 -2.8006,0.59822 -2.8006,3.53367 0,2.93546 0.4742,3.53368 2.8006,3.53368 1.5402,0 3.4603,-0.79508 4.2668,-1.76684 z m 8.2452,11.18996 c 0,-0.64784 1.4841,-1.17789 3.2981,-1.17789 3.7728,0 6.125,-1.88567 6.125,-4.91017 0,-1.36921 -0.6065,-1.85051 -1.7694,-1.40423 -3.2946,1.26423 -7.5873,-0.66704 -8.3643,-3.76307 -1.4752,-5.87777 6.3037,-10.07481 10.6386,-5.73991 2.8014,2.80136 2.4812,12.8313 -0.5049,15.81738 -2.4203,2.42037 -9.4231,3.2957 -9.4231,1.17789 z m 8.8342,-12.9568 c 0,-3.42897 -4.048,-4.69522 -6.3074,-1.97297 -2.1998,2.65066 -0.346,5.68928 3.2187,5.2759 2.4139,-0.27994 3.0887,-1.0016 3.0887,-3.30293 z"
       id="path4267"
       inkscape:connector-curvature="0" />
    <text
       xml:space="preserve"
       style="font-style:normal;font-weight:normal;font-size:155.40820312px;line-height:125%;font-family:sans-serif;letter-spacing:0px;word-spacing:0px;fill:#000000;fill-opacity:1;stroke:none;stroke-width:1px;stroke-linecap:butt;stroke-linejoin:miter;stroke-opacity:1"
       x="418.35889"
       y="165.86462"
       id="text4138"
       sodipodi:linespacing="125%"><tspan
         sodipodi:role="line"
         id="tspan4140"
         x="418.35889"
         y="165.86462"
         style="font-style:normal;font-variant:normal;font-weight:normal;font-stretch:normal;font-family:'Courier 10 Pitch';-inkscape-font-specification:'Courier 10 Pitch'">Pulse-oximeter</tspan></text>
  </g>
</svg>
