<?xml version="1.0" encoding="UTF-8" standalone="no"?>
<!-- Created with Inkscape (http://www.inkscape.org/) -->

<svg
   xmlns:dc="http://purl.org/dc/elements/1.1/"
   xmlns:cc="http://creativecommons.org/ns#"
   xmlns:rdf="http://www.w3.org/1999/02/22-rdf-syntax-ns#"
   xmlns:svg="http://www.w3.org/2000/svg"
   xmlns="http://www.w3.org/2000/svg"
   xmlns:sodipodi="http://sodipodi.sourceforge.net/DTD/sodipodi-0.dtd"
   xmlns:inkscape="http://www.inkscape.org/namespaces/inkscape"
   width="600mm"
   height="300mm"
   viewBox="0 0 2125.9843 1062.9921"
   id="svg2"
   version="1.1"
   inkscape:version="0.91 r13725"
   sodipodi:docname="mdfbehuizing.svg">
  <sodipodi:namedview
     id="base"
     pagecolor="#ffffff"
     bordercolor="#666666"
     borderopacity="1.0"
     inkscape:pageopacity="0.0"
     inkscape:pageshadow="2"
     inkscape:zoom="1.979899"
     inkscape:cx="356.96094"
     inkscape:cy="301.7575"
     inkscape:document-units="mm"
     inkscape:current-layer="layer1"
     showgrid="false"
     inkscape:window-width="1366"
     inkscape:window-height="714"
     inkscape:window-x="0"
     inkscape:window-y="0"
     inkscape:window-maximized="1" />
  <defs
     id="defs4" />
  <metadata
     id="metadata7">
    <rdf:RDF>
      <cc:Work
         rdf:about="">
        <dc:format>image/svg+xml</dc:format>
        <dc:type
           rdf:resource="http://purl.org/dc/dcmitype/StillImage" />
        <dc:title />
      </cc:Work>
    </rdf:RDF>
  </metadata>
  <g
     inkscape:label="Layer 1"
     inkscape:groupmode="layer"
     id="layer1"
     transform="translate(0,10.629923)"
     style="display:inline">
    <rect
       style="fill:none;fill-rule:evenodd;stroke:#ff0000;stroke-width:0.4910118;stroke-linecap:butt;stroke-linejoin:miter;stroke-miterlimit:4;stroke-dasharray:none;stroke-opacity:1"
       id="rect3336"
       width="495.57205"
       height="212.10744"
       x="17.962044"
       y="7.3320608" />
    <path
       style="fill:none;stroke:#ff0000;stroke-width:0.16421765;stroke-miterlimit:4;stroke-dasharray:none;stroke-opacity:1"
       id="path4152"
       sodipodi:type="arc"
       sodipodi:cx="436.90552"
       sodipodi:cy="5.812078"
       sodipodi:rx="5.2429633"
       sodipodi:ry="9.7881441"
       sodipodi:start="0.043990135"
       sodipodi:end="3.080903"
       d="m 442.14341,6.2425209 a 5.2429633,9.7881441 0 0 1 -5.19412,9.3573601 5.2429633,9.7881441 0 0 1 -5.27708,-9.1941285"
       sodipodi:open="true" />
    <path
       style="fill:none;stroke:#ff0000;stroke-width:0.14075857;stroke-miterlimit:4;stroke-dasharray:none;stroke-opacity:1"
       id="path4152-3"
       sodipodi:type="arc"
       sodipodi:cx="500.06693"
       sodipodi:cy="5.9358068"
       sodipodi:rx="4.5390387"
       sodipodi:ry="8.3066025"
       sodipodi:start="0.043990135"
       sodipodi:end="3.080903"
       d="M 504.60157,6.3010975 A 4.5390387,8.3066025 0 0 1 500.10482,14.24212 4.5390387,8.3066025 0 0 1 495.53624,6.4396222"
       sodipodi:open="true" />
    <path
       style="fill:none;stroke:#ff0000;stroke-width:0.12940644;stroke-miterlimit:4;stroke-dasharray:none;stroke-opacity:1"
       id="path4152-3-6"
       sodipodi:type="arc"
       sodipodi:cx="-499.6088"
       sodipodi:cy="-220.37607"
       sodipodi:rx="3.8319266"
       sodipodi:ry="8.3163395"
       sodipodi:start="0.043990135"
       sodipodi:end="3.080903"
       d="m -495.78058,-220.01035 a 3.8319266,8.3163395 0 0 1 -3.79622,7.95033 3.8319266,8.3163395 0 0 1 -3.85687,-7.81164"
       sodipodi:open="true"
       transform="scale(-1,-1)" />
    <path
       style="fill:none;stroke:#ff0000;stroke-width:0.14691077;stroke-miterlimit:4;stroke-dasharray:none;stroke-opacity:1"
       id="path4152-3-7"
       sodipodi:type="arc"
       sodipodi:cx="-433.22745"
       sodipodi:cy="-220.40399"
       sodipodi:rx="4.5375462"
       sodipodi:ry="9.051569"
       sodipodi:start="0.043990135"
       sodipodi:end="3.080903"
       d="m -428.69429,-220.00594 a 4.5375462,9.051569 0 0 1 -4.49527,8.6532 4.5375462,9.051569 0 0 1 -4.56708,-8.50225"
       sodipodi:open="true"
       transform="scale(-1,-1)" />
    <path
       style="fill:none;stroke:#ff0000;stroke-width:0.15280327;stroke-miterlimit:4;stroke-dasharray:none;stroke-opacity:1"
       id="path4152-3-3"
       sodipodi:type="arc"
       sodipodi:cx="38.001289"
       sodipodi:cy="6.434845"
       sodipodi:rx="4.5354495"
       sodipodi:ry="9.7967644"
       sodipodi:start="0.043990135"
       sodipodi:end="3.080903"
       d="M 42.532351,6.865667 A 4.5354495,9.7967644 0 0 1 38.039159,16.231268 4.5354495,9.7967644 0 0 1 33.47419,7.0290423"
       sodipodi:open="true" />
    <path
       style="fill:none;stroke:#ff0000;stroke-width:0.17018947;stroke-miterlimit:4;stroke-dasharray:none;stroke-opacity:1"
       id="path4152-3-5"
       sodipodi:type="arc"
       sodipodi:cx="160.58675"
       sodipodi:cy="6.3677535"
       sodipodi:rx="4.8851752"
       sodipodi:ry="11.282957"
       sodipodi:start="0.043990135"
       sodipodi:end="3.080903"
       d="M 165.4672,6.8639322 A 4.8851752,11.282957 0 0 1 160.62754,17.650317 4.8851752,11.282957 0 0 1 155.71056,7.052092"
       sodipodi:open="true" />
    <path
       style="fill:none;stroke:#ff0000;stroke-width:0.12939712;stroke-miterlimit:4;stroke-dasharray:none;stroke-opacity:1"
       id="path4152-3-62"
       sodipodi:type="arc"
       sodipodi:cx="301.25284"
       sodipodi:cy="6.5626988"
       sodipodi:rx="3.8319542"
       sodipodi:ry="8.3150826"
       sodipodi:start="0.043990135"
       sodipodi:end="3.080903"
       d="m 305.08109,6.9283625 a 3.8319542,8.3150826 0 0 1 -3.79626,7.9491295 3.8319542,8.3150826 0 0 1 -3.85689,-7.8104634"
       sodipodi:open="true" />
    <path
       style="fill:none;stroke:#ff0000;stroke-width:0.14691077;stroke-miterlimit:4;stroke-dasharray:none;stroke-opacity:1"
       id="path4152-3-9"
       sodipodi:type="arc"
       sodipodi:cx="-37.325298"
       sodipodi:cy="-220.17384"
       sodipodi:rx="4.5375462"
       sodipodi:ry="9.051569"
       sodipodi:start="0.043990135"
       sodipodi:end="3.080903"
       d="m -32.792142,-219.77579 a 4.5375462,9.051569 0 0 1 -4.495269,8.6532 4.5375462,9.051569 0 0 1 -4.56708,-8.50225"
       sodipodi:open="true"
       transform="scale(-1,-1)" />
    <path
       style="fill:none;stroke:#ff0000;stroke-width:0.17620885;stroke-miterlimit:4;stroke-dasharray:none;stroke-opacity:1"
       id="path4152-3-9-1"
       sodipodi:type="arc"
       sodipodi:cx="-164.10506"
       sodipodi:cy="-220.2282"
       sodipodi:rx="5.238945"
       sodipodi:ry="11.278446"
       sodipodi:start="0.043990135"
       sodipodi:end="3.080903"
       d="m -158.87118,-219.73221 a 5.238945,11.278446 0 0 1 -5.19013,10.78207 5.238945,11.278446 0 0 1 -5.27305,-10.59399"
       sodipodi:open="true"
       transform="scale(-1,-1)" />
    <path
       style="fill:none;stroke:#ff0000;stroke-width:0.16389106;stroke-miterlimit:4;stroke-dasharray:none;stroke-opacity:1"
       id="path4152-3-9-2"
       sodipodi:type="arc"
       sodipodi:cx="-297.30624"
       sodipodi:cy="-220.23315"
       sodipodi:rx="4.5283318"
       sodipodi:ry="11.287816"
       sodipodi:start="0.043990135"
       sodipodi:end="3.080903"
       d="m -292.78229,-219.73676 a 4.5283318,11.287816 0 0 1 -4.48614,10.79103 4.5283318,11.287816 0 0 1 -4.55781,-10.60279"
       sodipodi:open="true"
       transform="scale(-1,-1)" />
    <rect
       style="fill:none;fill-rule:evenodd;stroke:#ff0000;stroke-width:0.44820026;stroke-linecap:butt;stroke-linejoin:miter;stroke-miterlimit:4;stroke-dasharray:none;stroke-opacity:1"
       id="rect3336-7"
       width="495.61493"
       height="176.71718"
       x="17.940638"
       y="237.62564" />
    <rect
       style="fill:none;fill-rule:evenodd;stroke:#ff0000;stroke-width:0.44820026;stroke-linecap:butt;stroke-linejoin:miter;stroke-miterlimit:4;stroke-dasharray:none;stroke-opacity:1"
       id="rect3336-7-9"
       width="495.61499"
       height="176.71719"
       x="17.940638"
       y="432.50754" />
    <rect
       style="fill:none;fill-rule:evenodd;stroke:#ff0000;stroke-width:0.30779579;stroke-linecap:butt;stroke-linejoin:miter;stroke-miterlimit:4;stroke-dasharray:none;stroke-opacity:1"
       id="rect3336-7-9-3"
       width="233.55051"
       height="176.85757"
       x="17.870436"
       y="662.75232" />
    <path
       style="fill:none;stroke:#ff0000;stroke-width:0.44383371;stroke-miterlimit:4;stroke-dasharray:none;stroke-opacity:1"
       id="path4152-3-9-1-0"
       sodipodi:type="arc"
       sodipodi:cx="-127.80147"
       sodipodi:cy="-415.7066"
       sodipodi:rx="20.497641"
       sodipodi:ry="18.288345"
       sodipodi:start="0.043990135"
       sodipodi:end="3.080903"
       d="m -107.32366,-414.90236 a 20.497641,18.288345 0 0 1 -20.30666,17.48346 20.497641,18.288345 0 0 1 -20.63105,-17.17847"
       sodipodi:open="true"
       transform="scale(-1,-1)" />
    <path
       style="fill:none;stroke:#ff0000;stroke-width:0.44383371;stroke-miterlimit:4;stroke-dasharray:none;stroke-opacity:1"
       id="path4152-3-9-1-0-2"
       sodipodi:type="arc"
       sodipodi:cx="-390.93817"
       sodipodi:cy="-415.51633"
       sodipodi:rx="20.497641"
       sodipodi:ry="18.288345"
       sodipodi:start="0.043990135"
       sodipodi:end="3.080903"
       d="m -370.46036,-414.71208 a 20.497641,18.288345 0 0 1 -20.30666,17.48346 20.497641,18.288345 0 0 1 -20.63105,-17.17847"
       sodipodi:open="true"
       transform="scale(-1,-1)" />
    <path
       style="fill:#000000"
       d="m 471.83102,476.70636 c -0.237,-0.0313 -0.83137,-0.20024 -1.2533,-0.35622 -0.24329,-0.0899 -0.79069,-0.30415 -1.21645,-0.47602 -0.75471,-0.30468 -1.52392,-0.57318 -2.0827,-0.727 -0.35709,-0.0983 -1.07014,-0.25795 -1.901,-0.42562 -0.36349,-0.0734 -1.05902,-0.2318 -1.54559,-0.35209 l -0.88469,-0.21872 -0.25803,-0.12444 c -0.28645,-0.13815 -0.45887,-0.28246 -0.5515,-0.46157 l -0.0615,-0.11895 0.0144,-0.35662 0.0145,-0.35662 0.17273,-0.45717 c 0.095,-0.25145 0.20063,-0.55832 0.2347,-0.68195 l 0.0619,-0.22477 0.002,-0.47921 0.002,-0.47921 -0.13693,-0.4792 c -0.16325,-0.57131 -0.21326,-0.83926 -0.21326,-1.14272 0,-0.2795 0.0618,-0.62572 0.13804,-0.7731 0.10192,-0.1971 0.24549,-0.35461 0.39646,-0.43499 l 0.14745,-0.0785 0.86626,-0.0261 c 0.47643,-0.0144 0.92431,-0.042 0.99527,-0.0614 0.23023,-0.0631 0.53109,-0.21737 0.68194,-0.34971 0.20042,-0.17584 0.35716,-0.44881 0.53439,-0.93068 0.16847,-0.45803 0.17027,-0.4621 0.4754,-1.0747 l 0.22339,-0.4485 -0.0452,-0.12287 -0.0452,-0.12286 0,-0.79254 0,-0.79253 0.12196,-0.35018 c 0.0671,-0.19262 0.25729,-0.60731 0.42266,-0.92156 0.69706,-1.32457 1.04928,-2.12055 1.64749,-3.72306 0.20813,-0.55753 0.46118,-1.18461 0.56235,-1.3935 0.23968,-0.49491 0.47073,-0.84244 1.2352,-1.85796 0.34654,-0.46034 0.88248,-1.21509 1.19097,-1.67721 0.30849,-0.46212 0.69786,-1.03111 0.86526,-1.26442 0.1674,-0.23331 0.36847,-0.54019 0.44681,-0.68195 l 0.14244,-0.25775 -0.004,-0.49764 c -0.002,-0.27369 -0.0386,-1.22749 -0.0817,-2.11956 -0.0431,-0.89206 -0.0977,-2.12785 -0.12125,-2.74621 l -0.0428,-1.1243 0.0209,-0.88468 0.0209,-0.88469 0.0555,-0.37028 c 0.17208,-1.14691 0.4476,-1.91819 0.92971,-2.60261 0.22082,-0.31348 0.65449,-0.73669 0.98463,-0.96089 0.27557,-0.18713 0.71303,-0.40198 1.02038,-0.50112 0.33566,-0.10827 0.84137,-0.2168 1.25331,-0.26896 l 0.35019,-0.0443 0.7188,0.003 c 0.39535,0.002 0.8764,0.0214 1.069,0.0439 0.48222,0.0563 1.01188,0.16787 1.43318,0.30192 0.43576,0.13863 1.0923,0.44583 1.40857,0.65907 0.5831,0.39313 1.07922,0.87194 1.43274,1.38277 0.21835,0.31551 0.48066,0.83532 0.58514,1.15956 0.21016,0.65217 0.33842,1.59564 0.46608,3.42816 0.17833,2.55983 0.32773,3.51096 0.68602,4.36738 0.0846,0.20233 0.35268,0.74143 0.59565,1.19802 1.05366,1.98005 1.43607,2.58229 2.64536,4.16616 1.04917,1.37416 1.55073,2.19031 2.07129,3.37049 0.29703,0.67339 0.60489,1.62262 0.78387,2.41684 0.12508,0.55509 0.33053,1.67344 0.40969,2.23015 l 0.0629,0.44235 0.002,0.55293 0.002,0.55292 -0.0824,0.30731 c -0.0453,0.16901 -0.13144,0.40447 -0.1914,0.52322 -0.11921,0.23618 -0.34999,0.53919 -0.63443,0.833 l -0.18302,0.18905 0.32608,0.058 c 0.17934,0.0319 0.40604,0.0691 0.50378,0.0828 l 0.1777,0.0248 0.10307,0.0867 c 0.0567,0.0477 0.14086,0.17419 0.18704,0.2811 l 0.084,0.19437 0.0302,0.42391 c 0.0167,0.23316 0.0454,0.48197 0.0638,0.55293 0.11749,0.45227 0.4107,0.91721 0.85953,1.36304 l 0.30357,0.30153 0.64703,0.42824 c 0.35587,0.23553 0.73065,0.51208 0.83285,0.61455 0.10219,0.10247 0.23075,0.26719 0.28568,0.36604 l 0.0999,0.17975 0,0.22017 0,0.22017 -0.063,0.13459 c -0.0973,0.20776 -0.3945,0.4702 -0.99788,0.8811 -0.73345,0.49946 -1.08985,0.70178 -1.79965,1.0216 -0.67404,0.3037 -1.16664,0.57218 -1.71707,0.93583 -0.57071,0.37705 -0.90452,0.6562 -1.61678,1.35203 l -0.64666,0.63176 -0.25646,0.14852 c -0.30012,0.17382 -0.59608,0.27966 -0.96111,0.34372 l -0.26232,0.046 -0.67767,-0.0193 -0.67765,-0.0193 -0.25804,-0.0607 c -0.56418,-0.13269 -0.92497,-0.32942 -1.22891,-0.6701 -0.10668,-0.11958 -0.25314,-0.32523 -0.32546,-0.45701 -0.0723,-0.13178 -0.17416,-0.30306 -0.22628,-0.38064 l -0.0948,-0.14102 -0.14745,-0.0752 -0.14745,-0.0752 -0.9791,-0.0307 c -1.38111,-0.0433 -4.73337,-0.0413 -5.45784,0.003 -0.33452,0.0205 -0.77818,0.0706 -0.98591,0.11116 -0.38604,0.0754 -0.79689,0.20729 -1.05993,0.34017 -0.25401,0.12832 -0.66968,0.42403 -1.07961,0.76805 -0.52958,0.44443 -0.77984,0.60791 -1.06595,0.69628 l -0.2398,0.074 -0.24493,-0.005 c -0.13472,-0.003 -0.2947,-0.0121 -0.35552,-0.0202 z m 0.80245,-1.17884 0.2495,-0.0571 0.21157,-0.13674 c 0.27647,-0.17869 0.4966,-0.43298 0.65401,-0.7555 0.15652,-0.3207 0.22856,-0.59457 0.2803,-1.06568 l 0.0399,-0.36272 -0.0432,-0.30081 c -0.0594,-0.41331 -0.16415,-0.74972 -0.37205,-1.19425 -0.22412,-0.4792 -0.49568,-0.91601 -1.63306,-2.62686 -1.08683,-1.63483 -1.46979,-2.18137 -2.06626,-2.94896 -0.72726,-0.93589 -1.22137,-1.40665 -1.72019,-1.63884 l -0.19969,-0.0929 -0.24743,-3.9e-4 -0.24744,-3.9e-4 -0.21333,0.0796 -0.21335,0.0796 -0.11058,0.12174 c -0.0608,0.067 -0.1882,0.29241 -0.28307,0.50099 l -0.17247,0.37925 -0.0408,0.2396 c -0.0777,0.45615 -0.25563,1.14644 -0.347,1.34602 -0.12085,0.26397 -0.30169,0.48467 -0.48369,0.59033 -0.19437,0.11283 -0.51743,0.19205 -0.90312,0.22144 l -0.31332,0.0239 -0.35901,-0.0587 c -0.19746,-0.0323 -0.50183,-0.0587 -0.67638,-0.0587 l -0.31737,0 -0.12865,0.061 c -0.0707,0.0336 -0.17089,0.12485 -0.22248,0.20281 l -0.0938,0.14177 0.0178,0.24874 0.0178,0.24874 0.26302,0.61731 c 0.14466,0.33952 0.30475,0.76577 0.35576,0.9472 l 0.0928,0.32989 -5e-4,0.28767 c -7.5e-4,0.34297 -0.0772,0.73111 -0.19021,0.96537 -0.0451,0.0936 -0.20547,0.35136 -0.35633,0.57286 l -0.27429,0.40271 -0.0174,0.1543 -0.0174,0.15428 0.0631,0.0964 c 0.0348,0.053 0.14859,0.13742 0.25303,0.18761 l 0.1899,0.0913 1.67722,0.42445 c 0.92247,0.23345 2.10851,0.52524 2.63563,0.64843 0.52713,0.12318 1.48923,0.3579 2.138,0.52162 1.53786,0.38805 1.72952,0.43089 2.09189,0.46749 0.37172,0.0376 0.70304,0.0196 1.03285,-0.0558 z m 14.56523,-0.0133 c 0.33138,-0.0479 0.71215,-0.18201 0.95346,-0.3358 0.10617,-0.0677 0.44185,-0.32345 0.74595,-0.56841 1.02872,-0.82862 1.5402,-1.17763 2.13288,-1.45537 0.17965,-0.0842 0.76852,-0.29873 1.3086,-0.47677 0.54008,-0.17803 1.10636,-0.38101 1.25842,-0.45107 0.59502,-0.27415 1.04292,-0.63155 1.2551,-1.00148 l 0.1081,-0.18848 3.9e-4,-0.1603 c 4e-4,-0.20886 -0.0855,-0.38418 -0.26293,-0.53602 -0.22766,-0.19487 -0.56525,-0.34324 -1.10061,-0.48372 -0.2737,-0.0718 -0.58373,-0.17233 -0.68896,-0.22336 l -0.19131,-0.0928 -0.17731,-0.19431 c -0.0975,-0.10688 -0.22166,-0.27617 -0.27588,-0.37621 -0.12954,-0.23897 -0.27548,-0.67891 -0.34399,-1.03691 -0.0642,-0.33536 -0.0704,-0.84315 -0.0133,-1.08023 0.0503,-0.20859 0.0455,-0.42159 -0.0114,-0.51272 -0.0636,-0.10181 -0.36188,-0.18594 -0.8045,-0.22691 -0.21288,-0.0197 -0.40829,-0.0435 -0.43424,-0.0528 -0.026,-0.009 -0.14219,0.0697 -0.2583,0.17576 -0.56103,0.51239 -0.92513,0.77157 -1.38975,0.9893 -0.16678,0.0782 -0.41757,0.16901 -0.55731,0.20189 l -0.25407,0.0598 -0.27646,-0.0187 -0.27647,-0.0187 -0.2117,-0.0798 c -0.28513,-0.10753 -0.61779,-0.36452 -0.88056,-0.68025 l -0.21701,-0.26074 -0.20221,-0.40548 c -0.11121,-0.22302 -0.21292,-0.46354 -0.22602,-0.5345 -0.0131,-0.071 -0.0401,-0.14975 -0.06,-0.17509 -0.0442,-0.0564 -0.25662,-0.0593 -0.50046,-0.007 l -0.18203,0.0391 -0.14351,0.12282 c -0.17807,0.15243 -0.32116,0.41275 -0.38597,0.70222 l -0.0495,0.22117 -8e-5,0.90312 -7e-5,0.90311 0.11742,0.57136 c 0.2571,1.25103 0.30703,1.69077 0.26603,2.34323 -0.0154,0.24465 -0.0741,0.75059 -0.13049,1.12429 l -0.10252,0.67946 -3.9e-4,0.5345 -2e-4,0.53449 0.0752,0.18628 c 0.0952,0.23575 0.33358,0.58512 0.51737,0.75838 0.31869,0.3004 0.62953,0.47371 0.97783,0.54518 0.38661,0.0793 0.55914,0.0868 0.89275,0.0385 z m -7.97685,-3.1129 c 0.5858,-0.0745 1.03111,-0.17614 1.47714,-0.33727 0.66262,-0.23937 1.30426,-0.66337 1.63339,-1.07938 0.0896,-0.11322 0.30623,-0.34686 0.48145,-0.51918 0.17521,-0.17233 0.38835,-0.38715 0.47364,-0.47736 0.0853,-0.0902 0.29034,-0.30022 0.45565,-0.46668 0.16531,-0.16645 0.31157,-0.33731 0.32502,-0.37968 0.0135,-0.0424 0.0391,-0.077 0.0572,-0.077 0.018,0 0.0439,-0.0598 0.0576,-0.13294 0.0137,-0.0731 0.0269,-0.82372 0.0293,-1.668 l 0.005,-1.53506 0.0852,-0.21089 0.0852,-0.21089 0.15735,-0.16189 0.15735,-0.1619 0.1932,-0.0642 c 0.10625,-0.0353 0.34546,-0.0749 0.53156,-0.088 l 0.33837,-0.0239 0.0262,-0.29489 c 0.0144,-0.1622 0.044,-0.36675 0.0658,-0.45459 l 0.0397,-0.15969 -0.002,-1.67562 c -0.002,-1.92299 -0.043,-2.51136 -0.22756,-3.27626 -0.17748,-0.73543 -0.54787,-1.55177 -1.40279,-3.09173 -0.27681,-0.49862 -0.35418,-0.69439 -0.5117,-1.29484 -0.36512,-1.39174 -0.73464,-2.266 -1.24291,-2.94066 -0.32652,-0.43342 -0.44635,-0.61251 -0.55872,-0.83512 -0.12721,-0.252 -0.22112,-0.6082 -0.22193,-0.8418 l -4.9e-4,-0.15728 -0.19353,0.0968 c -0.10645,0.0533 -0.22671,0.12606 -0.26725,0.16176 -0.23734,0.20896 -0.65256,0.45114 -1.01371,0.59124 -0.29263,0.11353 -0.52384,0.24961 -1.29017,0.75936 l -0.68194,0.45362 -0.40548,0.3516 c -0.22301,0.19338 -0.47837,0.38739 -0.56746,0.43112 l -0.16198,0.0795 -0.4487,0.0173 -0.4487,0.0173 -0.17267,-0.0764 c -0.095,-0.042 -0.26648,-0.1644 -0.38115,-0.27198 -0.27807,-0.26088 -0.74019,-0.8425 -0.90848,-1.14344 -0.15211,-0.272 -0.49457,-0.65563 -0.58526,-0.65563 -0.0731,0 -0.0949,0.0518 -0.17847,0.42535 -0.0963,0.43027 -0.30185,0.92107 -0.78412,1.87224 l -0.42668,0.84154 -0.0396,0.1906 c -0.0218,0.10482 -0.0711,0.28182 -0.10953,0.39333 -0.0384,0.11151 -0.0985,0.33544 -0.13335,0.49764 -0.0349,0.16219 -0.11857,0.46906 -0.18595,0.68194 -0.0674,0.21288 -0.20374,0.67743 -0.303,1.03233 l -0.18048,0.64529 -0.24194,0.5343 c -0.48963,1.08126 -0.85812,2.10017 -0.98468,2.72272 -0.0397,0.19528 -0.10109,0.5707 -0.13643,0.83426 l -0.0643,0.47921 -0.002,1.45604 -0.002,1.45604 0.10201,0.27647 c 0.0561,0.15206 0.13075,0.33243 0.16588,0.40083 0.0687,0.13382 0.65189,0.66699 1.53835,1.40647 0.5335,0.44504 0.76477,0.62959 1.6089,1.2838 0.57863,0.44845 0.88593,0.82469 1.00329,1.22842 l 0.0608,0.20905 -0.0336,0.2376 -0.0336,0.2376 -0.0912,0.14443 c -0.12155,0.19254 -0.45781,0.49584 -0.70917,0.63965 l -0.2036,0.11649 0.0838,0.0654 c 0.0461,0.0359 0.19164,0.12049 0.32343,0.18784 0.13178,0.0673 0.32775,0.17797 0.43548,0.24579 0.34179,0.21518 0.71959,0.44036 0.90998,0.54236 0.10137,0.0543 0.29213,0.16457 0.42391,0.24505 0.26663,0.16281 0.47498,0.23641 0.88469,0.31247 l 0.27646,0.0513 0.79253,-0.0154 0.79254,-0.0154 0.46077,-0.0585 z m -1.6518,-21.15855 c 0.54588,-0.15925 1.94831,-0.77504 2.64538,-1.16156 0.2138,-0.11855 0.4608,-0.23455 0.54887,-0.25777 0.17633,-0.0465 0.9576,-0.42075 1.02494,-0.49099 0.0233,-0.0243 0.0889,-0.19345 0.14576,-0.37593 l 0.1034,-0.33174 0.002,-0.31333 0.002,-0.31333 -0.0878,-0.12308 c -0.0483,-0.0677 -0.15311,-0.17039 -0.23295,-0.22824 l -0.14516,-0.10515 -0.68861,-0.22171 c -0.70872,-0.22819 -1.26459,-0.47176 -1.46802,-0.64328 -0.0637,-0.0537 -0.13168,-0.0977 -0.15095,-0.0977 -0.0193,0 -0.0644,-0.0324 -0.10021,-0.072 l -0.0652,-0.072 -0.18936,-0.0382 c -0.2571,-0.0518 -0.93157,-0.16911 -1.31364,-0.22837 -0.17234,-0.0267 -0.56215,-0.0489 -0.86626,-0.0494 l -0.55293,-7.6e-4 -0.21129,0.11974 c -0.23462,0.13297 -0.73538,0.51074 -1.03275,0.77911 -0.10646,0.0961 -0.31481,0.27053 -0.46298,0.38766 -0.14816,0.11714 -0.31862,0.28094 -0.3788,0.36399 -0.0602,0.0831 -0.13556,0.24101 -0.16752,0.35097 l -0.0581,0.19994 0.022,0.10963 c 0.0352,0.17587 0.15068,0.30404 0.38801,0.43053 l 0.22173,0.11819 0.12932,0.15518 c 0.0711,0.0854 0.20109,0.24643 0.28885,0.35793 l 0.15954,0.20275 0.23772,0.1205 0.23772,0.12051 0.30831,0.0378 0.30833,0.0378 0.42892,-0.0397 c 0.48621,-0.045 1.15752,-0.17328 1.64157,-0.31369 0.18038,-0.0523 0.55361,-0.17865 0.8294,-0.28073 0.27578,-0.10208 0.71628,-0.26318 0.97888,-0.35799 l 0.47746,-0.1724 0.11233,-0.12203 c 0.0618,-0.0671 0.15668,-0.1708 0.21087,-0.23039 l 0.0985,-0.10835 0.0893,0 c 0.0491,0 0.11797,0.0317 0.15305,0.0705 l 0.0637,0.0704 -0.012,0.10436 -0.012,0.10437 -0.18431,0.12035 c -0.20597,0.13449 -0.49906,0.25287 -1.36389,0.55088 -0.32439,0.11177 -0.84691,0.32483 -1.16116,0.47345 -0.31425,0.14863 -0.72065,0.31693 -0.90311,0.374 l -0.33177,0.10377 -1.03213,0 c -0.56768,0 -1.05215,0.013 -1.0766,0.0288 -0.0245,0.0158 -0.0345,0.0546 -0.0224,0.0862 0.0287,0.0748 0.63905,0.57951 0.8509,0.70366 0.0904,0.053 0.25792,0.118 0.37218,0.14443 l 0.20775,0.0481 0.33176,-0.0161 0.33175,-0.0161 0.32032,-0.0935 z m -2.87981,-4.18593 c 0.0816,-0.0436 0.29162,-0.39182 0.29213,-0.48426 l 4e-4,-0.0616 -0.12658,-0.0418 c -0.0696,-0.023 -0.18481,-0.10622 -0.25596,-0.18498 l -0.12936,-0.14319 -0.0622,-0.19573 -0.0622,-0.19571 -0.0175,-0.36974 -0.0175,-0.36973 0.0552,-0.13227 c 0.0651,-0.15567 0.24502,-0.3027 0.46593,-0.38064 l 0.15817,-0.0558 0.15262,0.0212 c 0.0839,0.0117 0.19834,0.0385 0.25421,0.0597 0.12211,0.0462 0.32394,0.31202 0.45614,0.60078 l 0.0965,0.2108 0.018,0.24474 0.018,0.24473 0.0582,0.0461 c 0.032,0.0254 0.11387,0.046 0.18188,0.046 l 0.12364,0 0.0956,-0.0956 0.0956,-0.0956 -0.0205,-0.48499 -0.0205,-0.485 -0.0742,-0.28175 c -0.0998,-0.37877 -0.27052,-0.70565 -0.46976,-0.8993 l -0.16455,-0.15991 -0.21089,-0.0796 -0.21088,-0.0796 -0.2048,0.0179 -0.2048,0.0179 -0.21911,0.11139 c -0.3445,0.17513 -0.57738,0.46653 -0.72178,0.90313 l -0.0756,0.22863 -0.0195,0.43147 -0.0195,0.43147 0.0439,0.30577 c 0.0667,0.4641 0.14793,0.75977 0.28299,1.03107 0.11831,0.23766 0.23438,0.36213 0.33769,0.36213 0.0272,0 0.0816,-0.0172 0.12081,-0.0382 z m 7.06756,-0.16714 c 0.12129,-0.085 0.25548,-0.37591 0.30529,-0.66188 l 0.0436,-0.25074 -0.0239,-0.31711 c -0.0296,-0.39314 -0.12146,-0.78295 -0.31082,-1.32014 -0.15693,-0.44518 -0.31585,-0.72702 -0.49491,-0.87768 -0.24946,-0.20991 -0.65279,-0.34989 -1.20966,-0.41981 l -0.27162,-0.0341 -0.18431,0.0349 c -0.24042,0.0456 -0.48074,0.1639 -0.65766,0.32373 -0.19971,0.18043 -0.48765,0.68597 -0.61838,1.08572 l -0.11069,0.33849 -0.0226,0.37064 c -0.0228,0.37229 0.002,0.73166 0.057,0.82031 l 0.0294,0.0476 0.3243,0.0525 c 0.17836,0.0289 0.33619,0.0451 0.35073,0.0362 0.0145,-0.009 0.0358,-0.18689 0.0473,-0.39532 l 0.0209,-0.37897 0.0729,-0.21587 0.0729,-0.21587 0.14188,-0.14792 c 0.078,-0.0814 0.20825,-0.17876 0.28935,-0.21645 l 0.14745,-0.0686 0.22857,-7.6e-4 c 0.32674,-7.5e-4 0.57612,0.0619 0.77535,0.1959 0.0953,0.0641 0.22361,0.18855 0.28508,0.27646 l 0.11175,0.15984 -1.1e-4,0.41153 -1.1e-4,0.41152 -0.10655,0.33934 -0.10656,0.33934 0.0635,0.0969 c 0.0808,0.12338 0.32801,0.23629 0.51951,0.23734 l 0.14847,7.5e-4 0.0826,-0.0579 z"
       id="path4731"
       inkscape:connector-curvature="0" />
    <path
       style="fill:#000000"
       d="m 53.323549,565.84507 c -0.237006,0.0313 -0.831376,0.20024 -1.253301,0.35622 -0.243297,0.0899 -0.790697,0.30415 -1.216453,0.47602 -0.754706,0.30468 -1.52392,0.57318 -2.082698,0.727 -0.357092,0.0983 -1.070142,0.25795 -1.900998,0.42562 -0.363496,0.0734 -1.05902,0.2318 -1.545598,0.35209 l -0.884688,0.21872 -0.25803,0.12444 c -0.286444,0.13815 -0.458865,0.28246 -0.551494,0.46157 l -0.06148,0.11895 0.01437,0.35662 0.01445,0.35662 0.172737,0.45717 c 0.09501,0.25145 0.200624,0.55832 0.234696,0.68195 l 0.06193,0.22477 0.0023,0.47921 0.0023,0.47921 -0.136935,0.4792 c -0.163248,0.57131 -0.213258,0.83926 -0.213258,1.14272 0,0.2795 0.06185,0.62572 0.138041,0.7731 0.101915,0.1971 0.245486,0.35461 0.396455,0.43499 l 0.147454,0.0785 0.86626,0.0261 c 0.476435,0.0144 0.924306,0.042 0.995271,0.0614 0.230234,0.0631 0.531087,0.21737 0.681942,0.34971 0.200421,0.17584 0.357153,0.44881 0.53439,0.93069 0.168471,0.45803 0.17027,0.4621 0.475397,1.0747 l 0.223393,0.4485 -0.04522,0.12287 -0.04522,0.12286 0,0.79254 0,0.79253 0.121968,0.35018 c 0.06712,0.19261 0.257285,0.60731 0.422656,0.92156 0.697059,1.32457 1.049284,2.12055 1.647491,3.72306 0.208126,0.55753 0.461182,1.18461 0.562352,1.3935 0.239677,0.49491 0.470723,0.84244 1.235196,1.85796 0.346543,0.46034 0.882483,1.21509 1.190974,1.67721 0.308491,0.46212 0.697857,1.03111 0.865259,1.26442 0.167403,0.23331 0.36847,0.54019 0.44681,0.68195 l 0.142443,0.25775 -0.0038,0.49763 c -0.0023,0.2737 -0.0386,1.2275 -0.0817,2.11957 -0.04312,0.89206 -0.09771,2.12785 -0.121246,2.74621 l -0.04281,1.12429 0.02092,0.88469 0.02092,0.88469 0.05553,0.37028 c 0.172075,1.14691 0.447593,1.91819 0.929701,2.60261 0.220828,0.31348 0.654492,0.73669 0.984631,0.96089 0.27557,0.18713 0.713035,0.40198 1.020382,0.50112 0.335662,0.10827 0.841375,0.2168 1.253308,0.26896 l 0.350193,0.0443 0.718806,-0.003 c 0.39534,-0.002 0.876395,-0.0214 1.068998,-0.0439 0.482221,-0.0563 1.011878,-0.16787 1.433179,-0.30192 0.435756,-0.13863 1.092295,-0.44583 1.408566,-0.65907 0.583105,-0.39313 1.079225,-0.87194 1.432743,-1.38277 0.218352,-0.31551 0.480664,-0.83532 0.585144,-1.15956 0.210151,-0.65217 0.338417,-1.59564 0.466074,-3.42816 0.178328,-2.55984 0.327731,-3.51096 0.68602,-4.36738 0.08464,-0.20233 0.352683,-0.74143 0.595649,-1.19802 1.053663,-1.98005 1.436069,-2.58229 2.645358,-4.16616 1.049178,-1.37416 1.55073,-2.19031 2.071297,-3.37049 0.297023,-0.67339 0.604889,-1.62262 0.783865,-2.41685 0.125083,-0.55508 0.33053,-1.67343 0.409698,-2.23014 l 0.06291,-0.44235 0.0023,-0.55293 0.0023,-0.55292 -0.08238,-0.30731 c -0.0453,-0.16901 -0.131434,-0.40447 -0.191391,-0.52322 -0.119214,-0.23618 -0.349997,-0.53919 -0.634439,-0.83301 l -0.183016,-0.18904 0.326076,-0.058 c 0.179344,-0.0319 0.406041,-0.0692 0.503787,-0.0828 l 0.177696,-0.0248 0.103073,-0.0867 c 0.05666,-0.0477 0.140856,-0.17419 0.187035,-0.28111 l 0.08396,-0.19437 0.03025,-0.42391 c 0.01671,-0.23315 0.04537,-0.48197 0.06381,-0.55293 0.117499,-0.45227 0.410699,-0.91721 0.859533,-1.36304 l 0.30357,-0.30153 0.647027,-0.42824 c 0.355874,-0.23553 0.73065,-0.51207 0.83285,-0.61455 0.102194,-0.10247 0.230753,-0.26719 0.285684,-0.36604 l 0.09986,-0.17975 0,-0.22017 0,-0.22017 -0.06298,-0.13459 c -0.09728,-0.20776 -0.394498,-0.4702 -0.997882,-0.8811 -0.733441,-0.49946 -1.089842,-0.70178 -1.799648,-1.0216 -0.674034,-0.3037 -1.166639,-0.57218 -1.717072,-0.93583 -0.570704,-0.37705 -0.904515,-0.6562 -1.616774,-1.35203 l -0.646667,-0.63176 -0.256457,-0.14852 c -0.300123,-0.17382 -0.596078,-0.27966 -0.961109,-0.34372 l -0.262319,-0.0461 -0.677668,0.0193 -0.677653,0.0193 -0.258038,0.0607 c -0.56418,0.13269 -0.924975,0.32942 -1.228913,0.6701 -0.106678,0.11958 -0.253139,0.32523 -0.325459,0.45701 -0.07231,0.13178 -0.174159,0.30306 -0.226283,0.38064 l -0.09477,0.14102 -0.147454,0.0752 -0.147447,0.0752 -0.9791,0.0307 c -1.381116,0.0433 -4.733368,0.0413 -5.45784,-0.003 -0.334519,-0.0205 -0.778183,-0.0706 -0.985911,-0.11116 -0.38604,-0.0754 -0.796889,-0.20729 -1.059931,-0.34017 -0.254011,-0.12832 -0.669677,-0.42403 -1.079608,-0.76805 -0.529582,-0.44443 -0.779846,-0.60791 -1.065951,-0.69628 l -0.239797,-0.074 -0.244937,0.005 c -0.134715,0.003 -0.294698,0.0121 -0.35552,0.0202 z m 0.802443,1.17884 0.249504,0.0571 0.211572,0.13674 c 0.276466,0.17869 0.496601,0.43298 0.654003,0.7555 0.156529,0.3207 0.228563,0.59457 0.280303,1.06568 l 0.03988,0.36272 -0.04319,0.30081 c -0.05937,0.41331 -0.164151,0.74972 -0.372044,1.19425 -0.224124,0.4792 -0.495683,0.91601 -1.633058,2.62686 -1.08684,1.63483 -1.469795,2.18137 -2.066264,2.94897 -0.727263,0.93589 -1.221374,1.40665 -1.720194,1.63884 l -0.199684,0.0929 -0.247435,3.9e-4 -0.247435,3.9e-4 -0.213333,-0.0796 -0.213348,-0.0796 -0.110583,-0.12175 c -0.0608,-0.067 -0.188201,-0.2924 -0.283065,-0.50098 l -0.172474,-0.37925 -0.04078,-0.2396 c -0.07767,-0.45615 -0.255622,-1.14645 -0.346995,-1.34603 -0.120854,-0.26397 -0.301688,-0.48467 -0.483688,-0.59033 -0.194371,-0.11283 -0.517429,-0.19204 -0.903124,-0.22144 l -0.313321,-0.0239 -0.359012,0.0587 c -0.197456,0.0323 -0.501823,0.0587 -0.676374,0.0587 l -0.317369,0 -0.128658,-0.061 c -0.07073,-0.0336 -0.170886,-0.12485 -0.222476,-0.20281 l -0.09381,-0.14177 0.01776,-0.24874 0.01783,-0.24874 0.263019,-0.61731 c 0.144655,-0.33952 0.30475,-0.76577 0.35576,-0.9472 l 0.09275,-0.32989 -4.97e-4,-0.28767 c -7.52e-4,-0.34297 -0.07723,-0.7311 -0.190209,-0.96537 -0.04515,-0.0936 -0.205478,-0.35136 -0.356333,-0.57286 l -0.274291,-0.40271 -0.01738,-0.1543 -0.01738,-0.15428 0.06313,-0.0964 c 0.03476,-0.053 0.148591,-0.13742 0.253034,-0.18761 l 0.189901,-0.0913 1.677221,-0.42445 c 0.922469,-0.23345 2.108507,-0.52524 2.635628,-0.64843 0.527129,-0.12318 1.489231,-0.3579 2.137997,-0.52162 1.537863,-0.38805 1.729525,-0.43089 2.091893,-0.46749 0.37172,-0.0376 0.703041,-0.0196 1.032849,0.0558 z m 14.565232,0.0133 c 0.331381,0.0479 0.712154,0.18201 0.953464,0.3358 0.106166,0.0677 0.441844,0.32345 0.745948,0.56841 1.028718,0.82862 1.540203,1.17763 2.132879,1.45537 0.179653,0.0842 0.768522,0.29873 1.308601,0.47677 0.540078,0.17803 1.106366,0.38101 1.258425,0.45107 0.595017,0.27415 1.042918,0.63155 1.2551,1.00148 l 0.1081,0.18848 3.91e-4,0.1603 c 3.99e-4,0.20887 -0.08555,0.38418 -0.262936,0.53602 -0.22766,0.19487 -0.565249,0.34324 -1.10061,0.48372 -0.273704,0.0718 -0.583729,0.17233 -0.688955,0.22336 l -0.191316,0.0928 -0.177305,0.19431 c -0.09751,0.10688 -0.221663,0.27617 -0.275886,0.37621 -0.129538,0.23897 -0.275479,0.67891 -0.343984,1.03691 -0.06419,0.33536 -0.07043,0.84315 -0.01332,1.08023 0.05026,0.20859 0.04552,0.42159 -0.01136,0.51272 -0.06358,0.10182 -0.361879,0.18595 -0.804505,0.22692 -0.212882,0.0197 -0.408283,0.0435 -0.434236,0.0528 -0.02596,0.009 -0.142195,-0.0697 -0.258301,-0.17576 -0.561035,-0.5124 -0.925133,-0.77158 -1.389747,-0.98931 -0.166785,-0.0782 -0.417576,-0.16901 -0.55731,-0.20189 l -0.254072,-0.0598 -0.276458,0.0187 -0.276473,0.0187 -0.2117,0.0798 c -0.285134,0.10753 -0.617794,0.36452 -0.880565,0.68025 l -0.217005,0.26074 -0.202211,0.40549 c -0.111208,0.22301 -0.21292,0.46354 -0.22602,0.5345 -0.01309,0.071 -0.04011,0.14975 -0.05997,0.17509 -0.04425,0.0564 -0.256616,0.0593 -0.500461,0.007 l -0.182031,-0.039 -0.143503,-0.12282 c -0.178073,-0.15243 -0.321163,-0.41275 -0.385973,-0.70222 l -0.04951,-0.22118 -7.5e-5,-0.90312 -7.5e-5,-0.90311 0.117423,-0.57136 c 0.257104,-1.25103 0.307031,-1.69077 0.266029,-2.34323 -0.01535,-0.24465 -0.07412,-0.75059 -0.130486,-1.12429 l -0.102525,-0.67945 -3.91e-4,-0.53451 -1.96e-4,-0.53449 0.07525,-0.18628 c 0.09524,-0.23575 0.333585,-0.58512 0.517376,-0.75838 0.318687,-0.3004 0.629525,-0.47371 0.977822,-0.54518 0.386612,-0.0793 0.559146,-0.0868 0.892754,-0.0385 z m -7.97685,3.1129 c 0.585807,0.0745 1.031112,0.17614 1.477139,0.33727 0.662619,0.23937 1.304258,0.66337 1.633389,1.07938 0.08958,0.11322 0.306234,0.34686 0.481454,0.51918 0.175213,0.17234 0.38835,0.38715 0.473643,0.47736 0.08529,0.0902 0.290334,0.30022 0.455644,0.46668 0.16531,0.16645 0.311576,0.33731 0.325022,0.37968 0.01347,0.0424 0.03913,0.077 0.05719,0.077 0.01798,0 0.04395,0.0598 0.05764,0.13294 0.01369,0.0731 0.02686,0.82372 0.02935,1.668 l 0.0045,1.53507 0.08519,0.21089 0.08519,0.21089 0.15735,0.16189 0.157349,0.1619 0.193197,0.0642 c 0.106249,0.0353 0.345459,0.0749 0.531561,0.088 l 0.338371,0.0239 0.02619,0.29489 c 0.01437,0.16219 0.04402,0.36675 0.06577,0.45459 l 0.03965,0.15969 -0.0023,1.67562 c -0.0023,1.92299 -0.04297,2.51135 -0.227563,3.27626 -0.177478,0.73543 -0.547866,1.55177 -1.402787,3.09173 -0.276811,0.49862 -0.35418,0.69439 -0.511703,1.29484 -0.365114,1.39174 -0.734637,2.266 -1.242909,2.94066 -0.32652,0.43342 -0.446351,0.61251 -0.558718,0.83512 -0.127205,0.252 -0.221121,0.6082 -0.221926,0.8418 l -4.97e-4,0.15728 -0.193528,-0.0968 c -0.106444,-0.0533 -0.226704,-0.12606 -0.267247,-0.16176 -0.237345,-0.20896 -0.652559,-0.45114 -1.013707,-0.59124 -0.292636,-0.11353 -0.523848,-0.24961 -1.290172,-0.75936 l -0.681943,-0.45362 -0.405484,-0.3516 c -0.22301,-0.19338 -0.478368,-0.38739 -0.567453,-0.43113 l -0.161985,-0.0795 -0.448698,-0.0173 -0.448699,-0.0173 -0.17267,0.0764 c -0.09496,0.042 -0.26648,0.1644 -0.381149,0.27198 -0.278076,0.26088 -0.740191,0.8425 -0.908481,1.14344 -0.152112,0.272 -0.494569,0.65563 -0.585265,0.65563 -0.07314,0 -0.09485,-0.0518 -0.178463,-0.42535 -0.0963,-0.43028 -0.301854,-0.92107 -0.784121,-1.87224 l -0.426681,-0.84154 -0.03958,-0.1906 c -0.02182,-0.10483 -0.07111,-0.28182 -0.10953,-0.39333 -0.03845,-0.11151 -0.09846,-0.33544 -0.133353,-0.49764 -0.03491,-0.16219 -0.118566,-0.46906 -0.18595,-0.68194 -0.06742,-0.21288 -0.203739,-0.67743 -0.302998,-1.03233 l -0.18048,-0.64529 -0.241942,-0.5343 c -0.489626,-1.08126 -0.858118,-2.10017 -0.984677,-2.72272 -0.03973,-0.19528 -0.101087,-0.5707 -0.13643,-0.83426 l -0.06426,-0.47921 -0.0015,-1.45604 -0.0015,-1.45605 0.102012,-0.27646 c 0.05613,-0.15206 0.13075,-0.33244 0.165875,-0.40084 0.0687,-0.13381 0.651889,-0.66698 1.538353,-1.40647 0.533502,-0.44504 0.764774,-0.62959 1.608896,-1.2838 0.578635,-0.44845 0.88593,-0.82469 1.003292,-1.22841 l 0.0608,-0.20906 -0.03363,-0.2376 -0.03364,-0.2376 -0.09118,-0.14443 c -0.121546,-0.19254 -0.457811,-0.49584 -0.709174,-0.63965 l -0.203596,-0.11649 0.08383,-0.0654 c 0.04613,-0.0359 0.191647,-0.12049 0.323435,-0.18784 0.13178,-0.0674 0.327746,-0.17797 0.435478,-0.24579 0.341787,-0.21518 0.719596,-0.44036 0.909978,-0.54235 0.101373,-0.0543 0.292132,-0.16458 0.423913,-0.24505 0.26663,-0.16282 0.474982,-0.23642 0.884688,-0.31248 l 0.276465,-0.0513 0.792533,0.0154 0.792533,0.0154 0.460768,0.0585 z m -1.651795,21.15856 c 0.545873,0.15925 1.948306,0.77504 2.645373,1.16156 0.213807,0.11855 0.460806,0.23455 0.548875,0.25777 0.176327,0.0465 0.957603,0.42075 1.024942,0.49099 0.02325,0.0243 0.08888,0.19345 0.145761,0.37592 l 0.103397,0.33175 0.0023,0.31333 0.0023,0.31333 -0.08778,0.12308 c -0.04831,0.0677 -0.153112,0.17039 -0.23295,0.22824 l -0.145159,0.10515 -0.688609,0.22171 c -0.708723,0.22819 -1.264596,0.47176 -1.468026,0.64328 -0.06374,0.0537 -0.131675,0.0977 -0.150946,0.0977 -0.01926,0 -0.06441,0.0324 -0.100214,0.072 l -0.06516,0.072 -0.18936,0.0382 c -0.257104,0.0519 -0.931574,0.16911 -1.313649,0.22837 -0.172331,0.0267 -0.562149,0.0489 -0.86626,0.0494 l -0.552923,7.6e-4 -0.211294,-0.11974 c -0.234621,-0.13297 -0.735375,-0.51074 -1.032744,-0.77911 -0.106468,-0.0961 -0.314812,-0.27053 -0.462981,-0.38766 -0.148162,-0.11714 -0.318626,-0.28094 -0.378802,-0.36399 -0.0602,-0.0831 -0.135557,-0.24101 -0.167522,-0.35097 l -0.05809,-0.19994 0.02197,-0.10963 c 0.03522,-0.17587 0.150683,-0.30404 0.388012,-0.43053 l 0.221731,-0.11819 0.129312,-0.15519 c 0.07111,-0.0854 0.201098,-0.24642 0.288851,-0.35792 l 0.159539,-0.20275 0.237721,-0.1205 0.237728,-0.12051 0.30831,-0.0378 0.308325,-0.0379 0.428916,0.0397 c 0.486217,0.045 1.157527,0.17328 1.641577,0.31369 0.180382,0.0523 0.553608,0.17865 0.829396,0.28073 0.275781,0.10208 0.716277,0.26317 0.978882,0.35799 l 0.477458,0.17239 0.112337,0.12204 c 0.06178,0.0671 0.156672,0.1708 0.210865,0.23039 l 0.09854,0.10835 0.08927,0 c 0.04906,0 0.117973,-0.0317 0.153053,-0.0705 l 0.06373,-0.0704 -0.01196,-0.10436 -0.01196,-0.10437 -0.184311,-0.12035 c -0.205966,-0.13449 -0.499054,-0.25287 -1.363892,-0.55088 -0.324382,-0.11177 -0.846906,-0.32483 -1.161153,-0.47345 -0.314247,-0.14863 -0.720649,-0.31693 -0.903116,-0.374 l -0.331765,-0.10377 -1.032127,0 c -0.567679,0 -1.05215,-0.013 -1.076606,-0.0288 -0.02445,-0.0158 -0.03454,-0.0546 -0.02242,-0.0862 0.02867,-0.0748 0.639043,-0.57951 0.850894,-0.70366 0.09044,-0.053 0.257925,-0.118 0.37218,-0.14443 l 0.20775,-0.0481 0.331757,0.0161 0.331757,0.0161 0.320319,0.0935 z m -2.879813,4.18593 c 0.08158,0.0436 0.291621,0.39182 0.292132,0.48426 l 3.99e-4,0.0616 -0.126581,0.0418 c -0.0696,0.023 -0.184807,0.10622 -0.25596,0.18498 l -0.129365,0.14319 -0.06223,0.19573 -0.06223,0.19571 -0.01746,0.36974 -0.01746,0.36973 0.05523,0.13226 c 0.06509,0.15568 0.24502,0.30271 0.465923,0.38065 l 0.158177,0.0558 0.152616,-0.0212 c 0.08395,-0.0117 0.198336,-0.0385 0.254207,-0.0597 0.122119,-0.0462 0.323947,-0.31202 0.456141,-0.60078 l 0.09651,-0.2108 0.01798,-0.24474 0.01798,-0.24473 0.05824,-0.0461 c 0.03205,-0.0254 0.113872,-0.0461 0.18188,-0.0461 l 0.123646,0 0.09558,0.0956 0.09557,0.0956 -0.02054,0.485 -0.02054,0.485 -0.07419,0.28175 c -0.09976,0.37877 -0.270514,0.70565 -0.469761,0.8993 l -0.164542,0.15991 -0.210888,0.0796 -0.210888,0.0796 -0.204792,-0.0179 -0.2048,-0.0179 -0.219112,-0.11139 c -0.344504,-0.17513 -0.577387,-0.46653 -0.721786,-0.90313 l -0.07562,-0.22864 -0.01949,-0.43146 -0.01949,-0.43147 0.04394,-0.30577 c 0.06675,-0.46411 0.147929,-0.75977 0.28299,-1.03107 0.118311,-0.23766 0.234387,-0.36213 0.337694,-0.36213 0.02724,0 0.0816,0.0171 0.120809,0.0381 z m 7.067564,0.16714 c 0.121284,0.085 0.255479,0.37591 0.305285,0.66188 l 0.04364,0.25073 -0.02393,0.31712 c -0.02965,0.39313 -0.121464,0.78295 -0.310823,1.32014 -0.156936,0.44518 -0.31585,0.72702 -0.494908,0.87768 -0.249467,0.20991 -0.652791,0.34989 -1.209665,0.41981 l -0.27162,0.0341 -0.18431,-0.0349 c -0.240415,-0.0456 -0.480739,-0.1639 -0.65766,-0.32373 -0.199706,-0.18043 -0.487647,-0.68597 -0.618381,-1.08572 l -0.110689,-0.33849 -0.02265,-0.37064 c -0.0228,-0.3723 0.0023,-0.73166 0.05696,-0.82031 l 0.02942,-0.0476 0.324292,-0.0525 c 0.178366,-0.0289 0.336197,-0.0452 0.350735,-0.0362 0.01452,0.009 0.03582,0.18689 0.04733,0.39532 l 0.02092,0.37897 0.07291,0.21587 0.07291,0.21587 0.141886,0.14792 c 0.07805,0.0814 0.208246,0.17876 0.289348,0.21645 l 0.147446,0.0685 0.228571,7.6e-4 c 0.326738,7.5e-4 0.576122,-0.0619 0.775354,-0.1959 0.09533,-0.0641 0.223612,-0.18855 0.285074,-0.27646 l 0.111757,-0.15984 -1.13e-4,-0.41153 -1.13e-4,-0.41152 -0.10655,-0.33934 -0.106557,-0.33934 0.06351,-0.0969 c 0.08083,-0.12338 0.32801,-0.23629 0.519514,-0.23734 l 0.148462,-7.5e-4 0.08261,0.0579 z"
       id="path4731-7"
       inkscape:connector-curvature="0" />
    <path
       style="fill:none;fill-rule:evenodd;stroke:#ff0000;stroke-width:1.00000012;stroke-linecap:butt;stroke-linejoin:miter;stroke-miterlimit:4;stroke-dasharray:none;stroke-opacity:1"
       d="m 531.99613,-17.716599 0,1077.165499"
       id="path4226"
       inkscape:connector-curvature="0"
       sodipodi:nodetypes="cc" />
    <path
       style="fill:#000000"
       d="m 1590.4019,1009.1714 c -23.9934,-18.91861 -24.107,-20.79002 -1.3042,-21.45859 l 16.9553,-0.49714 0,-31.99136 0,-31.99137 -11.7384,-0.5136 -11.7383,-0.5136 -0.4607,-52.768 c -0.3271,-37.48732 0.112,-53.45724 1.5172,-55.14823 1.2263,-1.47572 5.5316,-2.38026 11.3295,-2.38026 l 9.3517,0 0,-67.74114 0,-67.74115 -10.0863,0 c -5.5475,0 -11.0255,-0.93797 -12.1732,-2.08434 -1.529,-1.52727 -2.0867,-15.82558 -2.0867,-53.49815 0,-37.67258 0.5577,-51.97087 2.0867,-53.49814 1.1477,-1.14639 6.2343,-2.08434 11.3036,-2.08434 l 9.2169,0 0,-32.13364 0,-32.13361 -118.2534,0 -118.2531,0 0,73.53571 0,73.53571 9.9994,2.78035 c 11.8912,3.30641 22.3898,11.68063 29.3325,23.39736 4.1978,7.08466 4.8958,10.11938 4.8958,21.28957 0,11.12375 -0.7046,14.21616 -4.8227,21.16501 -7.219,12.18107 -16.6344,19.80894 -28.5845,23.15804 l -10.3223,2.89281 -1.1186,15.74035 c -0.6153,8.65716 -1.1185,26.14491 -1.1185,38.86158 l 0,23.12125 17.8044,0.49501 c 14.4604,0.40201 17.9017,1.00214 18.3217,3.19501 0.5041,2.63148 -35.9333,32.90752 -39.6041,32.90752 -3.6709,0 -40.1084,-30.27604 -39.6046,-32.90752 0.4172,-2.17985 3.7794,-2.79579 17.4522,-3.19714 l 16.9352,-0.49714 0,-23.11912 c 0,-12.71553 0.499,-30.14067 1.1089,-38.72257 l 1.1089,-15.60344 -10.8697,-3.04626 c -13.5277,-3.79113 -23.9192,-12.84719 -28.4262,-24.77258 -1.7421,-4.60936 -3.894,-9.73788 -4.7823,-11.39672 -2.076,-3.87673 -2.076,-12.67145 0,-16.54821 0.8883,-1.65884 3.0402,-6.78736 4.7823,-11.3967 4.4733,-11.83627 14.9111,-20.98494 28.1869,-24.70551 l 10.6302,-2.97917 0,-73.56073 0,-73.5607 -42.0942,-0.46513 -42.0942,-0.46513 -1.4162,-6.81178 c -0.7787,-3.74648 -2.3785,-7.97134 -3.5549,-9.38858 -1.7061,-2.05535 -2.3148,7.93437 -3.0084,49.36713 l -0.8694,51.94391 -48.5202,0.46218 -48.52,0.46218 -25.8067,16.03888 -25.8065,16.03886 -0.016,45.59502 -0.016,45.59501 17.4447,0 c 14.649,0 17.6224,0.46204 18.5525,2.88316 1.1975,3.11695 0.5924,3.69568 -23.4171,22.39651 -7.906,6.15798 -15.1526,11.19633 -16.1037,11.19633 -2.0216,0 -16.0975,-9.60232 -29.0007,-19.78376 -6.8878,-5.43477 -9.0672,-8.27931 -9.1299,-11.91562 l -0.082,-4.77662 16.5208,0 16.5207,0 0,-42.51235 0,-42.51235 -4.2246,1.60425 c -2.3234,0.88232 -12.484,6.81369 -22.5789,13.18082 -10.8,6.81185 -19.4398,11.16063 -20.9913,10.56596 -2.1359,-0.81867 -2.6367,-4.65061 -2.6367,-20.17165 l 0,-19.16098 -45.2145,0 -45.21451,0 0,43.32394 0,43.32393 7.39074,0.53411 7.39098,0.53411 0,40.8184 0,40.81838 -6.52142,0.53909 -6.52129,0.53909 0.016,26.38369 c 0,14.51099 0.50884,31.63354 1.11555,38.05004 l 1.10324,11.66638 17.55846,0.49229 c 14.23915,0.39923 17.65625,1.0027 18.07575,3.19228 0.5042,2.63147 -35.93326,32.90753 -39.60419,32.90753 -3.67081,0 -40.10839,-30.27606 -39.60448,-32.90753 0.41724,-2.17983 3.77939,-2.79577 17.45221,-3.19713 l 16.93526,-0.49713 0,-38.05489 0,-38.05491 -8.2603,-0.5294 -8.26043,-0.5294 0,-40.81838 0,-40.8184 7.39086,-0.53411 7.39074,-0.53411 0,-27.42452 c 0,-15.08351 0.50847,-34.57926 1.13007,-43.32395 l 1.12983,-15.8994 -49.82243,0 -49.82244,0 0,50.37162 0,50.37163 18.25973,0 18.2596,0 0,4.34237 0,4.34239 -39.99734,0 -39.99746,0 0,-4.34239 c 0,-4.34237 0,-4.34237 17.39028,-4.34237 l 17.39017,0 0,-50.37163 0,-50.37162 -26.95487,0 -26.95488,0 0,11.29018 0,11.29019 -54.77906,0 -54.77894,0 0,-10.42171 0,-10.42171 -31.30235,0 -31.3023,0 0,32.04284 0,32.04286 9.12983,0.52502 9.12982,0.525 0.45956,54.27976 0.45955,54.27978 -8.71984,0 -8.71983,0 0,27.79125 0,27.79122 16.1728,0 c 15.11358,0 20.34645,1.41633 20.34645,5.50697 0,1.0657 -28.71349,24.33359 -39.2288,31.78877 -1.70642,1.20993 -3.75378,0.43497 -7.22661,-2.73538 -2.66503,-2.43297 -11.69296,-9.68353 -20.06195,-16.11235 -8.369,-6.4288 -15.21649,-12.27161 -15.21649,-12.98404 0,-3.98653 5.26652,-5.46397 19.47712,-5.46397 l 15.30326,0 0,-27.79122 0,-27.79125 -11.32831,0 -11.32847,0 0.45955,-54.27978 0.45955,-54.27976 9.99937,-0.52092 9.99938,-0.52092 0,-66.78598 0,-66.78601 -11.30361,0 -11.30361,0 0,-54.714 0,-54.71402 10.43407,0 10.43406,0 0,-46.8999 0,-46.89991 683.86877,0.43643 683.8691,0.43643 0,191.76024 0,191.76025 -47.4119,-0.379 -47.4117,-0.37901 -11.8869,7.89294 c -6.5376,4.3411 -13.4138,8.49764 -15.2805,9.23676 -1.8665,0.73913 -8.6364,4.43739 -15.0444,8.21834 l -11.6508,6.87446 0,46.53682 0,46.53682 17.4448,0 c 21.1599,0 23.6246,2.19857 12.8203,11.43558 -3.7337,3.19193 -7.4223,5.83286 -8.1969,5.86873 -2.249,0.10415 -17.2053,11.95577 -19.8533,15.73213 -3.4662,4.94264 -6.6218,4.30217 -15.8151,-3.20976 -10.9375,-8.93725 -25.3089,-19.85229 -29.1261,-22.12127 -1.9671,-1.16935 -2.6955,-2.92324 -1.9834,-4.77662 0.9464,-2.46361 3.7576,-2.92879 17.7004,-2.92879 l 16.5752,0 0,-42.65785 c 0,-23.46182 -0.5869,-42.34376 -1.3042,-41.95988 -0.7175,0.38386 -8.0647,4.72896 -16.3276,9.65574 -8.2627,4.92679 -15.5339,8.95781 -16.1585,8.95781 -0.6247,0 -2.8414,1.58722 -4.9261,3.52716 -7.6057,7.07742 -9.0621,4.36144 -9.5966,-17.89532 l -0.4901,-20.40553 -80.3742,0.45154 -80.3743,0.45157 -0.4737,31.61153 -0.4736,31.61155 10.0382,0.52208 10.0383,0.52208 0,54.714 0,54.71401 -9.1299,0.525 -9.13,0.52503 0,32.04284 0,32.04285 17.0425,0 c 15.9304,0 21.216,1.36334 21.216,5.47237 0,2.42667 -38.2129,31.00447 -41.2904,30.87957 -1.6801,-0.068 -11.2715,-6.6032 -21.3141,-14.522 z m 28.8313,-0.3234 c 11.606,-7.8667 14.5332,-10.17786 14.5895,-11.51907 0.03,-0.71648 -9.7274,-1.3027 -21.6831,-1.3027 -11.9557,0 -21.7124,0.58622 -21.6812,1.3027 0.059,1.35994 19.1507,15.91337 21.0037,16.01097 0.5838,0.031 4.0809,-1.9906 7.7711,-4.4919 z m 5.949,-140.48779 0,-46.02925 -16.5206,0 -16.5207,0 0,46.02925 0,46.02924 16.5207,0 16.5206,0 0,-46.02924 z m -647.44798,6.07933 11.48616,-8.68474 -23.11896,0 -23.11897,0 11.12125,8.58373 c 6.11662,4.72105 11.35148,8.62919 11.63293,8.68477 0.28144,0.0555 5.68041,-3.80715 11.99759,-8.58376 z m 863.82398,-9.59951 10.3023,-7.77001 -22.3438,0 -22.3437,0 10.3024,7.77001 c 5.6663,4.2735 11.0851,7.77 12.0413,7.77 0.9565,0 6.3752,-3.4965 12.0415,-7.77 z m -1205.13949,-5.21086 10.30244,-7.77 -22.3438,0 -22.34381,0 10.30228,7.77 c 5.66644,4.27349 11.08505,7.77 12.04153,7.77 0.95649,0 6.3751,-3.49651 12.04136,-7.77 z m 736.07269,-21.66562 11.486,-8.68477 -23.1189,0 -23.1189,0 11.1213,8.58374 c 6.1165,4.72106 11.3513,8.6292 11.6328,8.68477 0.2814,0.0555 5.6804,-3.80712 11.9977,-8.58374 z m -735.07152,-106.8226 0,-46.02924 -16.52055,0 -16.52072,0 0,46.02924 0,46.02926 16.52072,0 16.52055,0 0,-46.02926 z m 1180.44182,24.09166 c 6.0237,-4.17483 11.2785,-7.59059 11.6773,-7.59059 0.9682,0 29.6295,-17.43525 37.5604,-22.84874 l 6.2803,-4.28684 -5.4108,-3.14555 c -2.976,-1.73003 -8.541,-4.76178 -12.3668,-6.73718 -3.8259,-1.97541 -12.0427,-6.87146 -18.2598,-10.88015 -16.953,-10.93117 -51.7983,-32.00137 -52.9231,-32.00137 -0.5425,0 -0.9864,24.21992 -0.9864,53.82202 l 0,53.82198 11.7384,-6.28148 c 6.4561,-3.45481 16.6669,-9.69726 22.6905,-13.8721 z m -18.7778,-5.85364 c 0,-4.40029 -0.6761,-5.21086 -4.3475,-5.21086 -2.705,0 -4.3475,-0.9843 -4.3475,-2.60544 0,-1.62115 1.6425,-2.60542 4.3475,-2.60542 3.6714,0 4.3475,-0.81059 4.3475,-5.21085 0,-3.47391 0.8696,-5.21086 2.6086,-5.21086 1.739,0 2.6086,1.73695 2.6086,5.21086 0,4.92135 0.3863,5.21085 6.956,5.21085 5.0238,0 6.956,0.72374 6.956,2.60542 0,1.88171 -1.9322,2.60544 -6.956,2.60544 -6.5697,0 -6.956,0.28949 -6.956,5.21086 0,3.4739 -0.8696,5.21085 -2.6086,5.21085 -1.739,0 -2.6086,-1.73695 -2.6086,-5.21085 z m -9.5645,-50.37164 c -2.3199,-3.74901 1.6119,-5.21085 14.0148,-5.21085 11.7805,0 12.94,0.31125 12.94,3.47391 0,3.16264 -1.1595,3.47391 -12.94,3.47391 -7.1171,0 -13.4236,-0.78164 -14.0148,-1.73697 z m -814.72998,39.94992 0,-34.73906 -12.17303,0 -12.17315,0 0,34.73906 0,34.73905 12.17315,0 12.17303,0 0,-34.73905 z m 799.94838,-18.23801 0,-18.238 -47.8231,0 -47.8229,0 0,-110.29649 c 0,-90.43766 -0.4151,-110.29648 -2.3055,-110.29648 -3.8027,0 -10.6152,8.51673 -10.8336,13.5441 l -0.2039,4.69388 -27.2393,0.47834 -27.2395,0.47837 0,32.00283 0,32.00284 9.9993,0.52092 9.9995,0.5209 0,54.71402 0,54.714 -9.1299,0.52501 -9.1299,0.52503 0,31.17436 0,31.17438 80.8644,0 80.8644,0 0,-18.23801 z m -653.8994,8.70572 c 15.4109,-11.29929 15.4008,-11.31115 -9.6368,-11.31115 l -22.2643,0 11.1826,8.66924 c 6.1503,4.76808 11.4689,8.67622 11.8191,8.68476 0.35,0.009 4.3548,-2.71074 8.8994,-6.04285 z m 252.7439,2.45922 c 8.4887,-2.35435 19.9483,-12.65212 24.0222,-21.58665 11.0541,-24.24307 -9.0403,-53.04058 -36.9548,-52.96008 -7.5743,0.0219 -21.9553,6.82261 -27.9651,13.22471 -26.2805,27.99675 2.9624,71.84356 40.8977,61.32202 z m -31.86,-19.8497 c 0,-2.1649 3.3814,-2.60542 19.9986,-2.60542 16.6174,0 19.9987,0.44052 19.9987,2.60542 0,2.16491 -3.3813,2.60544 -19.9987,2.60544 -16.6172,0 -19.9986,-0.44053 -19.9986,-2.60544 z m 17.3902,-16.50104 0,-8.68477 -8.6952,0 c -6.5697,0 -8.695,-0.6369 -8.695,-2.60544 0,-1.96854 2.1253,-2.60541 8.695,-2.60541 l 8.6952,0 0,-6.94782 c 0,-5.01787 0.7245,-6.94781 2.6084,-6.94781 1.884,0 2.6087,1.92994 2.6087,6.94781 l 0,6.94782 8.6949,0 c 6.5698,0 8.6951,0.63687 8.6951,2.60541 0,1.96854 -2.1253,2.60544 -8.6951,2.60544 l -8.6949,0 0,8.68477 c 0,6.56181 -0.6377,8.68475 -2.6087,8.68475 -1.9708,0 -2.6084,-2.12294 -2.6084,-8.68475 z m 613.8733,-136.94733 0,-156.05379 -27.3894,-1.13463 c -44.9858,-1.86355 -231.7243,-1.38749 -231.7243,0.59075 0,1.00357 -5.5069,1.73695 -13.0426,1.73695 l -13.0427,0 0,34.44554 0,34.44556 4.1832,2.23614 c 2.3009,1.22986 6.2625,6.05174 8.8038,10.71522 l 4.6204,8.47908 65.9739,0 65.9742,0 0,96.97683 0,96.9768 8.2604,5.34157 c 4.5433,2.93789 14.0935,8.93176 21.2231,13.31969 l 12.9626,7.9781 46.5988,0 46.5986,0 0,-156.05381 z m -198.248,115.18091 c 0,-14.27844 0.5468,-18.50213 2.4923,-19.24776 2.555,-0.97932 6.6315,1.24583 32.288,17.624 8.1298,5.18984 15.7597,9.44924 16.9554,9.46532 1.7112,0.0229 2.1739,-18.99963 2.1739,-89.40318 l 0,-89.43241 -66.4628,-0.45489 -66.4629,-0.45487 -1.4309,-7.2291 c -0.787,-3.97601 -2.5724,-8.17526 -3.9676,-9.3317 -2.2178,-1.83844 -2.5364,11.01619 -2.5364,102.32726 l 0,104.42984 43.4755,0 43.4755,0 0,-18.29251 z m -152.1642,-52.92255 0,-46.02925 -16.0859,-0.49942 -16.0858,-0.4994 0,47.02807 0,47.02808 16.0858,-0.49942 16.0859,-0.49942 0,-46.02924 z m -545.3583,9.98748 c 4.9061,-3.10481 14.0686,-8.96702 20.3609,-13.02716 6.2926,-4.06011 12.3464,-7.38389 13.4531,-7.38613 1.1066,-0.001 4.751,-2.34527 8.0987,-5.20676 3.3475,-2.86149 6.8691,-5.22174 7.8256,-5.24499 0.9564,-0.0233 7.723,-3.76984 15.0367,-8.32578 l 13.2981,-8.28346 -4.6029,-2.7845 c -14.2153,-8.59969 -49.3033,-30.36806 -56.7733,-35.2218 -4.7823,-3.10736 -13.1948,-8.12928 -18.6944,-11.15979 l -9.9994,-5.51008 0,53.89779 c 0,30.08858 0.6796,53.89775 1.5385,53.89775 0.8461,0 5.5525,-2.54029 10.4584,-5.64509 z m 3.3296,-19.10648 c -0.4221,-4.37349 -1.4488,-5.77308 -4.5578,-6.21325 -4.9031,-0.69418 -4.1079,-4.43148 1.1058,-5.19776 2.8906,-0.42481 3.7767,-1.74928 3.7767,-5.64508 0,-3.36654 0.8832,-5.09006 2.6085,-5.09006 1.739,0 2.6085,1.73696 2.6085,5.21086 0,4.92135 0.3864,5.21085 6.956,5.21085 5.024,0 6.9563,0.72375 6.9563,2.60543 0,1.8817 -1.9323,2.60544 -6.9563,2.60544 -6.7903,0 -6.956,0.14463 -6.956,6.07933 0,8.06084 -4.7693,8.43457 -5.5417,0.43424 z m -10.1095,-52.54282 c 0,-2.09882 2.7051,-2.60543 13.9123,-2.60543 11.2068,0 13.912,0.50661 13.912,2.60543 0,2.09881 -2.7052,2.60543 -13.912,2.60543 -11.2072,0 -13.9123,-0.50662 -13.9123,-2.60543 z m -279.98202,48.63467 0,-16.50104 -46.08392,0 -46.08401,0 0,16.50104 0,16.50106 46.08401,0 46.08392,0 0,-16.50106 z m -100.51906,-15.19833 0.52553,-9.11901 53.90961,0 53.9095,0 0.53014,8.25054 0.53001,8.25051 80.76908,0 80.76907,0 0,-104.21715 0,-104.21715 55.55764,0 55.5578,0 0.5256,-9.11899 0.5257,-9.119 54.7789,0 54.7792,0 0.53,8.25051 0.5302,8.25052 38.6848,0 c 27.7694,0 39.2735,0.58812 40.7716,2.08434 1.4973,1.49558 2.0868,12.94264 2.0868,40.52488 l 0,38.44052 4.1832,2.23616 c 2.3008,1.22987 6.2624,6.05174 8.8036,10.71525 l 4.6204,8.47906 186.9247,0 186.9246,0 2.368,-5.6451 c 2.9517,-7.0368 9.0288,-12.65863 15.2794,-14.13499 l 4.7824,-1.12952 -10e-5,-38.61411 0,-38.6141 128.6874,0.62251 c 93.3969,0.45179 128.6874,0.0945 128.6874,-1.30271 0,-1.28678 6.0553,-1.92523 18.2596,-1.92523 l 18.2597,0 0,-21.7119 0,-21.71192 -674.7699,0 -674.77001,0 0.46573,42.1211 0.46573,42.12111 9.56451,0.86846 9.56469,0.86847 0,53.84555 0,53.84552 -8.26044,0.52942 -8.26029,0.52939 0,29.43303 0,29.43303 31.21146,0 31.21135,0 0.52569,-9.119 z m 32.69743,-31.69939 0,-14.76409 7.47784,0 c 4.11276,0 8.41677,0.93795 9.5645,2.08434 2.85308,2.84966 2.62642,9.2018 -0.41859,11.72585 -2.16079,1.79123 -2.04215,2.8359 0.86304,7.59474 3.71956,6.0929 4.17299,8.12326 1.81422,8.12326 -0.86193,0 -3.18329,-2.7357 -5.15849,-6.07934 -2.23229,-3.77915 -4.92917,-6.07932 -7.12781,-6.07932 -2.88261,0 -3.53669,1.12436 -3.53669,6.07932 0,3.34364 -0.78261,6.07934 -1.73893,6.07934 -1.02294,0 -1.73909,-6.07934 -1.73909,-14.7641 z m 13.89373,-3.45179 c 3.31876,-3.994 0.79577,-7.83839 -5.144,-7.83839 -4.69808,0 -5.27171,0.56698 -5.27171,5.21085 0,4.32871 0.6999,5.21086 4.1347,5.21086 2.27405,0 5.10043,-1.16249 6.28101,-2.58332 z m 13.93056,16.25523 c 0,-1.07838 2.78635,-5.04105 6.19172,-8.80594 7.85623,-8.68574 7.6462,-14.17546 -0.57286,-14.96595 -7.3394,-0.70589 -5.50916,-3.79564 2.24821,-3.79564 10.87108,0 11.60374,8.76775 1.71401,20.50711 l -4.67321,5.54718 6.24121,0 c 3.43258,0 6.24108,0.78162 6.24108,1.73695 0,0.95533 -3.91272,1.73695 -8.69502,1.73695 -5.29876,0 -8.69514,-0.76584 -8.69514,-1.96066 z m -38.05669,-67.95168 c 0.15114,-2.94097 0.39863,-3.15589 0.99711,-0.86848 0.8819,3.37079 5.75727,4.22204 5.75727,1.00525 0,-1.11892 -1.25044,-3.41457 -2.77893,-5.10142 -2.87954,-3.17818 -2.03599,-6.77958 1.57724,-6.73318 1.27482,0.0163 1.06812,0.73511 -0.5374,1.86918 -1.69505,1.1974 -1.9336,2.12233 -0.68137,2.64147 1.06,0.43939 3.40766,1.94315 5.21711,3.34167 3.2229,2.491 3.22112,2.59588 -0.0862,5.14823 -5.13977,3.96691 -9.70492,3.33861 -9.46539,-1.30272 z m -29.36857,-13.46138 c 0.97111,-3.8213 2.25747,-6.94792 2.85839,-6.94805 0.60094,-1.1e-4 1.09266,-3.94223 1.09266,-8.76025 l 0,-8.76 8.6789,0.50971 c 6.78914,0.39875 8.8105,1.20148 9.28387,3.68676 0.97695,5.13 -1.29871,11.58706 -4.08367,11.58706 -1.41652,0 -2.57548,1.17246 -2.57548,2.60542 0,1.43299 0.7826,2.60544 1.73909,2.60544 0.95648,0 1.73909,1.88894 1.73909,4.19764 0,2.3087 0.9781,4.63307 2.17362,5.16528 1.19569,0.53221 0.21743,0.79274 -2.17362,0.57898 -3.54075,-0.31652 -4.50893,-1.51691 -5.21711,-6.46799 -0.65277,-4.56426 -1.80474,-6.21244 -4.6222,-6.61342 -2.94664,-0.41938 -4.00143,0.59746 -4.91112,4.73424 -0.63717,2.89757 -0.66301,6.06903 -0.0569,7.04766 0.60792,0.98244 -0.41989,1.77932 -2.29484,1.77932 -3.09663,0 -3.24029,-0.61199 -1.63006,-6.9478 z m 17.04592,-12.21882 c 4.10804,-4.73099 2.52836,-10.36157 -2.90699,-10.36157 -3.26238,0 -4.4189,1.15193 -5.23157,5.21086 -0.57395,2.86598 -1.72821,5.21086 -2.56509,5.21086 -0.83688,0 -1.52166,0.78163 -1.52166,1.73696 0,3.14617 9.09375,1.80941 12.22531,-1.79711 z m 316.4491,-107.63092 0,-15.63257 6.6866,0 c 10.4634,0 15.4359,7.40614 9.9779,14.86144 -1.3555,1.85171 -1.8998,4.15056 -1.2095,5.10859 0.6906,0.95804 2.1741,3.89136 3.2971,6.51851 3.0394,7.1111 -1.5062,6.26009 -4.8398,-0.90608 -1.6075,-3.45542 -4.1102,-5.82052 -6.5213,-6.16254 -3.4307,-0.48666 -3.9127,0.20883 -3.9127,5.64508 0,3.41009 -0.7827,6.20015 -1.7392,6.20015 -1.0306,0 -1.7391,-6.36882 -1.7391,-15.63258 z m 14.0332,-2.75102 c 3.0949,-3.72458 -0.021,-8.53916 -5.5275,-8.53916 -3.42,0 -4.2548,1.002 -4.7029,5.64509 -0.4804,4.97569 -0.042,5.64509 3.6997,5.64509 2.3348,0 5.2736,-1.23794 6.5307,-2.75102 z m 13.2115,17.22564 c -2.4211,-2.41826 -0.9314,-3.18441 6.1912,-3.18441 5.8112,0 7.4901,-0.68554 7.9989,-3.26579 0.745,-3.77809 -2.3628,-6.22282 -7.9586,-6.26085 -2.1521,-0.0147 -3.9128,-0.80824 -3.9128,-1.76357 0,-0.95531 1.4692,-1.73694 3.2652,-1.73694 4.2672,0 7.8472,-4.4139 6.4755,-7.98403 -0.8452,-2.20016 -2.507,-2.57695 -7.5853,-1.71984 -6.0609,1.02298 -6.2734,0.91783 -3.1272,-1.54708 4.0486,-3.17196 9.9249,-3.42927 12.7971,-0.56033 2.5682,2.56507 2.7196,8.74757 0.2742,11.19012 -1.2577,1.25612 -0.9914,2.49144 0.8695,4.03396 3.7393,3.09972 3.3524,10.00229 -0.6816,12.15866 -3.7725,2.01657 -12.8305,2.41353 -14.6061,0.6401 z m 12.7528,194.82819 0,-18.23801 -45.2144,0 -45.2145,0 0,18.23801 0,18.23798 45.2145,0 45.2144,0 0,-18.23798 z m 199.5799,-53.41131 c 0.3776,-39.38531 0.036,-48.20043 -1.8707,-48.20043 -3.8253,0 -10.6418,8.4994 -10.8625,13.54411 l -0.2052,4.6939 -62.0636,0.45621 -62.0635,0.45624 0.4799,26.22066 0.4798,26.22065 11.1086,6.00108 c 6.1098,3.30057 15.8917,9.06886 21.7378,12.8184 l 10.6291,6.81735 46.084,-0.41387 46.084,-0.41385 0.4623,-48.20045 z m -199.2041,7.81629 0.4937,-18.67225 4.5538,0.29576 c 2.5046,0.16275 13.5495,5.82946 24.5443,12.59292 10.9947,6.76342 20.8796,12.29714 21.9662,12.29714 1.3872,0 1.9758,-7.76151 1.9758,-26.05429 l 0,-26.05429 61.7782,0 61.778,0 1.8067,-4.77662 c 2.5885,-6.84367 9.957,-13.98287 15.7419,-15.25194 l 4.9728,-1.09089 0,-34.60105 0,-34.60104 -36.4365,0 -36.4365,0 -0.5177,10.85597 -0.5177,10.85595 -54.7792,0 -54.7789,0 -0.5216,-9.98748 -0.5214,-9.98748 -51.2144,0 -51.21419,0 0,76.42592 0,76.42591 43.41649,0 43.4168,0 0.4934,-18.67224 z m -421.21815,-48.20043 0,-46.02925 -16.52071,0 -16.52072,0 0,46.02925 0,46.02925 16.52072,0 16.52071,0 0,-46.02925 z m 539.09555,-90.32153 0,-16.50107 -46.084,0 -46.0839,0 0,16.50107 0,16.50104 46.0839,0 46.084,0 0,-16.50104 z M 837.40698,871.72211 C 813.7521,852.794 813.65127,851.15182 836.1027,850.49355 l 16.95545,-0.49713 0,-55.51959 0,-55.51958 -17.39005,0 c -17.39028,0 -17.39028,0 -17.39028,-4.34239 l 0,-4.34237 40.11836,0 40.11836,0 -0.55574,3.90813 c -0.52964,3.72497 -1.39231,3.93136 -18.40488,4.40343 l -17.84938,0.49527 0.45909,55.0872 0.45922,55.08721 18.12036,0.86847 c 11.21643,0.53757 18.36807,1.61678 18.77029,2.83244 0.74485,2.25193 -38.37837,33.71204 -41.67368,33.51103 -1.1952,-0.073 -10.38995,-6.70751 -20.43284,-14.74356 z m 43.33057,-12.35337 c 0.3984,-0.30897 -9.30124,-0.56177 -21.55516,-0.56177 l -22.27993,0 11.12113,8.43829 11.12113,8.43831 10.43415,-7.87655 c 5.73877,-4.3321 10.76028,-8.12933 11.15868,-8.43828 z m 645.32065,-37.03778 0,-15.63257 6.6865,0 c 10.4635,0 15.4359,7.40612 9.9779,14.86144 -1.3556,1.8517 -1.8998,4.15056 -1.2094,5.1086 0.6903,0.95801 2.174,3.89135 3.2969,6.51849 3.0396,7.11111 -1.5063,6.2601 -4.8397,-0.90606 -1.6076,-3.45544 -4.1102,-5.82054 -6.5215,-6.16255 -3.4307,-0.48667 -3.9127,0.20882 -3.9127,5.64509 0,3.41008 -0.7825,6.20015 -1.739,6.20015 -1.0306,0 -1.739,-6.36884 -1.739,-15.63259 z m 13.9716,-3.58492 c 2.4505,-4.57337 -0.5164,-8.57373 -6.359,-8.57373 -3.5659,0 -4.1346,0.83616 -4.1346,6.07932 0,5.30352 0.547,6.07933 4.2864,6.07933 2.5507,0 5.0642,-1.45154 6.2072,-3.58492 z m 14.7659,15.79177 c -4.5239,-4.99275 -2.8924,-20.30103 2.6403,-24.77582 4.1713,-3.37372 12.249,-3.56659 13.3145,-0.31788 0.3808,1.16054 -1.3119,1.59465 -4.4333,1.13705 -3.8209,-0.56013 -5.7359,0.23913 -7.8724,3.28587 -4.118,5.87219 -3.5881,6.72698 4.1699,6.72698 5.741,0 7.3424,0.76492 8.9419,4.27124 4.4822,9.82589 -9.3759,17.82329 -16.7609,9.67256 z m 12.816,-2.43345 c 3.1714,-3.81674 0.4016,-8.03643 -5.2749,-8.03643 -5.7578,0 -8.2273,3.90393 -4.9578,7.83839 2.6883,3.23556 7.6292,3.33118 10.2327,0.19804 z m 126.2017,-33.05122 c -2.654,-1.93836 -3.4692,-5.12383 -4.0003,-15.63259 -0.4505,-8.90829 -0.041,-13.19817 1.2618,-13.19817 1.2007,0 1.9289,3.97788 1.9289,10.5359 0,12.39979 2.1216,17.25534 7.539,17.25534 6.4201,0 8.1123,-3.33328 8.1123,-15.97996 0,-6.71621 0.75,-11.81128 1.7389,-11.81128 1.0017,0 1.7391,5.41062 1.7391,12.75794 0,10.15377 -0.6492,13.34473 -3.1802,15.63258 -3.8879,3.51444 -10.6605,3.71137 -15.1395,0.44024 z m 28.7537,0.69746 c 0,-0.95534 1.5652,-1.73698 3.4781,-1.73698 3.099,0 3.478,-1.15796 3.478,-10.62428 0,-9.76916 -0.2799,-10.5512 -3.478,-9.71585 -1.9129,0.49964 -3.4781,0.24432 -3.4781,-0.56741 0,-1.62697 6.9356,-6.8837 9.0821,-6.8837 0.7437,0 1.3522,6.25303 1.3522,13.89562 0,12.73766 0.2897,13.89562 3.478,13.89562 1.9127,0 3.478,0.78164 3.478,1.73698 0,0.95531 -3.9128,1.73693 -8.6951,1.73693 -4.7823,0 -8.6952,-0.78162 -8.6952,-1.73693 z m 24.3464,-13.89563 0,-15.63259 6.2009,0 c 10.7286,0 16.5829,6.07657 11.1156,11.53752 -1.2576,1.25612 -0.9915,2.49142 0.8694,4.03397 1.4753,1.22287 2.6823,4.02595 2.6823,6.22905 0,6.21267 -4.5239,9.46461 -13.1668,9.46461 l -7.7014,0 0,-15.63256 z m 14.6394,11.10434 c 4.1898,-1.60585 3.2866,-7.46105 -1.4859,-9.63297 -6.0994,-2.77575 -9.6755,-0.77179 -9.6755,5.42192 0,4.41096 0.6823,5.26536 4.2053,5.26536 2.3129,0 5.4432,-0.47441 6.9561,-1.05431 z m 0.045,-16.15847 c 2.0522,-3.3167 -1.2403,-7.10454 -6.1756,-7.10454 -4.2071,0 -5.031,0.71115 -5.031,4.34238 0,3.64752 0.8184,4.34239 5.1144,4.34239 2.8129,0 5.5544,-0.71111 6.0922,-1.58023 z m -707.6832,-8.84149 c 0.94,-2.95852 0.3125,-3.47391 -4.2305,-3.47391 -5.6067,0 -7.6499,-4.43235 -2.8848,-6.25865 1.3471,-0.51633 3.3983,-3.22751 4.5584,-6.02485 3.0975,-7.46906 5.1618,-6.21093 5.1921,3.1645 0.02,5.96725 0.493,7.52949 1.7124,5.64508 1.4405,-2.22659 1.6895,-2.16345 1.7123,0.43424 0.016,1.67182 -0.8087,3.03968 -1.8297,3.03968 -1.0647,0 -1.3855,1.48108 -0.7522,3.47391 0.7966,2.50686 0.3125,3.47389 -1.7391,3.47389 -2.0514,0 -2.5355,-0.96703 -1.7389,-3.47389 z m 0.8693,-9.55324 c 0,-5.24905 -0.7123,-5.36766 -5.2169,-0.86847 -4.5045,4.49916 -4.3857,5.21086 0.8696,5.21086 3.478,0 4.3473,-0.8685 4.3473,-4.34239 z m -38.491,-2.1712 c 0.8957,-1.67181 2.1859,-6.7524 2.8671,-11.29018 0.6812,-4.5378 1.9323,-8.25053 2.7801,-8.25053 2.371,0 1.8267,-6.53613 -0.6321,-7.59 -1.1957,-0.51242 2.1303,-0.77295 7.3907,-0.57897 9.4826,0.34967 9.5694,0.40226 10.1195,6.12905 0.4521,4.70848 -0.1413,5.95821 -3.2113,6.76005 -3.1311,0.81781 -3.5912,1.85733 -2.7287,6.16517 0.5708,2.84983 1.0377,6.19892 1.0377,7.44246 0,1.24352 1.3694,2.658 3.0433,3.14326 1.7575,0.5096 1.2067,0.74684 -1.3045,0.5616 -3.5552,-0.26226 -4.5057,-1.4249 -5.2168,-6.38033 -0.891,-6.20908 -6.9562,-10.12352 -6.9562,-4.48946 0,1.50302 -0.7825,2.73279 -1.739,2.73279 -2.5161,0 -2.1413,6.49621 0.4346,7.53441 1.1957,0.48185 0,0.9378 -2.6695,1.01322 -4.0904,0.11585 -4.5904,-0.33556 -3.2149,-2.90254 z m 18.089,-17.80375 c 1.6379,-1.91066 2.203,-3.47391 1.256,-3.47391 -0.9471,0 -1.722,-1.22681 -1.722,-2.72624 0,-1.82293 -1.2753,-2.54232 -3.8484,-2.17119 -2.7634,0.39853 -4.1725,2.14685 -4.9975,6.20014 -1.0126,4.97523 -0.7051,5.6451 2.5925,5.6451 2.0577,0 5.0814,-1.56326 6.7194,-3.4739 z m -384.78913,-12.15867 0,-15.63257 6.68661,0 c 10.51185,0 15.60855,7.52243 9.59405,14.16049 -1.90404,2.10148 -2.30509,3.87456 -1.20951,5.34764 0.90156,1.21207 2.55794,4.35326 3.68083,6.98038 3.03943,7.1111 -1.50623,6.26009 -4.83979,-0.90606 -1.60747,-3.45545 -4.11031,-5.82053 -6.52129,-6.16255 -3.43074,-0.48666 -3.91288,0.20883 -3.91288,5.6451 0,3.41006 -0.78245,6.20014 -1.73893,6.20014 -1.03059,0 -1.73909,-6.36883 -1.73909,-15.63257 z m 13.70355,-3.08453 c 2.33286,-4.35395 -0.76962,-9.07415 -5.96441,-9.07415 -3.7104,0 -4.26112,0.78557 -4.26112,6.07934 0,5.3035 0.54698,6.07934 4.28647,6.07934 2.35735,0 5.03002,-1.38804 5.93906,-3.08453 z m 14.12072,16.98015 c 0,-0.95534 1.56506,-1.73695 3.47802,-1.73695 3.09583,0 3.47803,-1.15799 3.47803,-10.53878 0,-9.74832 -0.26081,-10.45607 -3.47803,-9.43619 -1.91296,0.60643 -3.47802,0.35819 -3.47802,-0.55164 0,-1.55297 7.47182,-7.26463 9.50342,-7.26463 0.51188,0 0.93065,6.25302 0.93065,13.89562 0,12.73763 0.28991,13.89562 3.47802,13.89562 1.91297,0 3.47802,0.78161 3.47802,1.73695 0,0.95531 -3.91271,1.73695 -8.69497,1.73695 -4.78242,0 -8.69514,-0.78164 -8.69514,-1.73695 z m 1359.62236,-4.99523 c 1.4182,-0.8979 2.4313,-5.26733 2.6085,-11.24951 0.1813,-6.12123 1.0493,-9.78663 2.3192,-9.79546 2.0456,-0.0147 1.875,6.34815 -0.4306,16.05271 -1.498,6.30558 3.1075,6.57855 5.9477,0.35252 2.4918,-5.46239 2.5723,-8.90746 0.2356,-10.06499 -0.9803,-0.48561 -0.7847,-0.66502 0.4347,-0.39868 2.9956,0.65423 2.4941,13.09584 -0.607,15.05776 -1.316,0.83257 -4.7405,1.51376 -7.6097,1.51376 -3.5109,0 -4.4587,-0.48016 -2.8984,-1.46811 z m 21.7225,-6.71675 c 0.1678,-5.00859 0.8919,-9.11214 1.6093,-9.119 0.7173,-0.006 1.328,1.35539 1.3571,3.02721 0.05,2.89493 0.1381,2.89493 1.8255,0 2.2499,-3.85862 7.1177,-4.10723 5.6506,-0.2886 -0.7357,1.91501 -1.434,2.14172 -2.2975,0.74598 -1.113,-1.79867 -4.2882,3.33964 -7.499,12.13553 -0.5231,1.43299 -0.8138,-1.49251 -0.646,-6.50112 z m 16.2522,4.49802 c -1.5088,-5.76199 3.4598,-13.95746 8.0647,-13.3029 3.2181,0.45742 3.7786,1.58794 3.5966,7.25204 -0.1182,3.69059 -1.2926,7.39136 -2.6085,8.22394 -4.1581,2.63064 -8.0392,1.69905 -9.0528,-2.17308 z m 8.8324,-2.77353 c 1.9171,-5.57278 1.0881,-9.11899 -2.1312,-9.11899 -2.6705,0 -4.3887,3.79556 -4.3887,9.6953 0,5.76012 4.4763,5.36443 6.5199,-0.57631 z m 11.4347,-1.72449 c 0.168,-5.00859 0.892,-9.11214 1.6093,-9.119 0.7175,-0.006 1.3282,1.35539 1.3572,3.02721 0.051,2.89493 0.1365,2.89493 1.8254,0 0.9749,-1.67182 3.2988,-3.03968 5.1641,-3.03968 2.6092,0 3.3917,1.20222 3.3917,5.21088 0,2.86595 -0.7825,5.21086 -1.739,5.21086 -0.9565,0 -1.739,1.17242 -1.739,2.60541 0,2.93345 4.4506,3.5653 5.8113,0.82506 0.4862,-0.97921 0.6858,-0.7838 0.4432,0.43423 -0.2423,1.21805 -2.2388,2.47735 -4.4368,2.79845 -3.814,0.55715 -3.942,0.22 -2.8006,-7.38205 0.7054,-4.69802 0.5201,-7.96587 -0.4515,-7.96587 -1.4597,0 -5.0636,6.42924 -7.7891,13.89562 -0.5232,1.43299 -0.8138,-1.49251 -0.6462,-6.50112 z m -77.0812,-15.73187 c 0,-8.22157 -0.8205,-14.36771 -2.0868,-15.63258 -1.6232,-1.62116 -0.847,-2.08435 3.4927,-2.08435 4.8713,0 5.3408,0.38592 3.6984,3.03967 -1.255,2.02775 -1.3702,5.93089 -0.3463,11.72442 l 1.535,8.68477 4.7951,-9.96582 c 2.6374,-5.48119 4.3055,-10.75719 3.707,-11.72442 -0.6382,-1.03135 0.9319,-1.73578 3.7966,-1.70339 4.2751,0.0483 4.5285,0.32621 2.0292,2.22576 -1.5706,1.19376 -4.9916,6.44489 -7.6021,11.66919 -2.6107,5.22428 -5.6296,11.25126 -6.7089,13.39327 -4.0312,8.00057 -6.3099,4.5242 -6.3099,-9.62652 z m -546.4271,5.64633 c -0.5256,-0.52477 -0.2204,-4.2215 0.6779,-8.21498 0.8985,-3.99347 1.2711,-8.64472 0.8282,-10.3361 -0.5623,-2.14814 0.1944,-3.07521 2.5102,-3.07521 1.8233,0 3.3153,0.78161 3.3153,1.73694 0,0.95533 -0.7827,1.73695 -1.7391,1.73695 -0.9565,0 -1.739,1.17244 -1.739,2.60543 0,1.43299 0.8384,2.60544 1.8633,2.60544 1.0247,0 0.6334,1.22826 -0.8696,2.72949 -4.2027,4.19785 -3.5622,9.79268 1.0438,9.11573 4.8237,-0.70891 8.2798,-9.67218 4.6958,-12.17837 -1.9496,-1.36324 -1.9088,-1.53085 0.2228,-0.91673 3.2709,0.94241 3.0519,11.50865 -0.2823,13.61956 -2.6296,1.66482 -9.0822,2.01531 -10.5273,0.57185 z m 19.9771,-2.05858 c -1.8756,-4.88167 3.4361,-11.69821 9.5811,-12.29572 4.1495,-0.40348 5.5977,0.15827 5.5977,2.17117 0,1.49353 -0.8288,2.7155 -1.8418,2.7155 -1.0129,0 -1.3208,-0.84157 -0.6845,-1.87016 0.7491,-1.21062 -0.5945,-1.67004 -3.8099,-1.30272 -4.1899,0.47861 -5.0529,1.45122 -5.5124,6.21254 -0.628,6.50386 1.5684,7.19916 6.395,2.0246 3.0873,-3.31001 3.3542,-3.34722 3.111,-0.43424 -0.1677,2.00816 0.6985,2.97219 2.3426,2.60729 1.4345,-0.31845 2.0614,-0.0326 1.3928,0.63515 -0.6685,0.66779 -4.4335,1.45387 -8.3668,1.74686 -5.2591,0.39179 -7.4299,-0.19296 -8.2048,-2.21027 z m 24.5132,-6.89153 c 0.4017,-2.10368 -0.1648,-4.19146 -1.2588,-4.63951 -1.37,-0.5611 -1.3126,-0.85728 0.1847,-0.95174 1.1955,-0.0753 2.1737,-1.30957 2.1737,-2.74256 0,-1.43299 1.3694,-2.54371 3.0433,-2.4683 1.8179,0.0819 2.1682,0.48985 0.8695,1.01321 -3.4367,1.38504 -2.5373,3.74896 1.7391,4.57165 3.6665,0.70537 3.6832,0.76762 0.2657,0.98928 -2.0059,0.13015 -4.5696,1.9952 -5.6972,4.14467 l -2.0504,3.90815 0.7304,-3.82485 z m -64.9831,-12.79037 c 0,-6.75007 -0.81,-13.78474 -1.8002,-15.63257 -1.617,-3.01802 -1.2191,-3.33924 3.9129,-3.15825 3.1421,0.11081 4.3884,0.55031 2.7695,0.97663 -2.4449,0.64388 -2.8867,2.77897 -2.6084,12.61021 l 0.3347,11.83509 4.1079,-4.42667 c 2.2594,-2.43466 4.8792,-6.63668 5.8219,-9.3378 0.9428,-2.70111 2.4202,-4.91113 3.2831,-4.91113 2.3773,0 1.8769,-4.7972 -0.6049,-5.79746 -1.1957,-0.48185 0.1739,-0.8761 3.0432,-0.8761 2.8694,0 4.2388,0.39425 3.0433,0.8761 -1.1955,0.48186 -2.1738,2.33537 -2.1738,4.11894 0,1.78358 -1.034,3.86792 -2.2979,4.63189 -1.264,0.76395 -4.0728,5.10175 -6.2417,9.63953 -2.169,4.5378 -5.0939,8.25054 -6.4998,8.25054 -1.4058,0 -2.0724,0.78161 -1.4813,1.73695 0.5912,0.95532 0.246,1.73695 -0.7669,1.73695 -1.1224,0 -1.8416,-4.79298 -1.8416,-12.27285 z m -567.22421,1.78491 c -1.6021,-0.93363 -3.81472,-4.4272 -4.9171,-7.76347 -2.41171,-7.29884 0.21053,-17.283 5.24631,-19.9749 4.76223,-2.54563 11.4139,-2.09484 13.93949,0.9447 1.95089,2.34781 1.39194,2.53651 -4.65339,1.57099 -5.12172,-0.81804 -7.44638,-0.40391 -9.13405,1.62711 -3.25652,3.91917 -2.80309,14.59282 0.78819,18.55648 3.27942,3.61941 8.58988,4.45742 10.33848,1.6314 0.5912,-0.95531 1.93255,-1.73694 2.98063,-1.73694 1.04832,0 0.48963,1.56325 -1.2415,3.47391 -3.38604,3.73699 -8.6672,4.39804 -13.34706,1.67072 z m 22.91152,0.2688 c 0,-0.8439 1.56504,-1.94317 3.47801,-2.44281 3.00081,-0.78377 3.47813,-2.36923 3.47813,-11.55388 0,-10.1072 -0.17593,-10.55145 -3.47813,-8.78627 -4.35237,2.32662 -4.54012,-0.23856 -0.29782,-4.07318 6.03894,-5.45863 7.25396,-3.61267 7.25396,11.02099 0,12.87042 0.26421,13.89563 3.58069,13.89563 1.96935,0 3.09696,0.78161 2.50589,1.73694 -1.32534,2.14188 -16.52073,2.32821 -16.52073,0.20258 z m 290.98439,-29.02017 c -0.584,-1.51982 0.2348,-5.47877 1.8193,-8.79768 2.3944,-5.01542 3.6841,-5.94194 7.6375,-5.4872 4.312,0.49601 4.7363,1.17413 4.5407,7.25727 -0.1182,3.69059 -1.2925,7.39138 -2.6085,8.22393 -3.8786,2.45383 -10.2436,1.78521 -11.389,-1.19632 z m 11.1686,-3.75028 c 2.0669,-6.00836 1.0433,-9.11899 -3.0007,-9.11899 -3.4743,0 -5.2582,3.28909 -5.2582,9.69531 0,6.06701 6.1205,5.63991 8.2589,-0.57632 z m 11.3201,-2.15873 c 0.2309,-4.76976 1.1131,-8.67789 1.9604,-8.68476 0.8473,-0.006 1.0658,3.44735 0.4856,7.67602 -0.7242,5.27719 -0.3892,7.95789 1.0679,8.54762 1.2136,0.4912 0.8258,0.91791 -0.9053,0.9963 -2.545,0.11524 -2.9613,-1.24663 -2.6086,-8.53518 z m 9.239,7.13596 c -0.5229,-0.84497 0.2106,-4.55771 1.6299,-8.25052 l 2.5807,-6.71418 -1.016,7.38205 c -0.6138,4.45919 -0.3243,7.38205 0.7309,7.38205 0.9609,0 2.0965,-0.97703 2.5234,-2.17119 0.4271,-1.19416 1.4477,-1.54246 2.2684,-0.77404 0.8205,0.76845 0.3408,2.12433 -1.0662,3.01307 -3.2482,2.05175 -6.4296,2.10694 -7.6511,0.13276 z m 13.331,-6.12727 c 0.5076,-4.49802 0.1806,-7.96895 -0.7505,-7.96895 -0.9072,0 -0.4756,-1.17244 0.959,-2.60543 1.4347,-1.43299 3.6426,-2.59346 4.9066,-2.57884 1.7903,0.0207 1.7556,0.36951 -0.1577,1.57927 -1.9001,1.20142 -1.5067,1.73126 1.7391,2.34228 3.7202,0.70029 3.775,0.8164 0.4847,1.02618 -3.6172,0.23064 -5.7782,4.34134 -5.8309,11.0925 -0.026,3.26141 4.3236,4.2077 5.7876,1.25929 0.4862,-0.97922 0.6857,-0.78382 0.4434,0.43424 -0.2423,1.21803 -2.2495,2.47872 -4.4604,2.8015 -3.807,0.5558 -3.9725,0.16467 -3.1208,-7.38204 z m -64.7562,-16.30632 c 0,-8.22158 -0.8205,-14.36771 -2.0869,-15.63257 -1.623,-1.62115 -0.7763,-2.08435 3.8105,-2.08435 5.2244,0 5.5491,0.2542 2.8463,2.22821 -2.5359,1.85217 -2.8477,3.75766 -1.8474,11.2902 0.6621,4.98411 1.8154,9.06198 2.5635,9.06198 0.7478,0 3.1365,-3.71274 5.3077,-8.25052 2.1715,-4.5378 4.7847,-8.83677 5.807,-9.55325 1.2462,-0.87319 0.999,-1.86662 -0.7495,-3.01307 -2.0425,-1.3392 -1.562,-1.71613 2.2138,-1.73697 l 4.8225,-0.0265 -3.0609,4.77661 c -1.6834,2.62715 -4.0493,5.80948 -5.2571,7.07187 -1.2081,1.26239 -2.1963,3.29772 -2.1963,4.52297 0,1.22527 -1.9565,4.33621 -4.3476,6.91324 -2.3912,2.57704 -4.3476,5.42687 -4.3476,6.33296 0,0.9061 -0.7825,1.64746 -1.739,1.64746 -1.0108,0 -1.739,-5.67405 -1.739,-13.54823 z M 570.01067,627.07647 c 0.57054,-5.05482 0.22003,-7.96896 -0.95843,-7.96896 -1.02182,0 -0.33866,-1.14759 1.51792,-2.55018 1.85658,-1.4026 4.15825,-2.56308 5.11457,-2.57883 0.95649,-0.0162 0.83754,0.5456 -0.26423,1.24747 -1.10176,0.70187 -2.56005,4.98885 -3.24076,9.52665 -1.01791,6.7867 -0.76523,8.25051 1.42368,8.25051 1.46364,0 3.05892,-0.80117 3.54513,-1.78037 0.48621,-0.97919 0.68575,-0.78381 0.4433,0.43424 -0.24229,1.21803 -2.2495,2.47872 -4.46051,2.8015 -3.80692,0.55581 -3.97218,0.16467 -3.12067,-7.38203 z m -20.93442,-16.22145 c -0.38822,-9.98693 -1.25923,-14.01959 -3.37566,-15.63062 -2.49407,-1.89841 -2.24105,-2.17117 2.01357,-2.17117 3.78027,0 4.62366,0.63073 3.77995,2.82686 -1.85073,4.81722 0.82566,19.60166 3.3719,18.62578 1.23485,-0.47332 2.72206,-2.75809 3.30479,-5.07728 0.58273,-2.31917 1.75405,-4.21669 2.60263,-4.21669 2.65446,0 -0.0959,6.80199 -4.39502,10.87288 -2.26071,2.14017 -4.12379,4.86824 -4.14038,6.0624 -0.0163,1.19416 -0.61686,2.1703 -1.3343,2.16922 -0.71728,-0.001 -1.5397,-6.05873 -1.82748,-13.46138 z m 14.05476,-12.38393 c 0.27071,-3.84888 1.25922,-5.41196 3.42389,-5.4144 3.95969,-0.005 3.84805,2.01211 -0.38073,6.88215 l -3.42391,3.94323 0.38075,-5.41098 z m 966.40519,-27.99825 0,-15.63257 6.8318,0 c 10.3826,0 16.2997,8.4156 9.7403,13.85295 -2.2321,1.85028 -2.1215,2.9721 0.8695,8.82822 3.9107,7.65645 4.0946,8.58398 1.7012,8.58398 -0.9489,0 -3.1071,-2.93111 -4.7959,-6.51357 -2.0368,-4.32066 -4.237,-6.51358 -6.5351,-6.51358 -2.7478,0 -3.5758,1.34697 -4.004,6.51358 -1.0608,12.80247 -3.8078,6.22398 -3.8078,-9.11901 z m 14.7767,-5.19531 c 1.5558,-4.89566 -0.2807,-6.96335 -6.1842,-6.96335 -4.5234,0 -5.1144,0.60222 -5.1144,5.21086 0,4.60526 0.5926,5.21085 5.0997,5.21085 3.5651,0 5.4308,-1.04089 6.1989,-3.45836 z m 13.0485,18.22351 c -1.8682,-2.24823 -1.4222,-2.45616 3.2608,-1.52068 6.4457,1.28762 10.6505,-1.5517 10.6505,-7.19198 0,-4.21734 -2.9432,-6.05249 -9.7069,-6.05249 -3.7468,0 -4.2054,-0.75745 -4.2054,-6.94781 l 0,-6.94781 7.8256,0 c 4.3042,0 7.8256,0.78164 7.8256,1.73695 0,0.95533 -2.739,1.73696 -6.0865,1.73696 -4.9272,0 -6.0867,0.6617 -6.0867,3.4739 0,2.35279 1.1595,3.47391 3.5925,3.47391 6.8096,0 10.3198,3.23667 10.3198,9.51586 0,9.32278 -11.9218,15.30328 -17.3893,8.72319 z"
       id="path4304"
       inkscape:connector-curvature="0" />
    <text
       xml:space="preserve"
       style="font-style:normal;font-variant:normal;font-weight:normal;font-stretch:normal;font-size:163.28605652px;line-height:125%;font-family:'Courier 10 Pitch';-inkscape-font-specification:'Courier 10 Pitch';letter-spacing:0px;word-spacing:0px;fill:#000000;fill-opacity:1;stroke:none;stroke-width:1px;stroke-linecap:butt;stroke-linejoin:miter;stroke-opacity:1"
       x="857.01837"
       y="178.75153"
       id="text5124"
       sodipodi:linespacing="125%"><tspan
         sodipodi:role="line"
         id="tspan5126"
         x="857.01837"
         y="178.75153">Druksensor</tspan></text>
    <path
       style="display:inline;fill:none;stroke:#ff0000;stroke-width:0.17018947;stroke-miterlimit:4;stroke-dasharray:none;stroke-opacity:1"
       id="path4152-3-5-3"
       sodipodi:type="arc"
       sodipodi:cx="35.246834"
       sodipodi:cy="16.169807"
       sodipodi:rx="4.8851757"
       sodipodi:ry="11.282958"
       sodipodi:start="0.043990135"
       sodipodi:end="3.080903"
       d="M 40.127284,16.665986 A 4.8851757,11.282958 0 0 1 35.287623,27.452372 4.8851757,11.282958 0 0 1 30.370652,16.854146"
       sodipodi:open="true"
       transform="matrix(0,1,1,0,0,0)" />
    <path
       style="display:inline;fill:none;stroke:#ff0000;stroke-width:0.17018947;stroke-miterlimit:4;stroke-dasharray:none;stroke-opacity:1"
       id="path4152-3-5-3-6"
       sodipodi:type="arc"
       sodipodi:cx="108.43143"
       sodipodi:cy="16.497276"
       sodipodi:rx="4.8851757"
       sodipodi:ry="11.282958"
       sodipodi:start="0.043990135"
       sodipodi:end="3.080903"
       d="m 113.31188,16.993455 a 4.8851757,11.282958 0 0 1 -4.83966,10.786386 4.8851757,11.282958 0 0 1 -4.91697,-10.598226"
       sodipodi:open="true"
       transform="matrix(0,1,1,0,0,0)" />
    <path
       style="display:inline;fill:none;stroke:#ff0000;stroke-width:0.17018947;stroke-miterlimit:4;stroke-dasharray:none;stroke-opacity:1"
       id="path4152-3-5-3-7"
       sodipodi:type="arc"
       sodipodi:cx="192.7202"
       sodipodi:cy="16.797127"
       sodipodi:rx="4.8851757"
       sodipodi:ry="11.282958"
       sodipodi:start="0.043990135"
       sodipodi:end="3.080903"
       d="m 197.60065,17.293306 a 4.8851757,11.282958 0 0 1 -4.83966,10.786385 4.8851757,11.282958 0 0 1 -4.91697,-10.598226"
       sodipodi:open="true"
       transform="matrix(0,1,1,0,0,0)" />
    <path
       style="display:inline;fill:none;stroke:#ff0000;stroke-width:0.17018947;stroke-miterlimit:4;stroke-dasharray:none;stroke-opacity:1"
       id="path4152-3-5-3-5"
       sodipodi:type="arc"
       sodipodi:cx="31.879421"
       sodipodi:cy="-515.20447"
       sodipodi:rx="4.8851757"
       sodipodi:ry="11.282958"
       sodipodi:start="0.043990135"
       sodipodi:end="3.080903"
       d="m 36.759871,-514.70829 a 4.8851757,11.282958 0 0 1 -4.83966,10.78639 4.8851757,11.282958 0 0 1 -4.916972,-10.59823"
       sodipodi:open="true"
       transform="matrix(0,1,-1,0,0,0)" />
    <path
       style="display:inline;fill:none;stroke:#ff0000;stroke-width:0.17018947;stroke-miterlimit:4;stroke-dasharray:none;stroke-opacity:1"
       id="path4152-3-5-3-6-3"
       sodipodi:type="arc"
       sodipodi:cx="105.06401"
       sodipodi:cy="-514.87695"
       sodipodi:rx="4.8851757"
       sodipodi:ry="11.282958"
       sodipodi:start="0.043990135"
       sodipodi:end="3.080903"
       d="m 109.94446,-514.38077 a 4.8851757,11.282958 0 0 1 -4.83966,10.78638 4.8851757,11.282958 0 0 1 -4.91697,-10.59822"
       sodipodi:open="true"
       transform="matrix(0,1,-1,0,0,0)" />
    <path
       style="display:inline;fill:none;stroke:#ff0000;stroke-width:0.17018947;stroke-miterlimit:4;stroke-dasharray:none;stroke-opacity:1"
       id="path4152-3-5-3-7-5"
       sodipodi:type="arc"
       sodipodi:cx="189.3528"
       sodipodi:cy="-514.57715"
       sodipodi:rx="4.8851757"
       sodipodi:ry="11.282958"
       sodipodi:start="0.043990135"
       sodipodi:end="3.080903"
       d="m 194.23325,-514.08097 a 4.8851757,11.282958 0 0 1 -4.83966,10.78639 4.8851757,11.282958 0 0 1 -4.91697,-10.59823"
       sodipodi:open="true"
       transform="matrix(0,1,-1,0,0,0)" />
    <rect
       style="display:inline;fill:none;fill-rule:evenodd;stroke:#ff0000;stroke-width:0.30779576;stroke-linecap:butt;stroke-linejoin:miter;stroke-miterlimit:4;stroke-dasharray:none;stroke-opacity:1"
       id="rect3336-7-9-3-9"
       width="233.55054"
       height="176.85757"
       x="265.90198"
       y="662.75232" />
    <path
       style="display:inline;fill:#000000"
       d="m 367.41941,810.82269 c 0.1194,-16.39688 0.30037,-107.52751 0.21332,-107.43568 -0.0365,0.0388 -2.50825,11.44593 -5.49212,25.34902 -2.9838,13.90307 -5.4996,25.35537 -5.59058,25.44955 -0.091,0.0942 -3.59658,0.25171 -7.79015,0.3501 l -7.62468,0.17887 0,-1.06312 0,-1.06312 6.79128,-0.19378 c 3.7353,-0.10657 6.82691,-0.22931 6.87031,-0.27275 0.0437,-0.0434 3.41702,-15.58546 7.49681,-34.53782 4.0798,-18.95236 7.46162,-34.5825 7.51517,-34.73361 0.0535,-0.15112 0.0374,26.92692 -0.0356,60.17342 -0.0731,33.2465 -0.0713,60.38637 0,60.31081 0.0749,-0.0756 2.77598,-11.54355 6.00188,-25.48442 l 5.86528,-25.34702 5.16109,0 5.16108,0 0,1.09906 0,1.09906 -4.3962,0 c -3.95183,0 -4.39629,0.0471 -4.39629,0.46637 0,0.2565 -1.92834,8.75703 -4.28527,18.89006 -2.35693,10.13303 -4.44931,19.16555 -4.6498,20.07227 -1.03567,4.68464 -6.74305,29.09584 -6.82084,29.17355 -0.0499,0.0497 -0.049,-5.56665 0,-12.48082 z m 100.43278,-56.13237 c -2.11091,-0.42962 -4.18217,-2.06849 -5.02644,-3.97724 -1.08023,-2.44195 -1.1434,-6.64015 -0.13509,-8.98421 0.60557,-1.40794 1.95899,-2.88225 3.29896,-3.5936 1.59187,-0.84509 5.04962,-0.84977 6.62037,-0.009 2.29037,1.22599 3.67614,3.55829 3.92011,6.59793 l 0.13918,1.7341 -6.53188,0 -6.53198,0 0.16957,1.23731 c 0.34582,2.52269 2.22292,4.87363 4.18538,5.24179 0.54711,0.10264 1.72874,0.12007 2.62586,0.0388 1.80215,-0.16342 3.36961,-1.10142 3.81995,-2.28598 0.1889,-0.49685 0.4572,-0.65991 1.08575,-0.65991 l 0.83474,0 -0.43038,1.03037 c -1.17343,2.80894 -4.56265,4.33824 -8.0441,3.62969 z m 6.94418,-10.77356 c -1.00609,-4.6614 -5.95759,-6.41888 -9.25139,-3.28369 -0.90879,0.86509 -1.86489,2.82011 -1.86489,3.81347 0,0.28933 1.15018,0.3632 5.65456,0.3632 l 5.65446,0 -0.19274,-0.89298 z m -181.53896,10.58253 c -1.28455,-0.10128 -1.30513,-0.11785 -1.30513,-1.04953 l 0,-0.94662 2.14236,0 2.14228,0 6.8262,-29.05633 c 3.75438,-15.98099 7.39613,-31.51256 8.09267,-34.51461 l 1.26645,-5.45826 0.0695,34.5146 0.0695,34.5146 10.02785,0 10.02778,0 0,1.09906 0,1.09906 -11.12796,0 -11.12795,0 -0.0232,-26.17131 -0.0232,-26.17131 -0.93783,3.8467 c -0.51584,2.11568 -3.22501,13.61458 -6.02034,25.55309 -2.79542,11.93851 -5.2043,21.98459 -5.35301,22.32461 -0.28479,0.65073 -0.98971,0.71254 -4.7472,0.41625 z m 42.38246,-9.68955 0,-9.89152 0.96164,0 0.96172,0 0,9.89152 0,9.89152 -0.96172,0 -0.96164,0 0,-9.89152 z m 64.40081,9.17241 c -1.74076,-0.61737 -3.27044,-2.10391 -4.28446,-4.16371 -0.87083,-1.76884 -0.9046,-1.96052 -0.9046,-5.1403 0,-3.06445 0.0579,-3.4275 0.79652,-5.02763 1.31234,-2.84185 3.64254,-4.44432 6.79144,-4.67037 4.06554,-0.29185 7.30541,2.05284 8.37182,6.05853 0.2102,0.78956 0.38369,2.02288 0.38547,2.7407 l 0,1.30513 -7.31859,0 -7.31859,0 0.17286,1.26134 c 0.3149,2.29721 1.5458,4.37476 3.22027,5.43517 2.83828,1.79738 8.22383,0.4674 8.89229,-2.19597 0.12421,-0.49484 0.35215,-0.65383 0.93739,-0.65383 1.01527,0 1.15971,0.18385 0.83189,1.05861 -0.60057,1.60268 -1.69639,2.78553 -3.34252,3.60814 -1.45251,0.72581 -1.93368,0.82584 -3.881,0.80684 -1.22261,-0.0119 -2.73162,-0.20212 -3.35348,-0.42265 z m 9.10641,-11.83859 c -0.59781,-3.18653 -3.06754,-5.30199 -6.18989,-5.30199 -2.69304,0 -4.81206,1.48678 -5.77075,4.04894 -0.91475,2.445 -1.36019,2.27064 5.80131,2.27064 l 6.35019,0 -0.19086,-1.01759 z m 9.92965,12.09976 c -0.10078,-0.10075 -0.1832,-5.35562 -0.1832,-11.67749 l 0,-11.49431 0.96172,0 0.96162,0 0,10.85319 0,10.8532 6.04483,0 6.04483,0 0,0.82429 0,0.82429 -6.82335,0 c -3.75286,0 -6.90576,-0.0824 -7.00645,-0.18317 z m 18.22599,-8.04235 0,-8.26034 0.82432,0 0.82432,0 0,7.96817 c 0,4.38249 0.0312,8.0609 0.0686,8.17424 0.0374,0.11334 -0.33317,0.24482 -0.82432,0.29217 l -0.89301,0.0861 0,-8.26034 z m 7.41866,-0.10721 0,-8.33272 0.82431,0.12098 c 0.7615,0.11177 0.82423,0.2064 0.82423,1.24275 l 0,1.12177 0.89301,-0.86264 c 1.85901,-1.79582 5.0276,-2.51131 7.16551,-1.61802 1.14367,0.47784 2.28146,1.8272 2.64528,3.137 0.15665,0.56426 0.28442,3.82094 0.28531,7.27272 l 0,6.25089 -0.82422,0 -0.82432,0 -0.0152,-6.11351 c -0.0169,-6.61449 -0.18186,-7.62254 -1.39557,-8.52218 -1.74798,-1.29558 -4.4992,-0.76506 -6.79679,1.31063 l -1.13413,1.02461 0,6.15022 0,6.15023 -0.82423,0 -0.82431,0 0,-8.33273 z m -7.41866,-13.78581 c 0,-1.22989 0.009,-1.23643 0.96172,-1.23643 0.95655,0 0.96163,0.006 0.96163,1.23643 0,1.2299 -0.009,1.23645 -0.96163,1.23645 -0.95664,0 -0.96172,-0.006 -0.96172,-1.23645 z m -101.66286,-3.98407 0,-1.64859 0.96164,0 0.96172,0 0,1.64859 0,1.64858 -0.96172,0 -0.96164,0 0,-1.64858 z"
       id="path4601-1-1"
       inkscape:connector-curvature="0" />
    <path
       style="display:inline;fill:#000000"
       d="m 118.58853,802.43692 c 0.11339,-15.57139 0.28525,-102.11412 0.20258,-102.02692 -0.0347,0.0369 -2.38198,10.8697 -5.21562,24.07285 -2.83359,13.20313 -5.22273,24.07887 -5.30913,24.16831 -0.0864,0.0895 -3.41551,0.23904 -7.39796,0.33248 l -7.240827,0.16986 0,-1.0096 0,-1.00959 6.449387,-0.18403 c 3.54725,-0.1012 6.48321,-0.21776 6.52442,-0.25902 0.0415,-0.0412 3.245,-14.80082 7.11939,-32.79903 3.87441,-17.99823 7.08597,-32.84148 7.13683,-32.98498 0.0508,-0.14351 0.0355,25.5713 -0.0338,57.14404 -0.0694,31.57272 -0.0677,57.34626 0,57.27451 0.0711,-0.0718 2.63622,-10.9624 5.69972,-24.20143 l 5.57,-24.07095 4.90125,0 4.90125,0 0,1.04373 0,1.04373 -4.17487,0 c -3.75288,0 -4.17497,0.0447 -4.17497,0.44289 0,0.24359 -1.83125,8.31617 -4.06953,17.93905 -2.23827,9.62289 -4.22531,18.20069 -4.41571,19.06176 -0.98353,4.44879 -6.40357,27.63103 -6.47745,27.70483 -0.0474,0.0472 -0.0465,-5.2864 0,-11.85249 z m 95.37657,-53.30643 c -2.00464,-0.40799 -3.97162,-1.96435 -4.77339,-3.77701 -1.02585,-2.31901 -1.08584,-6.30585 -0.12829,-8.5319 0.57508,-1.33706 1.86037,-2.73715 3.13288,-3.41269 1.51172,-0.80254 4.7954,-0.80698 6.28707,-0.009 2.17506,1.16427 3.49107,3.37915 3.72275,6.26576 l 0.13218,1.6468 -6.20304,0 -6.20313,0 0.16103,1.17502 c 0.32841,2.39568 2.11101,4.62827 3.97467,4.97789 0.51957,0.0975 1.64171,0.11403 2.49366,0.0368 1.71143,-0.15519 3.19997,-1.04597 3.62764,-2.1709 0.17939,-0.47183 0.43418,-0.62668 1.03109,-0.62668 l 0.79271,0 -0.40871,0.97849 c -1.11435,2.66753 -4.33294,4.11984 -7.63912,3.44696 z m 6.59458,-10.23117 c -0.95544,-4.42673 -5.65766,-6.09573 -8.78564,-3.11838 -0.86304,0.82154 -1.771,2.67814 -1.771,3.62149 0,0.27476 1.09227,0.34491 5.36988,0.34491 l 5.36979,0 -0.18303,-0.84802 z M 48.160152,748.94908 c -1.21988,-0.0962 -1.239424,-0.11192 -1.239424,-0.99669 l 0,-0.89897 2.034504,0 2.034429,0 6.48254,-27.5935 c 3.565369,-15.17645 7.023778,-29.9261 7.685251,-32.77701 l 1.202692,-5.18347 0.066,32.777 0.066,32.77698 9.523006,0 9.522939,0 0,1.04373 0,1.04373 -10.567731,0 -10.567723,0 -0.02203,-24.85373 -0.02203,-24.85374 -0.890615,3.65304 c -0.489871,2.00916 -3.062649,12.92917 -5.717251,24.26664 -2.654687,11.33748 -4.942294,20.87779 -5.083518,21.20069 -0.270452,0.61797 -0.939883,0.67667 -4.508205,0.3953 z m 40.248749,-9.20174 0,-9.39354 0.913226,0 0.913303,0 0,9.39354 0,9.39354 -0.913303,0 -0.913226,0 0,-9.39354 z m 61.158599,8.71063 c -1.65312,-0.58628 -3.10579,-1.99799 -4.06876,-3.95409 -0.82699,-1.67979 -0.85906,-1.86182 -0.85906,-4.88151 0,-2.91017 0.055,-3.25495 0.75642,-4.77452 1.24627,-2.69878 3.45916,-4.22057 6.44953,-4.43524 3.86086,-0.27716 6.93762,1.94949 7.95035,5.75351 0.19961,0.74981 0.36437,1.92104 0.36606,2.60273 l 0,1.23942 -6.95014,0 -6.95014,0 0.16416,1.19784 c 0.29904,2.18156 1.46798,4.15451 3.05815,5.16154 2.69538,1.70689 7.8098,0.44387 8.44461,-2.08542 0.11796,-0.46992 0.33442,-0.62091 0.8902,-0.62091 0.96415,0 1.10132,0.17459 0.79001,1.00532 -0.57034,1.52199 -1.61099,2.64529 -3.17425,3.42649 -1.37938,0.68927 -1.83633,0.78426 -3.68561,0.76622 -1.16106,-0.0113 -2.5941,-0.19195 -3.18465,-0.40138 z m 8.64796,-11.24258 c -0.56772,-3.02611 -2.91311,-5.03506 -5.87827,-5.03506 -2.55746,0 -4.5698,1.41192 -5.48022,3.84509 -0.8687,2.32191 -1.29172,2.15633 5.50924,2.15633 l 6.0305,0 -0.18125,-0.96636 z m 9.42975,11.49061 c -0.0957,-0.0957 -0.17397,-5.086 -0.17397,-11.0896 l 0,-10.91564 0.9133,0 0.91321,0 0,10.3068 0,10.3068 5.7405,0 5.74051,0 0,0.78279 0,0.78279 -6.47983,0 c -3.56393,0 -6.5581,-0.0783 -6.65372,-0.17394 z m 17.30842,-7.63747 0,-7.84448 0.78282,0 0.78282,0 0,7.56702 c 0,4.16186 0.0296,7.65508 0.0651,7.76271 0.0355,0.10764 -0.3164,0.2325 -0.78282,0.27747 l -0.84806,0.0818 0,-7.84448 z m 7.04517,-0.10181 0,-7.91322 0.78281,0.11489 c 0.72316,0.10615 0.78274,0.19601 0.78274,1.18019 l 0,1.06529 0.84805,-0.81921 c 1.76542,-1.70541 4.77449,-2.38488 6.80477,-1.53656 1.08609,0.45378 2.1666,1.73521 2.5121,2.97907 0.14876,0.53585 0.2701,3.62858 0.27095,6.90658 l 0,5.93619 -0.78273,0 -0.78282,0 -0.0144,-5.80573 c -0.0161,-6.28148 -0.17271,-7.23878 -1.32531,-8.09313 -1.65998,-1.23036 -4.27269,-0.72655 -6.45461,1.24465 l -1.07704,0.97302 0,5.84059 0,5.8406 -0.78273,0 -0.78281,0 0,-7.91322 z m -7.04517,-13.09177 c 0,-1.16797 0.009,-1.17419 0.9133,-1.17419 0.90839,0 0.91322,0.006 0.91322,1.17419 0,1.16798 -0.009,1.1742 -0.91322,1.1742 -0.90848,0 -0.9133,-0.006 -0.9133,-1.1742 z m -96.544729,-3.7835 0,-1.56559 0.913226,0 0.913303,0 0,1.56559 0,1.56559 -0.913303,0 -0.913226,0 0,-1.56559 z"
       id="path4601-1-1-2"
       inkscape:connector-curvature="0" />
    <rect
       style="fill:none;fill-opacity:1;stroke:#ff0000;stroke-width:0.88516539;stroke-miterlimit:4;stroke-dasharray:none;stroke-opacity:1"
       id="rect3604"
       width="211.71329"
       height="6.5557804"
       x="28.789043"
       y="669.77332" />
    <rect
       style="fill:none;fill-opacity:1;stroke:#ff0000;stroke-width:0.80418926;stroke-miterlimit:4;stroke-dasharray:none;stroke-opacity:1"
       id="rect3606"
       width="211.79427"
       height="6.6367564"
       x="28.748554"
       y="825.63837" />
    <rect
       style="fill:none;fill-opacity:1;stroke:#ff0000;stroke-width:0.86695862;stroke-miterlimit:4;stroke-dasharray:none;stroke-opacity:1"
       id="rect4408"
       width="69.999184"
       height="6.573987"
       x="276.81146"
       y="825.66974" />
    <rect
       style="fill:none;fill-opacity:1;stroke:#ff0000;stroke-width:0.84618431;stroke-miterlimit:4;stroke-dasharray:none;stroke-opacity:1"
       id="rect4410"
       width="70.019966"
       height="6.5947614"
       x="418.53339"
       y="825.65936" />
    <rect
       style="display:inline;fill:none;fill-opacity:1;stroke:#ff0000;stroke-width:0.86695856;stroke-miterlimit:4;stroke-dasharray:none;stroke-opacity:1"
       id="rect4408-7"
       width="69.999191"
       height="6.573987"
       x="276.81146"
       y="669.76422" />
    <rect
       style="display:inline;fill:none;fill-opacity:1;stroke:#ff0000;stroke-width:0.84618425;stroke-miterlimit:4;stroke-dasharray:none;stroke-opacity:1"
       id="rect4410-0"
       width="70.019974"
       height="6.5947614"
       x="418.53339"
       y="669.75385" />
  </g>
</svg>
