<?xml version="1.0" encoding="UTF-8" standalone="no"?>
<!-- Created with Inkscape (http://www.inkscape.org/) -->

<svg
   xmlns:dc="http://purl.org/dc/elements/1.1/"
   xmlns:cc="http://creativecommons.org/ns#"
   xmlns:rdf="http://www.w3.org/1999/02/22-rdf-syntax-ns#"
   xmlns:svg="http://www.w3.org/2000/svg"
   xmlns="http://www.w3.org/2000/svg"
   xmlns:sodipodi="http://sodipodi.sourceforge.net/DTD/sodipodi-0.dtd"
   xmlns:inkscape="http://www.inkscape.org/namespaces/inkscape"
   width="600mm"
   height="300mm"
   viewBox="0 0 2125.9842 1062.9921"
   id="svg2"
   version="1.1"
   inkscape:version="0.91 r13725"
   sodipodi:docname="Pulseoxymdf1.svg">
  <defs
     id="defs4" />
  <sodipodi:namedview
     id="base"
     pagecolor="#ffffff"
     bordercolor="#666666"
     borderopacity="1.0"
     inkscape:pageopacity="0.0"
     inkscape:pageshadow="2"
     inkscape:zoom="0.35"
     inkscape:cx="968.31494"
     inkscape:cy="790.68182"
     inkscape:document-units="mm"
     inkscape:current-layer="layer1"
     showgrid="false"
     inkscape:window-width="1366"
     inkscape:window-height="714"
     inkscape:window-x="0"
     inkscape:window-y="0"
     inkscape:window-maximized="1" />
  <metadata
     id="metadata7">
    <rdf:RDF>
      <cc:Work
         rdf:about="">
        <dc:format>image/svg+xml</dc:format>
        <dc:type
           rdf:resource="http://purl.org/dc/dcmitype/StillImage" />
        <dc:title />
      </cc:Work>
    </rdf:RDF>
  </metadata>
  <g
     inkscape:label="Layer 1"
     inkscape:groupmode="layer"
     id="layer1"
     transform="translate(0,10.629921)">
    <path
       style="fill:#000000"
       d="m 1160.0692,839.32513 0,-92.50135 -6.7448,-2.12613 c -8.1095,-2.55627 -16.4665,-9.39541 -20.2555,-16.57641 -2.1042,-3.98755 -2.7859,-7.50463 -2.8146,-14.51851 -0.023,-5.3547 0.5494,-9.6382 1.3547,-10.16255 0.7657,-0.49853 1.7566,-2.39678 2.2017,-4.21833 1.2772,-5.22606 11.021,-13.30912 19.1217,-15.86262 l 7.1368,-2.2497 0,-13.06038 0,-13.06037 -12.3709,-0.3636 c -16.7469,-0.49217 -16.7265,-1.62495 0.266,-14.76576 7.3743,-5.70299 13.9649,-10.36905 14.6456,-10.36905 0.6807,0 7.2712,4.66606 14.6456,10.36905 16.8596,13.03811 16.9347,14.26845 0.9012,14.76745 l -11.7359,0.36523 0,13.05871 0,13.05872 7.0916,2.23538 c 8.1987,2.58441 15.9922,9.05196 19.957,16.56157 2.0392,3.86212 2.7284,7.41476 2.7284,14.06016 0,6.64539 -0.6892,10.19804 -2.7284,14.06017 -3.9648,7.50961 -11.7583,13.97717 -19.957,16.56156 l -7.0916,2.23541 0,32.16116 0,32.16117 29.8525,0 29.8525,0 0,-9.5274 0,-9.5274 45.0965,0 45.0964,0 0,9.5274 0,9.5274 36.204,0 36.2041,0 0,-67.96211 0,-67.9621 -9.5275,0 -9.5273,0 0,-45.09636 0,-45.09637 9.5273,0 9.5275,0 0,-69.23242 0,-69.23243 -29.8525,0 -29.8524,0 0,12.06804 c 0,12.0257 -0.012,12.06805 -3.1759,12.06805 l -3.1758,0 0,-27.3119 0,-27.31186 3.1758,0 c 3.1645,0 3.1759,0.0422 3.1759,12.06803 l 0,12.06804 221.0355,0 221.0357,0 0,-13.37822 c 0,-10.54115 0.3922,-13.52876 1.85,-14.0881 1.0189,-0.39104 8.2934,3.13884 16.1963,7.85918 7.8907,4.71295 14.7756,8.79976 15.2996,9.08179 0.5239,0.282 0.9526,-12.07647 0.9526,-27.46326 l 0,-27.97601 -12.3708,-0.36361 c -16.7469,-0.49217 -16.7264,-1.62493 0.2659,-14.76576 7.3744,-5.70296 13.965,-10.36904 14.6456,-10.36904 0.6806,0 7.2714,4.66608 14.6458,10.36904 16.8593,13.03811 16.9345,14.26845 0.9011,14.76745 l -11.736,0.36524 0.013,30.12243 0.012,30.12244 17.3437,10.48013 17.3441,10.48014 83.0031,0 83.0033,0 0,3.1758 0,3.17581 -35.5689,0 -35.5689,0 0,88.28723 0,88.28722 -54.9491,0 -54.9485,0 -2.9617,6.45596 c -2.0055,4.37138 -4.7717,7.73182 -8.5671,10.40711 l -5.6147,3.95112 0,136.31483 0,136.31482 -327.1074,0 -327.1074,0 0,-92.50133 z m 647.8631,-49.67594 0,-135.8257 4.2593,-1.40572 c 4.9273,-1.62614 8.9801,-5.55695 10.8685,-10.54177 l 1.3235,-3.49338 -59.0384,0 -59.0383,0 0,8.25707 0,8.25708 -45.0966,0 -45.0963,0 0,-8.25708 0,-8.25707 -22.2307,0 -22.2304,0 0,34.93379 0,34.93381 9.5273,0 9.5274,0 0,45.09633 0,45.09636 -9.5274,0 -9.5273,0 0,25.99556 0,25.99556 12.3709,0.36357 c 16.7468,0.49218 16.7264,1.62497 -0.2658,14.76579 -7.3745,5.70297 -13.9702,10.36903 -14.6573,10.36903 -0.6867,0 -6.7221,-4.24445 -13.4116,-9.43214 -6.6897,-5.18768 -13.366,-10.23088 -14.8362,-11.20713 -1.9637,-1.30366 -2.4065,-2.42525 -1.6678,-4.22378 0.5529,-1.34686 1.2235,-1.87718 1.4895,-1.1785 0.2912,0.76407 5.2949,1.10902 12.5555,0.86557 l 12.0712,-0.40476 0,-16.42698 0,-16.42699 -24.7713,0 -24.7711,0 0,8.25708 0,8.25708 -45.0965,0 -45.0964,0 0,-8.25708 0,-8.25708 -54.6235,0 -54.6238,0 0,8.25708 0,8.25708 -45.0964,0 -45.0965,0 0,-8.25708 0,-8.25708 -29.8525,0 -29.8525,0 0,53.98859 0,53.98866 320.7558,0 320.7557,0 0,-135.82577 z m -553.8593,57.70105 0,-10.79773 4.9905,0 c 7.629,0 11.9026,6.15806 7.0617,10.17554 -1.1142,0.92481 -1.4852,2.19052 -0.8832,3.01379 0.5707,0.78064 1.7086,2.99138 2.529,4.91271 2.2202,5.20071 -1.1004,4.57833 -3.5355,-0.66263 -1.1742,-2.52713 -3.0023,-4.25685 -4.7636,-4.50699 -2.5062,-0.35591 -2.8585,0.15273 -2.8585,4.12854 0,2.49396 -0.5715,4.53448 -1.2702,4.53448 -0.7471,0 -1.2702,-4.44612 -1.2702,-10.79771 z m 10.1625,-2.54064 c 2.1185,-2.55261 -0.4283,-5.71646 -4.6018,-5.71646 -2.5089,0 -3.0203,0.64516 -3.0203,3.81096 0,3.16581 0.5114,3.81097 3.0203,3.81097 1.6612,0 3.7319,-0.85749 4.6018,-1.90547 z m 9.7391,12.49146 c -1.5442,-1.54398 -0.8771,-2.89597 1.0616,-2.15204 1.0495,0.40275 3.3721,0.36488 5.1613,-0.0843 2.638,-0.66212 3.1777,-1.46844 2.8554,-4.26553 -0.344,-2.9825 -1.0421,-3.50241 -5.1615,-3.84335 -4.632,-0.38333 -4.7638,-0.53273 -4.7638,-5.39886 l 0,-5.00453 5.7165,0 c 3.144,0 5.7165,0.57164 5.7165,1.27031 0,0.69867 -2.0008,1.27033 -4.4461,1.27033 -3.5994,0 -4.4461,0.48393 -4.4461,2.54063 0,1.72073 0.8467,2.54065 2.6243,2.54065 7.0674,0 10.2721,7.29469 5.2152,11.87114 -2.3274,2.10615 -7.9431,2.8457 -9.5333,1.25549 z m 182.0792,-9.95082 0,-10.79773 4.9905,0 c 7.629,0 11.9028,6.15806 7.0619,10.17554 -1.1143,0.92481 -1.4853,2.19052 -0.8835,3.01379 0.5708,0.78064 1.7087,2.99138 2.5291,4.91271 2.2202,5.20071 -1.1004,4.57833 -3.5354,-0.66263 -1.1744,-2.52713 -3.0025,-4.25685 -4.7637,-4.50699 -2.5062,-0.35591 -2.8584,0.15273 -2.8584,4.12854 0,2.49396 -0.5716,4.53448 -1.2702,4.53448 -0.7472,0 -1.2703,-4.44612 -1.2703,-10.79771 z m 10.1626,-2.54064 c 2.1184,-2.55261 -0.4283,-5.71646 -4.6016,-5.71646 -2.509,0 -3.0205,0.64516 -3.0205,3.81096 0,3.16581 0.5115,3.81097 3.0205,3.81097 1.6611,0 3.7317,-0.85749 4.6016,-1.90547 z m 10.8883,11.34213 c -3.0211,-3.02119 -2.6759,-13.83819 0.5445,-17.05859 2.6805,-2.68036 8.2012,-3.41645 9.5274,-1.27031 0.4535,0.73373 -0.7489,1.27031 -2.8469,1.27031 -4.0446,0 -6.6805,2.00449 -6.6805,5.08027 0,1.57069 1.0006,1.91467 4.4119,1.51643 3.7502,-0.43784 4.6344,-0.0266 5.8966,2.74368 3.0831,6.76658 -5.6173,12.95391 -10.853,7.71821 z m 8.0327,-2.28889 c 2.1317,-2.56833 0.3198,-5.87746 -3.2179,-5.87746 -3.2844,0 -5.011,2.58944 -3.811,5.71645 0.9151,2.38475 5.1039,2.48071 7.0289,0.16101 z m 109.3812,-99.24597 0,-10.7977 4.9905,0 c 7.6289,0 11.9028,6.15804 7.0619,10.17555 -1.1143,0.92479 -1.4854,2.19051 -0.8835,3.01375 0.5708,0.78066 1.7088,2.99139 2.5291,4.91274 2.2202,5.20071 -1.1004,4.57833 -3.5354,-0.66264 -1.1742,-2.52714 -3.0025,-4.25685 -4.7637,-4.50698 -2.5061,-0.35593 -2.8583,0.15273 -2.8583,4.12852 0,2.49398 -0.5715,4.53448 -1.2702,4.53448 -0.7473,0 -1.2704,-4.44611 -1.2704,-10.79772 z m 10.1626,-2.54063 c 2.1185,-2.55259 -0.4284,-5.71643 -4.6016,-5.71643 -2.5091,0 -3.0204,0.64515 -3.0204,3.81095 0,3.16579 0.5113,3.81095 3.0204,3.81095 1.661,0 3.7318,-0.85746 4.6016,-1.90547 z m 11.4328,12.1821 c 0,-0.63595 1.7175,-4.78037 3.8164,-9.20982 l 3.8163,-8.05357 -5.7216,-0.38717 c -8.1279,-0.54999 -7.1125,-2.78861 1.2647,-2.78861 8.3721,0 8.4257,0.22496 2.9867,12.53908 -3.5276,7.98662 -6.1625,11.36441 -6.1625,7.90009 z m -38.8407,98.30187 7.5255,-5.68259 -15.6865,0 -15.6866,0 7.5256,5.68259 c 4.1392,3.12543 7.8115,5.68259 8.161,5.68259 0.3491,0 4.0216,-2.55716 8.161,-5.68259 z m -267.3064,-49.50862 0,-14.60868 -38.7446,0 -38.7448,0 0,14.60868 0,14.60868 38.7448,0 38.7446,0 0,-14.60868 z m 199.4403,0 0,-14.60868 -38.7448,0 -38.7447,0 0,14.60868 0,14.60868 38.7447,0 38.7448,0 0,-14.60868 z m -83.8412,-11.43288 0,-9.5274 45.0964,0 45.0965,0 0,9.5274 0,9.5274 24.7711,0 24.7713,0 0,-6.3516 0,-6.3516 -8.2571,0 -8.257,0 0,-45.09636 0,-45.09633 8.257,0 8.2571,0 0,-118.13977 0,-118.13973 102.8959,0 102.8959,0 0,-12.7032 0,-12.7032 -188.0073,0 -188.0074,0 0,69.23243 0,69.23242 8.257,0 8.2573,0 0,45.09637 0,45.09636 -8.2573,0 -8.257,0 0,67.9621 0,67.96211 15.2438,0 15.2438,0 0,-9.5274 z m -8.8922,-174.03381 0,-10.79773 4.9906,0 c 7.6289,0 11.9027,6.15805 7.0619,10.17556 -1.1144,0.92479 -1.4855,2.19051 -0.8836,3.01376 0.5708,0.78065 1.7089,2.99139 2.5291,4.91275 2.2203,5.20071 -1.1003,4.57832 -3.5354,-0.66266 -1.1741,-2.52713 -3.0024,-4.25682 -4.7637,-4.50699 -2.5061,-0.3559 -2.8582,0.15275 -2.8582,4.12855 0,2.49398 -0.5717,4.53448 -1.2702,4.53448 -0.7474,0 -1.2705,-4.44612 -1.2705,-10.79772 z m 10.1626,-2.54064 c 2.1185,-2.55261 -0.4283,-5.71644 -4.6016,-5.71644 -2.509,0 -3.0203,0.64516 -3.0203,3.81096 0,3.1658 0.5113,3.81094 3.0203,3.81094 1.6611,0 3.7318,-0.85744 4.6016,-1.90546 z m 17.7846,10.79771 c 0,-2.11721 -0.8471,-2.54064 -5.0814,-2.54064 -2.8478,0 -5.0812,-0.61404 -5.0812,-1.39698 0,-3.03487 8.3469,-15.04656 10.4802,-15.08115 1.8479,-0.03 2.223,1.12481 2.223,6.84489 0,4.26262 0.6041,7.16286 1.5878,7.62191 1.2704,0.59281 1.2704,0.88922 0,1.48203 -0.8733,0.40757 -1.5878,1.83668 -1.5878,3.17579 0,1.33916 -0.5716,2.4348 -1.2704,2.4348 -0.6986,0 -1.2702,-1.14329 -1.2702,-2.54065 z m 0,-10.16256 c 0,-2.7947 -0.4289,-5.07686 -0.9529,-5.07148 -0.5241,0.005 -2.2559,2.29196 -3.8489,5.08128 l -2.8961,5.07148 3.8489,0 c 3.6435,0 3.849,-0.27116 3.849,-5.08128 z m 139.735,127.66714 0,-38.74475 -14.6086,0 -14.6087,0 0,38.74475 0,38.74476 14.6087,0 14.6086,0 0,-38.74476 z m -409.6781,-16.35844 c 10.2617,-4.83916 15.9102,-13.14129 15.8511,-23.29824 -0.1268,-21.86043 -28.5051,-33.7856 -45.3025,-19.03721 -12.133,10.65283 -12.0926,28.79663 0.085,38.51384 9.2048,7.34471 19.1502,8.639 29.3658,3.82161 z m -13.3383,-8.41279 0,-5.08128 -5.7164,0 c -4.2344,0 -5.7165,-0.49401 -5.7165,-1.90549 0,-1.41145 1.4821,-1.90546 5.7165,-1.90546 l 5.7164,0 0,-5.71645 c 0,-4.23439 0.494,-5.71642 1.9054,-5.71642 1.4115,0 1.9056,1.48203 1.9056,5.71642 l 0,5.71645 5.7163,0 c 4.2344,0 5.7165,0.49401 5.7165,1.90546 0,1.41148 -1.4821,1.90549 -5.7165,1.90549 l -5.7163,0 0,5.08128 c 0,3.66981 -0.5293,5.08129 -1.9056,5.08129 -1.3761,0 -1.9054,-1.41148 -1.9054,-5.08129 z m -11.4329,-26.04156 c 0,-1.57278 2.329,-1.90547 13.3383,-1.90547 11.0094,0 13.3384,0.33269 13.3384,1.90547 0,1.57278 -2.329,1.90549 -13.3384,1.90549 -11.0093,0 -13.3383,-0.33271 -13.3383,-1.90549 z m 255.3343,-72.40822 0,-38.74476 -14.6088,0 -14.6086,0 0,38.74476 0,38.74474 14.6086,0 14.6088,0 0,-38.74474 z m -234.7706,12.57848 -7.8605,-5.84117 -7.8604,5.84117 -7.8604,5.84114 15.7208,0 15.7207,0 -7.8602,-5.84114 z m 529.4848,-8.76752 0,-14.60868 -38.7449,0 -38.7446,0 0,14.60868 0,14.60866 38.7446,0 38.7449,0 0,-14.60866 z m -83.8412,-11.43289 0,-9.5274 45.0963,0 45.0966,0 0,9.5274 0,9.5274 59.0383,0 59.0384,0 -1.3235,-3.49338 c -1.8884,-4.98481 -5.9412,-8.91563 -10.8685,-10.54178 l -4.2593,-1.4057 0,-65.32296 c 0,-35.92762 -0.3552,-65.32295 -0.7894,-65.32295 -0.4344,0 -7.873,4.3457 -16.5305,9.65707 -9.0478,5.55092 -16.5441,9.34882 -17.6301,8.93211 -1.4982,-0.57498 -1.8892,-3.36142 -1.8892,-13.46804 l 0,-12.74307 -99.72,0 -99.7202,0 0,76.85436 0,76.85434 22.2304,0 22.2307,0 0,-9.5274 z m 29.2175,-22.86575 0,-10.79773 4.9905,0 c 7.6289,0 11.9027,6.15807 7.0619,10.17557 -1.1144,0.92478 -1.4856,2.1905 -0.8835,3.01377 0.5707,0.78064 1.7088,2.99138 2.5291,4.91274 2.2202,5.20068 -1.1004,4.5783 -3.5354,-0.66266 -1.1743,-2.52714 -3.0026,-4.25684 -4.7639,-4.507 -2.5059,-0.3559 -2.8582,0.15276 -2.8582,4.12856 0,2.49396 -0.5717,4.53446 -1.2702,4.53446 -0.7474,0 -1.2703,-4.4461 -1.2703,-10.79771 z m 10.1626,-2.54064 c 2.1184,-2.5526 -0.4284,-5.71644 -4.6016,-5.71644 -2.5092,0 -3.0205,0.64516 -3.0205,3.81096 0,3.1658 0.5113,3.81096 3.0205,3.81096 1.6609,0 3.7316,-0.85746 4.6016,-1.90548 z m 9.618,11.34214 c -2.7005,-2.70048 -2.5102,-5.12163 0.572,-7.2806 2.2686,-1.58887 2.3427,-1.9863 0.6352,-3.40336 -4.3801,-3.63535 -0.9434,-9.41609 5.1664,-8.68948 4.6618,0.55445 6.7499,3.99866 4.5549,7.51345 -1.4043,2.24898 -1.3532,3.01155 0.3268,4.8681 1.096,1.21076 1.9923,2.83012 1.9923,3.59854 0,2.58627 -3.9644,5.38956 -7.622,5.38956 -1.9961,0 -4.5276,-0.89827 -5.6256,-1.99621 z m 9.1653,-2.05147 c 1.1625,-1.16249 1.0304,-2.03374 -0.5781,-3.81096 -1.1467,-1.26714 -2.5271,-2.3039 -3.0677,-2.3039 -1.9982,0 -4.8439,3.9448 -4.15,5.7532 0.8609,2.24371 5.6897,2.46775 7.7958,0.36166 z m -0.3639,-11.84871 c 0,-1.65104 -0.9898,-2.66381 -2.8638,-2.92992 -3.3886,-0.48115 -5.4219,3.24137 -2.72,4.97942 2.7563,1.773 5.5838,0.73512 5.5838,-2.0495 z m 31.1228,-92.08079 c -2.0193,-2.01947 -2.5405,-4.2344 -2.5405,-10.79772 0,-4.65785 0.5539,-8.25708 1.2703,-8.25708 0.6987,0 1.2702,3.18163 1.2702,7.07028 0,8.60377 1.6126,11.98452 5.7166,11.98452 4.1039,0 5.7164,-3.38075 5.7164,-11.98452 0,-3.88865 0.5717,-7.07028 1.2704,-7.07028 0.7165,0 1.2704,3.59923 1.2704,8.25708 0,9.27055 -2.5182,13.33837 -8.2572,13.33837 -1.7468,0 -4.3191,-1.1433 -5.7166,-2.54065 z m 20.3252,1.27033 c 0,-0.69869 1.1433,-1.27033 2.5407,-1.27033 2.2601,0 2.5407,-0.84688 2.5407,-7.6666 0,-7.27298 -0.1306,-7.59682 -2.5407,-6.30692 -3.1795,1.7016 -3.3165,-0.17445 -0.2176,-2.97891 4.3578,-3.94362 5.2989,-2.62478 5.2989,7.42503 0,7.62192 0.3811,9.5274 1.9054,9.5274 1.048,0 1.9056,0.57164 1.9056,1.27033 0,0.69868 -2.5725,1.27032 -5.7165,1.27032 -3.1441,0 -5.7165,-0.57164 -5.7165,-1.27032 z m 16.5142,-9.52741 0,-10.79772 4.9905,0 c 2.8433,0 5.8496,0.85899 6.9868,1.99622 2.2888,2.2886 2.3976,3.02474 0.8172,5.52167 -0.7389,1.16699 -0.4567,2.84472 0.8005,4.7637 1.751,2.67216 1.7373,3.27327 -0.1398,6.13805 -1.7067,2.60475 -3.1036,3.17581 -7.7682,3.17581 l -5.687,0 0,-10.79773 z m 11.1195,6.79216 c 2.4311,-2.43117 -0.4812,-6.15699 -4.8125,-6.15699 -3.338,0 -3.7663,0.43348 -3.7663,3.81096 0,3.32702 0.4516,3.81095 3.5567,3.81095 1.9565,0 4.2162,-0.65921 5.0221,-1.46492 z m -1.5922,-11.87344 c 0,-1.82728 -0.9807,-2.65348 -3.4932,-2.94259 -3.0284,-0.34844 -3.4934,0.0434 -3.4934,2.94259 0,2.89918 0.465,3.29104 3.4934,2.94261 2.5125,-0.28911 3.4932,-1.11533 3.4932,-2.94261 z m 183.5614,57.75324 0,-85.15777 -44.8635,0.36391 -44.8634,0.36391 -15.4767,9.3846 -15.4769,9.38461 0,65.21406 0,65.21407 3.6597,1.89246 c 4.8136,2.48927 9.7362,8.45197 11.5736,14.01951 l 1.4779,4.47838 51.9847,0 51.9846,0 0,-85.15774 z m -122.4542,-72.00858 26.8083,-16.22399 -11.5645,-7.10047 c -6.3606,-3.90527 -13.9625,-8.48031 -16.8933,-10.16673 -4.7637,-2.74112 -23.0691,-13.93922 -30.5578,-18.69328 l -2.8581,-1.81449 0,37.74529 0,37.74527 4.1284,-2.6338 c 2.2708,-1.4486 16.1922,-9.93461 30.937,-18.8578 z m -29.9843,0.91698 c 0,-0.69867 2.5724,-1.27031 5.7165,-1.27031 3.1441,0 5.7165,0.57164 5.7165,1.27031 0,0.69869 -2.5724,1.27032 -5.7165,1.27032 -3.1441,0 -5.7165,-0.57163 -5.7165,-1.27032 z m 6.3517,-26.04156 c 0,-2.54064 -0.6352,-3.17579 -3.1758,-3.17579 -1.7467,0 -3.1759,-0.57165 -3.1759,-1.27032 0,-0.69868 1.4292,-1.27032 3.1759,-1.27032 2.5406,0 3.1758,-0.63517 3.1758,-3.1758 0,-1.74669 0.5716,-3.17581 1.2704,-3.17581 0.6985,0 1.2701,1.42912 1.2701,3.17581 0,2.32892 0.6775,3.1758 2.5408,3.1758 1.3972,0 2.5406,0.57164 2.5406,1.27032 0,0.69867 -1.1434,1.27032 -2.5406,1.27032 -1.8633,0 -2.5408,0.8469 -2.5408,3.17579 0,1.74671 -0.5716,3.17582 -1.2701,3.17582 -0.6988,0 -1.2704,-1.42911 -1.2704,-3.17582 z m 26.9151,-87.77677 -7.8604,-5.84118 -7.8602,5.84118 -7.8605,5.84116 15.7207,0 15.721,0 -7.8606,-5.84116 z M 160.96269,728.54147 c -16.55076,-13.03395 -16.64123,-14.45242 -0.95274,-14.94008 l 11.75045,-0.36523 0,-6.28249 0,-6.2825 -32.71071,-0.33903 -32.71075,-0.33902 -0.35292,-16.61111 -0.35292,-16.61107 -11.39753,-9.92956 -11.397543,-9.92954 0,-16.15115 0,-16.15111 11.432878,-9.96035 11.432865,-9.96036 0,-16.22363 0,-16.22361 -15.561405,-0.35668 c -14.595638,-0.33453 -15.561416,-0.51436 -15.561416,-2.89732 0,-2.36073 0.967069,-2.56617 13.655937,-2.90119 7.510768,-0.19832 13.655934,-0.57165 13.655934,-0.82964 0,-0.258 -5.766656,-10.27095 -12.814789,-22.25098 -7.144137,-12.14324 -12.501989,-22.59706 -12.107906,-23.62403 0.558423,-1.45523 3.650026,-1.84212 14.720273,-1.84212 l 14.013372,0 0,-15.18321 0,-15.18324 -7.939486,-0.37818 -7.939498,-0.37821 0,-37.47443 0,-37.47443 7.304348,-0.38096 7.304316,-0.38099 0,-14.54528 0,-14.54529 36.20412,0 36.20411,0 0,-8.02508 0,-8.02511 -6.74484,-2.12612 c -8.10941,-2.55624 -16.4665,-9.3954 -20.25554,-16.57639 -3.86071,-7.31687 -3.884,-20.9495 -0.0481,-28.21479 3.96483,-7.50959 11.75837,-13.97713 19.95707,-16.56156 l 7.09146,-2.23539 0,-13.06036 0,-13.06038 -12.3709,-0.36357 c -16.74681,-0.4922 -16.72642,-1.62497 0.26582,-14.76578 7.37446,-5.70298 13.96503,-10.36905 14.64572,-10.36905 0.68069,0 7.27126,4.66607 14.64571,10.36905 16.85944,13.03811 16.9345,14.26845 0.90119,14.76744 l -11.73595,0.36525 0,13.05869 0,13.05871 7.0915,2.23539 c 8.1987,2.58443 15.99223,9.05197 19.95708,16.56156 3.81172,7.21962 3.81172,20.90074 0,28.12036 -3.96485,7.50959 -11.75838,13.97715 -19.95708,16.56157 l -7.0915,2.23537 0,8.02511 0,8.02508 34.29864,0 34.29864,0 0,14.54231 0,14.54227 6.66918,0.38397 6.66917,0.38397 0,37.47443 0,37.47443 -6.03402,0.3872 -6.03401,0.38717 0,15.17425 0,15.17422 14.01338,0 c 11.05835,0 14.16219,0.38774 14.71898,1.83872 0.39332,1.02499 -4.96512,11.40017 -12.10791,23.44375 -7.04741,11.88278 -12.8135,21.8966 -12.8135,22.25294 0,0.35632 5.85936,0.81079 13.0208,1.00991 12.05322,0.3351 13.02078,0.5508 13.02078,2.90264 0,2.37618 -0.96618,2.5638 -14.92628,2.89855 l -14.92625,0.35788 -0.068,18.06174 -0.0681,18.06174 -11.32154,10.16256 -11.32155,10.16256 0,13.33835 0,13.33836 11.34473,10.16257 11.34473,10.16255 -0.27285,17.14933 -0.27285,17.1493 -37.15686,0.33677 -37.15685,0.33676 0,6.28641 0,6.28642 12.37091,0.36359 c 10.1018,0.29689 12.44165,0.73347 12.75657,2.38016 0.41214,2.15494 -25.14313,22.83349 -28.00206,22.65841 -0.86424,-0.0529 -7.28788,-4.59799 -14.27464,-10.10017 z m 22.76955,-3.17579 7.5257,-5.68259 -15.68657,0 -15.68657,0 7.5257,5.68259 c 4.13915,3.12543 7.81153,5.68258 8.16087,5.68258 0.34934,0 4.02172,-2.55715 8.16087,-5.68258 z m 62.97704,-44.17592 0,-13.08694 -11.43288,-9.96032 -11.43288,-9.96035 0,-16.15114 0,-16.15111 11.43288,-9.96036 11.43288,-9.96034 0,-16.8588 0,-16.85877 -15.56141,-0.35668 c -14.59565,-0.33453 -15.56142,-0.51436 -15.56142,-2.89732 0,-2.36073 0.96706,-2.56617 13.65592,-2.90119 7.51078,-0.19832 13.65596,-0.57165 13.65596,-0.82964 0,-0.258 -5.76667,-10.27095 -12.81481,-22.25098 -7.14414,-12.14324 -12.50198,-22.59706 -12.1079,-23.62403 0.55842,-1.45523 3.65003,-1.84212 14.72029,-1.84212 l 14.01337,0 0,-15.18321 0,-15.18324 -7.9395,-0.37818 -7.9395,-0.37821 0,-37.47443 0,-37.47443 7.30434,-0.38096 7.30435,-0.38099 0,-11.36948 0,-11.36949 -67.32696,0 -67.32695,0 0,11.3665 0,11.36648 6.66918,0.38397 6.66918,0.38397 0,37.47443 0,37.47443 -6.03402,0.3872 -6.03402,0.38717 0,15.17425 0,15.17422 14.01338,0 c 11.05834,0 14.16219,0.38774 14.71898,1.83872 0.39332,1.02499 -4.96511,11.40017 -12.10791,23.44375 -7.04742,11.88278 -12.81349,21.8966 -12.81349,22.25294 0,0.35632 5.85936,0.81079 13.02078,1.00991 12.05323,0.3351 13.02078,0.5508 13.02078,2.90264 0,2.37618 -0.96617,2.5638 -14.92625,2.89855 l -14.92627,0.35788 -0.0679,17.42659 -0.0679,17.42657 -11.32155,10.16257 -11.321548,10.16254 0,13.33836 0,13.33837 11.321548,10.16255 11.32155,10.16256 0.0679,14.92625 0.0679,14.92627 67.32695,0 67.32695,0 0,-13.08693 z m -33.66993,5.1312 c -1.38922,-0.77747 -4.4518,-1.28386 -6.8057,-1.12533 -8.48432,0.57138 -13.12045,-5.98639 -10.29175,-14.55752 2.34463,-7.10424 10.25604,-9.25084 15.34368,-4.16319 2.27698,2.27696 2.59555,3.77539 2.09249,9.84167 -0.46296,5.58269 -0.14625,7.48274 1.44064,8.64311 2.77524,2.02932 1.3554,3.11555 -1.77936,1.36126 z m -3.89525,-5.47338 c 1.09793,-1.0979 1.99623,-3.9153 1.99623,-6.26084 0,-4.92285 -2.75534,-8.25709 -6.82345,-8.25709 -4.16738,0 -5.87976,2.40471 -5.87976,8.25709 0,2.86456 0.68598,5.89426 1.52439,6.73268 2.13763,2.13764 6.81339,1.89739 9.18259,-0.47184 z m 9.61814,3.10293 c 0,-0.78866 2.03528,-3.68676 4.52286,-6.44021 5.81113,-6.43221 5.65123,-10.63245 -0.39432,-10.35818 -4.96956,0.22545 -5.47489,-1.70647 -0.75612,-2.89081 8.08061,-2.02809 10.55488,5.84509 4.28777,13.64367 l -3.96896,4.93884 4.50599,0 c 2.47829,0 4.50598,0.57163 4.50598,1.27031 0,0.69868 -2.85822,1.27032 -6.35159,1.27032 -3.87069,0 -6.35161,-0.5601 -6.35161,-1.43394 z m -16.14608,-45.56789 c -0.61737,-2.36084 -1.73274,-2.54065 -15.76008,-2.54065 l -15.09568,0 0,-3.17578 0,-3.17582 15.24384,0 c 12.84205,0 15.24385,-0.3065 15.24385,-1.94534 0,-3.27419 2.98143,-3.3554 11.51535,-0.31366 10.95072,3.90318 11.09111,6.60647 0.55269,10.64207 -9.47572,3.62862 -10.86836,3.68923 -11.69997,0.50918 z m -81.66854,-51.44795 0,-10.79773 4.99055,0 c 7.62894,0 11.90262,6.15805 7.06183,10.17556 -1.1143,0.92479 -1.48534,2.19051 -0.88347,3.01376 0.57074,0.78066 1.70883,2.99138 2.52908,4.91275 2.22026,5.20069 -1.1003,4.57832 -3.53544,-0.66266 -1.17417,-2.52714 -3.00241,-4.25683 -4.76369,-4.50699 -2.50608,-0.3559 -2.85822,0.15274 -2.85822,4.12855 0,2.49396 -0.57165,4.53447 -1.27032,4.53447 -0.74724,0 -1.27032,-4.44612 -1.27032,-10.79771 z m 10.16255,-2.54065 c 2.11849,-2.55261 -0.42837,-5.71644 -4.60165,-5.71644 -2.50896,0 -3.02026,0.64517 -3.02026,3.81095 0,3.16581 0.5113,3.81097 3.02026,3.81097 1.66114,0 3.73188,-0.85746 4.60165,-1.90548 z m 8.89224,2.54065 c 0,-6.35161 0.52308,-10.79773 1.27033,-10.79773 0.73398,0 1.27032,4.0227 1.27032,9.52741 l 0,9.52739 4.44612,0 c 2.44536,0 4.44611,0.57165 4.44611,1.27032 0,0.69868 -2.57239,1.27032 -5.71643,1.27032 l -5.71645,0 0,-10.79771 z m 13.97351,0 0,-10.79773 6.35161,0 c 3.49339,0 6.3516,0.57165 6.3516,1.27032 0,0.69869 -2.28658,1.27032 -5.08128,1.27032 -4.57314,0 -5.08128,0.31758 -5.08128,3.17581 0,2.78259 0.55047,3.17578 4.44612,3.17578 2.44536,0 4.44612,0.57167 4.44612,1.27033 0,0.69868 -2.00076,1.27032 -4.44612,1.27032 -4.09324,0 -4.44612,0.30247 -4.44612,3.81096 0,3.59924 0.28229,3.81096 5.08128,3.81096 2.7947,0 5.08128,0.57165 5.08128,1.27032 0,0.69868 -2.85821,1.27032 -6.3516,1.27032 l -6.35161,0 0,-10.79771 z m 16.51416,0 0,-10.79773 5.1648,0 c 6.7693,0 9.50167,1.59729 11.23422,6.56733 1.04609,3.0008 1.04849,5.2133 0.008,8.36268 -1.55647,4.71674 -5.07786,6.66543 -12.04449,6.66543 l -4.36343,0 0,-10.79771 z m 11.5164,6.94206 c 1.86157,-0.99628 2.45712,-2.67888 2.45712,-6.94206 0,-6.14887 -2.08688,-8.25709 -8.17355,-8.25709 -3.16459,0 -3.25933,0.23999 -3.25933,8.25709 0,8.01708 0.0947,8.25707 3.25933,8.25707 1.79262,0 4.36501,-0.59175 5.71643,-1.31501 z M 160.32753,492.93099 c 0,-6.3516 0.52307,-10.79772 1.27032,-10.79772 0.74726,0 1.27032,4.44612 1.27032,10.79772 0,6.35162 -0.52306,10.79773 -1.27032,10.79773 -0.74725,0 -1.27032,-4.44611 -1.27032,-10.79773 z m 8.89224,0 0,-10.79772 4.99053,0 c 7.62896,0 11.90264,6.15807 7.06185,10.17555 -1.11429,0.9248 -1.48534,2.19052 -0.88346,3.01379 0.57073,0.78064 1.70881,2.99137 2.52908,4.91272 2.22026,5.20071 -1.10031,4.57831 -3.53544,-0.66264 -1.17418,-2.52714 -3.00242,-4.25686 -4.7637,-4.507 -2.50608,-0.3559 -2.85823,0.15275 -2.85823,4.12856 0,2.49396 -0.57163,4.53447 -1.27032,4.53447 -0.74724,0 -1.27031,-4.44611 -1.27031,-10.79773 z m 10.16256,-2.54064 c 2.11847,-2.55259 -0.42838,-5.71643 -4.60167,-5.71643 -2.50896,0 -3.02026,0.64514 -3.02026,3.81095 0,3.16581 0.5113,3.81097 3.02026,3.81097 1.66114,0 3.73189,-0.85747 4.60167,-1.90549 z m 8.89223,2.54064 c 0,-6.3516 0.52307,-10.79772 1.27031,-10.79772 0.73398,0 1.27032,4.02268 1.27032,9.5274 l 0,9.5274 4.44614,0 c 2.44536,0 4.44612,0.57164 4.44612,1.27032 0,0.69868 -2.57241,1.27033 -5.71644,1.27033 l -5.71645,0 0,-10.79773 z m 13.97353,0 0,-10.79772 6.3516,0 c 3.49338,0 6.3516,0.57164 6.3516,1.27032 0,0.69868 -2.28658,1.27033 -5.08129,1.27033 -4.57314,0 -5.08127,0.31758 -5.08127,3.17578 0,2.78262 0.55046,3.17582 4.44611,3.17582 2.44537,0 4.44613,0.57164 4.44613,1.27032 0,0.69868 -2.00076,1.27032 -4.44613,1.27032 -4.09324,0 -4.44611,0.30247 -4.44611,3.81095 0,3.59924 0.2823,3.81096 5.08127,3.81096 2.79471,0 5.08129,0.57164 5.08129,1.27032 0,0.69868 -2.85822,1.27033 -6.3516,1.27033 l -6.3516,0 0,-10.79773 z m 16.51415,0 0,-10.79772 5.1648,0 c 6.7693,0 9.50166,1.5973 11.23422,6.56733 1.04608,3.00081 1.04848,5.2133 0.008,8.36269 -1.55644,4.71673 -5.07783,6.66543 -12.04448,6.66543 l -4.36343,0 0,-10.79773 z m 11.51639,6.94208 c 1.86158,-0.9963 2.45713,-2.67889 2.45713,-6.94208 0,-6.14885 -2.08688,-8.25707 -8.17357,-8.25707 -3.16458,0 -3.25931,0.23998 -3.25931,8.25707 0,8.01709 0.0946,8.25708 3.25931,8.25708 1.79263,0 4.36504,-0.59175 5.71644,-1.315 z m -102.97942,-62.83615 0,-10.79771 4.99056,0 c 7.62894,0 11.90262,6.15805 7.06183,10.17554 -1.1143,0.92481 -1.48535,2.19052 -0.88346,3.01379 0.57073,0.78064 1.70881,2.99137 2.52907,4.91272 2.22027,5.20071 -1.1003,4.57832 -3.53543,-0.66265 -1.17418,-2.52712 -3.00242,-4.25684 -4.7637,-4.50698 -2.50607,-0.35592 -2.85823,0.15272 -2.85823,4.12856 0,2.49395 -0.57164,4.53446 -1.27032,4.53446 -0.74723,0 -1.27032,-4.44614 -1.27032,-10.79773 z m 10.16257,-2.54063 c 2.11848,-2.55261 -0.42837,-5.71644 -4.60167,-5.71644 -2.50896,0 -3.02026,0.64515 -3.02026,3.81096 0,3.16579 0.5113,3.81096 3.02026,3.81096 1.66115,0 3.73189,-0.85747 4.60167,-1.90548 z m 10.16255,12.06803 c 0,-0.69868 1.1433,-1.27032 2.54064,-1.27032 2.26,0 2.54064,-0.84688 2.54064,-7.66659 0,-7.27299 -0.13044,-7.59683 -2.54064,-6.30692 -3.17942,1.70156 -3.31644,-0.17446 -0.21754,-2.97892 4.35764,-3.94363 5.29882,-2.62478 5.29882,7.42504 0,7.6219 0.38109,9.52739 1.90548,9.52739 1.04802,0 1.90547,0.57164 1.90547,1.27032 0,0.69867 -2.57238,1.27033 -5.71642,1.27033 -3.14405,0 -5.71645,-0.57166 -5.71645,-1.27033 z m -26.53798,86.64606 11.04166,-18.68395 -11.24066,-0.36437 c -6.18234,-0.20041 -16.6621,-0.20041 -23.288306,0 l -12.047675,0.36437 11.509925,19.4207 c 6.330456,10.68139 11.841466,19.08917 12.246666,18.68397 0.40519,-0.40521 5.70547,-9.14452 11.77839,-19.42072 z m 141.00549,0 11.04165,-18.68395 -11.24065,-0.36437 c -6.18234,-0.20041 -16.66209,-0.20041 -23.2883,0 l -12.04767,0.36437 11.50992,19.4207 c 6.33045,10.68139 11.84146,19.08917 12.24665,18.68397 0.40522,-0.40521 5.70549,-9.14452 11.7784,-19.42072 z m -143.68486,-94.26798 0,-31.75799 -11.43289,0 -11.432866,0 0,31.75799 0,31.75801 11.432866,0 11.43289,0 0,-31.75801 z m 141.00549,0 0,-31.75799 -11.43286,0 -11.43289,0 0,31.75799 0,31.75801 11.43289,0 11.43286,0 0,-31.75801 z m -67.96211,-93.21279 c 10.26168,-4.83917 15.91009,-13.14131 15.85112,-23.29825 -0.12691,-21.86042 -28.50512,-33.78559 -45.3026,-19.03718 -12.1329,10.6528 -12.09254,28.79659 0.0856,38.51382 9.20483,7.3447 19.15035,8.63899 29.36584,3.82161 z m -13.33835,-8.4128 0,-5.08126 -5.71644,0 c -4.23439,0 -5.71644,-0.49402 -5.71644,-1.90549 0,-1.41146 1.48205,-1.90548 5.71644,-1.90548 l 5.71644,0 0,-5.71644 c 0,-4.2344 0.49401,-5.71645 1.90548,-5.71645 1.41147,0 1.90548,1.48205 1.90548,5.71645 l 0,5.71644 5.71644,0 c 4.23439,0 5.71643,0.49402 5.71643,1.90548 0,1.41147 -1.48204,1.90549 -5.71643,1.90549 l -5.71644,0 0,5.08126 c 0,3.66981 -0.52931,5.08128 -1.90548,5.08128 -1.37617,0 -1.90548,-1.41147 -1.90548,-5.08128 z m -11.43288,-26.04155 c 0,-1.57277 2.32892,-1.90548 13.33836,-1.90548 11.00945,0 13.33835,0.33271 13.33835,1.90548 0,1.57277 -2.3289,1.90547 -13.33835,1.90547 -11.00944,0 -13.33836,-0.3327 -13.33836,-1.90547 z m 20.56361,-59.82975 -7.86041,-5.84117 -7.8604,5.84117 -7.86042,5.84116 15.72082,0 15.72082,0 -7.86041,-5.84116 z M 1205.8006,719.13459 c 0,-0.30167 -1.7005,-5.16065 -3.7788,-10.79773 -2.6528,-7.19477 -3.2952,-10.24921 -2.1555,-10.24921 0.8928,0 2.9123,4.0015 4.4873,8.89225 1.5751,4.89071 3.0838,8.89222 3.3526,8.89222 0.2688,0 1.7775,-4.00151 3.3528,-8.89222 1.575,-4.89075 3.5943,-8.89225 4.4873,-8.89225 1.1395,0 0.4972,3.05444 -2.1555,10.24921 -2.0785,5.63708 -3.7791,10.49606 -3.7791,10.79773 0,0.30168 -0.8575,0.5485 -1.9055,0.5485 -1.0479,0 -1.9056,-0.24682 -1.9056,-0.5485 z m 15.244,-0.72183 c 0,-0.69868 1.1434,-1.27032 2.5406,-1.27032 2.2599,0 2.5406,-0.84688 2.5406,-7.6666 0,-7.27298 -0.1304,-7.59681 -2.5406,-6.30691 -3.1793,1.70157 -3.3164,-0.17446 -0.2175,-2.97892 4.3575,-3.94364 5.2989,-2.62478 5.2989,7.42504 0,7.62191 0.381,9.52739 1.9054,9.52739 1.0479,0 1.9055,0.57164 1.9055,1.27032 0,0.69868 -2.5724,1.27033 -5.7165,1.27033 -3.144,0 -5.7164,-0.57165 -5.7164,-1.27033 z m -836.50561,-16.548 c -16.55077,-13.03396 -16.64123,-14.45243 -0.95274,-14.94008 l 11.75045,-0.36524 0,-39.33226 0,-39.33225 -14.01338,0 c -11.05836,0 -14.16219,-0.38773 -14.71897,-1.8387 -0.39334,-1.02499 4.96511,-11.40016 12.10791,-23.44376 7.0474,-11.88278 12.81347,-21.8966 12.81347,-22.25292 0,-0.35633 -5.85935,-0.81079 -13.02077,-1.0099 -12.05322,-0.33511 -13.02077,-0.55082 -13.02077,-2.90266 0,-2.37618 0.96618,-2.56381 14.92625,-2.89853 l 14.92626,-0.3579 0,-62.84052 0,-62.84051 57.14965,0 57.14964,0 0.33233,-49.86006 0.33232,-49.86004 32.00993,-0.33926 32.00995,-0.33926 0.38321,-6.6475 0.38322,-6.6475 37.47444,0 37.47443,0 0.38634,6.01339 0.38635,6.01341 33.91228,0.3382 33.91231,0.33819 0.33039,58.11712 0.3304,58.11715 18.34043,0 18.34043,0 0.38398,-6.66917 0.38396,-6.66919 37.47443,0 37.47444,0 0.38716,6.03402 0.3872,6.03401 49.40649,0 49.40648,0 0.38396,-6.66917 0.38397,-6.66919 37.47445,0 37.47443,0 0.3872,6.03403 0.3872,6.03401 151.0984,0 151.0984,0 0,-12.06804 c 0,-12.02569 0.012,-12.06803 3.1759,-12.06803 l 3.1759,0 0,27.31186 0,27.3119 -3.1759,0 c -3.1647,0 -3.1759,-0.0423 -3.1759,-12.06805 l 0,-12.06804 -124.4913,0 -124.4914,0 0,48.27216 0,48.27214 12.0681,0 c 12.0258,0 12.0681,0.0116 12.0681,3.17581 l 0,3.1758 -27.3119,0 -27.3118,0 0,-3.1758 c 0,-3.16466 0.043,-3.17581 12.0679,-3.17581 l 12.0681,0 0,-48.27214 0,-48.27216 -23.4404,0 -23.4402,0 -0.3783,7.93951 -0.3781,7.93949 -37.47443,0 -37.47445,0 -0.38096,-7.30433 -0.381,-7.30434 -22.80233,0 -22.80238,0 0,48.27215 0,48.27214 12.06803,0 c 12.02571,0 12.06804,0.0115 12.06804,3.17581 l 0,3.17579 -27.31188,0 -27.31188,0 0,-3.17579 c 0,-3.16466 0.0422,-3.17581 12.06805,-3.17581 l 12.06804,0 0,-48.27214 0,-48.27215 -23.4403,0 -23.44031,0 -0.37819,7.9395 -0.37819,7.93949 -37.47444,0 -37.47443,0 -0.38097,-7.30434 -0.38098,-7.30433 -38.46669,0 -38.46671,0 -1.65281,3.08829 c -0.90907,1.69858 -4.1497,4.41292 -7.20144,6.03184 l -5.54859,2.94354 0,22.31836 0,22.31838 6.74485,2.12612 c 8.10942,2.55627 16.46651,9.39541 20.25552,16.5764 3.86073,7.31688 3.88404,20.9495 0.0481,28.21477 -3.95553,7.49202 -11.76004,13.97769 -19.91228,16.54746 l -7.0467,2.22129 -0.36236,11.53257 -0.36234,11.53259 -30.78232,0.34013 -30.78231,0.3401 -0.34052,30.14757 -0.34052,30.14756 -21.91302,0.34756 -21.91302,0.34758 0,15.16785 0,15.16784 12.37091,0.36358 c 16.7468,0.49219 16.72642,1.62496 -0.26582,14.76578 -7.37447,5.70298 -13.96504,10.36904 -14.64572,10.36904 -0.68069,0 -7.27127,-4.66606 -14.64571,-10.36904 -16.85944,-13.03812 -16.9345,-14.26846 -0.9012,-14.76745 l 11.73594,-0.36524 0,-15.16547 0,-15.16544 -21.27785,-0.34831 -21.27785,-0.34828 0,-97.81464 0,-97.81462 26.35913,-0.34336 26.35914,-0.34334 0,-12.67742 0,-12.67743 -80.03015,0 -80.03016,0 0,59.66593 0,59.66593 15.56142,0.35668 c 14.59566,0.33454 15.56141,0.51436 15.56141,2.89732 0,2.36072 -0.96706,2.56618 -13.65592,2.90119 -7.51076,0.19831 -13.65595,0.57165 -13.65595,0.82964 0,0.25801 5.76666,10.27093 12.81481,22.25097 7.14413,12.14324 12.50199,22.59707 12.10789,23.62404 -0.55841,1.45523 -3.65002,1.8421 -14.72027,1.8421 l -14.01339,0 0,39.33392 0,39.33392 12.37093,0.36358 c 10.10179,0.29689 12.44163,0.73349 12.75656,2.38017 0.41214,2.15493 -25.14313,22.83348 -28.00205,22.65841 -0.86434,-0.0529 -7.28799,-4.598 -14.27474,-10.10017 z m 22.76953,-3.17581 7.52571,-5.68258 -15.68658,0 -15.68656,0 7.5257,5.68258 c 4.13913,3.12544 7.81153,5.6826 8.16086,5.6826 0.34934,0 4.02174,-2.55716 8.16087,-5.6826 z m 156.24936,0 7.52568,-5.68258 -15.68656,0 -15.68658,0 7.52571,5.68258 c 4.13914,3.12544 7.81151,5.6826 8.16087,5.6826 0.34933,0 4.02172,-2.55716 8.16088,-5.6826 z m 32.48935,-135.96534 c 0,-47.90053 -0.42874,-86.86114 -0.95275,-86.57913 -0.52401,0.28201 -7.40875,4.36883 -15.29943,9.08178 -7.90303,4.72035 -15.17757,8.2502 -16.19657,7.85919 -1.45757,-0.55934 -1.84987,-3.54694 -1.84987,-14.08811 l 0,-13.37822 -23.50093,0 -23.50093,0 0,92.09818 0,92.09818 40.65025,0 40.65023,0 0,-87.09187 z M 536.3422,518.97254 c -2.01948,-2.01946 -2.54064,-4.23437 -2.54064,-10.79772 0,-4.65784 0.55374,-8.25706 1.27032,-8.25706 0.69868,0 1.27032,3.18162 1.27032,7.07027 0,8.60378 1.61257,11.98451 5.71643,11.98451 4.10389,0 5.71646,-3.38073 5.71646,-11.98451 0,-3.88865 0.57163,-7.07027 1.27032,-7.07027 0.71657,0 1.27031,3.59922 1.27031,8.25706 0,9.27055 -2.51818,13.33837 -8.25709,13.33837 -1.74669,0 -4.31907,-1.14329 -5.71643,-2.54065 z m 20.32512,1.27032 c 0,-0.69867 1.14327,-1.27032 2.54064,-1.27032 2.25999,0 2.54065,-0.84688 2.54065,-7.66659 0,-7.27299 -0.13047,-7.5968 -2.54065,-6.30691 -3.17943,1.70157 -3.31644,-0.17448 -0.21755,-2.97891 4.35766,-3.94364 5.29882,-2.62479 5.29882,7.42501 0,7.62194 0.38109,9.5274 1.90548,9.5274 1.04801,0 1.90549,0.57165 1.90549,1.27032 0,0.69868 -2.5724,1.27033 -5.71645,1.27033 -3.14405,0 -5.71643,-0.57165 -5.71643,-1.27033 z m 15.23138,0.31759 c -0.006,-0.524 1.5608,-5.39821 3.48364,-10.83157 2.30517,-6.5138 4.09403,-9.75914 5.25152,-9.52741 1.73115,0.34657 9.67262,19.85401 8.54258,20.98403 -1.15775,1.15776 -3.29176,-1.14903 -3.29176,-3.55825 0,-2.02775 -0.89813,-2.46566 -5.0571,-2.46566 -4.33476,0 -5.17091,0.4536 -5.85414,3.17581 -0.72014,2.86924 -3.04437,4.54969 -3.07474,2.22305 z m 12.1936,-9.02679 c -0.36958,-0.59802 -1.30098,-2.74167 -2.06977,-4.7637 -1.47746,-3.88598 -2.4224,-3.23239 -4.32688,2.99277 -0.77739,2.54107 -0.43373,2.85822 3.0971,2.85822 2.18435,0 3.66915,-0.48928 3.29955,-1.08729 z m -164.34426,85.88115 c -1.35991,-2.27069 -6.62489,-11.1312 -11.69993,-19.68998 -5.07506,-8.55876 -9.38376,-15.56141 -9.57485,-15.56141 -0.19114,0 -4.79075,7.57429 -10.22138,16.83174 -5.43063,9.25747 -10.69706,18.11795 -11.70318,19.68997 l -1.82933,2.85821 23.75063,0 23.75064,0 -2.4726,-4.12853 z m 238.54487,-17.23492 0,-8.66026 -7.0915,-2.23539 c -8.1987,-2.58441 -15.99226,-9.05196 -19.95707,-16.56157 -3.81172,-7.21959 -3.81172,-20.90073 0,-28.12032 3.95952,-7.49958 11.75932,-13.97746 19.93148,-16.55351 l 7.06589,-2.22731 0.3432,-25.44887 0.34315,-25.44884 4.26904,-0.87225 c 2.34799,-0.47973 5.18579,-1.78897 6.30623,-2.90943 1.86938,-1.86936 0.70403,-2.03717 -14.1463,-2.03717 l -16.18345,0 -18.37777,11.11529 -18.37774,11.1153 -0.0104,58.75229 -0.008,58.75228 27.94704,0 27.94704,0 0,-8.66024 z m 11.78516,-16.82253 c 10.04718,-2.79012 18.6467,-14.17896 18.6467,-24.69485 0,-14.00346 -13.00083,-26.07255 -28.03862,-26.02915 -5.26682,0.0152 -16.01017,4.92397 -19.79953,9.04663 -6.69887,7.28816 -8.4429,18.24314 -4.32144,27.14509 5.77808,12.48006 19.49068,18.42628 33.51289,14.53228 z M 648.13034,550.0954 c 0,-1.57279 2.32891,-1.9055 13.33836,-1.9055 11.00944,0 13.33836,0.33271 13.33836,1.9055 0,1.57278 -2.32892,1.90546 -13.33836,1.90546 -11.00945,0 -13.33836,-0.33268 -13.33836,-1.90546 z m 11.43288,-11.43289 0,-5.71644 -5.71644,0 c -4.23441,0 -5.71644,-0.49401 -5.71644,-1.90547 0,-1.41148 1.48203,-1.90549 5.71644,-1.90549 l 5.71644,0 0,-5.08128 c 0,-3.66981 0.52931,-5.08129 1.90548,-5.08129 1.37617,0 1.90548,1.41148 1.90548,5.08129 l 0,5.08128 5.71643,0 c 4.23439,0 5.71645,0.49401 5.71645,1.90549 0,1.41146 -1.48206,1.90547 -5.71645,1.90547 l -5.71643,0 0,5.71644 c 0,4.2344 -0.49402,5.71643 -1.90548,5.71643 -1.41147,0 -1.90548,-1.48203 -1.90548,-5.71643 z m -74.56114,-64.23164 c 6.15199,-3.79846 13.58337,-8.28608 16.51416,-9.97252 2.93079,-1.68643 10.53276,-6.26146 16.89327,-10.16673 l 11.56457,-7.10048 -26.8084,-16.22398 c -14.74463,-8.92318 -28.66624,-17.40921 -30.93696,-18.85779 l -4.12852,-2.63381 0,37.74528 0,37.74529 2.8582,-1.81452 c 1.57203,-0.99797 7.89168,-4.9223 14.04368,-8.72074 z m -6.73933,-7.54142 c 0,-2.96408 -0.56457,-3.81097 -2.54064,-3.81097 -1.41146,0 -2.54064,-0.84689 -2.54064,-1.90548 0,-1.0586 1.12918,-1.90548 2.54064,-1.90548 1.97607,0 2.54064,-0.84689 2.54064,-3.81096 0,-2.54063 0.63516,-3.81096 1.90549,-3.81096 1.27031,0 1.90547,1.27033 1.90547,3.81096 0,3.59923 0.2823,3.81096 5.08129,3.81096 3.6698,0 5.08128,0.5293 5.08128,1.90548 0,1.37618 -1.41148,1.90548 -5.08128,1.90548 -4.79899,0 -5.08129,0.21173 -5.08129,3.81097 0,2.54063 -0.63516,3.81096 -1.90547,3.81096 -1.27033,0 -1.90549,-1.27033 -1.90549,-3.81096 z m -6.35159,-36.20413 c 0,-1.52437 1.90547,-1.90547 9.52739,-1.90547 7.62192,0 9.52741,0.3811 9.52741,1.90547 0,1.52438 -1.90549,1.90549 -9.52741,1.90549 -7.62192,0 -9.52739,-0.38111 -9.52739,-1.90549 z m 254.06396,15.879 0,-11.43287 -31.758,0 -31.75799,0 0,11.43287 0,11.43288 31.75799,0 31.758,0 0,-11.43288 z m 175.30418,-1.27032 0,-11.43287 -31.75803,0 -31.75801,0 0,11.43287 0,11.43288 31.75801,0 31.75803,0 0,-11.43288 z m -329.01288,-5.08128 c -1.83444,-3.42767 -6.89013,-6.59989 -9.74281,-6.11318 -2.12205,0.36208 -2.35662,-0.85197 -2.68441,-13.89436 l -0.35918,-14.29109 -27.27029,0 -27.27026,0 0,9.3431 0,9.3431 14.92442,9.07653 14.92442,9.07655 19.4189,0 c 19.02528,0 19.39135,-0.0514 18.05921,-2.54065 z m 40.65023,-52.71827 0,-55.2589 -31.06222,0 -31.06223,0 -0.37818,7.93949 -0.3782,7.9395 -37.47443,0 -37.47444,0 -0.38096,-7.30434 -0.38098,-7.30433 -29.15396,0 -29.15397,0 0,47.00182 0,47.00184 22.86576,0 22.86577,0 0,-12.74305 c 0,-10.10662 0.39085,-12.89308 1.88922,-13.46807 1.08594,-0.41669 8.58218,3.38121 17.63009,8.93212 8.65748,5.31138 16.09616,9.65708 16.53041,9.65708 0.43425,0 0.78954,-4.57315 0.78954,-10.16256 l 0,-10.16256 32.77425,0 c 23.79731,0 33.19178,0.41753 34.29863,1.52437 0.98829,0.98831 1.52439,6.12578 1.52439,14.60869 0,7.56152 0.51753,13.0843 1.22611,13.0843 2.33498,0 9.94168,7.66307 10.73186,10.81142 l 0.79362,3.1621 16.48996,0 16.48996,0 0,-55.25892 z m -68.59727,-56.52924 0,-11.43287 -31.75799,0 -31.75799,0 0,11.43287 0,11.43288 31.75799,0 31.75799,0 0,-11.43288 z M 63.141638,682.51001 c -1.389253,-0.77748 -4.451821,-1.28388 -6.805723,-1.12535 -8.484314,0.57139 -13.120457,-5.98636 -10.291725,-14.5575 2.344604,-7.10424 10.256013,-9.25084 15.343665,-4.16321 2.27695,2.27696 2.595547,3.7754 2.09248,9.84168 -0.462956,5.58269 -0.146259,7.48274 1.440644,8.64312 2.775242,2.02931 1.355389,3.11555 -1.779341,1.36126 z m -3.895258,-5.47339 c 1.097911,-1.09791 1.996212,-3.91528 1.996212,-6.26085 0,-2.34557 -0.898301,-5.16293 -1.996212,-6.26086 -2.369208,-2.3692 -7.044971,-2.60947 -9.182603,-0.47184 -1.974484,1.97448 -1.974484,11.49091 0,13.46541 2.137632,2.13761 6.813395,1.89737 9.182603,-0.47186 z m 10.888449,3.26655 c 0,-0.69868 1.143287,-1.27031 2.540639,-1.27031 2.259991,0 2.54064,-0.8469 2.54064,-7.66661 0,-7.27298 -0.130446,-7.59682 -2.54064,-6.30692 -3.179427,1.70158 -3.316439,-0.17446 -0.21755,-2.97891 4.357656,-3.94363 5.29883,-2.62478 5.29883,7.42504 0,7.62191 0.381095,9.5274 1.905481,9.5274 1.048012,0 1.90548,0.57163 1.90548,1.27031 0,0.69868 -2.572399,1.27032 -5.716441,1.27032 -3.144041,0 -5.716439,-0.57164 -5.716439,-1.27032 z m 342.986341,-48.90731 0,-10.79773 5.1648,0 c 6.76929,0 9.50165,1.59729 11.23422,6.56733 1.04609,3.0008 1.04847,5.2133 0.008,8.36268 -1.55645,4.71673 -5.07783,6.66544 -12.04446,6.66544 l -4.36343,0 0,-10.79772 z m 11.51641,6.94208 c 1.86157,-0.9963 2.4571,-2.67889 2.4571,-6.94208 0,-6.14886 -2.08687,-8.25708 -8.17354,-8.25708 -3.16459,0 -3.25932,0.23997 -3.25932,8.25708 0,8.01708 0.0946,8.25707 3.25932,8.25707 1.79262,0 4.36501,-0.59175 5.71644,-1.31499 z m 11.34934,2.58531 c 0,-0.69867 1.1433,-1.27032 2.54065,-1.27032 2.25999,0 2.54064,-0.84689 2.54064,-7.66659 0,-7.27299 -0.13045,-7.59682 -2.54064,-6.30693 -3.17943,1.70158 -3.31644,-0.17446 -0.21755,-2.9789 4.35765,-3.94362 5.29883,-2.62479 5.29883,7.42503 0,7.62192 0.38109,9.52739 1.90548,9.52739 1.04802,0 1.90548,0.57165 1.90548,1.27032 0,0.69868 -2.5724,1.27033 -5.71643,1.27033 -3.14405,0 -5.71646,-0.57165 -5.71646,-1.27033 z M 61.610668,637.1123 c -0.621023,-2.37479 -1.732736,-2.54065 -17.030393,-2.54065 l -16.365998,0 0,-3.17579 0,-3.17581 16.514157,0 c 13.982795,0 16.514158,-0.29818 16.514158,-1.94532 0,-3.27421 2.981428,-3.35542 11.515366,-0.31366 10.950706,3.90316 11.091091,6.60644 0.552671,10.64205 -9.475722,3.62862 -10.86836,3.68922 -11.699961,0.50918 z M 868.53083,615.48301 c -16.55077,-13.03396 -16.64123,-14.45243 -0.95274,-14.94008 l 11.75046,-0.36525 0,-18.37197 0,-18.37197 -12.06804,0 c -12.0257,0 -12.06805,-0.0116 -12.06805,-3.17579 l 0,-3.17581 27.31188,0 27.31188,0 0,3.17581 c 0,3.16465 -0.0423,3.17579 -12.06804,3.17579 l -12.06803,0 0,18.37365 0,18.37364 12.37091,0.36357 c 10.10179,0.29688 12.44164,0.73347 12.75657,2.38017 0.41214,2.15491 -25.14314,22.83349 -28.00206,22.65841 -0.86435,-0.0528 -7.28798,-4.59801 -14.27474,-10.10017 z m 22.76955,-3.17581 7.52569,-5.68258 -15.68656,0 -15.68657,0 7.5257,5.68258 c 4.13914,3.12544 7.81153,5.68261 8.16087,5.68261 0.34934,0 4.02172,-2.55717 8.16087,-5.68261 z m 152.53462,1.90549 c -16.5508,-13.03396 -16.6412,-14.45243 -0.9529,-14.94008 l 11.7506,-0.36525 0,-18.37197 0,-18.37197 -12.0681,0 c -12.0257,0 -12.0679,-0.0115 -12.0679,-3.17579 l 0,-3.1758 27.3118,0 27.3119,0 0,3.1758 c 0,3.16465 -0.042,3.17579 -12.0681,3.17579 l -12.0681,0 0,18.37364 0,18.37365 12.3709,0.36357 c 10.1019,0.29688 12.4417,0.73347 12.7566,2.38017 0.4123,2.15493 -25.1431,22.83348 -28.0021,22.65841 -0.8643,-0.0529 -7.2878,-4.59801 -14.2746,-10.10017 z m 22.7695,-3.1758 7.5257,-5.68259 -15.6865,0 -15.6867,0 7.5258,5.68259 c 4.1391,3.12543 7.8114,5.6826 8.1609,5.6826 0.3491,0 4.0216,-2.55717 8.1608,-5.6826 z m -738.40677,-6.7044 c -5.50657,-2.14545 -6.90621,-5.01481 -2.11698,-4.33991 1.96047,0.27625 1.39859,-0.7921 -2.54063,-4.83092 -5.02694,-5.154 -5.06551,-5.16773 -6.32809,-2.2543 -2.96618,6.84453 -3.02871,6.82395 -14.76647,-4.85945 -10.68334,-10.63384 -13.24988,-14.4516 -9.7153,-14.4516 0.8579,0 5.94215,4.35667 11.2984,9.68146 9.25156,9.19732 9.78484,9.53082 10.6637,6.66919 2.10936,-6.86824 3.21619,-6.69664 10.89853,1.68952 4.69445,5.12451 7.09235,7.02526 6.66919,5.28653 -0.3634,-1.49317 -0.0681,-3.08121 0.65654,-3.52896 1.65366,-1.02201 3.49572,2.34196 4.64915,8.49026 1.04844,5.58857 -0.36181,5.95713 -9.36804,2.44818 z m 5.08128,-40.65024 c -5.50657,-2.14545 -6.90622,-5.0148 -2.11698,-4.33992 1.96046,0.27627 1.39861,-0.79209 -2.54063,-4.8309 -5.02694,-5.15399 -5.06551,-5.16774 -6.3281,-2.25431 -2.96616,6.84453 -3.0287,6.82395 -14.76646,-4.85944 -10.68334,-10.63384 -13.24988,-14.45161 -9.71529,-14.45161 0.85788,0 5.94215,4.35667 11.29838,9.68146 9.25158,9.19732 9.78485,9.53084 10.66371,6.66919 2.10936,-6.86822 3.21619,-6.69663 10.89853,1.68951 4.69446,5.12453 7.09234,7.02528 6.66919,5.28655 -0.3634,-1.49317 -0.0681,-3.08121 0.65655,-3.52898 1.65364,-1.02201 3.4957,2.34198 4.64913,8.49027 1.04845,5.5886 -0.36181,5.95714 -9.36803,2.44818 z m 559.13598,-30.1026 c -6.08423,-4.26155 -4.08959,-17.43942 2.90547,-19.19504 3.71984,-0.93365 7.02186,0.48924 7.90977,3.40838 0.4445,1.46138 0.22423,1.50553 -1.1312,0.22682 -2.28135,-2.15222 -6.87022,-2.004 -8.76846,0.28322 -0.85408,1.02913 -1.5529,3.9028 -1.5529,6.38597 0,2.48315 0.69882,5.35682 1.5529,6.38595 1.87512,2.25938 6.51036,2.44606 8.60968,0.34673 0.84687,-0.84688 1.52438,-0.95981 1.52438,-0.25406 0,4.16622 -6.51481,5.58834 -11.04964,2.41203 z m 16.13093,0.63674 c 0,-0.69868 1.14327,-1.27032 2.54062,-1.27032 2.25999,0 2.54065,-0.84689 2.54065,-7.6666 0,-7.27298 -0.13046,-7.59681 -2.54065,-6.30693 -3.17942,1.70159 -3.31643,-0.17445 -0.21755,-2.9789 4.35765,-3.94363 5.29882,-2.62478 5.29882,7.42504 0,7.62192 0.38112,9.52739 1.90549,9.52739 1.04802,0 1.90548,0.57164 1.90548,1.27032 0,0.69868 -2.5724,1.27033 -5.71644,1.27033 -3.14404,0 -5.71642,-0.57165 -5.71642,-1.27033 z m 160.44358,-0.63674 c -6.0843,-4.26155 -4.0897,-17.43942 2.9054,-19.19504 3.7198,-0.93365 7.0219,0.48924 7.9097,3.40838 0.4445,1.46138 0.2243,1.50553 -1.1311,0.22682 -2.2814,-2.15222 -6.8703,-2.004 -8.7685,0.28322 -0.8542,1.02913 -1.5529,3.9028 -1.5529,6.38597 0,2.48315 0.6987,5.35682 1.5529,6.38595 1.8752,2.25938 6.5105,2.44606 8.6097,0.34673 0.8467,-0.84688 1.5245,-0.95981 1.5245,-0.25406 0,4.16622 -6.5149,5.58834 -11.0497,2.41203 z m 14.8606,0.47311 c 0,-0.78866 2.0353,-3.68676 4.5228,-6.44019 5.8111,-6.43222 5.6511,-10.63246 -0.3943,-10.35819 -4.9696,0.22546 -5.475,-1.70647 -0.7561,-2.8908 8.0806,-2.0281 10.5549,5.84507 4.2876,13.64367 l -3.9688,4.93882 4.506,0 c 2.4783,0 4.506,0.57164 4.506,1.27032 0,0.69868 -2.8583,1.27033 -6.3517,1.27033 -3.8707,0 -6.3515,-0.56011 -6.3515,-1.43396 z m -406.5024,-28.3319 c 0,-0.30166 -1.70056,-5.16064 -3.77901,-10.79772 -2.65279,-7.19479 -3.29517,-10.24922 -2.15552,-10.24922 0.89292,0 2.91226,4.00151 4.48742,8.89224 1.57517,4.89073 3.08381,8.89223 3.35258,8.89223 0.26876,0 1.77743,-4.0015 3.35259,-8.89223 1.57517,-4.89073 3.5945,-8.89224 4.48742,-8.89224 1.13967,0 0.49729,3.05443 -2.15551,10.24922 -2.07846,5.63708 -3.77902,10.49606 -3.77902,10.79772 0,0.30168 -0.85746,0.5485 -1.90548,0.5485 -1.04802,0 -1.90547,-0.24682 -1.90547,-0.5485 z m 15.24384,-0.72182 c 0,-0.69869 1.14328,-1.27032 2.54064,-1.27032 2.25998,0 2.54064,-0.8469 2.54064,-7.66662 0,-7.27297 -0.13045,-7.5968 -2.54064,-6.3069 -3.17944,1.70159 -3.31644,-0.17446 -0.21755,-2.97892 4.35765,-3.94362 5.29884,-2.62477 5.29884,7.42503 0,7.62192 0.38109,9.52741 1.90545,9.52741 1.04802,0 1.90549,0.57163 1.90549,1.27032 0,0.69868 -2.5724,1.27032 -5.71643,1.27032 -3.14404,0 -5.71644,-0.57164 -5.71644,-1.27032 z M 2026.4273,476.50351 c 0,-0.30168 -1.7006,-5.16066 -3.7789,-10.79772 -2.6528,-7.19479 -3.2951,-10.24923 -2.1556,-10.24923 0.8929,0 2.9123,4.0015 4.4873,8.89224 1.5753,4.89073 3.0839,8.89224 3.3528,8.89224 0.2687,0 1.7773,-4.00151 3.3526,-8.89224 1.575,-4.89074 3.5945,-8.89224 4.4874,-8.89224 1.1396,0 0.4972,3.05444 -2.1557,10.24923 -2.0782,5.63706 -3.7788,10.49604 -3.7788,10.79772 0,0.30167 -0.8576,0.54848 -1.9055,0.54848 -1.0481,0 -1.9056,-0.24681 -1.9056,-0.54848 z m 14.6809,-2.27482 c -2.6974,-3.85091 -2.4826,-8.10462 0.563,-11.15021 5.0728,-5.07271 12.7032,-1.46921 12.7032,5.99909 0,6.87604 -9.48,10.55697 -13.2662,5.15112 z m 9.5412,-2.41865 c 1.9327,-3.61122 -0.3526,-8.73156 -3.8969,-8.73156 -3.5443,0 -5.8297,5.12034 -3.8969,8.73156 0.7949,1.48573 2.5487,2.70132 3.8969,2.70132 1.3481,0 3.1018,-1.21559 3.8969,-2.70132 z m 8.9859,3.64311 c -1.7828,-1.78274 -1.9409,-14.91531 -0.1796,-14.91531 0.6987,0 1.2703,2.87616 1.2703,6.39146 0,4.53337 0.5587,6.60585 1.9217,7.12889 3.3262,1.27642 5.7002,-2.03844 5.7002,-7.95945 0,-3.05849 0.5716,-5.5609 1.2703,-5.5609 0.7121,0 1.2703,3.50927 1.2703,7.98715 l 0,7.98713 -4.9016,0.19548 c -2.696,0.10747 -5.5542,-0.45699 -6.3516,-1.25445 z m 18.4518,0.75196 c -0.4658,-0.46576 -0.8468,-3.56218 -0.8468,-6.88088 0,-3.58514 -0.6445,-6.33478 -1.588,-6.77505 -1.2704,-0.59281 -1.2704,-0.88922 0,-1.48204 0.8733,-0.40756 1.588,-1.55085 1.588,-2.54063 0,-0.98979 0.5715,-1.79963 1.2702,-1.79963 0.6985,0 1.2703,0.80984 1.2703,1.79963 0,0.98978 0.7145,2.13307 1.5879,2.54063 1.2702,0.59282 1.2702,0.88923 0,1.48204 -1.8918,0.88288 -2.1859,11.96218 -0.3176,11.96218 0.6987,0 1.2703,0.57164 1.2703,1.27031 0,1.42877 -2.9355,1.72231 -4.2343,0.42344 z m -1811.0527,-40.4385 0,-10.79772 4.99053,0 c 7.62895,0 11.90264,6.15805 7.06184,10.17555 -1.1143,0.9248 -1.48533,2.19051 -0.88346,3.01377 0.57073,0.78065 1.70882,2.99137 2.52907,4.91274 2.22026,5.20069 -1.10029,4.57831 -3.53542,-0.66266 -1.17419,-2.52712 -3.00243,-4.25684 -4.76372,-4.50698 -2.50606,-0.35592 -2.8582,0.15274 -2.8582,4.12855 0,2.49395 -0.57165,4.53446 -1.27032,4.53446 -0.74727,0 -1.27032,-4.44612 -1.27032,-10.79771 z m 10.16256,-2.54065 c 2.11847,-2.5526 -0.42837,-5.71643 -4.60166,-5.71643 -2.50897,0 -3.02026,0.64516 -3.02026,3.81096 0,3.16579 0.51129,3.81096 3.02026,3.81096 1.66113,0 3.73189,-0.85748 4.60166,-1.90549 z m 8.89224,11.90442 c 0,-0.78866 2.03529,-3.68676 4.52286,-6.44019 5.81112,-6.43222 5.65121,-10.63246 -0.39433,-10.3582 -4.96954,0.22545 -5.47487,-1.70646 -0.75611,-2.89079 8.08059,-2.0281 10.55489,5.84506 4.28775,13.64366 l -3.96895,4.93882 4.506,0 c 2.47827,0 4.50597,0.57164 4.50597,1.27032 0,0.69867 -2.85821,1.27032 -6.3516,1.27032 -3.87067,0 -6.35159,-0.56009 -6.35159,-1.43394 z m 1052.208,-11.90599 c -6.084,-4.26158 -4.0895,-17.43942 2.9055,-19.19506 3.7199,-0.93362 7.0219,0.48926 7.9099,3.40837 0.4444,1.4614 0.2241,1.50557 -1.1313,0.22686 -2.2813,-2.15225 -6.8702,-2.00401 -8.7685,0.28321 -0.8541,1.02912 -1.5529,3.90279 -1.5529,6.38595 0,2.48317 0.6988,5.35683 1.5529,6.38596 1.8751,2.25939 6.5103,2.44607 8.6098,0.34674 0.8469,-0.84689 1.5243,-0.9598 1.5243,-0.25406 0,4.16622 -6.5147,5.58834 -11.0497,2.41203 z m 15.0343,0.21086 c -1.138,-1.37116 -0.3841,-1.67544 3.9337,-1.58791 4.2605,0.0865 5.4391,-0.37509 5.8233,-2.28011 0.5571,-2.76137 -1.7106,-4.55105 -5.8021,-4.5789 -4.0691,-0.0276 -3.5496,-2.31179 0.6352,-2.79329 2.5125,-0.2891 3.4933,-1.11532 3.4933,-2.9426 0,-2.05791 -0.7845,-2.50503 -4.1285,-2.35333 -4.6215,0.20968 -5.536,-1.47492 -1.4963,-2.75706 4.4636,-1.41666 8.8007,0.36251 8.8007,3.61021 0,1.59365 -0.596,3.49341 -1.3242,4.22171 -0.9188,0.91866 -0.7242,1.8221 0.6351,2.95025 2.7316,2.26696 2.4489,7.31516 -0.4978,8.89222 -3.4193,1.82991 -8.3935,1.64167 -10.0724,-0.38119 z m -573.0879,-21.80473 0,-10.79771 4.99055,0 c 7.62894,0 11.90262,6.15805 7.06184,10.17556 -1.11432,0.92479 -1.48534,2.19051 -0.88348,3.01376 0.57074,0.78066 1.70883,2.99137 2.52908,4.91273 2.22026,5.20071 -1.10031,4.57833 -3.53544,-0.66265 -1.17416,-2.52713 -3.00241,-4.25683 -4.76369,-4.50697 -2.50608,-0.35592 -2.85821,0.15272 -2.85821,4.12853 0,2.49397 -0.57165,4.53448 -1.27033,4.53448 -0.74724,0 -1.27032,-4.44613 -1.27032,-10.79773 z m 10.16255,-2.54064 c 2.11849,-2.55259 -0.42837,-5.71643 -4.60165,-5.71643 -2.50896,0 -3.02025,0.64515 -3.02025,3.81096 0,3.16579 0.51129,3.81097 3.02025,3.81097 1.66113,0 3.73189,-0.85748 4.60165,-1.9055 z m 8.89225,11.90443 c 0,-0.78868 2.03529,-3.68677 4.52286,-6.44022 5.81113,-6.43219 5.65122,-10.63245 -0.39433,-10.35817 -4.96955,0.22545 -5.47487,-1.70648 -0.7561,-2.8908 8.08058,-2.02812 10.55487,5.84507 4.28776,13.64368 l -3.96896,4.93881 4.50599,0 c 2.47827,0 4.50597,0.57164 4.50597,1.27032 0,0.69867 -2.85821,1.27032 -6.35159,1.27032 -3.87067,0 -6.3516,-0.5601 -6.3516,-1.43394 z m 147.3571,-9.36379 0,-10.79771 4.99054,0 c 7.62894,0 11.90258,6.15805 7.06184,10.17556 -1.11431,0.92479 -1.48535,2.19051 -0.88346,3.01376 0.57071,0.78066 1.7088,2.99137 2.52907,4.91273 2.22023,5.20071 -1.10029,4.57833 -3.53543,-0.66265 -1.17418,-2.52713 -3.00244,-4.25683 -4.76369,-4.50697 -2.50609,-0.35592 -2.85823,0.15272 -2.85823,4.12853 0,2.49397 -0.57165,4.53448 -1.27033,4.53448 -0.74724,0 -1.27031,-4.44613 -1.27031,-10.79773 z m 10.16256,-2.54064 c 2.11846,-2.55259 -0.42837,-5.71643 -4.60165,-5.71643 -2.50899,0 -3.02027,0.64515 -3.02027,3.81096 0,3.16579 0.51128,3.81097 3.02027,3.81097 1.66112,0 3.73188,-0.85748 4.60165,-1.9055 z m 9.06593,11.64218 c -1.13801,-1.37118 -0.38415,-1.67547 3.93381,-1.5879 4.26035,0.0864 5.43901,-0.37511 5.82325,-2.28013 0.55702,-2.76137 -1.71076,-4.55105 -5.8022,-4.57889 -4.06888,-0.0277 -3.54959,-2.31178 0.63516,-2.7933 2.51249,-0.2891 3.49337,-1.11532 3.49337,-2.9426 0,-2.0579 -0.78445,-2.50503 -4.12853,-2.35332 -4.62164,0.20968 -5.53585,-1.47494 -1.49625,-2.75707 4.46351,-1.41667 8.8006,0.36249 8.8006,3.61021 0,1.59364 -0.59585,3.49341 -1.32419,4.22171 -0.91871,0.91867 -0.7242,1.82209 0.63515,2.95024 2.7316,2.26698 2.44898,7.31517 -0.49775,8.89223 -3.41931,1.82989 -8.39357,1.64166 -10.07242,-0.38118 z M 223.84352,334.22769 c 0,-0.30168 -1.70055,-5.16065 -3.77901,-10.79773 -2.65279,-7.19477 -3.29517,-10.24923 -2.15552,-10.24923 0.89292,0 2.91228,4.00152 4.48743,8.89225 1.57516,4.89072 3.08381,8.89223 3.35258,8.89223 0.26876,0 1.77743,-4.00151 3.35258,-8.89223 1.57517,-4.89073 3.5945,-8.89225 4.48743,-8.89225 1.13965,0 0.49729,3.05446 -2.15553,10.24923 -2.07844,5.63708 -3.779,10.49605 -3.779,10.79773 0,0.30168 -0.85746,0.54848 -1.90548,0.54848 -1.04801,0 -1.90548,-0.2468 -1.90548,-0.54848 z m 15.24385,-0.72182 c 0,-0.69869 1.14327,-1.27032 2.54063,-1.27032 2.25999,0 2.54065,-0.84689 2.54065,-7.66662 0,-7.27297 -0.13047,-7.5968 -2.54065,-6.30691 -3.17942,1.70159 -3.31644,-0.17446 -0.21755,-2.97891 4.35766,-3.94362 5.29883,-2.62479 5.29883,7.42503 0,7.62192 0.38111,9.52741 1.90548,9.52741 1.04801,0 1.90549,0.57163 1.90549,1.27032 0,0.69867 -2.57241,1.2703 -5.71645,1.2703 -3.14405,0 -5.71643,-0.57163 -5.71643,-1.2703 z m 414.12425,-22.23061 0,-10.79772 4.99053,0 c 7.62897,0 11.90264,6.15805 7.06184,10.17556 -1.1143,0.9248 -1.48533,2.19051 -0.88345,3.01376 0.57073,0.78065 1.70881,2.99139 2.52906,4.91274 2.22028,5.2007 -1.10029,4.57833 -3.53542,-0.66266 -1.17419,-2.52711 -3.00243,-4.25682 -4.7637,-4.50698 -2.50609,-0.3559 -2.85821,0.15274 -2.85821,4.12853 0,2.49398 -0.57164,4.53449 -1.27032,4.53449 -0.74727,0 -1.27033,-4.44613 -1.27033,-10.79772 z m 10.16256,-2.54064 c 2.11848,-2.55261 -0.42837,-5.71644 -4.60166,-5.71644 -2.50896,0 -3.02025,0.64516 -3.02025,3.81095 0,3.16582 0.51129,3.81096 3.02025,3.81096 1.66113,0 3.73188,-0.85745 4.60166,-1.90547 z m 10.16256,12.06804 c 0,-0.69867 1.14329,-1.27032 2.54063,-1.27032 2.25999,0 2.54065,-0.84687 2.54065,-7.66661 0,-7.27296 -0.13044,-7.5968 -2.54065,-6.30692 -3.17942,1.70159 -3.31644,-0.17445 -0.21754,-2.9789 4.35765,-3.94362 5.29882,-2.62478 5.29882,7.42504 0,7.6219 0.38111,9.52739 1.90548,9.52739 1.04802,0 1.90548,0.57165 1.90548,1.27032 0,0.69868 -2.57241,1.27032 -5.71644,1.27032 -3.14402,0 -5.71643,-0.57164 -5.71643,-1.27032 z"
       id="path4217"
       inkscape:connector-curvature="0" />
    <text
       xml:space="preserve"
       style="font-style:normal;font-variant:normal;font-weight:normal;font-stretch:normal;font-size:155.40820312px;line-height:125%;font-family:'Courier 10 Pitch';-inkscape-font-specification:'Courier 10 Pitch';letter-spacing:0px;word-spacing:0px;fill:#000000;fill-opacity:1;stroke:none;stroke-width:1px;stroke-linecap:butt;stroke-linejoin:miter;stroke-opacity:1"
       x="418.35889"
       y="131.79791"
       id="text4146"
       sodipodi:linespacing="125%"><tspan
         sodipodi:role="line"
         id="tspan4148"
         x="418.35889"
         y="131.79791">Pulse-oximeter</tspan></text>
  </g>
</svg>
